<svg width="42" height="42" viewBox="0 0 42 42" fill="none" xmlns="http://www.w3.org/2000/svg">
<circle cx="21" cy="21" r="21" fill="#39B0FF"/>
<path d="M28.6514 15.426C27.7714 14.5064 26.5639 14 25.251 14C24.2697 14 23.371 14.2989 22.5799 14.8883C22.1807 15.1858 21.8189 15.5498 21.5 15.9747C21.1812 15.55 20.8193 15.1858 20.42 14.8883C19.629 14.2989 18.7303 14 17.749 14C16.4361 14 15.2285 14.5064 14.3485 15.426C13.479 16.3348 13 17.5764 13 18.9222C13 20.3073 13.5358 21.5752 14.6861 22.9125C15.7151 24.1087 17.1941 25.3231 18.9068 26.7292C19.4916 27.2094 20.1545 27.7537 20.8428 28.3335C21.0247 28.487 21.258 28.5714 21.5 28.5714C21.7419 28.5714 21.9753 28.487 22.1569 28.3338C22.8452 27.7538 23.5085 27.2093 24.0936 26.7288C25.806 25.3229 27.285 24.1087 28.314 22.9124C29.4643 21.5752 30 20.3073 30 18.922C30 17.5764 29.521 16.3348 28.6514 15.426Z" fill="white"/>
</svg>
