<svg width="42" height="42" viewBox="0 0 42 42" fill="none" xmlns="http://www.w3.org/2000/svg">
<circle cx="21" cy="21" r="21" fill="#39B0FF"/>
<path d="M20.0489 12.927C20.3483 12.0057 21.6517 12.0057 21.9511 12.9271L23.2451 16.9098C23.379 17.3219 23.763 17.6008 24.1962 17.6008H28.3839C29.3527 17.6008 29.7554 18.8404 28.9717 19.4098L25.5838 21.8713C25.2333 22.126 25.0866 22.5773 25.2205 22.9894L26.5146 26.9721C26.8139 27.8934 25.7595 28.6596 24.9757 28.0902L21.5878 25.6287C21.2373 25.374 20.7627 25.374 20.4122 25.6287L17.0243 28.0902C16.2405 28.6596 15.1861 27.8934 15.4854 26.9721L16.7795 22.9894C16.9134 22.5773 16.7667 22.126 16.4162 21.8713L13.0283 19.4098C12.2446 18.8404 12.6473 17.6008 13.6161 17.6008H17.8038C18.237 17.6008 18.621 17.3219 18.7549 16.9098L20.0489 12.927Z" fill="white"/>
</svg>
