<svg width="42" height="42" viewBox="0 0 42 42" fill="none" xmlns="http://www.w3.org/2000/svg">
<circle cx="21" cy="21" r="21" fill="#39B0FF"/>
<path d="M27.5579 24.7295H15.4417C15.2566 24.7295 15.0837 24.6381 14.9794 24.4851C13.3808 22.1409 13.2582 17.6313 13.2489 16.9619C13.2483 16.9357 13.248 16.9092 13.248 16.8828C13.248 16.5742 13.498 16.3238 13.8066 16.3232H13.8077C14.1158 16.3232 14.3661 16.5724 14.3673 16.8806C14.3673 16.8844 14.3674 16.9174 14.3687 16.976C14.418 18.5681 15.7286 19.8479 17.3324 19.8479C18.9674 19.8479 20.2975 18.5178 20.2975 16.8828C20.2975 16.5737 20.5482 16.3232 20.8571 16.3232H22.1424C22.4515 16.3232 22.702 16.5737 22.702 16.8828C22.702 18.5178 24.0322 19.8479 25.6672 19.8479C27.2725 19.8479 28.5839 18.5657 28.631 16.9716C28.6321 16.9157 28.6323 16.8844 28.6323 16.8808C28.6335 16.5724 28.8837 16.3232 29.1919 16.3232H29.1929C29.5015 16.3238 29.7514 16.5742 29.7514 16.8828C29.7514 16.9093 29.7511 16.9357 29.7507 16.9621C29.7413 17.6313 29.6186 22.141 28.0202 24.4853C27.916 24.6381 27.7429 24.7295 27.5579 24.7295Z" fill="white"/>
<path d="M29.1929 16.3232C29.1927 16.3232 29.1924 16.3232 29.1919 16.3232C28.8839 16.3232 28.6336 16.5724 28.6324 16.8806C28.6324 16.8844 28.6322 16.9157 28.6311 16.9716C28.584 18.5656 27.2725 19.8479 25.6673 19.8479C24.0323 19.8479 22.7021 18.5178 22.7021 16.8828C22.7021 16.5737 22.4515 16.3232 22.1426 16.3232H21.5V24.7294H27.558C27.7431 24.7294 27.916 24.6379 28.0202 24.4851C29.6188 22.1409 29.7415 17.6312 29.7507 16.9619C29.7513 16.9357 29.7516 16.9092 29.7516 16.8828C29.7515 16.5742 29.5016 16.3238 29.1929 16.3232Z" fill="white"/>
<path d="M21.4998 14.4141C20.5029 14.4141 19.6919 15.2251 19.6919 16.222C19.6919 17.2189 20.5029 18.0298 21.4998 18.0298C22.4967 18.0298 23.3077 17.2189 23.3077 16.222C23.3077 15.2251 22.4967 14.4141 21.4998 14.4141Z" fill="white"/>
<path d="M21.5 14.4141V18.0299C22.4969 18.0298 23.3078 17.2189 23.3078 16.222C23.3078 15.2251 22.4967 14.4142 21.5 14.4141Z" fill="white"/>
<path d="M13.8079 15.8093C12.811 15.8093 12 16.6204 12 17.6172C12 18.6141 12.811 19.4252 13.8079 19.4252C14.8048 19.4252 15.6157 18.6141 15.6157 17.6172C15.6157 16.6204 14.8048 15.8093 13.8079 15.8093Z" fill="white"/>
<path d="M29.1921 15.8093C28.1952 15.8093 27.3843 16.6204 27.3843 17.6172C27.3843 18.614 28.1952 19.425 29.1921 19.425C30.1889 19.425 31 18.614 31 17.6172C31 16.6204 30.1889 15.8093 29.1921 15.8093Z" fill="white"/>
<path d="M27.5581 26.5651H15.4419C15.1328 26.5651 14.8823 26.3146 14.8823 26.0055V24.3369H28.1176V26.0055C28.1176 26.3146 27.8671 26.5651 27.5581 26.5651Z" fill="white"/>
<path d="M21.5 26.5651H27.558C27.867 26.5651 28.1175 26.3146 28.1175 26.0055V24.3369H21.5V26.5651Z" fill="white"/>
</svg>
