<svg width="25" height="25" viewBox="0 0 25 25" fill="none" xmlns="http://www.w3.org/2000/svg">
<path d="M16.6582 1.20801C17.4367 1.28792 18.0498 1.95147 18.0498 2.75V3.61621C19.2142 3.83974 20.1656 4.3309 20.875 5.08398C21.7214 5.98257 22.1472 7.17147 22.2578 8.49316H22.2559C22.3291 9.27964 21.6763 9.88965 20.96 9.88965H4.04004C3.31954 9.88954 2.68875 9.27977 2.74219 8.50488L2.74316 8.49316L2.76758 8.24707C2.90853 7.02419 3.33157 5.9264 4.125 5.08398C4.8343 4.33099 5.78597 3.83978 6.9502 3.61621V2.75C6.9502 1.89825 7.64828 1.20032 8.5 1.2002L8.6582 1.20801C9.4367 1.28792 10.0498 1.95147 10.0498 2.75V3.4502H14.9502V2.75C14.9502 1.89825 15.6483 1.20032 16.5 1.2002L16.6582 1.20801Z" fill="white" stroke="#707B81" stroke-width="1.6"/>
<path d="M20.5 9.79028C21.4918 9.79028 22.2998 10.5983 22.2998 11.5901V17.7502C22.2998 19.3728 21.8941 20.8469 20.8984 21.9192C19.8927 23.0022 18.4025 23.55 16.5 23.55H8.5C6.59753 23.55 5.10725 23.0022 4.10156 21.9192C3.10587 20.8469 2.70022 19.3728 2.7002 17.7502V11.5901C2.7002 10.5983 3.50817 9.79028 4.5 9.79028H20.5ZM8.92773 18.0686C8.90243 18.0791 8.87749 18.0937 8.85156 18.1135C8.81633 18.1606 8.7998 18.2145 8.7998 18.2502C8.79985 18.2862 8.817 18.3398 8.85254 18.387C8.87819 18.4065 8.90268 18.4214 8.92773 18.4319C8.96583 18.4477 8.99137 18.4504 9 18.4504C9.00863 18.4504 9.03417 18.4477 9.07227 18.4319C9.09712 18.4215 9.12105 18.4062 9.14648 18.387C9.18227 18.3397 9.20015 18.2863 9.2002 18.2502C9.2002 18.2143 9.18294 18.1607 9.14746 18.1135C9.13901 18.1071 9.13138 18.1003 9.12305 18.095L9.07227 18.0686C9.05073 18.0596 9.02538 18.0549 9 18.0549L8.92773 18.0686ZM8.92773 14.5686C8.90463 14.5782 8.88197 14.5914 8.8584 14.6086C8.84125 14.6322 8.82796 14.6549 8.81836 14.678C8.80253 14.716 8.7998 14.7416 8.7998 14.7502C8.79984 14.759 8.80255 14.7846 8.81836 14.8225C8.8279 14.8454 8.84143 14.8675 8.8584 14.8909C8.88208 14.9082 8.90452 14.9222 8.92773 14.9319C8.96583 14.9477 8.99137 14.9504 9 14.9504C9.00863 14.9504 9.03417 14.9477 9.07227 14.9319C9.09527 14.9223 9.11717 14.908 9.14062 14.8909C9.15777 14.8674 9.17203 14.8456 9.18164 14.8225C9.19745 14.7846 9.20016 14.759 9.2002 14.7502C9.2002 14.7416 9.19747 14.716 9.18164 14.678C9.17197 14.6548 9.15794 14.6323 9.14062 14.6086C9.11728 14.5917 9.09516 14.5781 9.07227 14.5686C9.0292 14.5507 8.9708 14.5507 8.92773 14.5686ZM12.4531 14.5569L12.4277 14.5686C12.4024 14.5791 12.3775 14.5937 12.3516 14.6135C12.3163 14.6606 12.2998 14.7145 12.2998 14.7502C12.2999 14.7862 12.317 14.8398 12.3525 14.887C12.3782 14.9065 12.4027 14.9214 12.4277 14.9319C12.4658 14.9477 12.4914 14.9504 12.5 14.9504C12.5086 14.9504 12.5342 14.9477 12.5723 14.9319C12.5971 14.9215 12.621 14.9062 12.6465 14.887C12.6823 14.8397 12.7001 14.7863 12.7002 14.7502C12.7002 14.7143 12.6829 14.6607 12.6475 14.6135C12.6218 14.594 12.5974 14.5791 12.5723 14.5686L12.5469 14.5569C12.5185 14.5439 12.4815 14.5439 12.4531 14.5569Z" fill="white" stroke="#707B81" stroke-width="1.6"/>
</svg>
