<svg width="24" height="24" viewBox="0 0 24 24" fill="none" xmlns="http://www.w3.org/2000/svg">
<path d="M14.2 23.0001H9.8C5.65164 23.0001 3.57747 23.0001 2.28873 21.6783C1 20.3566 1 18.2291 1 13.9744V11.718C1 7.46329 1 5.33594 2.28873 4.01415C3.57747 2.69238 5.65164 2.69238 9.8 2.69238H14.2C18.3483 2.69238 20.4226 2.69238 21.7112 4.01415C23 5.33594 23 7.46329 23 11.718V13.9744C23 18.2291 23 20.3566 21.7112 21.6783C20.9927 22.4152 20.0301 22.7413 18.6 22.8856" stroke="#707B81" stroke-linecap="round"/>
<path d="M6.5 2.69231V1" stroke="#707B81" stroke-linecap="round"/>
<path d="M17.5 2.69231V1" stroke="#707B81" stroke-linecap="round"/>
<path d="M22.45 8.33325H17.0875H10.625M1 8.33325H5.2625" stroke="#707B81" stroke-linecap="round"/>
</svg>
