<svg width="20" height="20" viewBox="0 0 20 20" fill="none" xmlns="http://www.w3.org/2000/svg">
<path d="M14.8108 15.0781C15.2597 14.7403 15.7287 14.2713 16.6667 13.3333C17.1357 12.8643 17.3702 12.6298 17.5391 12.4054C18.6112 10.981 18.6112 9.01901 17.5391 7.59458C17.3702 7.37018 17.1357 7.13568 16.6667 6.66668L16.6667 6.66667C15.7287 5.72866 15.2597 5.25965 14.8108 4.92185C11.962 2.77766 8.03801 2.77766 5.18916 4.92185C4.74035 5.25965 4.27134 5.72866 3.33333 6.66667C2.86433 7.13567 2.62982 7.37017 2.46092 7.59458C1.38883 9.01901 1.38883 10.981 2.46092 12.4054C2.62982 12.6298 2.86433 12.8643 3.33333 13.3333L3.33334 13.3333C4.27135 14.2713 4.74035 14.7404 5.18916 15.0781C8.03801 17.2223 11.962 17.2223 14.8108 15.0781Z" stroke="#B2BCC9" stroke-width="1.5" stroke-linecap="round" stroke-linejoin="round"/>
<rect x="7" y="7" width="6" height="6" rx="2.5" stroke="#B2BCC9" stroke-width="1.5" stroke-linecap="round" stroke-linejoin="round"/>
</svg>
