<svg width="24" height="25" viewBox="0 0 24 25" fill="none" xmlns="http://www.w3.org/2000/svg">
<mask id="path-1-inside-1_3332_1007" fill="white">
<path d="M17.79 23.5H6.21C3.47 23.5 1.25 21.27 1.25 18.53V11.12C1.25 9.75997 2.09 8.04997 3.17 7.20997L8.56 3.00997C10.18 1.74997 12.77 1.68997 14.45 2.86997L20.63 7.19997C21.82 8.02997 22.75 9.80997 22.75 11.26V18.54C22.75 21.27 20.53 23.5 17.79 23.5ZM9.48 4.18997L4.09 8.38997C3.38 8.94997 2.75 10.22 2.75 11.12V18.53C2.75 20.44 4.3 22 6.21 22H17.79C19.7 22 21.25 20.45 21.25 18.54V11.26C21.25 10.3 20.56 8.96997 19.77 8.42997L13.59 4.09997C12.45 3.29997 10.57 3.33997 9.48 4.18997Z"/>
</mask>
<path d="M17.79 23.5H6.21C3.47 23.5 1.25 21.27 1.25 18.53V11.12C1.25 9.75997 2.09 8.04997 3.17 7.20997L8.56 3.00997C10.18 1.74997 12.77 1.68997 14.45 2.86997L20.63 7.19997C21.82 8.02997 22.75 9.80997 22.75 11.26V18.54C22.75 21.27 20.53 23.5 17.79 23.5ZM9.48 4.18997L4.09 8.38997C3.38 8.94997 2.75 10.22 2.75 11.12V18.53C2.75 20.44 4.3 22 6.21 22H17.79C19.7 22 21.25 20.45 21.25 18.54V11.26C21.25 10.3 20.56 8.96997 19.77 8.42997L13.59 4.09997C12.45 3.29997 10.57 3.33997 9.48 4.18997Z" fill="#18A0FB"/>
<path d="M3.17 7.20997L4.39788 8.78868L4.3993 8.78757L3.17 7.20997ZM8.56 3.00997L7.33212 1.43127L7.3307 1.43237L8.56 3.00997ZM14.45 2.86997L13.3005 4.50661L13.3024 4.50794L14.45 2.86997ZM20.63 7.19997L19.4824 8.83794L19.4859 8.84038L20.63 7.19997ZM9.48 4.18997L10.7093 5.76757L10.7099 5.76712L9.48 4.18997ZM4.09 8.38997L2.86068 6.81235L2.85143 6.81964L4.09 8.38997ZM19.77 8.42997L18.6224 10.0679L18.6318 10.0746L18.6414 10.0811L19.77 8.42997ZM13.59 4.09997L12.4411 5.73709L12.4424 5.73794L13.59 4.09997ZM17.79 21.5H6.21V25.5H17.79V21.5ZM6.21 21.5C4.57981 21.5 3.25 20.1707 3.25 18.53H-0.75C-0.75 22.3693 2.36019 25.5 6.21 25.5V21.5ZM3.25 18.53V11.12H-0.75V18.53H3.25ZM3.25 11.12C3.25 10.8181 3.35387 10.3532 3.6002 9.8516C3.84621 9.35066 4.15277 8.97932 4.39788 8.78868L1.94212 5.63127C1.10723 6.28063 0.453788 7.18429 0.0098027 8.08835C-0.433866 8.99176 -0.75 10.0618 -0.75 11.12H3.25ZM4.3993 8.78757L9.7893 4.58757L7.3307 1.43237L1.9407 5.63237L4.3993 8.78757ZM9.78788 4.58868C10.7122 3.8698 12.3375 3.83022 13.3005 4.50661L15.5995 1.23334C13.2025 -0.450276 9.64784 -0.369848 7.33212 1.43127L9.78788 4.58868ZM13.3024 4.50794L19.4824 8.83794L21.7776 5.56201L15.5976 1.23201L13.3024 4.50794ZM19.4859 8.84038C19.7572 9.02965 20.0935 9.40634 20.3635 9.92333C20.6335 10.4404 20.75 10.9307 20.75 11.26H24.75C24.75 10.1393 24.4015 9.01451 23.909 8.07162C23.4165 7.12861 22.6928 6.20029 21.7741 5.55957L19.4859 8.84038ZM20.75 11.26V18.54H24.75V11.26H20.75ZM20.75 18.54C20.75 20.168 19.4228 21.5 17.79 21.5V25.5C21.6372 25.5 24.75 22.3719 24.75 18.54H20.75ZM8.2507 2.61237L2.8607 6.81237L5.3193 9.96757L10.7093 5.76757L8.2507 2.61237ZM2.85143 6.81964C2.1898 7.34149 1.68946 8.07395 1.35955 8.74383C1.03086 9.41122 0.75 10.2628 0.75 11.12H4.75C4.75 11.1224 4.74993 11.1059 4.75556 11.069C4.7611 11.0327 4.77102 10.9841 4.78755 10.9242C4.82121 10.8022 4.87509 10.6591 4.94795 10.5111C5.11054 10.181 5.2802 9.99846 5.32857 9.96031L2.85143 6.81964ZM0.75 11.12V18.53H4.75V11.12H0.75ZM0.75 18.53C0.75 21.537 3.18793 24 6.21 24V20C5.41207 20 4.75 19.3429 4.75 18.53H0.75ZM6.21 24H17.79V20H6.21V24ZM17.79 24C20.8046 24 23.25 21.5545 23.25 18.54H19.25C19.25 19.3454 18.5954 20 17.79 20V24ZM23.25 18.54V11.26H19.25V18.54H23.25ZM23.25 11.26C23.25 10.3585 22.9457 9.46458 22.5795 8.76249C22.2142 8.06223 21.6523 7.294 20.8986 6.77885L18.6414 10.0811C18.6396 10.0799 18.6538 10.0895 18.6815 10.1159C18.7088 10.1419 18.7439 10.179 18.7844 10.2287C18.8669 10.3299 18.9542 10.4615 19.033 10.6125C19.1117 10.7634 19.1705 10.912 19.2076 11.041C19.2462 11.1753 19.25 11.249 19.25 11.26H23.25ZM20.9176 6.79201L14.7376 2.46201L12.4424 5.73794L18.6224 10.0679L20.9176 6.79201ZM14.7389 2.46286C13.7515 1.77 12.5552 1.50321 11.4729 1.52669C10.3916 1.55016 9.2048 1.86835 8.25012 2.61283L10.7099 5.76712C10.8452 5.6616 11.1434 5.53479 11.5596 5.52575C11.9748 5.51674 12.2885 5.62995 12.4411 5.73709L14.7389 2.46286Z" fill="#18A0FB" mask="url(#path-1-inside-1_3332_1007)"/>
<path d="M12 15.5C12.1339 15.5 12.25 15.6161 12.25 15.75V18.75C12.25 18.8839 12.1339 19 12 19C11.8661 19 11.75 18.8839 11.75 18.75V15.75C11.75 15.6161 11.8661 15.5 12 15.5Z" fill="#18A0FB" stroke="#18A0FB"/>
</svg>
