<svg width="19" height="23" viewBox="0 0 19 23" fill="none" xmlns="http://www.w3.org/2000/svg">
<path d="M15.7395 8.72519L14.895 8.82104L15.7395 8.72519ZM16.1867 12.6653L17.0313 12.5694V12.5694L16.1867 12.6653ZM2.81328 12.6653L1.9687 12.5694L2.81328 12.6653ZM3.26046 8.72519L4.10504 8.82104L3.26046 8.72519ZM1.94779 14.6221L1.30053 14.0712H1.30053L1.94779 14.6221ZM17.0522 14.6221L16.405 15.1731V15.1731L17.0522 14.6221ZM11.7699 4.12366H10.9199C10.9199 4.48699 11.1509 4.81014 11.4946 4.92783L11.7699 4.12366ZM7.23005 4.12366L7.50539 4.92783C7.84913 4.81014 8.08005 4.48699 8.08005 4.12366H7.23005ZM13.2959 20.0483C13.4607 19.6087 13.2379 19.1188 12.7983 18.9541C12.3587 18.7893 11.8688 19.0121 11.7041 19.4517L13.2959 20.0483ZM7.29594 19.4517C7.13119 19.0121 6.64129 18.7893 6.2017 18.9541C5.76212 19.1188 5.53932 19.6087 5.70406 20.0483L7.29594 19.4517ZM15.2772 16.9H3.72281V18.6H15.2772V16.9ZM14.895 8.82104L15.3421 12.7611L17.0313 12.5694L16.5841 8.62933L14.895 8.82104ZM3.65785 12.7611L4.10504 8.82104L2.41589 8.62933L1.9687 12.5694L3.65785 12.7611ZM2.59504 15.1731C3.18458 14.4805 3.55729 13.6472 3.65785 12.7611L1.9687 12.5694C1.90819 13.1026 1.68231 13.6227 1.30053 14.0712L2.59504 15.1731ZM15.3421 12.7611C15.4427 13.6472 15.8154 14.4805 16.405 15.1731L17.6995 14.0712C17.3177 13.6227 17.0918 13.1026 17.0313 12.5694L15.3421 12.7611ZM3.72281 16.9C3.10233 16.9 2.67293 16.5942 2.47753 16.2498C2.29052 15.9203 2.29219 15.5289 2.59504 15.1731L1.30053 14.0712C0.506358 15.0041 0.481352 16.1767 0.999013 17.0889C1.50829 17.9863 2.51492 18.6 3.72281 18.6V16.9ZM15.2772 18.6C16.4851 18.6 17.4917 17.9863 18.001 17.0889C18.5187 16.1767 18.4936 15.0041 17.6995 14.0712L16.405 15.1731C16.7078 15.5289 16.7095 15.9203 16.5225 16.2498C16.3271 16.5942 15.8977 16.9 15.2772 16.9V18.6ZM12.6199 4.12366V4.01995H10.9199V4.12366H12.6199ZM16.5841 8.62933C16.2998 6.12421 14.443 4.14044 12.0453 3.31949L11.4946 4.92783C13.3817 5.57395 14.697 7.07706 14.895 8.82104L16.5841 8.62933ZM8.08005 4.12366V4.01995H6.38005V4.12366H8.08005ZM4.10504 8.82104C4.30298 7.07706 5.6183 5.57395 7.50539 4.92783L6.95472 3.31949C4.55701 4.14044 2.70021 6.12421 2.41589 8.62933L4.10504 8.82104ZM9.5 2.6C10.2842 2.6 10.9199 3.23573 10.9199 4.01995H12.6199C12.6199 2.29685 11.2231 0.9 9.5 0.9V2.6ZM9.5 0.9C7.7769 0.9 6.38005 2.29685 6.38005 4.01995H8.08005C8.08005 3.23573 8.71579 2.6 9.5 2.6V0.9ZM11.7041 19.4517C11.3965 20.2723 10.5445 20.9 9.5 20.9V22.6C11.2255 22.6 12.7301 21.5581 13.2959 20.0483L11.7041 19.4517ZM9.5 20.9C8.45548 20.9 7.60346 20.2723 7.29594 19.4517L5.70406 20.0483C6.26991 21.5581 7.77446 22.6 9.5 22.6V20.9Z" fill="#707B81"/>
</svg>
