<svg width="24" height="24" viewBox="0 0 24 24" fill="none" xmlns="http://www.w3.org/2000/svg">
<path fill-rule="evenodd" clip-rule="evenodd" d="M10.8197 1.73858C11.0462 1.28633 11.5146 1 12.0274 1C12.5398 1 13.0082 1.28633 13.2352 1.73858L15.7351 6.58252C15.9215 6.9492 16.2687 7.21187 16.6767 7.29569L21.9122 8.32839C22.3917 8.43976 22.7771 8.78874 22.9302 9.24929C23.0832 9.70974 22.9809 10.2154 22.6607 10.5836L18.9226 14.7514C18.659 15.0478 18.5358 15.44 18.5837 15.8304L19.2756 21.4709C19.3457 21.9641 19.1327 22.455 18.7218 22.7462C18.3113 23.0375 17.7705 23.0815 17.317 22.8602L12.6088 20.5077C12.2274 20.3155 11.7754 20.3155 11.3939 20.5077L6.6857 22.8602C6.23227 23.0815 5.69143 23.0375 5.28097 22.7462C4.87003 22.455 4.65708 21.9641 4.7271 21.4709L5.41956 15.8443C5.46689 15.4539 5.34375 15.0617 5.08057 14.7653L1.34203 10.5975C1.01425 10.2228 0.913371 9.70557 1.07722 9.23817C1.24106 8.77096 1.64485 8.42452 2.13774 8.32839L7.37334 7.29106C7.78138 7.20724 8.1281 6.94457 8.31498 6.5779L10.8197 1.73858Z" stroke="#707B81" stroke-linecap="round" stroke-linejoin="round"/>
</svg>
