<svg width="25" height="25" viewBox="0 0 25 25" fill="none" xmlns="http://www.w3.org/2000/svg">
<path d="M12.6596 13.37C12.6296 13.37 12.6096 13.37 12.5796 13.37C12.5296 13.36 12.4596 13.36 12.3996 13.37C9.49957 13.28 7.30957 11 7.30957 8.19C7.30957 5.33 9.63957 3 12.4996 3C15.3596 3 17.6896 5.33 17.6896 8.19C17.6796 11 15.4796 13.28 12.6896 13.37C12.6796 13.37 12.6696 13.37 12.6596 13.37ZM12.4996 4.5C10.4696 4.5 8.80957 6.16 8.80957 8.19C8.80957 10.19 10.3696 11.8 12.3596 11.87C12.4096 11.86 12.5496 11.86 12.6796 11.87C14.6396 11.78 16.1796 10.17 16.1896 8.19C16.1896 6.16 14.5296 4.5 12.4996 4.5Z" fill="#707B81"/>
<path d="M12.6696 24.3C10.7096 24.3 8.73961 23.8 7.24961 22.8C5.85961 21.88 5.09961 20.62 5.09961 19.25C5.09961 17.88 5.85961 16.61 7.24961 15.68C10.2496 13.69 15.1096 13.69 18.0896 15.68C19.4696 16.6 20.2396 17.86 20.2396 19.23C20.2396 20.6 19.4796 21.87 18.0896 22.8C16.5896 23.8 14.6296 24.3 12.6696 24.3ZM8.07961 16.94C7.11961 17.58 6.59961 18.4 6.59961 19.26C6.59961 20.11 7.12961 20.93 8.07961 21.56C10.5696 23.23 14.7696 23.23 17.2596 21.56C18.2196 20.92 18.7396 20.1 18.7396 19.24C18.7396 18.39 18.2096 17.57 17.2596 16.94C14.7696 15.28 10.5696 15.28 8.07961 16.94Z" fill="#707B81"/>
</svg>
