<svg width="500" height="377" viewBox="0 0 500 377" fill="none" xmlns="http://www.w3.org/2000/svg">
<path d="M449.901 351.243H416.779V351.493H449.901V351.243Z" fill="#EBEBEB"/>
<path d="M331.22 353.957H322.527V354.207H331.22V353.957Z" fill="#EBEBEB"/>
<path d="M415.778 341.957H396.586V342.207H415.778V341.957Z" fill="#EBEBEB"/>
<path d="M95.652 343.637H52.459V343.887H95.652V343.637Z" fill="#EBEBEB"/>
<path d="M110.89 343.637H104.557V343.887H110.89V343.637Z" fill="#EBEBEB"/>
<path d="M225.147 347.86H131.471V348.11H225.147V347.86Z" fill="#EBEBEB"/>
<path d="M237.014 290.549H43.915C40.768 290.549 38.207 287.988 38.207 284.841V13.409C38.207 10.262 40.768 7.70105 43.915 7.70105H237.014C240.16 7.70105 242.721 10.262 242.721 13.409V284.841C242.721 287.988 240.16 290.549 237.014 290.549ZM43.915 7.95205C40.905 7.95205 38.457 10.4 38.457 13.41V284.842C38.457 287.852 40.905 290.3 43.915 290.3H237.014C240.023 290.3 242.471 287.852 242.471 284.842V13.409C242.471 10.4 240.023 7.95105 237.014 7.95105L43.915 7.95205Z" fill="#EBEBEB"/>
<path d="M453.311 290.549H260.213C257.066 290.549 254.506 287.988 254.506 284.841V13.409C254.506 10.262 257.067 7.70105 260.213 7.70105H453.311C456.459 7.70105 459.019 10.262 459.019 13.409V284.841C459.02 287.988 456.459 290.549 453.311 290.549ZM260.213 7.95205C257.204 7.95205 254.756 10.4 254.756 13.41V284.842C254.756 287.852 257.204 290.3 260.213 290.3H453.311C456.321 290.3 458.769 287.852 458.769 284.842V13.409C458.769 10.4 456.321 7.95105 453.311 7.95105L260.213 7.95205Z" fill="#EBEBEB"/>
<path d="M500 335.147H0V335.397H500V335.147Z" fill="#EBEBEB"/>
<path d="M83.1179 280.995C83.1179 280.995 78.4649 228.705 54.1719 178.488C54.1719 178.488 90.0349 211.963 91.2919 280.995H83.1179Z" fill="#F5F5F5"/>
<path d="M112.445 285.082C112.445 285.082 117.098 232.792 141.391 182.575C141.391 182.575 105.528 216.05 104.271 285.082H112.445Z" fill="#F5F5F5"/>
<path d="M88.7766 289.091C88.7766 289.091 69.2626 198.058 72.7316 149.854C72.7316 149.854 98.8376 203.516 97.5796 284.632L88.7766 289.091Z" fill="#E6E6E6"/>
<path d="M103.193 283.344C103.193 283.344 105.053 223.915 114.594 194.563C114.594 194.563 122.551 231.834 109.334 281.929L103.193 283.344Z" fill="#F0F0F0"/>
<path d="M97.58 284.632C97.58 284.632 91.292 205.384 108.898 169.866C108.898 169.866 110.784 241.873 106.383 284.632H97.58Z" fill="#F5F5F5"/>
<path d="M117.683 335.313H77.8824L72.1895 276.582H123.375L117.683 335.313Z" fill="#F0F0F0"/>
<path d="M239.006 335.313H235.006L234.006 227.239H240.006L239.006 335.313Z" fill="#EBEBEB"/>
<path d="M398.123 335.313H394.123L393.123 227.239H399.123L398.123 335.313Z" fill="#EBEBEB"/>
<path d="M411.263 229.788H221.867C219.052 229.788 216.771 227.506 216.771 224.692H416.359C416.359 227.506 414.077 229.788 411.263 229.788Z" fill="#F0F0F0"/>
<path d="M333.517 318.836V268.578H323.135V318.836L292.291 321.404V326.404L328.326 324.404L364.361 326.404V321.404L333.517 318.836Z" fill="#EBEBEB"/>
<path d="M296.414 331.191C296.414 333.468 294.568 335.313 292.292 335.313C290.015 335.313 288.17 333.467 288.17 331.191C288.17 328.914 290.016 327.069 292.292 327.069C294.568 327.068 296.414 328.914 296.414 331.191Z" fill="#E0E0E0"/>
<path d="M368.484 331.191C368.484 333.468 366.638 335.313 364.362 335.313C362.085 335.313 360.24 333.467 360.24 331.191C360.24 328.914 362.086 327.069 364.362 327.069C366.638 327.068 368.484 328.914 368.484 331.191Z" fill="#E0E0E0"/>
<path d="M332.449 331.191C332.449 333.468 330.603 335.313 328.327 335.313C326.051 335.313 324.205 333.467 324.205 331.191C324.205 328.914 326.051 327.069 328.327 327.069C330.603 327.069 332.449 328.914 332.449 331.191Z" fill="#E0E0E0"/>
<path d="M299.37 264.45L297.526 204.534C297.439 201.706 295.121 199.458 292.291 199.458V266.29C292.291 269.183 294.636 271.528 297.529 271.528H364.361C364.361 268.698 362.113 266.381 359.285 266.294L299.37 264.45Z" fill="#E6E6E6"/>
<path d="M344.145 209.759C344.119 208.223 342.866 206.986 341.33 206.986H324.538C323.001 206.986 321.748 208.223 321.723 209.759C321.722 209.83 321.721 209.896 321.72 209.966C321.104 209.769 320.47 209.657 319.85 209.657C317.096 209.657 315.246 211.807 315.246 215.008C315.246 218.07 318.465 220.359 321.343 220.359C321.646 220.359 321.932 220.323 322.211 220.272C322.888 222.351 324.126 224.176 325.755 225.56H340.114C342.633 223.421 344.237 220.239 344.237 216.674C344.235 215.564 344.198 212.96 344.145 209.759ZM321.341 218.565C319.391 218.565 317.037 216.978 317.037 215.007C317.037 214.173 317.24 211.449 319.848 211.449C320.45 211.449 321.089 211.601 321.687 211.868C321.653 214.079 321.631 215.82 321.631 216.673C321.631 217.309 321.699 217.927 321.797 218.535C321.654 218.555 321.503 218.565 321.341 218.565Z" fill="#F5F5F5"/>
<path d="M245.178 376.463C352.26 376.463 439.067 371.394 439.067 365.14C439.067 358.886 352.26 353.817 245.178 353.817C138.096 353.817 51.2891 358.886 51.2891 365.14C51.2891 371.394 138.096 376.463 245.178 376.463Z" fill="#F5F5F5"/>
<path d="M259.834 302.645C253.723 302.645 247.579 302.234 241.572 301.422L241.673 300.678C257.269 302.786 273.508 302.131 288.859 298.754L289.02 299.486C279.496 301.582 269.677 302.645 259.834 302.645ZM229.832 299.305C225.318 298.283 220.811 297.012 216.434 295.53L216.674 294.819C221.026 296.294 225.508 297.557 229.997 298.573L229.832 299.305ZM300.545 296.407L300.319 295.692C307.841 293.32 315.204 290.255 322.204 286.584L322.553 287.248C315.514 290.94 308.109 294.022 300.545 296.407ZM205.312 291.2C198.051 287.997 191.027 284.122 184.434 279.683L184.853 279.06C191.409 283.475 198.394 287.329 205.614 290.514L205.312 291.2ZM332.861 281.245L332.456 280.614C336.32 278.13 340.102 275.414 343.697 272.541L344.165 273.127C340.55 276.016 336.747 278.747 332.861 281.245ZM174.838 272.593C162.386 262.515 151.913 250.447 143.71 236.726L144.354 236.341C152.512 249.987 162.927 261.988 175.31 272.01L174.838 272.593ZM353.15 265.277L352.633 264.734C364.17 253.727 373.572 240.917 380.579 226.658L381.252 226.988C374.206 241.327 364.751 254.209 353.15 265.277ZM138.047 226.228C136.032 222.063 134.214 217.748 132.644 213.403L133.349 213.147C134.911 217.469 136.719 221.76 138.721 225.902L138.047 226.228ZM386.034 216.055L385.334 215.785C388.173 208.42 390.369 200.753 391.862 192.997L392.598 193.14C391.097 200.938 388.889 208.647 386.034 216.055ZM129.092 202.014C127.073 194.357 125.722 186.452 125.079 178.519L125.826 178.458C126.466 186.346 127.809 194.207 129.818 201.822L129.092 202.014ZM394.333 181.337L393.587 181.261C394.052 176.7 394.288 172.051 394.288 167.441V167.161H395.038V167.441C395.038 172.076 394.801 176.751 394.333 181.337ZM125.383 166.603L124.633 166.598C124.731 150.521 127.624 134.805 133.232 119.883L133.934 120.147C128.358 134.985 125.481 150.615 125.383 166.603ZM393.748 155.309C392.328 139.434 388.146 124.107 381.318 109.754L381.996 109.432C388.862 123.866 393.067 139.279 394.495 155.243L393.748 155.309ZM138.599 109.234L137.923 108.909C139.926 104.744 142.172 100.635 144.596 96.694L145.235 97.087C142.824 101.005 140.591 105.092 138.599 109.234ZM375.754 99.279C371.75 92.484 367.112 85.996 361.97 79.995L362.539 79.507C367.71 85.541 372.374 92.065 376.4 98.898L375.754 99.279ZM151.893 87.262L151.291 86.815C156.028 80.448 161.361 74.458 167.144 69.01L167.659 69.556C161.908 74.974 156.603 80.931 151.893 87.262ZM353.861 71.333C350.572 68.116 347.082 65.034 343.485 62.172L343.952 61.585C347.568 64.463 351.078 67.562 354.385 70.797L353.861 71.333ZM176.644 61.807L176.179 61.218C188.776 51.284 202.865 43.747 218.054 38.817L218.286 39.53C203.181 44.433 189.171 51.928 176.644 61.807ZM333.884 55.198C320.582 46.405 305.989 40.114 290.512 36.503L290.683 35.773C306.247 39.405 320.921 45.731 334.298 54.573L333.884 55.198ZM229.721 36.372L229.554 35.641C234.053 34.612 238.665 33.805 243.262 33.243L243.353 33.987C238.782 34.545 234.196 35.348 229.721 36.372ZM278.851 34.322C272.599 33.437 266.2 32.987 259.834 32.987C259.821 32.987 259.807 32.987 259.794 32.987C258.26 32.987 256.708 33.013 255.179 33.066L255.154 32.316C256.705 32.263 258.25 32.229 259.835 32.237C266.236 32.237 272.67 32.689 278.957 33.579L278.851 34.322Z" fill="#407BFF"/>
<g opacity="0.4">
<path d="M259.834 302.645C253.723 302.645 247.579 302.234 241.572 301.422L241.673 300.678C257.269 302.786 273.508 302.131 288.859 298.754L289.02 299.486C279.496 301.582 269.677 302.645 259.834 302.645ZM229.832 299.305C225.318 298.283 220.811 297.012 216.434 295.53L216.674 294.819C221.026 296.294 225.508 297.557 229.997 298.573L229.832 299.305ZM300.545 296.407L300.319 295.692C307.841 293.32 315.204 290.255 322.204 286.584L322.553 287.248C315.514 290.94 308.109 294.022 300.545 296.407ZM205.312 291.2C198.051 287.997 191.027 284.122 184.434 279.683L184.853 279.06C191.409 283.475 198.394 287.329 205.614 290.514L205.312 291.2ZM332.861 281.245L332.456 280.614C336.32 278.13 340.102 275.414 343.697 272.541L344.165 273.127C340.55 276.016 336.747 278.747 332.861 281.245ZM174.838 272.593C162.386 262.515 151.913 250.447 143.71 236.726L144.354 236.341C152.512 249.987 162.927 261.988 175.31 272.01L174.838 272.593ZM353.15 265.277L352.633 264.734C364.17 253.727 373.572 240.917 380.579 226.658L381.252 226.988C374.206 241.327 364.751 254.209 353.15 265.277ZM138.047 226.228C136.032 222.063 134.214 217.748 132.644 213.403L133.349 213.147C134.911 217.469 136.719 221.76 138.721 225.902L138.047 226.228ZM386.034 216.055L385.334 215.785C388.173 208.42 390.369 200.753 391.862 192.997L392.598 193.14C391.097 200.938 388.889 208.647 386.034 216.055ZM129.092 202.014C127.073 194.357 125.722 186.452 125.079 178.519L125.826 178.458C126.466 186.346 127.809 194.207 129.818 201.822L129.092 202.014ZM394.333 181.337L393.587 181.261C394.052 176.7 394.288 172.051 394.288 167.441V167.161H395.038V167.441C395.038 172.076 394.801 176.751 394.333 181.337ZM125.383 166.603L124.633 166.598C124.731 150.521 127.624 134.805 133.232 119.883L133.934 120.147C128.358 134.985 125.481 150.615 125.383 166.603ZM393.748 155.309C392.328 139.434 388.146 124.107 381.318 109.754L381.996 109.432C388.862 123.866 393.067 139.279 394.495 155.243L393.748 155.309ZM138.599 109.234L137.923 108.909C139.926 104.744 142.172 100.635 144.596 96.694L145.235 97.087C142.824 101.005 140.591 105.092 138.599 109.234ZM375.754 99.279C371.75 92.484 367.112 85.996 361.97 79.995L362.539 79.507C367.71 85.541 372.374 92.065 376.4 98.898L375.754 99.279ZM151.893 87.262L151.291 86.815C156.028 80.448 161.361 74.458 167.144 69.01L167.659 69.556C161.908 74.974 156.603 80.931 151.893 87.262ZM353.861 71.333C350.572 68.116 347.082 65.034 343.485 62.172L343.952 61.585C347.568 64.463 351.078 67.562 354.385 70.797L353.861 71.333ZM176.644 61.807L176.179 61.218C188.776 51.284 202.865 43.747 218.054 38.817L218.286 39.53C203.181 44.433 189.171 51.928 176.644 61.807ZM333.884 55.198C320.582 46.405 305.989 40.114 290.512 36.503L290.683 35.773C306.247 39.405 320.921 45.731 334.298 54.573L333.884 55.198ZM229.721 36.372L229.554 35.641C234.053 34.612 238.665 33.805 243.262 33.243L243.353 33.987C238.782 34.545 234.196 35.348 229.721 36.372ZM278.851 34.322C272.599 33.437 266.2 32.987 259.834 32.987C259.821 32.987 259.807 32.987 259.794 32.987C258.26 32.987 256.708 33.013 255.179 33.066L255.154 32.316C256.705 32.263 258.25 32.229 259.835 32.237C266.236 32.237 272.67 32.689 278.957 33.579L278.851 34.322Z" fill="white"/>
</g>
<path d="M176.033 70.2011L94.5352 78.7648L101.923 149.077L183.422 140.513L176.033 70.2011Z" fill="#407BFF"/>
<path opacity="0.6" d="M176.033 70.2011L94.5352 78.7648L101.923 149.077L183.422 140.513L176.033 70.2011Z" fill="white"/>
<path d="M174.651 57.0458L93.1523 65.6095L94.5347 78.7648L176.033 70.2011L174.651 57.0458Z" fill="#407BFF"/>
<path d="M105.136 59.959C105.01 58.76 103.935 57.889 102.736 58.016C101.537 58.142 100.667 59.217 100.793 60.416C100.874 61.184 101.625 68.335 101.706 69.103C101.832 70.302 102.907 71.172 104.106 71.046C105.306 70.92 106.176 69.845 106.05 68.646C105.984 68.031 105.2 60.574 105.136 59.959Z" fill="#407BFF"/>
<path d="M120.822 58.31C120.696 57.111 119.622 56.24 118.422 56.366C117.223 56.492 116.353 57.567 116.479 58.766C116.56 59.534 117.311 66.685 117.392 67.453C117.518 68.652 118.593 69.523 119.792 69.396C120.992 69.27 121.862 68.195 121.735 66.996C121.671 66.382 120.887 58.925 120.822 58.31Z" fill="#407BFF"/>
<path d="M136.509 56.661C136.383 55.462 135.308 54.592 134.109 54.718C132.91 54.844 132.04 55.919 132.166 57.118C132.247 57.886 132.998 65.037 133.079 65.805C133.205 67.004 134.28 67.875 135.479 67.748C136.679 67.622 137.549 66.547 137.423 65.348C137.357 64.734 136.573 57.276 136.509 56.661Z" fill="#407BFF"/>
<path d="M152.195 55.013C152.069 53.814 150.994 52.943 149.795 53.069C148.596 53.195 147.726 54.27 147.852 55.469C147.933 56.237 148.684 63.388 148.765 64.156C148.891 65.355 149.966 66.225 151.165 66.099C152.365 65.973 153.235 64.898 153.109 63.699C153.044 63.085 152.26 55.627 152.195 55.013Z" fill="#407BFF"/>
<path d="M167.882 53.364C167.756 52.165 166.681 51.294 165.482 51.421C164.283 51.547 163.413 52.622 163.539 53.821C163.62 54.589 164.371 61.74 164.452 62.508C164.578 63.707 165.653 64.578 166.852 64.452C168.052 64.326 168.922 63.251 168.796 62.052C168.73 61.436 167.946 53.979 167.882 53.364Z" fill="#407BFF"/>
<g opacity="0.7">
<path d="M105.136 59.959C105.01 58.76 103.935 57.889 102.736 58.016C101.537 58.142 100.667 59.217 100.793 60.416C100.874 61.184 101.625 68.335 101.706 69.103C101.832 70.302 102.907 71.172 104.106 71.046C105.306 70.92 106.176 69.845 106.05 68.646C105.984 68.031 105.2 60.574 105.136 59.959Z" fill="white"/>
<path d="M120.822 58.31C120.696 57.111 119.622 56.24 118.422 56.366C117.223 56.492 116.353 57.567 116.479 58.766C116.56 59.534 117.311 66.685 117.392 67.453C117.518 68.652 118.593 69.523 119.792 69.396C120.992 69.27 121.862 68.195 121.735 66.996C121.671 66.382 120.887 58.925 120.822 58.31Z" fill="white"/>
<path d="M136.509 56.661C136.383 55.462 135.308 54.592 134.109 54.718C132.91 54.844 132.04 55.919 132.166 57.118C132.247 57.886 132.998 65.037 133.079 65.805C133.205 67.004 134.28 67.875 135.479 67.748C136.679 67.622 137.549 66.547 137.423 65.348C137.357 64.734 136.573 57.276 136.509 56.661Z" fill="white"/>
<path d="M152.195 55.013C152.069 53.814 150.994 52.943 149.795 53.069C148.596 53.195 147.726 54.27 147.852 55.469C147.933 56.237 148.684 63.388 148.765 64.156C148.891 65.355 149.966 66.225 151.165 66.099C152.365 65.973 153.235 64.898 153.109 63.699C153.044 63.085 152.26 55.627 152.195 55.013Z" fill="white"/>
<path d="M167.882 53.364C167.756 52.165 166.681 51.294 165.482 51.421C164.283 51.547 163.413 52.622 163.539 53.821C163.62 54.589 164.371 61.74 164.452 62.508C164.578 63.707 165.653 64.578 166.852 64.452C168.052 64.326 168.922 63.251 168.796 62.052C168.73 61.436 167.946 53.979 167.882 53.364Z" fill="white"/>
</g>
<path d="M185.611 138.293L104.111 146.859L94.541 78.765L176.041 70.199L185.611 138.293Z" fill="#407BFF"/>
<path opacity="0.8" d="M185.611 138.293L104.111 146.859L94.541 78.765L176.041 70.199L185.611 138.293Z" fill="white"/>
<path d="M159.592 88.903L119.248 93.143L117.564 81.159L157.908 76.919L159.592 88.903Z" fill="#407BFF"/>
<path opacity="0.6" d="M159.592 88.903L119.248 93.143L117.564 81.159L157.908 76.919L159.592 88.903Z" fill="white"/>
<path d="M114.634 109.336L103.858 110.469L102.35 99.733L113.125 98.601L114.634 109.336Z" fill="white"/>
<path d="M129.92 107.73L119.144 108.862L117.635 98.126L128.411 96.994L129.92 107.73Z" fill="white"/>
<path d="M116.669 123.817L105.894 124.949L104.385 114.214L115.16 113.081L116.669 123.817Z" fill="#407BFF"/>
<path d="M118.704 138.298L107.929 139.43L106.42 128.694L117.195 127.562L118.704 138.298Z" fill="#407BFF"/>
<path d="M131.954 122.21L121.178 123.343L119.67 112.607L130.445 111.475L131.954 122.21Z" fill="#407BFF"/>
<path opacity="0.2" d="M131.954 122.21L121.178 123.343L119.67 112.607L130.445 111.475L131.954 122.21Z" fill="white"/>
<path d="M147.239 120.604L136.464 121.736L134.955 111L145.731 109.868L147.239 120.604Z" fill="#407BFF"/>
<path opacity="0.2" d="M147.239 120.604L136.464 121.736L134.955 111L145.731 109.868L147.239 120.604Z" fill="white"/>
<path d="M162.526 118.997L151.751 120.13L150.242 109.394L161.018 108.261L162.526 118.997Z" fill="#407BFF"/>
<path opacity="0.2" d="M162.526 118.997L151.751 120.13L150.242 109.394L161.018 108.261L162.526 118.997Z" fill="white"/>
<path d="M177.811 117.39L167.036 118.523L165.527 107.787L176.302 106.655L177.811 117.39Z" fill="#407BFF"/>
<path opacity="0.2" d="M177.811 117.39L167.036 118.523L165.527 107.787L176.302 106.655L177.811 117.39Z" fill="white"/>
<path d="M133.989 136.691L123.214 137.823L121.705 127.088L132.48 125.955L133.989 136.691Z" fill="#407BFF"/>
<path opacity="0.2" d="M133.989 136.691L123.214 137.823L121.705 127.088L132.48 125.955L133.989 136.691Z" fill="white"/>
<path d="M149.276 135.084L138.5 136.217L136.992 125.481L147.767 124.349L149.276 135.084Z" fill="#407BFF"/>
<path opacity="0.2" d="M149.276 135.084L138.5 136.217L136.992 125.481L147.767 124.349L149.276 135.084Z" fill="white"/>
<path d="M164.559 133.478L153.784 134.61L152.275 123.875L163.051 122.742L164.559 133.478Z" fill="#407BFF"/>
<path opacity="0.2" d="M164.559 133.478L153.784 134.61L152.275 123.875L163.051 122.742L164.559 133.478Z" fill="white"/>
<path d="M145.204 106.123L134.429 107.256L132.92 96.52L143.696 95.387L145.204 106.123Z" fill="#407BFF"/>
<path opacity="0.2" d="M145.204 106.123L134.429 107.256L132.92 96.52L143.696 95.387L145.204 106.123Z" fill="white"/>
<path d="M160.491 104.516L149.716 105.649L148.207 94.913L158.982 93.781L160.491 104.516Z" fill="#407BFF"/>
<path opacity="0.2" d="M160.491 104.516L149.716 105.649L148.207 94.913L158.982 93.781L160.491 104.516Z" fill="white"/>
<path d="M175.776 102.91L165.001 104.042L163.492 93.307L174.267 92.174L175.776 102.91Z" fill="#407BFF"/>
<path opacity="0.2" d="M175.776 102.91L165.001 104.042L163.492 93.307L174.267 92.174L175.776 102.91Z" fill="white"/>
<path d="M179.846 131.871L169.072 133.004L167.562 122.268L178.339 121.136L179.846 131.871Z" fill="white"/>
<path d="M208.115 31.728C208.369 32.783 207.719 33.845 206.664 34.098C205.609 34.352 204.548 33.702 204.294 32.647C204.234 32.4 203.994 31.4 203.705 30.2L193.724 32.6C194.02 33.831 194.264 34.848 194.313 35.047C194.567 36.102 193.917 37.164 192.862 37.417C191.807 37.671 190.746 37.021 190.492 35.966C190.432 35.719 190.192 34.719 189.903 33.519L179.923 35.919C180.219 37.15 180.464 38.167 180.512 38.366C180.766 39.421 180.116 40.483 179.06 40.736C178.005 40.99 176.943 40.34 176.69 39.285C176.63 39.038 176.39 38.038 176.101 36.838L166.121 39.238C166.417 40.469 166.662 41.486 166.71 41.685C166.964 42.74 166.314 43.802 165.259 44.055C164.204 44.309 163.142 43.659 162.889 42.604C162.83 42.357 162.589 41.357 162.3 40.157L152.319 42.557C152.615 43.788 152.859 44.805 152.908 45.004C153.162 46.059 152.512 47.121 151.457 47.374C150.402 47.628 149.341 46.978 149.087 45.923C149.028 45.676 148.787 44.676 148.498 43.476L142.158 45.001L157.87 110.333L229.58 93.088L213.868 27.756L207.528 29.281C207.822 30.512 208.067 31.529 208.115 31.728Z" fill="#407BFF"/>
<path opacity="0.8" d="M208.115 31.728C208.369 32.783 207.719 33.845 206.664 34.098C205.609 34.352 204.548 33.702 204.294 32.647C204.234 32.4 203.994 31.4 203.705 30.2L193.724 32.6C194.02 33.831 194.264 34.848 194.313 35.047C194.567 36.102 193.917 37.164 192.862 37.417C191.807 37.671 190.746 37.021 190.492 35.966C190.432 35.719 190.192 34.719 189.903 33.519L179.923 35.919C180.219 37.15 180.464 38.167 180.512 38.366C180.766 39.421 180.116 40.483 179.06 40.736C178.005 40.99 176.943 40.34 176.69 39.285C176.63 39.038 176.39 38.038 176.101 36.838L166.121 39.238C166.417 40.469 166.662 41.486 166.71 41.685C166.964 42.74 166.314 43.802 165.259 44.055C164.204 44.309 163.142 43.659 162.889 42.604C162.83 42.357 162.589 41.357 162.3 40.157L152.319 42.557C152.615 43.788 152.859 44.805 152.908 45.004C153.162 46.059 152.512 47.121 151.457 47.374C150.402 47.628 149.341 46.978 149.087 45.923C149.028 45.676 148.787 44.676 148.498 43.476L142.158 45.001L157.87 110.333L229.58 93.088L213.868 27.756L207.528 29.281C207.822 30.512 208.067 31.529 208.115 31.728Z" fill="white"/>
<path d="M199.587 41.128L164.088 49.664L166.633 60.2475L202.131 51.7115L199.587 41.128Z" fill="#407BFF"/>
<path opacity="0.6" d="M199.587 41.128L164.088 49.664L166.633 60.2475L202.131 51.7115L199.587 41.128Z" fill="white"/>
<path d="M161.663 65.8741L152.182 68.1539L154.461 77.6348L163.942 75.355L161.663 65.8741Z" fill="white"/>
<path d="M175.114 62.6389L165.633 64.9187L167.913 74.3996L177.393 72.1198L175.114 62.6389Z" fill="#407BFF"/>
<path d="M188.563 59.4052L179.082 61.685L181.362 71.1659L190.843 68.8861L188.563 59.4052Z" fill="#407BFF"/>
<path d="M202.014 56.1698L192.533 58.4496L194.813 67.9305L204.294 65.6507L202.014 56.1698Z" fill="#407BFF"/>
<path d="M215.463 52.9364L205.982 55.2162L208.262 64.6971L217.743 62.4173L215.463 52.9364Z" fill="#407BFF"/>
<path d="M164.739 78.6634L155.258 80.9432L157.538 90.4241L167.018 88.1443L164.739 78.6634Z" fill="#407BFF"/>
<path d="M178.188 75.4272L168.707 77.707L170.987 87.1879L180.468 84.9081L178.188 75.4272Z" fill="#407BFF"/>
<path d="M191.637 72.1955L182.156 74.4753L184.436 83.9562L193.917 81.6764L191.637 72.1955Z" fill="#407BFF"/>
<path d="M205.088 68.9581L195.607 71.2379L197.887 80.7188L207.368 78.439L205.088 68.9581Z" fill="#407BFF"/>
<path d="M218.538 65.7248L209.057 68.0046L211.336 77.4855L220.817 75.2057L218.538 65.7248Z" fill="#407BFF"/>
<path d="M167.815 91.4498L158.334 93.7296L160.614 103.211L170.095 100.931L167.815 91.4498Z" fill="#407BFF"/>
<path d="M181.264 88.2154L171.783 90.4952L174.063 99.9761L183.544 97.6963L181.264 88.2154Z" fill="#407BFF"/>
<path d="M194.713 84.9835L185.232 87.2632L187.512 96.7441L196.993 94.4643L194.713 84.9835Z" fill="#407BFF"/>
<path opacity="0.2" d="M175.114 62.6389L165.633 64.9187L167.913 74.3996L177.393 72.1198L175.114 62.6389Z" fill="white"/>
<path opacity="0.2" d="M188.563 59.4052L179.082 61.685L181.362 71.1659L190.843 68.8861L188.563 59.4052Z" fill="white"/>
<path opacity="0.2" d="M202.014 56.1698L192.533 58.4496L194.813 67.9305L204.294 65.6507L202.014 56.1698Z" fill="white"/>
<path opacity="0.2" d="M215.463 52.9364L205.982 55.2162L208.262 64.6971L217.743 62.4173L215.463 52.9364Z" fill="white"/>
<path opacity="0.2" d="M178.188 75.4272L168.707 77.707L170.987 87.1879L180.468 84.9081L178.188 75.4272Z" fill="white"/>
<path opacity="0.2" d="M191.637 72.1955L182.156 74.4753L184.436 83.9562L193.917 81.6764L191.637 72.1955Z" fill="white"/>
<path opacity="0.2" d="M205.088 68.9581L195.607 71.2379L197.887 80.7188L207.368 78.439L205.088 68.9581Z" fill="white"/>
<path opacity="0.2" d="M218.539 65.7248L209.059 68.0046L211.338 77.4855L220.819 75.2057L218.539 65.7248Z" fill="white"/>
<path opacity="0.2" d="M181.264 88.2154L171.783 90.4952L174.063 99.9761L183.544 97.6963L181.264 88.2154Z" fill="white"/>
<path opacity="0.2" d="M194.713 84.9834L185.232 87.2632L187.512 96.7441L196.993 94.4643L194.713 84.9834Z" fill="white"/>
<path d="M208.164 81.7468L198.684 84.0266L200.963 93.5075L210.444 91.2277L208.164 81.7468Z" fill="white"/>
<path d="M221.614 78.5133L212.133 80.793L214.413 90.2739L223.894 87.9941L221.614 78.5133Z" fill="white"/>
<path d="M142.156 45.002L156.057 112.88L229.577 93.089L157.868 110.334L142.156 45.002Z" fill="#407BFF"/>
<path opacity="0.5" d="M142.156 45.002L156.057 112.88L229.577 93.089L157.868 110.334L142.156 45.002Z" fill="white"/>
<path d="M207.736 5.468C208.285 6.404 207.971 7.608 207.035 8.158C206.099 8.707 204.895 8.393 204.346 7.457C204.217 7.237 203.697 6.351 203.073 5.286L194.219 10.48C194.86 11.572 195.389 12.474 195.492 12.651C196.041 13.587 195.728 14.791 194.791 15.341C193.855 15.89 192.651 15.576 192.102 14.64C191.973 14.42 191.453 13.534 190.829 12.469L181.975 17.663C182.616 18.755 183.145 19.657 183.248 19.834C183.797 20.77 183.484 21.974 182.547 22.524C181.611 23.073 180.407 22.759 179.858 21.823C179.729 21.604 179.209 20.717 178.585 19.652L169.731 24.846C170.372 25.938 170.901 26.84 171.004 27.017C171.553 27.953 171.239 29.157 170.303 29.707C169.367 30.256 168.163 29.942 167.614 29.006C167.485 28.787 166.965 27.9 166.341 26.835L157.487 32.029C158.128 33.121 158.657 34.023 158.76 34.2C159.309 35.136 158.996 36.34 158.059 36.89C157.123 37.439 155.919 37.125 155.37 36.189C155.241 35.969 154.721 35.083 154.097 34.018L148.473 37.317L182.472 95.276L246.089 57.959L212.09 0L206.466 3.299C207.103 4.389 207.632 5.291 207.736 5.468Z" fill="#407BFF"/>
<path opacity="0.8" d="M207.736 5.468C208.285 6.404 207.971 7.608 207.035 8.158C206.099 8.707 204.895 8.393 204.346 7.457C204.217 7.237 203.697 6.351 203.073 5.286L194.219 10.48C194.86 11.572 195.389 12.474 195.492 12.651C196.041 13.587 195.728 14.791 194.791 15.341C193.855 15.89 192.651 15.576 192.102 14.64C191.973 14.42 191.453 13.534 190.829 12.469L181.975 17.663C182.616 18.755 183.145 19.657 183.248 19.834C183.797 20.77 183.484 21.974 182.547 22.524C181.611 23.073 180.407 22.759 179.858 21.823C179.729 21.604 179.209 20.717 178.585 19.652L169.731 24.846C170.372 25.938 170.901 26.84 171.004 27.017C171.553 27.953 171.239 29.157 170.303 29.707C169.367 30.256 168.163 29.942 167.614 29.006C167.485 28.787 166.965 27.9 166.341 26.835L157.487 32.029C158.128 33.121 158.657 34.023 158.76 34.2C159.309 35.136 158.996 36.34 158.059 36.89C157.123 37.439 155.919 37.125 155.37 36.189C155.241 35.969 154.721 35.083 154.097 34.018L148.473 37.317L182.472 95.276L246.089 57.959L212.09 0L206.466 3.299C207.103 4.389 207.632 5.291 207.736 5.468Z" fill="white"/>
<path d="M202.31 16.93L170.816 35.404L176.324 44.7935L207.818 26.3194L202.31 16.93Z" fill="#407BFF"/>
<path opacity="0.6" d="M202.31 16.93L170.816 35.404L176.324 44.7935L207.818 26.3194L202.31 16.93Z" fill="white"/>
<path d="M173.204 51.6205L164.793 56.5545L169.727 64.9657L178.138 60.0317L173.204 51.6205Z" fill="white"/>
<path d="M185.136 44.6212L176.725 49.5552L181.659 57.9664L190.07 53.0324L185.136 44.6212Z" fill="white"/>
<path d="M197.067 37.6185L188.656 42.5525L193.59 50.9637L202.001 46.0297L197.067 37.6185Z" fill="#407BFF"/>
<path d="M208.999 30.6185L200.588 35.5526L205.522 43.9638L213.933 39.0298L208.999 30.6185Z" fill="#407BFF"/>
<path d="M220.91 23.6151L212.5 28.5491L217.434 36.9593L225.844 32.0253L220.91 23.6151Z" fill="#407BFF"/>
<path d="M179.84 62.9553L171.43 67.8893L176.364 76.2995L184.774 71.3655L179.84 62.9553Z" fill="#407BFF"/>
<path d="M191.772 55.9562L183.361 60.8902L188.295 69.3004L196.706 64.3664L191.772 55.9562Z" fill="#407BFF"/>
<path d="M203.703 48.957L195.293 53.891L200.227 62.3013L208.637 57.3673L203.703 48.957Z" fill="#407BFF"/>
<path d="M215.655 41.9649L207.244 46.8989L212.178 55.3101L220.589 50.3761L215.655 41.9649Z" fill="#407BFF"/>
<path d="M227.587 34.9643L219.176 39.8983L224.11 48.3095L232.521 43.3755L227.587 34.9643Z" fill="#407BFF"/>
<path d="M186.515 74.3107L178.104 79.2447L183.038 87.6559L191.449 82.7219L186.515 74.3107Z" fill="#407BFF"/>
<path d="M198.446 67.3108L190.035 72.2449L194.969 80.6561L203.38 75.7221L198.446 67.3108Z" fill="#407BFF"/>
<path d="M210.38 60.3109L201.969 65.2449L206.903 73.6561L215.314 68.7221L210.38 60.3109Z" fill="#407BFF"/>
<path opacity="0.2" d="M197.067 37.6185L188.656 42.5525L193.59 50.9637L202.001 46.0297L197.067 37.6185Z" fill="white"/>
<path opacity="0.2" d="M208.999 30.6185L200.588 35.5526L205.522 43.9638L213.933 39.0298L208.999 30.6185Z" fill="white"/>
<path opacity="0.2" d="M220.91 23.6151L212.5 28.5491L217.434 36.9593L225.844 32.0253L220.91 23.6151Z" fill="white"/>
<path opacity="0.2" d="M191.772 55.9562L183.361 60.8902L188.295 69.3004L196.706 64.3664L191.772 55.9562Z" fill="white"/>
<path opacity="0.2" d="M203.703 48.957L195.293 53.891L200.227 62.3013L208.637 57.3673L203.703 48.957Z" fill="white"/>
<path opacity="0.2" d="M215.655 41.9649L207.244 46.8989L212.178 55.3101L220.589 50.3761L215.655 41.9649Z" fill="white"/>
<path opacity="0.2" d="M227.587 34.9643L219.176 39.8983L224.11 48.3095L232.521 43.3755L227.587 34.9643Z" fill="white"/>
<path opacity="0.2" d="M198.446 67.3108L190.035 72.2449L194.969 80.6561L203.38 75.7221L198.446 67.3108Z" fill="white"/>
<path opacity="0.2" d="M210.38 60.3109L201.969 65.2449L206.903 73.6561L215.314 68.7221L210.38 60.3109Z" fill="white"/>
<path d="M222.312 53.3116L213.9 58.2456L218.834 66.6568L227.246 61.7228L222.312 53.3116Z" fill="white"/>
<path d="M234.243 46.3095L225.832 51.2435L230.766 59.6547L239.177 54.7207L234.243 46.3095Z" fill="white"/>
<path d="M148.398 37.357L181.402 98.278L246.013 57.999L182.397 95.316L148.398 37.357Z" fill="#407BFF"/>
<path opacity="0.5" d="M148.398 37.357L181.402 98.278L246.013 57.999L182.397 95.316L148.398 37.357Z" fill="white"/>
<path d="M400.054 241.552L369.847 236.987C359.534 235.428 352.438 225.805 353.996 215.492L358.561 185.286C360.12 174.973 369.743 167.877 380.056 169.435L410.263 174C420.576 175.559 427.672 185.182 426.114 195.495L421.549 225.702C419.99 236.014 410.366 243.111 400.054 241.552Z" fill="#407BFF"/>
<path opacity="0.6" d="M400.054 241.552L369.847 236.987C359.534 235.428 352.438 225.805 353.996 215.492L358.561 185.286C360.12 174.973 369.743 167.877 380.056 169.435L410.263 174C420.576 175.559 427.672 185.182 426.114 195.495L421.549 225.702C419.99 236.014 410.366 243.111 400.054 241.552Z" fill="white"/>
<path d="M370.652 194.565C370.652 194.565 366.578 188.084 370.713 184.191L373.822 186.241C373.822 186.241 370.86 190.184 372.582 194.187L370.652 194.565Z" fill="#407BFF"/>
<path d="M377.659 189.968C375.227 190.446 373.041 191.49 371.166 192.935C368.883 192.307 366.465 192.168 364.033 192.646C354.907 194.44 349.106 204.021 351.076 214.047C353.047 224.073 362.042 230.746 371.169 228.952C373.601 228.474 375.786 227.43 377.662 225.985C379.945 226.613 382.363 226.752 384.795 226.274C393.921 224.48 399.722 214.899 397.752 204.873C395.781 194.847 386.785 188.174 377.659 189.968Z" fill="#407BFF"/>
<path opacity="0.1" d="M377.659 189.968C375.227 190.446 373.041 191.49 371.166 192.935C368.883 192.307 366.465 192.168 364.033 192.646C354.907 194.44 349.106 204.021 351.076 214.047C353.047 224.073 362.042 230.746 371.169 228.952C373.601 228.474 375.786 227.43 377.662 225.985C379.945 226.613 382.363 226.752 384.795 226.274C393.921 224.48 399.722 214.899 397.752 204.873C395.781 194.847 386.785 188.174 377.659 189.968Z" fill="white"/>
<path d="M377.659 189.968C375.227 190.446 373.041 191.49 371.166 192.935L377.662 225.985C379.945 226.613 382.363 226.752 384.795 226.274C393.921 224.48 399.722 214.899 397.752 204.873C395.781 194.847 386.785 188.174 377.659 189.968Z" fill="#407BFF"/>
<path opacity="0.3" d="M377.659 189.968C375.227 190.446 373.041 191.49 371.166 192.935L377.662 225.985C379.945 226.613 382.363 226.752 384.795 226.274C393.921 224.48 399.722 214.899 397.752 204.873C395.781 194.847 386.785 188.174 377.659 189.968Z" fill="white"/>
<path d="M365.75 205.595L367.251 206.313L370.422 205.69L364.56 199.544L361.461 207.451L364.632 206.828L365.75 205.595Z" fill="white"/>
<path d="M381.666 202.466L383.167 203.184L386.338 202.561L380.476 196.415L377.377 204.323L380.548 203.699L381.666 202.466Z" fill="white"/>
<path d="M372.522 214.015L372.486 216.191L367.74 215.723L368.438 214.108C364.936 213.979 362.623 213.367 362.623 213.367C362.623 213.367 366.655 221.957 376.516 220.159C378.172 219.857 379.563 219.314 380.762 218.641L378.907 216.608L382.906 213.441L384.106 215.914C387.028 212.527 387.503 208.477 387.503 208.477C382.513 212.255 377.054 213.64 372.522 214.015Z" fill="white"/>
<path d="M402.44 189.112L398.061 192.171L406.733 193.133C408.388 193.317 409.786 191.918 409.602 190.264L408.64 181.592L405.581 185.971L403.099 186.631L402.44 189.112Z" fill="#407BFF"/>
<path d="M419.684 206.356L416.625 210.735L415.663 202.063C415.479 200.408 416.878 199.01 418.532 199.194L427.204 200.156L422.825 203.215L422.165 205.697L419.684 206.356Z" fill="#407BFF"/>
<path d="M416.408 199.938C414.323 202.023 410.943 202.023 408.857 199.938C406.772 197.853 406.772 194.473 408.857 192.387C410.942 190.302 414.323 190.302 416.408 192.387C418.493 194.473 418.493 197.853 416.408 199.938Z" fill="#407BFF"/>
<g opacity="0.2">
<path d="M402.44 189.112L398.061 192.171L406.733 193.133C408.388 193.317 409.786 191.918 409.602 190.264L408.64 181.592L405.581 185.971L403.099 186.631L402.44 189.112Z" fill="white"/>
<path d="M419.684 206.356L416.625 210.735L415.663 202.063C415.479 200.408 416.878 199.01 418.532 199.194L427.204 200.156L422.825 203.215L422.165 205.697L419.684 206.356Z" fill="white"/>
<path d="M416.408 199.938C414.323 202.023 410.943 202.023 408.857 199.938C406.772 197.853 406.772 194.473 408.857 192.387C410.942 190.302 414.323 190.302 416.408 192.387C418.493 194.473 418.493 197.853 416.408 199.938Z" fill="white"/>
</g>
<g opacity="0.7">
<path d="M414.226 191.069C412.391 190.497 410.31 190.934 408.857 192.387C408.039 193.205 407.547 194.224 407.371 195.284L414.226 191.069Z" fill="white"/>
<path d="M408.857 199.938C409.344 200.425 409.904 200.794 410.499 201.053L417.956 196.467C418.003 195.648 417.863 194.822 417.534 194.055L408.539 199.586C408.641 199.707 408.745 199.826 408.857 199.938Z" fill="white"/>
</g>
<path d="M400.173 219.789L399.4 224.142L405.039 219.629C406.115 218.768 406.115 217.131 405.039 216.27L399.4 211.757L400.173 216.11L399.107 217.949L400.173 219.789Z" fill="#407BFF"/>
<path d="M420.359 219.789L421.132 224.142L415.493 219.629C414.417 218.768 414.417 217.131 415.493 216.27L421.132 211.757L420.359 216.11L421.425 217.949L420.359 219.789Z" fill="#407BFF"/>
<path d="M414.687 217.95C414.687 220.391 412.708 222.37 410.267 222.37C407.826 222.37 405.848 220.391 405.848 217.95C405.848 215.509 407.827 213.531 410.267 213.531C412.707 213.531 414.687 215.509 414.687 217.95Z" fill="#407BFF"/>
<g opacity="0.9">
<path d="M400.173 219.789L399.4 224.142L405.039 219.629C406.115 218.768 406.115 217.131 405.039 216.27L399.4 211.757L400.173 216.11L399.107 217.949L400.173 219.789Z" fill="white"/>
<path d="M420.359 219.789L421.132 224.142L415.493 219.629C414.417 218.768 414.417 217.131 415.493 216.27L421.132 211.757L420.359 216.11L421.425 217.949L420.359 219.789Z" fill="white"/>
<path d="M414.687 217.95C414.687 220.391 412.708 222.37 410.267 222.37C407.826 222.37 405.848 220.391 405.848 217.95C405.848 215.509 407.827 213.531 410.267 213.531C412.707 213.531 414.687 215.509 414.687 217.95Z" fill="white"/>
</g>
<path d="M408.219 214.036C406.81 214.775 405.848 216.249 405.848 217.95C405.848 218.908 406.156 219.792 406.674 220.516L408.219 214.036Z" fill="#407BFF"/>
<path d="M410.266 222.37C410.836 222.37 411.379 222.258 411.88 222.062L413.561 215.013C413.109 214.506 412.544 214.104 411.903 213.848L409.875 222.351C410.004 222.361 410.134 222.37 410.266 222.37Z" fill="#407BFF"/>
<path d="M407.075 112.954L360.243 122.51C350.024 124.595 340.049 118.001 337.964 107.782L328.408 60.95C326.323 50.731 332.917 40.756 343.136 38.671L389.968 29.115C400.187 27.03 410.162 33.624 412.247 43.843L421.803 90.675C423.888 100.894 417.294 110.869 407.075 112.954Z" fill="#407BFF"/>
<path opacity="0.5" d="M407.075 112.954L360.243 122.51C350.024 124.595 340.049 118.001 337.964 107.782L328.408 60.95C326.323 50.731 332.917 40.756 343.136 38.671L389.968 29.115C400.187 27.03 410.162 33.624 412.247 43.843L421.803 90.675C423.888 100.894 417.294 110.869 407.075 112.954Z" fill="white"/>
<path d="M403.098 49.073C401.11 49.341 399.123 49.61 397.135 49.878C398.207 48.472 399.279 47.065 400.35 45.659C400.759 45.123 399.927 44.489 399.518 45.025C398.235 46.709 396.952 48.392 395.669 50.076C393.748 50.335 391.827 50.595 389.906 50.854C390.022 50.677 390.125 50.516 390.192 50.429C390.92 49.473 391.648 48.518 392.377 47.562C393.47 46.128 394.563 44.694 395.655 43.26C396.064 42.724 395.232 42.09 394.823 42.626C392.681 45.437 390.539 48.247 388.398 51.058C387.603 51.165 386.809 51.273 386.014 51.38C385.907 50.585 385.799 49.791 385.692 48.997C387.834 46.186 389.976 43.376 392.117 40.565C392.526 40.029 391.694 39.395 391.286 39.931C390.254 41.285 389.222 42.64 388.19 43.994C387.401 45.029 386.612 46.065 385.823 47.1C385.753 47.191 385.626 47.332 385.489 47.487C385.23 45.566 384.97 43.646 384.711 41.725C385.994 40.041 387.277 38.358 388.56 36.674C388.969 36.138 388.137 35.504 387.728 36.04C386.656 37.446 385.585 38.853 384.513 40.259C384.245 38.272 383.976 36.284 383.708 34.296C383.618 33.629 382.581 33.768 382.672 34.436C382.94 36.424 383.209 38.411 383.477 40.399C382.071 39.327 380.664 38.255 379.258 37.184C378.722 36.776 378.088 37.607 378.624 38.016C380.308 39.299 381.991 40.582 383.675 41.865C383.934 43.786 384.194 45.707 384.453 47.628C384.276 47.512 384.115 47.409 384.028 47.343C383.072 46.615 382.117 45.886 381.161 45.158C379.727 44.065 378.293 42.972 376.859 41.88C376.323 41.472 375.689 42.303 376.225 42.712C379.036 44.854 381.846 46.996 384.657 49.137C384.764 49.932 384.871 50.726 384.979 51.52C384.185 51.627 383.39 51.735 382.596 51.842C379.785 49.7 376.975 47.558 374.165 45.417C373.629 45.008 372.995 45.84 373.531 46.249C374.885 47.281 376.24 48.313 377.594 49.345C378.629 50.134 379.664 50.923 380.699 51.712C380.791 51.782 380.931 51.908 381.086 52.046C379.165 52.305 377.245 52.565 375.324 52.824C373.64 51.541 371.957 50.258 370.273 48.975C369.737 48.567 369.103 49.398 369.639 49.807C371.045 50.879 372.452 51.951 373.858 53.022C371.87 53.29 369.883 53.559 367.895 53.827C367.228 53.917 367.367 54.953 368.035 54.863C370.023 54.595 372.01 54.326 373.998 54.058C372.926 55.464 371.855 56.871 370.783 58.277C370.374 58.813 371.206 59.447 371.615 58.911C372.898 57.227 374.181 55.544 375.464 53.86C377.385 53.601 379.306 53.341 381.227 53.082C381.111 53.259 381.008 53.42 380.941 53.507C380.213 54.463 379.484 55.418 378.756 56.374C377.663 57.808 376.57 59.242 375.478 60.676C375.069 61.212 375.901 61.846 376.31 61.31C378.452 58.499 380.594 55.689 382.736 52.878C383.53 52.771 384.325 52.663 385.119 52.556C385.226 53.351 385.333 54.145 385.441 54.939C383.299 57.75 381.157 60.56 379.015 63.371C378.607 63.907 379.438 64.541 379.847 64.005C380.879 62.651 381.911 61.296 382.943 59.942C383.732 58.907 384.521 57.872 385.31 56.836C385.38 56.745 385.506 56.604 385.644 56.449C385.903 58.37 386.163 60.29 386.422 62.211C385.139 63.894 383.856 65.578 382.573 67.262C382.164 67.798 382.996 68.432 383.405 67.896C384.477 66.49 385.548 65.083 386.62 63.677C386.888 65.664 387.157 67.652 387.425 69.64C387.515 70.307 388.551 70.168 388.461 69.5C388.193 67.512 387.924 65.525 387.656 63.537C389.062 64.609 390.469 65.681 391.875 66.752C392.411 67.16 393.045 66.329 392.509 65.92C390.826 64.637 389.142 63.354 387.458 62.071C387.199 60.15 386.939 58.229 386.68 56.308C386.857 56.424 387.018 56.527 387.105 56.593C388.061 57.321 389.016 58.05 389.972 58.778C391.406 59.871 392.84 60.964 394.274 62.056C394.81 62.465 395.444 61.633 394.908 61.224C392.098 59.082 389.287 56.94 386.477 54.799C386.37 54.004 386.262 53.21 386.155 52.415C386.949 52.308 387.744 52.2 388.538 52.093C391.349 54.235 394.159 56.377 396.97 58.519C397.506 58.927 398.14 58.096 397.604 57.687C396.25 56.655 394.895 55.623 393.541 54.591C392.506 53.802 391.47 53.013 390.435 52.224C390.344 52.154 390.203 52.028 390.048 51.89C391.969 51.631 393.889 51.371 395.81 51.112C397.493 52.395 399.177 53.678 400.861 54.961C401.397 55.369 402.031 54.538 401.495 54.129C400.089 53.057 398.682 51.985 397.276 50.914C399.264 50.646 401.251 50.377 403.239 50.109C403.905 50.02 403.766 48.983 403.098 49.073Z" fill="white"/>
<path d="M415.49 77.979C414.541 77.256 413.593 76.533 412.645 75.811C413.687 75.67 414.729 75.53 415.77 75.389C416.167 75.336 416.084 74.719 415.687 74.773C414.44 74.941 413.192 75.11 411.945 75.278C411.028 74.58 410.112 73.881 409.195 73.182C409.319 73.156 409.429 73.132 409.494 73.123C410.202 73.027 410.91 72.932 411.618 72.836C412.68 72.693 413.743 72.549 414.805 72.406C415.202 72.353 415.119 71.736 414.722 71.79C412.64 72.071 410.558 72.352 408.476 72.633C408.097 72.344 407.718 72.055 407.339 71.766C407.628 71.387 407.917 71.008 408.206 70.629C410.288 70.348 412.37 70.067 414.452 69.786C414.849 69.732 414.766 69.116 414.369 69.17C413.366 69.305 412.362 69.441 411.359 69.576C410.592 69.68 409.825 69.783 409.058 69.887C408.99 69.896 408.878 69.902 408.755 69.909C409.454 68.993 410.152 68.076 410.85 67.16C412.097 66.992 413.345 66.823 414.592 66.655C414.989 66.601 414.906 65.985 414.509 66.039C413.467 66.18 412.425 66.32 411.384 66.461C412.107 65.513 412.83 64.564 413.552 63.616C413.794 63.298 413.3 62.92 413.057 63.239C412.334 64.188 411.611 65.136 410.888 66.084C410.747 65.042 410.607 64 410.466 62.959C410.413 62.562 409.796 62.645 409.85 63.042C410.018 64.289 410.187 65.536 410.355 66.784C409.656 67.701 408.958 68.617 408.259 69.534C408.233 69.411 408.209 69.3 408.2 69.235C408.104 68.527 408.009 67.819 407.913 67.111C407.77 66.049 407.626 64.986 407.483 63.924C407.429 63.527 406.813 63.61 406.867 64.007C407.148 66.089 407.429 68.171 407.71 70.253C407.421 70.632 407.132 71.011 406.843 71.39C406.464 71.101 406.085 70.812 405.706 70.523C405.425 68.441 405.144 66.359 404.863 64.277C404.809 63.88 404.193 63.963 404.247 64.36C404.382 65.363 404.518 66.367 404.653 67.37C404.756 68.137 404.86 68.904 404.964 69.671C404.973 69.739 404.979 69.851 404.986 69.974C404.069 69.276 403.153 68.577 402.237 67.879C402.069 66.632 401.9 65.385 401.732 64.137C401.678 63.74 401.062 63.823 401.116 64.22C401.257 65.262 401.397 66.304 401.538 67.345C400.589 66.622 399.641 65.899 398.693 65.177C398.375 64.934 397.997 65.429 398.316 65.671C399.264 66.394 400.213 67.117 401.161 67.839C400.119 67.98 399.077 68.12 398.035 68.261C397.638 68.315 397.721 68.931 398.118 68.877C399.365 68.709 400.612 68.54 401.86 68.372C402.777 69.071 403.693 69.769 404.61 70.468C404.487 70.494 404.376 70.518 404.311 70.527C403.603 70.623 402.895 70.718 402.187 70.814C401.125 70.958 400.062 71.101 399 71.244C398.603 71.298 398.686 71.914 399.083 71.86C401.165 71.579 403.247 71.298 405.329 71.017C405.708 71.306 406.087 71.595 406.466 71.884C406.177 72.263 405.888 72.642 405.599 73.021C403.517 73.302 401.435 73.583 399.353 73.864C398.956 73.918 399.039 74.534 399.436 74.48C400.439 74.345 401.443 74.209 402.446 74.074C403.213 73.97 403.98 73.867 404.747 73.763C404.815 73.754 404.927 73.748 405.05 73.741C404.352 74.657 403.653 75.574 402.955 76.49C401.708 76.658 400.461 76.827 399.213 76.995C398.816 77.049 398.899 77.665 399.296 77.611C400.338 77.47 401.38 77.33 402.421 77.189C401.698 78.138 400.975 79.086 400.253 80.034C400.011 80.352 400.505 80.73 400.748 80.411C401.471 79.463 402.194 78.514 402.916 77.566C403.057 78.608 403.197 79.65 403.338 80.692C403.392 81.089 404.008 81.006 403.954 80.609C403.786 79.362 403.617 78.115 403.449 76.867C404.147 75.95 404.846 75.034 405.545 74.117C405.571 74.24 405.595 74.351 405.604 74.416C405.7 75.124 405.795 75.832 405.891 76.54C406.034 77.602 406.178 78.665 406.321 79.727C406.374 80.124 406.991 80.041 406.937 79.644C406.656 77.562 406.375 75.48 406.094 73.398C406.383 73.019 406.672 72.64 406.961 72.261C407.34 72.55 407.719 72.839 408.098 73.128C408.379 75.21 408.66 77.292 408.941 79.374C408.995 79.771 409.611 79.688 409.557 79.291C409.422 78.288 409.286 77.284 409.151 76.281C409.047 75.514 408.944 74.747 408.84 73.98C408.831 73.912 408.825 73.8 408.818 73.676C409.735 74.375 410.651 75.073 411.568 75.771C411.736 77.018 411.905 78.265 412.073 79.513C412.127 79.91 412.743 79.827 412.689 79.43C412.548 78.388 412.408 77.346 412.267 76.305C413.215 77.028 414.164 77.751 415.112 78.473C415.432 78.716 415.809 78.222 415.49 77.979Z" fill="white"/>
<path d="M388.987 91.491C389.082 90.788 389.177 90.086 389.272 89.383C388.775 89.762 388.278 90.141 387.781 90.52C387.592 90.664 387.367 90.37 387.557 90.226C388.152 89.773 388.747 89.319 389.343 88.865C389.435 88.186 389.526 87.507 389.618 86.828C389.555 86.869 389.498 86.905 389.468 86.929C389.13 87.186 388.792 87.444 388.455 87.701C387.948 88.087 387.441 88.474 386.934 88.86C386.745 89.005 386.52 88.71 386.71 88.566C387.704 87.809 388.697 87.052 389.691 86.295C389.729 86.014 389.767 85.733 389.805 85.452C389.524 85.414 389.243 85.376 388.962 85.338C387.969 86.095 386.975 86.852 385.981 87.609C385.791 87.754 385.567 87.459 385.757 87.315C386.236 86.95 386.715 86.585 387.193 86.22C387.559 85.941 387.925 85.662 388.291 85.383C388.323 85.358 388.373 85.314 388.428 85.265C387.749 85.173 387.07 85.082 386.391 84.99C385.796 85.444 385.201 85.897 384.606 86.351C384.417 86.495 384.192 86.201 384.382 86.057C384.879 85.678 385.376 85.299 385.874 84.92C385.171 84.825 384.469 84.73 383.766 84.635C383.53 84.603 383.579 84.237 383.815 84.269C384.518 84.364 385.22 84.459 385.923 84.554C385.544 84.057 385.165 83.56 384.786 83.063C384.642 82.874 384.936 82.649 385.08 82.839C385.533 83.434 385.987 84.029 386.441 84.624C387.12 84.716 387.799 84.807 388.478 84.899C388.437 84.836 388.4 84.779 388.377 84.749C388.12 84.411 387.862 84.073 387.605 83.735C387.219 83.228 386.832 82.721 386.446 82.214C386.302 82.025 386.595 81.8 386.74 81.99C387.497 82.984 388.254 83.977 389.012 84.971C389.293 85.009 389.574 85.047 389.855 85.085C389.893 84.804 389.931 84.523 389.969 84.242C389.212 83.248 388.455 82.255 387.697 81.261C387.553 81.072 387.847 80.848 387.991 81.037C388.356 81.516 388.721 81.995 389.086 82.473C389.365 82.839 389.644 83.205 389.923 83.571C389.948 83.603 389.992 83.653 390.041 83.708C390.133 83.029 390.224 82.35 390.316 81.671C389.862 81.076 389.409 80.481 388.955 79.886C388.811 79.696 389.105 79.472 389.249 79.662C389.628 80.159 390.007 80.656 390.386 81.154C390.481 80.451 390.576 79.749 390.671 79.046C390.703 78.81 391.069 78.859 391.037 79.096C390.942 79.799 390.847 80.501 390.752 81.204C391.249 80.825 391.746 80.446 392.243 80.067C392.432 79.923 392.657 80.216 392.467 80.361C391.872 80.814 391.277 81.268 390.682 81.722C390.59 82.401 390.499 83.08 390.407 83.759C390.47 83.718 390.527 83.682 390.557 83.658C390.895 83.401 391.233 83.143 391.57 82.886C392.077 82.5 392.584 82.113 393.091 81.727C393.28 81.583 393.505 81.877 393.315 82.021C392.322 82.778 391.328 83.535 390.334 84.293C390.296 84.574 390.258 84.855 390.22 85.135C390.501 85.173 390.782 85.211 391.063 85.249C392.057 84.492 393.05 83.735 394.044 82.977C394.233 82.833 394.458 83.127 394.268 83.271C393.789 83.636 393.311 84.001 392.832 84.366C392.466 84.645 392.1 84.924 391.734 85.203C391.702 85.228 391.652 85.273 391.597 85.321C392.276 85.413 392.955 85.504 393.634 85.596C394.229 85.142 394.824 84.689 395.419 84.235C395.608 84.09 395.833 84.385 395.643 84.529C395.146 84.908 394.649 85.287 394.152 85.666C394.855 85.761 395.557 85.856 396.26 85.951C396.496 85.983 396.447 86.349 396.211 86.317C395.508 86.222 394.806 86.127 394.103 86.032C394.482 86.529 394.861 87.026 395.24 87.523C395.384 87.712 395.09 87.937 394.946 87.747C394.493 87.152 394.039 86.557 393.585 85.961C392.906 85.869 392.227 85.778 391.548 85.686C391.589 85.749 391.625 85.805 391.649 85.836C391.907 86.174 392.164 86.512 392.421 86.849C392.807 87.356 393.194 87.863 393.58 88.37C393.724 88.559 393.43 88.783 393.286 88.594C392.529 87.601 391.772 86.607 391.015 85.614C390.734 85.576 390.453 85.538 390.172 85.5C390.134 85.781 390.096 86.062 390.058 86.342C390.815 87.336 391.572 88.329 392.33 89.323C392.474 89.512 392.18 89.737 392.036 89.547C391.671 89.068 391.306 88.589 390.941 88.111C390.662 87.745 390.383 87.379 390.104 87.013C390.079 86.981 390.035 86.931 389.986 86.876C389.894 87.555 389.803 88.234 389.711 88.913C390.164 89.508 390.618 90.103 391.072 90.699C391.216 90.888 390.922 91.113 390.778 90.923C390.399 90.426 390.02 89.929 389.641 89.431C389.546 90.134 389.451 90.836 389.356 91.539C389.321 91.776 388.955 91.727 388.987 91.491Z" fill="white"/>
<path d="M368.695 81.349C368.695 82.031 368.142 82.584 367.46 82.584C366.778 82.584 366.225 82.031 366.225 81.349C366.225 80.667 366.778 80.114 367.46 80.114C368.143 80.114 368.695 80.667 368.695 81.349Z" fill="white"/>
<path d="M360.019 117.497V102.147H352.215V117.497L348.18 122.538L353.76 121.548L356.117 122.914L358.474 121.548L364.053 122.538L360.019 117.497Z" fill="#407BFF"/>
<path d="M364.848 105.309L385.513 108.977L356.118 72.245L326.723 108.977L347.389 105.309L356.118 110.37L364.848 105.309Z" fill="#407BFF"/>
<path opacity="0.3" d="M364.848 105.309L385.513 108.977L356.118 72.245L326.723 108.977L347.389 105.309L356.118 110.37L364.848 105.309Z" fill="white"/>
<path d="M363.975 88.778L382.573 92.079L356.118 59.021L329.662 92.079L348.262 88.778L356.118 93.333L363.975 88.778Z" fill="#407BFF"/>
<path opacity="0.7" d="M363.975 88.778L382.573 92.079L356.118 59.021L329.662 92.079L348.262 88.778L356.118 93.333L363.975 88.778Z" fill="white"/>
<path d="M361.705 71.153L374.93 73.501L356.118 49.993L337.305 73.501L350.531 71.153L356.118 74.393L361.705 71.153Z" fill="#407BFF"/>
<path opacity="0.8" d="M361.705 71.153L374.93 73.501L356.118 49.993L337.305 73.501L350.531 71.153L356.118 74.393L361.705 71.153Z" fill="white"/>
<path d="M356.117 36.04L358.436 40.739L363.62 41.492L359.869 45.149L360.754 50.313L356.117 47.875L351.479 50.313L352.365 45.149L348.613 41.492L353.798 40.739L356.117 36.04Z" fill="white"/>
<path d="M344.234 64.842C344.234 64.842 350.675 80.018 371.959 78.816C371.959 78.816 349.514 84.537 344.234 64.842Z" fill="white"/>
<path d="M346.83 61.597C346.83 61.597 356.727 67.17 364.937 61.014C364.937 61.014 357.368 71.482 346.83 61.597Z" fill="white"/>
<path d="M373.741 81.044C373.741 81.044 361.185 95.955 341.996 89.889C341.996 89.889 359.563 103.28 373.741 81.044Z" fill="white"/>
<path d="M351.727 67.293C351.727 68.085 351.085 68.727 350.293 68.727C349.501 68.727 348.859 68.085 348.859 67.293C348.859 66.501 349.501 65.859 350.293 65.859C351.085 65.859 351.727 66.501 351.727 67.293Z" fill="white"/>
<path d="M365.056 65.844C365.056 66.636 364.414 67.278 363.622 67.278C362.83 67.278 362.188 66.636 362.188 65.844C362.188 65.052 362.83 64.41 363.622 64.41C364.414 64.411 365.056 65.053 365.056 65.844Z" fill="white"/>
<path d="M348.264 75.221C348.264 76.013 347.622 76.655 346.83 76.655C346.038 76.655 345.396 76.013 345.396 75.221C345.396 74.429 346.038 73.787 346.83 73.787C347.622 73.788 348.264 74.429 348.264 75.221Z" fill="white"/>
<path d="M358.751 81.044C358.751 81.836 358.109 82.478 357.317 82.478C356.525 82.478 355.883 81.836 355.883 81.044C355.883 80.252 356.525 79.61 357.317 79.61C358.109 79.611 358.751 80.253 358.751 81.044Z" fill="white"/>
<path d="M343.432 93.887C343.432 94.679 342.79 95.321 341.998 95.321C341.206 95.321 340.564 94.679 340.564 93.887C340.564 93.095 341.206 92.453 341.998 92.453C342.79 92.453 343.432 93.095 343.432 93.887Z" fill="white"/>
<path d="M355.804 96.776C355.804 97.568 355.162 98.21 354.37 98.21C353.578 98.21 352.936 97.568 352.936 96.776C352.936 95.984 353.578 95.342 354.37 95.342C355.162 95.343 355.804 95.984 355.804 96.776Z" fill="white"/>
<path d="M367.46 90.652C367.46 91.334 366.907 91.887 366.225 91.887C365.543 91.887 364.99 91.334 364.99 90.652C364.99 89.97 365.543 89.417 366.225 89.417C366.907 89.417 367.46 89.97 367.46 90.652Z" fill="white"/>
<path d="M174.069 268.831L137.318 265.769C126.924 264.903 119.2 255.775 120.066 245.381L123.128 208.631C123.994 198.237 133.122 190.513 143.516 191.379L180.266 194.441C190.66 195.307 198.384 204.435 197.518 214.829L194.456 251.579C193.591 261.973 184.463 269.697 174.069 268.831Z" fill="#407BFF"/>
<path opacity="0.5" d="M174.069 268.831L137.318 265.769C126.924 264.903 119.2 255.775 120.066 245.381L123.128 208.631C123.994 198.237 133.122 190.513 143.516 191.379L180.266 194.441C190.66 195.307 198.384 204.435 197.518 214.829L194.456 251.579C193.591 261.973 184.463 269.697 174.069 268.831Z" fill="white"/>
<path d="M181.011 260.849H176.807C173.309 260.849 170.473 258.013 170.473 254.515L171.528 225.698H186.291L187.345 254.515C187.345 258.013 184.509 260.849 181.011 260.849Z" fill="white"/>
<path d="M192.947 223.073C192.947 226.476 190.188 229.235 186.785 229.235C183.382 229.235 180.623 226.476 180.623 223.073C180.623 219.67 183.382 216.911 186.785 216.911C190.188 216.911 192.947 219.67 192.947 223.073Z" fill="#407BFF"/>
<path opacity="0.8" d="M192.947 223.073C192.947 226.476 190.188 229.235 186.785 229.235C183.382 229.235 180.623 226.476 180.623 223.073C180.623 219.67 183.382 216.911 186.785 216.911C190.188 216.911 192.947 219.67 192.947 223.073Z" fill="white"/>
<path d="M187.312 217.879V222.295L190.359 219.249C189.543 218.487 188.485 217.997 187.312 217.879Z" fill="#407BFF"/>
<path d="M185.512 223.04L182.514 220.042C181.91 220.891 181.548 221.921 181.541 223.04H185.512Z" fill="#407BFF"/>
<path d="M186.259 217.879C185.086 217.998 184.029 218.487 183.213 219.249L186.259 222.295V217.879Z" fill="#407BFF"/>
<path d="M185.513 224.094H181.641C181.834 225.072 182.306 225.944 182.961 226.645L185.513 224.094Z" fill="#407BFF"/>
<path d="M188.059 224.094L190.61 226.645C191.265 225.944 191.737 225.072 191.93 224.094H188.059Z" fill="#407BFF"/>
<path d="M188.059 223.04H192.031C192.024 221.921 191.661 220.891 191.058 220.042L188.059 223.04Z" fill="#407BFF"/>
<path d="M186.258 224.84L183.754 227.344C184.475 227.856 185.331 228.173 186.258 228.267V224.84Z" fill="#407BFF"/>
<path d="M187.312 224.84V228.267C188.239 228.173 189.095 227.856 189.816 227.344L187.312 224.84Z" fill="#407BFF"/>
<g opacity="0.4">
<path d="M187.312 217.879V222.295L190.359 219.249C189.543 218.487 188.485 217.997 187.312 217.879Z" fill="white"/>
<path d="M185.512 223.04L182.514 220.042C181.91 220.891 181.548 221.921 181.541 223.04H185.512Z" fill="white"/>
<path d="M186.259 217.879C185.086 217.998 184.029 218.487 183.213 219.249L186.259 222.295V217.879Z" fill="white"/>
<path d="M185.513 224.094H181.641C181.834 225.072 182.306 225.944 182.961 226.645L185.513 224.094Z" fill="white"/>
<path d="M188.059 224.094L190.61 226.645C191.265 225.944 191.737 225.072 191.93 224.094H188.059Z" fill="white"/>
<path d="M188.059 223.04H192.031C192.024 221.921 191.661 220.891 191.058 220.042L188.059 223.04Z" fill="white"/>
<path d="M186.258 224.84L183.754 227.344C184.475 227.856 185.331 228.173 186.258 228.267V224.84Z" fill="white"/>
<path d="M187.312 224.84V228.267C188.239 228.173 189.095 227.856 189.816 227.344L187.312 224.84Z" fill="white"/>
</g>
<path d="M185.402 230.265H172.414L171.525 254.553C171.526 257.426 173.894 259.795 176.805 259.795H181.01C183.921 259.795 186.289 257.426 186.289 254.515L185.402 230.265Z" fill="#407BFF"/>
<path opacity="0.3" d="M185.402 230.265H172.414L171.525 254.553C171.526 257.426 173.894 259.795 176.805 259.795H181.01C183.921 259.795 186.289 257.426 186.289 254.515L185.402 230.265Z" fill="white"/>
<path d="M165.903 218.756C167.544 218.756 169.184 218.756 170.825 218.756C172.895 218.756 175.031 218.474 175.885 220.901C176.916 223.833 177.004 227.427 177.531 230.5C177.703 231.501 179.227 231.077 179.056 230.079C178.747 228.277 178.438 226.476 178.129 224.674C177.848 223.033 177.832 220.949 177.057 219.436C175.25 215.906 169.092 217.173 165.903 217.173C164.885 217.174 164.884 218.756 165.903 218.756Z" fill="#407BFF"/>
<g opacity="0.3">
<path d="M165.903 218.756C167.544 218.756 169.184 218.756 170.825 218.756C172.895 218.756 175.031 218.474 175.885 220.901C176.916 223.833 177.004 227.427 177.531 230.5C177.703 231.501 179.227 231.077 179.056 230.079C178.747 228.277 178.438 226.476 178.129 224.674C177.848 223.033 177.832 220.949 177.057 219.436C175.25 215.906 169.092 217.173 165.903 217.173C164.885 217.174 164.884 218.756 165.903 218.756Z" fill="white"/>
</g>
<path d="M175.211 234.146L173.452 232.387C173.063 231.998 173.063 231.366 173.452 230.977L175.211 229.218C175.6 228.829 176.232 228.829 176.621 229.218L178.38 230.977C178.769 231.366 178.769 231.998 178.38 232.387L176.621 234.146C176.232 234.536 175.601 234.536 175.211 234.146Z" fill="#407BFF"/>
<path d="M183.155 236.273L180.729 235.721C180.192 235.599 179.856 235.065 179.978 234.528L180.53 232.102C180.652 231.565 181.186 231.229 181.723 231.351L184.149 231.903C184.686 232.025 185.022 232.559 184.9 233.096L184.348 235.522C184.226 236.059 183.692 236.395 183.155 236.273Z" fill="#407BFF"/>
<path d="M177.259 240.423L174.792 240.746C174.246 240.817 173.745 240.433 173.674 239.887L173.352 237.421C173.281 236.875 173.665 236.374 174.211 236.303L176.678 235.98C177.224 235.909 177.725 236.293 177.796 236.839L178.118 239.306C178.19 239.851 177.805 240.352 177.259 240.423Z" fill="#407BFF"/>
<path d="M181.596 243.451L179.442 242.207C178.965 241.932 178.802 241.322 179.077 240.845L180.321 238.691C180.596 238.214 181.206 238.051 181.683 238.326L183.837 239.57C184.314 239.845 184.477 240.455 184.202 240.932L182.958 243.086C182.683 243.563 182.073 243.726 181.596 243.451Z" fill="#407BFF"/>
<path opacity="0.8" d="M175.211 234.146L173.452 232.387C173.063 231.998 173.063 231.366 173.452 230.977L175.211 229.218C175.6 228.829 176.232 228.829 176.621 229.218L178.38 230.977C178.769 231.366 178.769 231.998 178.38 232.387L176.621 234.146C176.232 234.536 175.601 234.536 175.211 234.146Z" fill="white"/>
<path opacity="0.8" d="M183.155 236.273L180.729 235.721C180.192 235.599 179.856 235.065 179.978 234.528L180.53 232.102C180.652 231.565 181.186 231.229 181.723 231.351L184.149 231.903C184.686 232.025 185.022 232.559 184.9 233.096L184.348 235.522C184.226 236.059 183.692 236.395 183.155 236.273Z" fill="white"/>
<path opacity="0.8" d="M177.259 240.423L174.792 240.746C174.246 240.817 173.745 240.433 173.674 239.887L173.352 237.421C173.281 236.875 173.665 236.374 174.211 236.303L176.678 235.98C177.224 235.909 177.725 236.293 177.796 236.839L178.118 239.306C178.19 239.851 177.805 240.352 177.259 240.423Z" fill="white"/>
<path opacity="0.8" d="M181.596 243.451L179.442 242.207C178.965 241.932 178.802 241.322 179.077 240.845L180.321 238.691C180.596 238.214 181.206 238.051 181.683 238.326L183.837 239.57C184.314 239.845 184.477 240.455 184.202 240.932L182.958 243.086C182.683 243.563 182.073 243.726 181.596 243.451Z" fill="white"/>
<path d="M125.559 260.849C128.413 263.547 132.161 265.339 136.379 265.691L175.012 268.91C181.806 269.476 188.03 266.178 191.521 260.849H125.559Z" fill="#407BFF"/>
<path opacity="0.2" d="M125.559 260.849C128.413 263.547 132.161 265.339 136.379 265.691L175.012 268.91C181.806 269.476 188.03 266.178 191.521 260.849H125.559Z" fill="white"/>
<path d="M149.298 217.816C152.517 217.816 155.127 215.206 155.127 211.987C155.127 208.768 152.517 206.158 149.298 206.158C146.078 206.158 143.469 208.768 143.469 211.987C143.469 215.206 146.078 217.816 149.298 217.816Z" fill="white"/>
<path d="M143.989 207.402C144.213 207.143 144.454 206.901 144.713 206.678C143.484 205.449 142.255 204.22 141.027 202.992C140.56 202.525 139.836 203.249 140.303 203.716C141.531 204.945 142.76 206.174 143.989 207.402Z" fill="white"/>
<path d="M142.277 211.987C142.277 211.814 142.291 211.645 142.303 211.475C140.565 211.475 138.826 211.475 137.088 211.475C136.429 211.475 136.428 212.499 137.088 212.499C138.826 212.499 140.564 212.499 142.303 212.499C142.291 212.329 142.277 212.16 142.277 211.987Z" fill="white"/>
<path d="M154.605 207.402C155.834 206.173 157.063 204.944 158.291 203.716C158.758 203.25 158.034 202.525 157.567 202.992C156.338 204.221 155.109 205.45 153.881 206.678C154.14 206.902 154.382 207.144 154.605 207.402Z" fill="white"/>
<path d="M149.297 204.967C149.47 204.967 149.639 204.981 149.809 204.993C149.809 203.255 149.809 201.516 149.809 199.778C149.809 199.119 148.785 199.118 148.785 199.778C148.785 201.516 148.785 203.255 148.785 204.993C148.955 204.981 149.124 204.967 149.297 204.967Z" fill="white"/>
<path d="M161.506 211.475C159.768 211.475 158.03 211.475 156.291 211.475C156.303 211.645 156.317 211.814 156.317 211.987C156.317 212.16 156.303 212.329 156.291 212.499C158.029 212.499 159.768 212.499 161.506 212.499C162.165 212.499 162.166 211.475 161.506 211.475Z" fill="white"/>
<path d="M154.605 216.571C154.381 216.83 154.14 217.071 153.881 217.295C155.11 218.524 156.339 219.753 157.567 220.981C158.033 221.448 158.758 220.724 158.291 220.257C157.063 219.029 155.834 217.8 154.605 216.571Z" fill="white"/>
<path d="M143.989 216.571C142.76 217.8 141.531 219.029 140.303 220.257C139.836 220.724 140.56 221.448 141.027 220.981C142.256 219.752 143.485 218.523 144.713 217.295C144.454 217.072 144.212 216.83 143.989 216.571Z" fill="white"/>
<path d="M149.297 219.006C149.124 219.006 148.955 218.992 148.785 218.98C148.785 220.718 148.785 222.456 148.785 224.195C148.785 224.854 149.809 224.855 149.809 224.195C149.809 222.457 149.809 220.719 149.809 218.98C149.639 218.993 149.47 219.006 149.297 219.006Z" fill="white"/>
<path d="M147.249 238.81C147.238 238.752 147.226 238.695 147.226 238.636C147.226 237.731 148.552 236.944 150.504 236.542C150.456 236.45 150.43 236.354 150.43 236.256C150.43 235.441 152.163 234.781 154.301 234.781C156.439 234.781 158.172 235.441 158.172 236.256C158.172 236.492 158.023 236.713 157.766 236.911C158.766 237.272 159.449 237.758 159.649 238.303C162.304 238.577 164.259 239.499 164.259 240.598C164.259 241.912 161.463 242.978 158.013 242.978C157.781 242.978 157.553 242.972 157.328 242.963C156.074 244.05 153.227 244.811 149.911 244.811C145.436 244.811 141.809 243.429 141.809 241.724C141.809 240.374 144.084 239.23 147.249 238.81Z" fill="#407BFF"/>
<path opacity="0.7" d="M147.249 238.81C147.238 238.752 147.226 238.695 147.226 238.636C147.226 237.731 148.552 236.944 150.504 236.542C150.456 236.45 150.43 236.354 150.43 236.256C150.43 235.441 152.163 234.781 154.301 234.781C156.439 234.781 158.172 235.441 158.172 236.256C158.172 236.492 158.023 236.713 157.766 236.911C158.766 237.272 159.449 237.758 159.649 238.303C162.304 238.577 164.259 239.499 164.259 240.598C164.259 241.912 161.463 242.978 158.013 242.978C157.781 242.978 157.553 242.972 157.328 242.963C156.074 244.05 153.227 244.811 149.911 244.811C145.436 244.811 141.809 243.429 141.809 241.724C141.809 240.374 144.084 239.23 147.249 238.81Z" fill="white"/>
<path d="M147.033 232.742C147.049 232.661 147.066 232.58 147.066 232.497C147.066 231.224 145.2 230.117 142.454 229.55C142.521 229.42 142.558 229.286 142.558 229.148C142.558 228.002 140.12 227.073 137.111 227.073C134.103 227.073 131.665 228.002 131.665 229.148C131.665 229.479 131.874 229.791 132.236 230.069C130.83 230.577 129.869 231.26 129.586 232.028C125.851 232.414 123.1 233.711 123.1 235.256C123.1 237.105 127.034 238.604 131.887 238.604C132.213 238.604 132.534 238.596 132.85 238.583C134.614 240.113 138.619 241.182 143.286 241.182C149.582 241.182 154.685 239.237 154.685 236.839C154.686 234.943 151.485 233.333 147.033 232.742Z" fill="#407BFF"/>
<path opacity="0.9" d="M147.033 232.742C147.049 232.661 147.066 232.58 147.066 232.497C147.066 231.224 145.2 230.117 142.454 229.55C142.521 229.42 142.558 229.286 142.558 229.148C142.558 228.002 140.12 227.073 137.111 227.073C134.103 227.073 131.665 228.002 131.665 229.148C131.665 229.479 131.874 229.791 132.236 230.069C130.83 230.577 129.869 231.26 129.586 232.028C125.851 232.414 123.1 233.711 123.1 235.256C123.1 237.105 127.034 238.604 131.887 238.604C132.213 238.604 132.534 238.596 132.85 238.583C134.614 240.113 138.619 241.182 143.286 241.182C149.582 241.182 154.685 239.237 154.685 236.839C154.686 234.943 151.485 233.333 147.033 232.742Z" fill="white"/>
<path d="M297.657 344.161L298.682 351.718L291.509 353.567L289.777 345.397L297.657 344.161Z" fill="#FAB27B"/>
<path d="M287.492 355.084C286.449 355.29 285.333 355.312 284.899 354.932C284.669 354.705 284.606 354.358 284.744 354.065C284.839 353.807 285.03 353.596 285.278 353.476C286.603 352.814 289.86 353.907 290.004 353.956C290.085 353.983 290.14 354.059 290.141 354.144C290.141 354.229 290.09 354.305 290.012 354.339C289.195 354.659 288.352 354.909 287.492 355.084ZM285.835 353.715C285.706 353.738 285.581 353.78 285.465 353.839C285.305 353.9 285.182 354.031 285.13 354.194C285.031 354.471 285.107 354.58 285.177 354.636C285.674 355.105 287.793 354.7 289.316 354.198C288.196 353.819 287.015 353.655 285.835 353.715Z" fill="#407BFF"/>
<path d="M289.98 354.341C289.954 354.354 289.924 354.358 289.896 354.35C288.805 354.103 286.429 352.682 286.421 351.704C286.396 351.472 286.513 351.162 287.049 350.998C287.44 350.877 287.864 350.92 288.223 351.119C289.465 351.786 290.136 354.005 290.168 354.108C290.187 354.179 290.167 354.254 290.114 354.305C290.076 354.334 290.027 354.347 289.98 354.341ZM287.256 351.349L287.14 351.361C286.789 351.462 286.794 351.611 286.789 351.664C286.85 352.243 288.453 353.405 289.615 353.815C289.327 352.883 288.761 352.062 287.992 351.463C287.769 351.337 287.508 351.296 287.256 351.349Z" fill="#407BFF"/>
<path d="M290.637 352.994L299.796 351.184C300.141 351.115 300.488 351.296 300.63 351.618L303.758 358.742C304.04 359.372 303.758 360.111 303.128 360.393C303.047 360.429 302.963 360.457 302.876 360.475C299.563 361.07 296.591 361.47 292.482 362.288C287.632 363.248 288.977 363.585 283.29 364.794C279.863 365.519 278.462 361.737 279.881 361.257C286.384 359.099 286.678 356.949 288.778 354.054C289.247 353.484 289.909 353.107 290.637 352.994Z" fill="#263238"/>
<path opacity="0.2" d="M290.711 349.805L298.258 348.59L297.735 344.736L290.035 346.613L290.711 349.805Z" fill="black"/>
<path d="M217.733 343.723L215.528 351.024L208.234 349.728L210.051 341.577L217.733 343.723Z" fill="#FAB27B"/>
<path d="M203.95 349.439C202.915 349.193 201.891 348.75 201.654 348.224C201.538 347.922 201.626 347.58 201.873 347.37C202.066 347.174 202.328 347.062 202.603 347.056C204.083 347.004 206.593 349.351 206.703 349.455C206.765 349.514 206.784 349.605 206.75 349.683C206.715 349.76 206.637 349.809 206.552 349.807C205.676 349.761 204.805 349.638 203.95 349.439ZM203.011 347.506C202.884 347.474 202.753 347.46 202.622 347.465C202.451 347.454 202.285 347.522 202.17 347.649C201.965 347.86 201.989 347.991 202.029 348.071C202.286 348.704 204.382 349.216 205.976 349.391C205.116 348.581 204.11 347.942 203.011 347.506Z" fill="#407BFF"/>
<path d="M206.523 349.797C206.494 349.798 206.465 349.789 206.442 349.77C205.552 349.093 203.98 346.814 204.38 345.92C204.454 345.699 204.689 345.465 205.245 345.539C205.651 345.591 206.019 345.807 206.263 346.136C207.116 347.259 206.805 349.556 206.792 349.663C206.78 349.735 206.73 349.796 206.661 349.82C206.613 349.83 206.564 349.822 206.523 349.797ZM205.288 345.944L205.178 345.907C204.816 345.853 204.759 345.99 204.733 346.037C204.548 346.589 205.524 348.312 206.411 349.167C206.536 348.2 206.362 347.218 205.911 346.353C205.759 346.146 205.538 346.001 205.288 345.944Z" fill="#407BFF"/>
<path d="M207.679 348.844L216.763 351C217.105 351.081 217.346 351.389 217.342 351.741L217.23 359.521C217.225 360.211 216.662 360.767 215.971 360.762C215.883 360.761 215.794 360.751 215.708 360.732C212.447 359.898 209.578 359.028 205.5 358.065C200.689 356.925 201.773 357.79 196.097 356.528C192.678 355.764 192.974 351.742 194.464 351.895C201.275 352.632 202.436 350.798 205.549 349.036C206.212 348.713 206.97 348.645 207.679 348.844Z" fill="#263238"/>
<path opacity="0.2" d="M216.715 347.097L217.678 343.908L211.366 341.944L210.052 341.577L209.322 344.853L216.715 347.097Z" fill="black"/>
<path d="M281.824 189.82L246.447 181.683L240.388 204.763L221.026 259.631L207.902 342.05L221.026 345.463L239.925 264.618L262.762 212.419L281.824 214.303V189.82Z" fill="#263238"/>
<path opacity="0.3" d="M259.833 219.11L258 207.652L256.24 227.323L259.833 219.11Z" fill="black"/>
<path d="M207.902 339.839L221.852 343.416L221.202 346.301L207.283 342.31L207.902 339.839Z" fill="#407BFF"/>
<path d="M286.471 261.881L280.936 203.724L277.651 194.273L269.04 194.611L256.777 199.989L267.161 264.904L285.517 347.077L299.947 343.863L286.471 261.881Z" fill="#263238"/>
<path d="M284.879 346.668L300.294 343.286L300.684 345.463L285.269 348.864L284.879 346.668Z" fill="#407BFF"/>
<path d="M281.855 174.759C282.729 164.808 285.638 136.088 285.638 136.088C285.638 136.088 282.664 134.35 277.303 132.815C273.852 134.497 266.148 138.097 263.584 138.01C261.292 137.933 259.856 133.386 259.18 130.534C255.813 130.595 252.183 130.908 248.306 131.587L245.139 141.754C245.139 141.754 238.806 167.421 241.972 194.254C241.972 194.254 251.01 200.754 269.051 200.754C276.177 200.754 282.472 198.754 282.472 198.754C282.472 198.754 281.307 180.994 281.855 174.759Z" fill="#407BFF"/>
<path d="M274.396 132.067C271.964 129.234 274.304 118.172 274.304 118.172L265.661 121.339C265.661 121.339 264.756 129.004 262.589 130.56C261.739 131.171 260.465 130.515 259.359 130.532L261.644 137.822L267.335 138.381L277.769 132.954C276.735 132.647 275.21 133.016 274.396 132.067Z" fill="#DD8C6A"/>
<path opacity="0.1" d="M264.605 126.633C270.582 125.854 273.06 122.086 274.055 119.488C274.198 118.675 274.304 118.172 274.304 118.172L265.661 121.339C265.661 121.339 265.332 124.092 264.605 126.633Z" fill="black"/>
<path d="M260.4 129.998L264.111 138.19L257.786 141.871L257.623 130.056L260.4 129.998Z" fill="#407BFF"/>
<path opacity="0.5" d="M260.4 129.998L264.111 138.19L257.786 141.871L257.623 130.056L260.4 129.998Z" fill="white"/>
<path d="M276.913 131.97L263.037 137.836L267.803 144.095L279.389 133.089L276.913 131.97Z" fill="#407BFF"/>
<path opacity="0.5" d="M276.913 131.97L263.037 137.836L267.803 144.095L279.389 133.089L276.913 131.97Z" fill="white"/>
<path d="M235.137 139.755L218.637 148.255C218.637 148.255 211.637 140.448 205.97 130.518C205.97 130.518 206.97 124.588 205.137 122.922C203.304 121.255 200.47 115.875 200.47 115.875L196.303 117.172L193.803 120.755L196.803 126.255L201.303 131.97C201.303 131.97 207.636 158.088 217.136 158.088C226.636 158.088 240.969 148.421 240.969 148.421L235.137 139.755Z" fill="#DD8C6A"/>
<path d="M251.946 131.047C251.946 131.047 246.638 129.922 231.805 139.255L238.638 151.922L247.805 147.422L254.805 136.434L251.946 131.047Z" fill="#407BFF"/>
<path d="M228.971 139.755L231.805 138.38L239.471 151.922L236.971 153.443L228.971 139.755Z" fill="#407BFF"/>
<path opacity="0.5" d="M228.971 139.755L231.805 138.38L239.471 151.922L236.971 153.443L228.971 139.755Z" fill="white"/>
<path opacity="0.2" d="M245.136 141.755L245.291 141.256C242.997 143.717 241.48 149.146 241.078 150.722L243.599 149.485C244.425 144.646 245.136 141.755 245.136 141.755Z" fill="black"/>
<path d="M294.94 145.595L302.805 152.869C302.805 152.869 310.138 142.947 315.638 136.434C315.638 136.434 314.471 131.922 316.971 129.255L318.304 125.13L322.137 124.088L327.137 131.004L320.47 139.255C320.47 139.255 308.47 163.255 304.47 163.755C300.47 164.255 289.377 153.442 289.377 153.442L294.94 145.595Z" fill="#DD8C6A"/>
<path d="M280.089 134.151C280.089 134.151 285.512 133.976 298.474 145.77L289.521 157.039L281.288 150.998L276.328 138.951L280.089 134.151Z" fill="#407BFF"/>
<path d="M301.176 146.76L298.628 144.909L288.701 156.892L290.895 158.829L301.176 146.76Z" fill="#407BFF"/>
<path opacity="0.5" d="M301.176 146.76L298.628 144.909L288.701 156.892L290.895 158.829L301.176 146.76Z" fill="white"/>
<path opacity="0.2" d="M284.672 145.69C284.449 147.917 284.202 150.392 283.949 152.95L286.876 155.098C286.747 151.741 285.49 147.88 284.672 145.69Z" fill="black"/>
<path d="M264.722 93.875C264.722 93.875 255.88 93.761 261.71 102.376L268.484 95.185L264.722 93.875Z" fill="#263238"/>
<path d="M289.28 99.838C289.461 100.283 289.54 100.791 289.516 101.269C289.448 102.63 288.4 103.358 287.169 103.681C286.889 103.755 287.008 104.189 287.289 104.115C288.549 103.784 289.677 103.056 289.92 101.695C290.035 101.053 289.962 100.325 289.715 99.718C289.606 99.454 289.171 99.569 289.28 99.838Z" fill="#263238"/>
<path d="M281.046 108.305C278.001 115.704 276.866 118.888 271.727 121.454C263.992 125.322 255.576 119.953 256.348 111.803C257.056 104.462 261.937 93.562 270.352 93.136C276.365 92.769 281.536 97.346 281.903 103.359C282.005 105.051 281.712 106.745 281.046 108.305Z" fill="#DD8C6A"/>
<path d="M268.334 106.16C268.117 106.772 267.62 107.161 267.222 107.029C266.824 106.898 266.664 106.275 266.869 105.661C267.074 105.047 267.583 104.66 267.981 104.791C268.379 104.923 268.502 105.565 268.334 106.16Z" fill="#263238"/>
<path d="M261.384 103.796C261.166 104.42 260.67 104.797 260.272 104.665C259.874 104.534 259.714 103.911 259.919 103.297C260.124 102.683 260.633 102.296 261.029 102.439C261.426 102.583 261.589 103.182 261.384 103.796Z" fill="#263238"/>
<path d="M263.146 105.644C262.114 106.859 260.921 107.927 259.6 108.818C260.086 109.485 260.836 109.909 261.658 109.98L263.146 105.644Z" fill="#C13B37"/>
<path d="M271.604 105.72C271.439 105.695 271.31 105.563 271.289 105.398C270.957 104.186 270.134 103.168 269.018 102.589C268.828 102.493 268.75 102.262 268.845 102.071C268.938 101.885 269.163 101.81 269.349 101.903C269.353 101.905 269.357 101.907 269.361 101.91C270.707 102.596 271.687 103.834 272.045 105.301C272.072 105.507 271.928 105.696 271.722 105.723C271.683 105.733 271.643 105.732 271.604 105.72Z" fill="#263238"/>
<path d="M260.396 99.879C260.259 99.854 260.145 99.759 260.095 99.629C260.024 99.431 260.124 99.212 260.321 99.136C261.474 98.66 262.789 98.79 263.827 99.482C263.993 99.595 264.035 99.822 263.922 99.988C263.916 99.996 263.91 100.004 263.904 100.012C263.781 100.179 263.546 100.215 263.379 100.093C263.377 100.092 263.376 100.091 263.374 100.089C262.546 99.578 261.524 99.493 260.623 99.859C260.551 99.889 260.472 99.896 260.396 99.879Z" fill="#263238"/>
<path d="M262.039 113.28C262.039 113.28 264.996 114.03 267.174 113.28C267.174 113.28 267.013 116.622 262.821 115.936C262.624 115.904 262.04 115.772 262.04 115.772C262.04 115.772 262.383 114.811 262.039 113.28Z" fill="#263238"/>
<path d="M262.727 113.419V114.186C262.727 114.186 264.652 114.928 266.917 114.265C267.15 113.73 267.174 113.28 267.174 113.28C265.642 113.807 263.73 113.593 262.727 113.419Z" fill="white"/>
<path d="M266.437 115.02C266.104 114.965 265.74 114.935 265.356 114.935C263.931 114.935 262.768 115.353 262.594 115.892C262.685 115.911 262.768 115.927 262.821 115.936C264.77 116.255 265.842 115.702 266.437 115.02Z" fill="#C13B37"/>
<path d="M277.781 103.086C277.781 103.086 276.792 104.196 278.352 105.374C278.352 105.374 273.889 109.548 275.623 114.068C277.357 118.588 281.628 114.168 282.877 112.823C284.126 111.478 290.352 103.669 285.301 98.776C280.25 93.883 268.176 90.575 267.696 84.619C267.696 84.619 265.706 88.591 267.966 89.894C267.966 89.894 262.645 92.331 261.875 88.445C261.875 88.445 259.121 92.622 262.855 93.011C262.855 93.011 260.734 95.969 264.541 96.031C268.347 96.095 275.196 98.424 277.781 103.086Z" fill="#263238"/>
<path d="M281.113 114.819C280.175 116.009 278.806 116.781 277.302 116.967C275.3 117.184 274.618 115.314 275.445 113.582C276.202 112.031 278.148 110.045 280.033 110.594C281.389 111.037 282.129 112.495 281.687 113.851C281.569 114.212 281.373 114.542 281.113 114.819Z" fill="#DD8C6A"/>
</svg>
