<svg width="500" height="373" viewBox="0 0 500 373" fill="none" xmlns="http://www.w3.org/2000/svg">
<path d="M500 327.446H0V327.696H500V327.446Z" fill="#D1E3FF"/>
<path d="M445.585 333.881H422.332V334.131H445.585V333.881Z" fill="#D1E3FF"/>
<path d="M361 339.312H250.566V339.562H361V339.312Z" fill="#D1E3FF"/>
<path d="M203.333 339.437H192.5V339.687H203.333V339.437Z" fill="#D1E3FF"/>
<path d="M115.556 336.437H78V336.687H115.556V336.437Z" fill="#D1E3FF"/>
<path d="M412.653 333.881H390.668V334.131H412.653V333.881Z" fill="#D1E3FF"/>
<path d="M69.8335 336.437H51.6465V336.687H69.8335V336.437Z" fill="#D1E3FF"/>
<path d="M237.014 282.848H43.915C40.768 282.848 38.207 280.287 38.207 277.14V5.708C38.207 2.561 40.768 0 43.915 0H237.014C240.16 0 242.721 2.561 242.721 5.708V277.14C242.721 280.287 240.16 282.848 237.014 282.848ZM43.915 0.250999C40.905 0.250999 38.457 2.699 38.457 5.709V277.141C38.457 280.151 40.905 282.599 43.915 282.599H237.014C240.023 282.599 242.471 280.151 242.471 277.141V5.708C242.471 2.699 240.023 0.25 237.014 0.25L43.915 0.250999Z" fill="#D1E3FF"/>
<path d="M453.311 282.848H260.213C257.067 282.848 254.506 280.287 254.506 277.14V5.708C254.506 2.561 257.067 0 260.213 0H453.311C456.459 0 459.019 2.561 459.019 5.708V277.14C459.02 280.287 456.459 282.848 453.311 282.848ZM260.213 0.250999C257.204 0.250999 254.756 2.699 254.756 5.709V277.141C254.756 280.151 257.204 282.599 260.213 282.599H453.311C456.321 282.599 458.769 280.151 458.769 277.141V5.708C458.769 2.699 456.321 0.25 453.311 0.25L260.213 0.250999Z" fill="#D1E3FF"/>
<path d="M323.565 150.165H399.139V18.5986H323.565V150.165Z" fill="#D1E3FF"/>
<path d="M319.483 150.165H395.057V18.5986H319.483V150.165Z" fill="#F3F8FF"/>
<path d="M387.727 143.989V24.7722L326.812 24.7722V143.989H387.727Z" fill="white"/>
<path d="M329.898 143.99V24.7729H326.811V143.99H329.898Z" fill="#D1E3FF"/>
<path d="M322.513 115.224L392.023 115.224V106.935L322.513 106.935V115.224Z" fill="#F3F8FF"/>
<path d="M195.141 150.165H270.715V18.5986H195.141V150.165Z" fill="#D1E3FF"/>
<path d="M191.057 150.165H266.631V18.5986H191.057V150.165Z" fill="#F3F8FF"/>
<path d="M259.301 143.989V24.7725L198.386 24.7725L198.386 143.989H259.301Z" fill="white"/>
<path d="M201.473 143.989L201.473 24.7723H198.386L198.386 143.989H201.473Z" fill="#D1E3FF"/>
<path d="M194.09 115.224L263.6 115.224V106.935L194.09 106.935V115.224Z" fill="#F3F8FF"/>
<path d="M66.717 150.165H142.291L142.291 18.5986H66.717L66.717 150.165Z" fill="#D1E3FF"/>
<path d="M62.633 150.165H138.207L138.207 18.5986H62.633L62.633 150.165Z" fill="#F3F8FF"/>
<path d="M130.877 143.99L130.877 24.7728L69.962 24.7728L69.962 143.99H130.877Z" fill="white"/>
<path d="M73.0508 143.99L73.0508 24.7726H69.9638L69.9638 143.99H73.0508Z" fill="#D1E3FF"/>
<path d="M65.6658 115.224L135.176 115.224V106.935L65.6658 106.935V115.224Z" fill="#F3F8FF"/>
<path d="M140.021 231.566C126.395 233.445 117.963 203.83 148.06 178.753C146.434 207.782 163.777 228.29 140.021 231.566Z" fill="#D1E3FF"/>
<path d="M130.018 270.357C110.261 256.511 123.784 208.118 184.931 211.625C158.474 247.245 164.462 294.497 130.018 270.357Z" fill="#CADEFC"/>
<path d="M136.989 270.031C150.123 255.887 131.43 220.298 84.1836 233.294C110.853 256.722 114.092 294.691 136.989 270.031Z" fill="#CADEFC"/>
<path d="M120.148 249.406C115.607 243.876 110.239 237.654 111.543 231.082C112.889 224.447 116.096 219.607 113.51 212.605C110.412 204.21 111.013 194.187 116.25 195.024C121.478 195.867 127.361 202.004 127.204 210.142C127.109 218.019 132.256 220.535 137.099 224.729C141.926 228.887 143.814 235.035 144.681 241.083C146.209 250.622 158.555 248.813 161.838 257.102C165.22 265.091 158.465 275.747 147.655 278.196C136.805 280.654 129.146 282.172 121.777 273.742C114.279 264.778 126.863 257.331 120.148 249.406Z" fill="#F3F8FF"/>
<path d="M157.329 327.446H116.725L113.66 272.129H160.393L157.329 327.446Z" fill="#E3EEFF"/>
<path d="M163.42 270.996H110.635V276.955H163.42V270.996Z" fill="#E3EEFF"/>
<path d="M396.741 319.939H424.059V201.464H396.741V319.939Z" fill="#E3EEFF"/>
<path d="M182.657 327.446L418.812 327.446V319.939L182.657 319.939V327.446Z" fill="#E3EEFF"/>
<path d="M396.74 201.465H177.412V319.94H396.74V201.465Z" fill="#F3F8FF"/>
<path d="M386 216.047H188.152V254.902H386V216.047Z" fill="#E3EEFF"/>
<path d="M386 266.501H188.152V305.356H386V266.501Z" fill="#E3EEFF"/>
<path d="M225.535 238.139H348.618C350.083 238.139 351.282 236.94 351.282 235.475C351.282 234.01 350.083 232.811 348.618 232.811H225.535C224.07 232.811 222.871 234.01 222.871 235.475C222.87 236.94 224.069 238.139 225.535 238.139Z" fill="#F3F8FF"/>
<path d="M225.535 288.593H348.618C350.083 288.593 351.282 287.394 351.282 285.929C351.282 284.464 350.083 283.265 348.618 283.265H225.535C224.07 283.265 222.871 284.464 222.871 285.929C222.87 287.394 224.069 288.593 225.535 288.593Z" fill="#F3F8FF"/>
<path d="M336.186 184.178C336.186 184.178 367.494 213.836 386.071 184.055C386.071 184.055 381.131 174.488 375.919 173.665C370.708 172.843 370.496 181.947 365.895 179.139C361.294 176.331 355.965 166.722 353.047 171.853C350.129 176.984 346.12 169.67 341.748 169.253C337.376 168.835 336.186 184.178 336.186 184.178Z" fill="#F3F8FF"/>
<path d="M388.063 182.131C388.063 182.131 387.375 201.464 361 201.464C334.625 201.464 333.938 182.131 333.938 182.131H388.063Z" fill="#E3EEFF"/>
<path d="M254.612 172.048H269.802V201.465H225.195C225.196 185.218 238.366 172.048 254.612 172.048Z" fill="#F3F8FF"/>
<path d="M283.814 172.048H269.803V201.465H283.814V172.048Z" fill="#D1E3FF"/>
<path d="M250 372.609C357.082 372.609 443.889 367.54 443.889 361.286C443.889 355.033 357.082 349.963 250 349.963C142.918 349.963 56.1113 355.033 56.1113 361.286C56.1113 367.54 142.918 372.609 250 372.609Z" fill="#F0F6FF"/>
<path d="M218.025 142.809C217.754 143.22 217.584 143.46 217.37 143.756C217.166 144.043 216.963 144.312 216.758 144.58C216.346 145.12 215.918 145.621 215.489 146.128C214.622 147.124 213.737 148.095 212.803 149.009C210.935 150.839 208.926 152.504 206.831 154.049C204.723 155.579 202.488 156.928 200.18 158.132C199.01 158.703 197.844 159.285 196.635 159.766L194.825 160.487L194.321 160.681C194.039 160.774 193.775 160.874 193.471 160.939C192.883 161.08 192.253 161.169 191.62 161.154C190.347 161.151 189.14 160.787 188.206 160.296C187.257 159.804 186.52 159.216 185.898 158.627C184.667 157.438 183.83 156.224 183.107 155.027C181.697 152.619 180.734 150.234 179.915 147.832C178.316 143.019 177.234 138.259 176.562 133.315L180.743 132.397C181.498 134.587 182.276 136.852 183.143 139.026C183.97 141.22 184.865 143.379 185.859 145.437C186.848 147.486 187.904 149.493 189.102 151.131C189.684 151.949 190.322 152.661 190.874 153.091C191.145 153.304 191.387 153.432 191.52 153.469C191.661 153.511 191.647 153.469 191.579 153.446C191.548 153.444 191.517 153.429 191.51 153.425C191.502 153.432 191.515 153.405 191.519 153.408L191.844 153.25L193.339 152.527C194.334 152.047 195.285 151.476 196.253 150.951C198.153 149.822 199.97 148.567 201.73 147.239C203.468 145.88 205.114 144.405 206.656 142.843C207.444 142.078 208.18 141.268 208.894 140.454C209.243 140.045 209.594 139.629 209.917 139.218L210.4 138.609L210.792 138.087L218.025 142.809Z" fill="#CE7A63"/>
<path d="M205.89 142.381L210.96 154.535L207.294 156.832L201.594 145.795L205.89 142.381Z" fill="#14365B"/>
<path d="M220.239 132.138C211.969 132.024 203.572 142.499 203.359 142.757L209.905 158.134C209.905 158.134 224.453 146.323 225.182 141.707C225.941 136.9 225.482 132.21 220.239 132.138Z" fill="#0053CC"/>
<path d="M180.032 130.819L174.307 126.37L173.154 135.125C173.154 135.125 178.712 137.307 181.674 135.418L181.594 133.82C181.535 132.64 180.964 131.544 180.032 130.819Z" fill="#CE7A63"/>
<path d="M166.664 125.923L167.021 132.583L173.154 135.124L174.307 126.37L166.664 125.923Z" fill="#CE7A63"/>
<path d="M291.953 130.112L300.792 127.9L294.614 121.591C294.614 121.591 288.879 123.925 290.276 128.927L291.953 130.112Z" fill="#CE7A63"/>
<path d="M305.231 126.326L304.5 119.386L294.613 121.591L300.791 127.9L305.231 126.326Z" fill="#CE7A63"/>
<path d="M263.165 352.515L254.936 353.313L248.074 333.885L256.303 333.088L263.165 352.515Z" fill="#CE7A63"/>
<path d="M351.275 311.688L345.209 317.57L329.637 305.412L335.704 299.53L351.275 311.688Z" fill="#CE7A63"/>
<path d="M343.46 316.432L348.119 308.161C348.288 307.86 348.635 307.734 348.953 307.857L356.028 310.601C356.762 310.886 357.075 311.831 356.672 312.519C354.998 315.375 354.046 316.669 351.997 320.306C350.737 322.544 348.277 327.679 346.536 330.769C344.833 333.791 341.647 332.303 342.095 330.86C344.104 324.391 343.757 320.781 343.219 317.918C343.123 317.401 343.212 316.872 343.46 316.432Z" fill="#14365B"/>
<path d="M253.304 350.791H263.328C263.693 350.791 264.022 351.044 264.12 351.4L266.3 359.331C266.526 360.154 265.92 360.932 265.077 360.918C261.574 360.858 259.863 360.653 255.455 360.653C252.743 360.653 243.91 360.935 240.165 360.935C236.502 360.935 235.736 357.232 237.252 356.896C244.048 355.392 249.789 353.318 251.886 351.34C252.263 350.983 252.771 350.791 253.304 350.791Z" fill="#14365B"/>
<path d="M248.078 333.89L251.613 343.905H260.128L256.31 333.092L248.078 333.89Z" fill="#BC6753"/>
<path d="M335.708 299.532L329.639 305.417L337.669 311.681L343.738 305.796L335.708 299.532Z" fill="#BC6753"/>
<path d="M212.189 134.812C212.189 134.812 208.794 137.398 231.698 182.105C244.657 177.922 258.051 173.599 264.357 171.563C259.518 158.448 256.857 150.257 254.405 120.928C254.405 120.928 247.082 121.648 239.947 123.577C230.289 126.188 225.675 128.126 225.117 128.364C218.935 131.002 212.189 134.812 212.189 134.812Z" fill="#0053CC"/>
<path d="M233.086 107.353C233.691 112.427 235.579 121.471 239.945 123.577C239.945 123.577 240.203 128.838 231.337 131.7C221.588 134.847 225.116 128.364 225.116 128.364C230.027 125.376 228.615 121.472 226.492 118.064L233.086 107.353Z" fill="#CE7A63"/>
<path d="M216.701 132.385C219.112 131.135 222.181 129.617 225.116 128.361C229.807 126.357 234.371 125.083 239.948 123.573C242.802 122.797 245.682 122.213 248.112 121.809C248.338 122.487 247.645 124.246 245.956 126.673C240.609 131.121 229.201 136.887 220.788 136.675C217.157 135.311 216.242 133.863 216.701 132.385Z" fill="#CE7A63"/>
<path d="M245.957 126.674C243.642 130.001 239.445 134.589 233.077 139.432C227.276 138.568 223.358 137.642 220.789 136.676C229.202 136.888 240.61 131.123 245.957 126.674Z" fill="#14365B"/>
<path d="M230.398 111.722L226.494 118.059C227 118.865 227.46 119.699 227.801 120.544C229.739 119.594 232.214 116.784 231.743 114.586C231.508 113.49 230.731 112.161 230.398 111.722Z" fill="#BC6753"/>
<path d="M235.069 97.9652C235.573 106.336 235.965 109.868 232.29 114.645C226.761 121.831 216.369 120.619 213.374 112.568C210.678 105.321 210.306 92.8492 218.035 88.5492C225.65 84.3132 234.565 89.5942 235.069 97.9652Z" fill="#CE7A63"/>
<path d="M251.596 82.9699C253.487 74.6528 248.277 66.3776 239.96 64.4866C231.643 62.5956 223.368 67.805 221.477 76.1221C219.586 84.4392 224.795 92.7145 233.112 94.6055C241.429 96.4964 249.705 91.287 251.596 82.9699Z" fill="#0F264C"/>
<path d="M232.689 86.2501C235.873 88.3481 237.455 91.5651 236.223 93.4361C234.99 95.3071 231.41 95.1241 228.226 93.0261C225.042 90.9281 223.46 87.7111 224.692 85.8401C225.924 83.9691 229.505 84.1521 232.689 86.2501Z" fill="#9FC6FF"/>
<path d="M231.023 103.675C231.856 101.758 228.958 96.0562 229.585 93.9232C227.918 92.3812 211.095 97.8622 212.451 93.8542C213.748 90.0212 217.85 84.9232 227.21 87.0552C237.247 89.3412 238.085 97.9882 236.96 100.747C235.835 103.507 234.252 106.38 234.252 106.38L231.023 103.675Z" fill="#0F264C"/>
<path d="M237.276 105.304C237.316 107.042 236.55 108.636 235.546 109.654C234.037 111.184 232.219 110.091 231.748 108.11C231.324 106.327 231.598 103.382 233.542 102.595C235.456 101.819 237.23 103.317 237.276 105.304Z" fill="#CE7A63"/>
<path d="M231.696 182.104C231.696 182.104 216.557 255.945 225 280.298C233.781 305.628 248.074 340.991 248.074 340.991L261.42 340.225C261.42 340.225 250.392 295.543 247.709 275.366C244.01 247.549 259.887 173.005 259.887 173.005L231.696 182.104Z" fill="#9FC6FF"/>
<path d="M262.475 340.548L247.021 341.434L244.543 335.361L261.584 333.59L262.475 340.548Z" fill="#0053CC"/>
<path d="M247.711 187.791C245.391 196.371 247.331 209.231 251.711 218.251C252.781 211.241 253.921 204.471 255.001 198.401C252.751 194.091 250.271 190.191 247.711 187.791Z" fill="#77B3FC"/>
<path d="M240.322 179.32C240.322 179.32 262.804 233.005 277.686 262.547C289.706 286.408 334.223 311.378 334.223 311.378L342.196 302.899C342.196 302.899 308.919 273.347 300.62 257.166C274.061 205.377 279.522 182.76 264.356 171.562L240.322 179.32Z" fill="#9FC6FF"/>
<path d="M343.708 301.689L332.714 313.379L325.752 309.715L338.419 296.798L343.708 301.689Z" fill="#0053CC"/>
<path d="M264.227 169.488L266.643 171.936C266.831 172.126 266.636 172.444 266.259 172.566L232.009 183.621C231.715 183.716 231.424 183.651 231.346 183.471L230.108 180.643C230.022 180.447 230.222 180.193 230.544 180.089L263.616 169.414C263.859 169.336 264.106 169.366 264.227 169.488Z" fill="#14365B"/>
<path d="M260.979 174.62L261.865 174.334C262.041 174.277 262.146 174.143 262.098 174.036L260.457 170.372C260.409 170.265 260.225 170.224 260.049 170.281L259.163 170.567C258.987 170.624 258.882 170.758 258.93 170.865L260.571 174.529C260.619 174.635 260.802 174.677 260.979 174.62Z" fill="#9FC6FF"/>
<path d="M234.6 183.134L235.486 182.848C235.662 182.791 235.767 182.657 235.719 182.55L234.078 178.886C234.03 178.779 233.846 178.738 233.67 178.795L232.784 179.081C232.608 179.138 232.503 179.272 232.551 179.38L234.192 183.044C234.24 183.15 234.424 183.191 234.6 183.134Z" fill="#9FC6FF"/>
<path d="M247.789 178.877L248.675 178.591C248.851 178.534 248.956 178.4 248.908 178.293L247.267 174.629C247.219 174.522 247.035 174.481 246.859 174.537L245.973 174.823C245.797 174.88 245.692 175.014 245.74 175.121L247.381 178.785C247.429 178.893 247.613 178.934 247.789 178.877Z" fill="#9FC6FF"/>
<path d="M222.752 101.826C222.835 102.502 222.543 103.095 222.101 103.149C221.659 103.203 221.233 102.698 221.151 102.022C221.068 101.346 221.36 100.753 221.802 100.699C222.244 100.644 222.67 101.149 222.752 101.826Z" fill="#0F264C"/>
<path d="M215.103 102.759C215.186 103.435 214.894 104.028 214.452 104.082C214.01 104.136 213.584 103.631 213.502 102.955C213.419 102.278 213.711 101.686 214.153 101.632C214.595 101.578 215.021 102.083 215.103 102.759Z" fill="#0F264C"/>
<path d="M214.354 101.646L212.672 101.376C212.672 101.376 213.66 102.543 214.354 101.646Z" fill="#0F264C"/>
<path d="M217.268 103.675C217.268 103.675 216.476 106.728 215.383 108.287C216.378 109.012 217.85 108.445 217.85 108.445L217.268 103.675Z" fill="#BA4D3C"/>
<path d="M220.531 110.821C220.431 110.821 220.345 110.746 220.333 110.645C220.32 110.535 220.398 110.436 220.507 110.422C223.468 110.061 224.61 107.816 224.621 107.794C224.67 107.694 224.79 107.652 224.889 107.703C224.988 107.752 225.029 107.872 224.98 107.971C224.931 108.071 223.738 110.431 220.555 110.82C220.548 110.82 220.54 110.821 220.531 110.821Z" fill="#0F264C"/>
<path d="M223.699 99.4241C223.606 99.4241 223.513 99.3921 223.437 99.3271C222.099 98.1721 220.706 98.5401 220.648 98.5581C220.436 98.6171 220.215 98.4941 220.154 98.2821C220.094 98.0701 220.216 97.8501 220.427 97.7891C220.504 97.7671 222.283 97.2761 223.96 98.7211C224.127 98.8661 224.146 99.1181 224.002 99.2861C223.922 99.3771 223.811 99.4241 223.699 99.4241Z" fill="#0F264C"/>
<path d="M211.154 99.6632C211.094 99.6632 211.032 99.6492 210.975 99.6202C210.777 99.5212 210.698 99.2802 210.797 99.0832C211.792 97.1042 213.626 96.8772 213.703 96.8692C213.923 96.8492 214.12 97.0032 214.145 97.2232C214.169 97.4422 214.012 97.6402 213.794 97.6652C213.733 97.6722 212.305 97.8652 211.511 99.4432C211.442 99.5822 211.301 99.6632 211.154 99.6632Z" fill="#0F264C"/>
<path d="M260.976 128.737L261.352 129.216L261.822 129.784C262.141 130.167 262.477 130.559 262.821 130.941C263.515 131.706 264.235 132.464 264.999 133.186C266.5 134.654 268.093 136.052 269.771 137.349C271.471 138.615 273.215 139.834 275.037 140.939C275.952 141.482 276.884 142.004 277.819 142.519L279.248 143.246L279.946 143.6C280.115 143.675 280.285 143.761 280.444 143.817C281.101 144.081 281.619 144.152 282.055 144.145C282.488 144.129 282.922 143.996 283.454 143.628C284.532 142.907 285.666 141.3 286.543 139.503C287.451 137.695 288.175 135.656 288.768 133.561C289.399 131.484 289.89 129.263 290.302 127.161L294.573 127.431C294.618 132.32 294.117 137.033 292.493 141.949C292.079 143.177 291.538 144.398 290.839 145.625C290.136 146.841 289.252 148.085 287.995 149.181C286.76 150.275 285.06 151.204 283.211 151.526C281.371 151.866 279.542 151.642 278.027 151.166C277.635 151.054 277.276 150.917 276.91 150.78L276.039 150.419L274.336 149.704C273.213 149.199 272.1 148.663 271.009 148.087C268.826 146.932 266.716 145.633 264.7 144.192C262.699 142.732 260.76 141.174 258.95 139.452C258.045 138.592 257.181 137.682 256.334 136.741C255.912 136.266 255.495 135.789 255.088 135.281L254.484 134.501C254.272 134.219 254.106 133.995 253.832 133.595L260.976 128.737Z" fill="#CE7A63"/>
<path d="M268.087 134.008L261.835 144.519L258.777 141.633L264.557 131.113L268.087 134.008Z" fill="#14365B"/>
<path d="M254.405 120.928C257.998 120.867 266.738 131.19 266.738 131.19L259.144 144.42C259.144 144.42 249.465 135.887 249.475 131.214C249.485 126.347 250.305 120.997 254.405 120.928Z" fill="#0053CC"/>
<path d="M341.822 320.917C341.568 320.917 341.314 320.821 341.063 320.63C340.792 320.423 340.753 320.177 340.769 320.007C340.865 318.932 343.567 317.508 343.874 317.35C343.945 317.315 344.031 317.323 344.093 317.373C344.155 317.424 344.181 317.506 344.158 317.583C343.847 318.663 343.172 320.526 342.152 320.862C342.043 320.9 341.933 320.917 341.822 320.917ZM343.632 317.937C342.567 318.538 341.219 319.476 341.168 320.042C341.162 320.113 341.172 320.208 341.308 320.312C341.558 320.504 341.792 320.56 342.029 320.483C342.578 320.301 343.165 319.363 343.632 317.937Z" fill="#407BFF"/>
<path d="M341.447 318.302C340.922 318.302 340.458 318.212 340.197 317.988C340.056 317.867 339.848 317.593 340.042 317.128C340.164 316.832 340.382 316.628 340.689 316.521C341.849 316.124 343.975 317.303 344.064 317.354C344.127 317.389 344.166 317.455 344.167 317.526C344.168 317.597 344.131 317.664 344.07 317.701C343.558 318.007 342.401 318.302 341.447 318.302ZM341.245 316.836C341.089 316.836 340.945 316.856 340.82 316.899C340.623 316.967 340.489 317.092 340.411 317.28C340.313 317.518 340.385 317.622 340.458 317.684C340.906 318.071 342.569 317.907 343.523 317.522C342.926 317.229 341.956 316.836 341.245 316.836Z" fill="#407BFF"/>
<path d="M248.859 352.445C248.084 352.445 247.362 352.326 246.901 351.977C246.586 351.739 246.415 351.414 246.392 351.014C246.375 350.715 246.519 350.553 246.644 350.469C247.555 349.852 250.967 351.404 251.641 351.721C251.718 351.757 251.764 351.838 251.755 351.924C251.745 352.009 251.683 352.078 251.599 352.097C250.873 352.259 249.825 352.445 248.859 352.445ZM247.262 350.716C247.09 350.716 246.955 350.742 246.868 350.801C246.826 350.829 246.785 350.874 246.792 350.991C246.808 351.273 246.923 351.492 247.143 351.658C247.931 352.253 249.813 352.027 250.908 351.829C249.675 351.293 248.065 350.716 247.262 350.716Z" fill="#407BFF"/>
<path d="M251.557 352.103C251.532 352.103 251.505 352.098 251.481 352.088C250.35 351.625 248.068 349.795 248.197 348.85C248.225 348.643 248.366 348.383 248.882 348.322C250.87 348.062 251.717 351.705 251.753 351.858C251.77 351.931 251.744 352.007 251.687 352.055C251.649 352.086 251.603 352.103 251.557 352.103ZM249.064 348.71C249.02 348.71 248.975 348.713 248.929 348.718C248.719 348.743 248.606 348.806 248.593 348.904C248.519 349.453 250.095 350.898 251.247 351.531C250.984 350.656 250.264 348.71 249.064 348.71Z" fill="#407BFF"/>
<path d="M222 100.712L220.318 100.442C220.318 100.442 221.306 101.61 222 100.712Z" fill="#0F264C"/>
<path d="M159.445 30.8262C157.667 33.0482 147.917 35.6582 140.167 34.9372C137.5 52.4542 146.834 72.6322 146.834 72.6322C146.834 72.6322 167.084 70.2152 167.584 61.8822C168.084 53.5482 159.445 30.8262 159.445 30.8262Z" fill="#77B3FC"/>
<path d="M312.729 17.5012C314.541 20.0472 323.742 22.5792 330.84 21.2562C334.652 41.9992 327.594 66.6332 327.594 66.6332C327.594 66.6332 308.716 64.9582 307.612 55.0442C306.507 45.1302 312.729 17.5012 312.729 17.5012Z" fill="#77B3FC"/>
<path d="M180.013 197.118C179.405 197.204 178.843 196.781 178.757 196.173L154.953 27.7081C154.867 27.1001 155.289 26.5381 155.897 26.4521C156.505 26.3661 157.067 26.7891 157.153 27.3971L180.957 195.862C181.042 196.47 180.62 197.032 180.013 197.118Z" fill="#0053CC"/>
<path d="M293.175 184.595C293.783 184.681 294.345 184.258 294.431 183.65L318.235 15.1852C318.321 14.5772 317.898 14.0152 317.29 13.9292C316.682 13.8432 316.12 14.2662 316.034 14.8742L292.23 183.339C292.145 183.947 292.568 184.509 293.175 184.595Z" fill="#0053CC"/>
<path d="M154.056 31.2712L158.548 64.3452C158.669 65.2352 159.55 65.8092 160.414 65.5622C170.473 62.6832 226.382 48.3192 312.338 57.4612C313.098 57.5422 313.797 57.0362 313.943 56.2852C315.563 47.9052 318.355 24.0382 319.059 17.9312C319.151 17.1292 318.582 16.4042 317.781 16.3022C306.238 14.8402 227.468 6.1072 155.064 29.6642C154.384 29.8842 153.96 30.5632 154.056 31.2712Z" fill="#9FC6FF"/>
<path d="M168.479 37.0031L173.221 36.0411L176.577 44.7531L177.426 35.1891L182.151 34.2311L186.302 42.7691L186.365 33.3771L191.082 32.4211L190.465 49.3231L185.569 50.3151L180.881 40.7031L179.912 51.4621L175.016 52.4541L168.479 37.0031Z" fill="white"/>
<path d="M193.404 32.1652L206.895 30.1852L207.335 33.6722L198.889 34.9122L199.217 37.5082L207.052 36.3582L207.472 39.6892L199.637 40.8392L200.044 44.0592L208.735 42.7842L209.202 46.4832L195.465 48.4992L193.404 32.1652Z" fill="white"/>
<path d="M210.326 29.7741L215.381 29.2291L216.464 41.6011L224.354 40.7501L224.708 44.7911L211.763 46.1871L210.326 29.7741Z" fill="white"/>
<path d="M237.063 37.1102L241.574 38.1402C241.34 39.4122 240.924 40.4902 240.326 41.3752C239.727 42.2592 238.964 42.9492 238.035 43.4442C237.106 43.9392 235.907 44.2392 234.438 44.3432C232.656 44.4712 231.186 44.3152 230.029 43.8752C228.872 43.4362 227.85 42.5912 226.963 41.3402C226.074 40.0892 225.578 38.4432 225.473 36.3992C225.333 33.6762 225.947 31.5312 227.315 29.9642C228.683 28.3982 230.687 27.5202 233.328 27.3322C235.394 27.1842 237.039 27.4872 238.265 28.2412C239.489 28.9952 240.434 30.2202 241.098 31.9172L236.674 33.2362C236.491 32.7462 236.309 32.3912 236.125 32.1712C235.821 31.8022 235.458 31.5272 235.038 31.3472C234.617 31.1672 234.153 31.0942 233.646 31.1312C232.498 31.2132 231.641 31.7402 231.078 32.7112C230.651 33.4322 230.475 34.5292 230.551 36.0032C230.644 37.8282 230.985 39.0592 231.572 39.6962C232.159 40.3342 232.951 40.6162 233.951 40.5442C234.92 40.4752 235.638 40.1492 236.107 39.5672C236.574 38.9862 236.893 38.1672 237.063 37.1102Z" fill="white"/>
<path d="M243.423 35.2032C243.388 32.5092 244.107 30.3872 245.582 28.8382C247.056 27.2892 249.127 26.4702 251.793 26.3832C254.526 26.2952 256.642 26.9632 258.139 28.3892C259.636 29.8152 260.403 31.8562 260.437 34.5122C260.462 36.4412 260.159 38.0332 259.528 39.2872C258.899 40.5432 257.977 41.5332 256.766 42.2602C255.554 42.9862 254.036 43.3792 252.214 43.4382C250.362 43.4992 248.826 43.2522 247.604 42.6992C246.383 42.1462 245.386 41.2402 244.616 39.9822C243.845 38.7242 243.448 37.1312 243.423 35.2032ZM248.497 35.0592C248.519 36.7252 248.842 37.9112 249.468 38.6192C250.094 39.3262 250.936 39.6632 251.997 39.6282C253.087 39.5932 253.926 39.2092 254.515 38.4772C255.103 37.7442 255.385 36.4562 255.362 34.6102C255.342 33.0572 255.015 31.9322 254.382 31.2362C253.749 30.5402 252.899 30.2092 251.832 30.2442C250.808 30.2772 249.992 30.6682 249.382 31.4162C248.769 32.1642 248.475 33.3792 248.497 35.0592Z" fill="white"/>
<path d="M263.513 26.3362L270.185 26.3902L272.484 36.4552L275.312 26.4312L281.98 26.4842L281.529 42.9912L277.375 42.9572L277.718 30.3682L274.174 42.9312L270.413 42.9012L267.561 30.2872L267.218 42.8762L263.064 42.8432L263.513 26.3362Z" fill="white"/>
<path d="M285.641 26.6312L299.213 27.2352L298.99 30.7562L290.493 30.3782L290.327 32.9992L298.209 33.3502L297.995 36.7132L290.114 36.3632L289.907 39.6132L298.65 40.0032L298.414 43.7382L284.596 43.1232L285.641 26.6312Z" fill="white"/>
</svg>
