<svg width="342" height="343" viewBox="0 0 342 343" fill="none" xmlns="http://www.w3.org/2000/svg">
<path d="M296.683 231.265C296.683 231.265 364.685 125.317 333.348 57.5637C302.011 -10.19 227.217 -10.577 201.36 17.7395C185.557 35.0472 190.163 63.9557 152.749 75.1394C129.862 81.9804 113.201 71.0113 79.0819 59.1158C44.9628 47.2202 5.35064 73.0805 0.483143 114.372C-4.97986 160.719 37.2057 184.947 60.3634 201.63C83.521 218.313 71.7927 245.984 81.3932 271.896C90.9938 297.809 245.839 325.316 296.683 231.265Z" fill="#D5FAF6"/>
<path d="M330.328 114.372C330.328 114.372 335.502 54.4896 296.683 24.7218C263.297 -0.879915 229.923 11.5336 219.42 22.7819C208.916 34.0311 220.409 47.6072 249.424 45.6681C278.438 43.729 322.441 63.7704 330.328 114.372Z" fill="white"/>
<path d="M145.449 343C165.873 343 182.43 339.421 182.43 335.006C182.43 330.591 165.873 327.012 145.449 327.012C125.025 327.012 108.468 330.591 108.468 335.006C108.468 339.421 125.025 343 145.449 343Z" fill="#D2EDFF"/>
<path d="M276.649 335.006C297.073 335.006 313.63 331.427 313.63 327.012C313.63 322.597 297.073 319.018 276.649 319.018C256.225 319.018 239.668 322.597 239.668 327.012C239.668 331.427 256.225 335.006 276.649 335.006Z" fill="#D2EDFF"/>
<path d="M217.812 327.012C270.811 327.012 313.776 323.433 313.776 319.018C313.776 314.603 270.811 311.023 217.812 311.023C164.813 311.023 121.849 314.603 121.849 319.018C121.849 323.433 164.813 327.012 217.812 327.012Z" fill="#D2EDFF"/>
<path d="M101.315 321.57C154.314 321.57 197.278 317.991 197.278 313.576C197.278 309.161 154.314 305.582 101.315 305.582C48.3158 305.582 5.35156 309.161 5.35156 313.576C5.35156 317.991 48.3158 321.57 101.315 321.57Z" fill="#D2EDFF"/>
<path d="M78.7509 217.463C112.413 217.463 139.701 190.174 139.701 156.512C139.701 122.85 112.413 95.5617 78.7509 95.5617C45.0888 95.5617 17.8003 122.85 17.8003 156.512C17.8003 190.174 45.0888 217.463 78.7509 217.463Z" fill="#ACDAFF"/>
<path d="M78.7511 209.306C107.908 209.306 131.545 185.669 131.545 156.512C131.545 127.355 107.908 103.719 78.7511 103.719C49.594 103.719 25.9575 127.355 25.9575 156.512C25.9575 185.669 49.594 209.306 78.7511 209.306Z" fill="#E6FFFF"/>
<path opacity="0.57" d="M97.6357 158.568C104.999 147.441 105.78 127.389 102.079 116.709C95.3346 112.747 87.4973 110.438 79.1136 110.372C53.6317 110.172 32.8112 130.667 32.6113 156.15C32.5536 163.519 34.2349 170.493 37.259 176.696C37.6175 176.747 37.9976 176.714 38.3329 176.854C55.1855 183.88 83.7916 179.488 97.6357 158.568Z" fill="#FFFAFF"/>
<path d="M79.0305 120.926C79.9181 120.933 80.6498 120.213 80.6567 119.325L80.7343 109.444C80.7412 108.556 80.0207 107.824 79.133 107.817C78.2454 107.811 77.5137 108.531 77.5068 109.419L77.4292 119.3C77.4232 120.188 78.1428 120.92 79.0305 120.926Z" fill="#ACDAFF"/>
<path d="M78.3689 205.206C79.2565 205.213 79.9882 204.493 79.9951 203.605L80.0727 193.723C80.0796 192.836 79.3591 192.104 78.4714 192.097C77.5838 192.09 76.8521 192.811 76.8452 193.698L76.7676 203.58C76.7616 204.468 77.4812 205.199 78.3689 205.206Z" fill="#ACDAFF"/>
<path d="M114.337 156.792C114.33 157.679 115.051 158.411 115.938 158.418L125.82 158.495C126.707 158.502 127.439 157.782 127.446 156.894C127.453 156.006 126.732 155.275 125.845 155.268L115.963 155.19C115.076 155.184 114.344 155.904 114.337 156.792Z" fill="#ACDAFF"/>
<path d="M30.0572 156.13C30.0503 157.017 30.7708 157.749 31.6584 157.756L41.5399 157.833C42.4276 157.84 43.1593 157.12 43.1662 156.232C43.173 155.344 42.4526 154.613 41.5649 154.606L31.6834 154.528C30.7957 154.521 30.0641 155.242 30.0572 156.13Z" fill="#ACDAFF"/>
<path d="M100.702 120.784C101.593 120.784 102.315 120.062 102.315 119.171C102.315 118.28 101.593 117.558 100.702 117.558C99.8112 117.558 99.0889 118.28 99.0889 119.171C99.0889 120.062 99.8112 120.784 100.702 120.784Z" fill="#ACDAFF"/>
<path d="M56.7993 195.466C57.6903 195.466 58.4126 194.744 58.4126 193.853C58.4126 192.962 57.6903 192.239 56.7993 192.239C55.9083 192.239 55.186 192.962 55.186 193.853C55.186 194.744 55.9083 195.466 56.7993 195.466Z" fill="#ACDAFF"/>
<path d="M116.432 136.763C117.323 136.763 118.045 136.041 118.045 135.15C118.045 134.259 117.323 133.536 116.432 133.536C115.541 133.536 114.819 134.259 114.819 135.15C114.819 136.041 115.541 136.763 116.432 136.763Z" fill="#ACDAFF"/>
<path d="M41.0703 179.488C41.9613 179.488 42.6836 178.766 42.6836 177.875C42.6836 176.984 41.9613 176.262 41.0703 176.262C40.1793 176.262 39.457 176.984 39.457 177.875C39.457 178.766 40.1793 179.488 41.0703 179.488Z" fill="#ACDAFF"/>
<path d="M116.093 180.077C116.984 180.077 117.706 179.354 117.706 178.463C117.706 177.572 116.984 176.85 116.093 176.85C115.202 176.85 114.479 177.572 114.479 178.463C114.479 179.354 115.202 180.077 116.093 180.077Z" fill="#ACDAFF"/>
<path d="M41.4102 136.174C42.3012 136.174 43.0235 135.451 43.0235 134.56C43.0235 133.669 42.3012 132.947 41.4102 132.947C40.5192 132.947 39.7969 133.669 39.7969 134.56C39.7969 135.451 40.5192 136.174 41.4102 136.174Z" fill="#ACDAFF"/>
<path d="M100.114 195.806C101.005 195.806 101.728 195.084 101.728 194.193C101.728 193.302 101.005 192.58 100.114 192.58C99.2233 192.58 98.501 193.302 98.501 194.193C98.501 195.084 99.2233 195.806 100.114 195.806Z" fill="#ACDAFF"/>
<path d="M57.3887 120.445C58.2797 120.445 59.002 119.722 59.002 118.831C59.002 117.94 58.2797 117.218 57.3887 117.218C56.4977 117.218 55.7754 117.94 55.7754 118.831C55.7754 119.722 56.4977 120.445 57.3887 120.445Z" fill="#ACDAFF"/>
<path d="M95.1322 144.379C99.9583 142.496 122.48 132.808 122.48 132.808L122.563 132.962L122.726 133.268L122.809 133.422C122.809 133.422 102.311 146.873 98.0804 149.862C93.8498 152.85 78.8483 157.525 78.8483 157.525L78.5751 157.016L78.4114 156.711L78.1382 156.203C78.1382 156.203 90.3069 146.262 95.1322 144.379Z" fill="#FFBC00"/>
<path d="M63.4377 159.787C59.744 159.215 42.214 157.341 42.214 157.341L42.2114 157.166L42.2062 156.82L42.2036 156.645C42.2036 156.645 59.6699 154.247 63.3447 153.563C67.0194 152.88 78.1161 155.704 78.1161 155.704L78.1247 156.281L78.1298 156.628L78.1385 157.205C78.1385 157.205 67.1314 160.36 63.4377 159.787Z" fill="#FFBC00"/>
<path d="M78.7509 159.74C80.5334 159.74 81.9784 158.295 81.9784 156.512C81.9784 154.73 80.5334 153.285 78.7509 153.285C76.9684 153.285 75.5234 154.73 75.5234 156.512C75.5234 158.295 76.9684 159.74 78.7509 159.74Z" fill="#ACDAFF"/>
<path d="M46.7116 222.423L32.3556 308.417C32.1902 309.408 32.9537 310.309 33.9577 310.309C34.7221 310.309 35.3832 309.776 35.5452 309.029L54.3412 222.423H46.7116Z" fill="#ACDAFF"/>
<path d="M60.5901 217.258L50.4751 303.854C50.3587 304.851 51.1654 305.715 52.1685 305.665C52.9321 305.627 53.5664 305.062 53.6913 304.308L68.2111 216.883L60.5901 217.258Z" fill="#ACDAFF"/>
<path d="M119.938 222.423L134.294 308.417C134.46 309.408 133.696 310.309 132.692 310.309C131.928 310.309 131.267 309.776 131.105 309.029L112.309 222.423H119.938Z" fill="#ACDAFF"/>
<path d="M106.06 217.258L116.176 303.854C116.292 304.851 115.486 305.715 114.483 305.665C113.719 305.627 113.085 305.062 112.96 304.308L98.4399 216.883L106.06 217.258Z" fill="#ACDAFF"/>
<path d="M132.087 224.425H36.0103C33.8265 224.425 32.0391 222.637 32.0391 220.453C32.0391 218.27 33.8265 216.482 36.0103 216.482H132.087C134.271 216.482 136.059 218.27 136.059 220.453C136.059 222.638 134.271 224.425 132.087 224.425Z" fill="#2099FF"/>
<path d="M37.1954 290.777L36.9507 290.69C36.98 290.609 39.8188 282.463 38.1839 272.822C36.6766 263.932 30.9439 251.912 12.1943 245.13L12.2822 244.885C20.6116 247.898 27.1062 252.184 31.5842 257.627C35.1693 261.983 37.4764 267.085 38.4416 272.788C40.0842 282.494 37.2239 290.695 37.1954 290.777Z" fill="#6CB7D8"/>
<path d="M14.828 246.009C14.828 246.009 9.89755 246.753 7.35608 244.484C4.81374 242.216 9.14519 241.12 14.828 246.009Z" fill="#6CB7D8"/>
<path d="M19.936 248.431C19.936 248.431 18.3925 241.909 15.9967 240.625C13.6 239.341 13.263 243.988 19.936 248.431Z" fill="#6CB7D8"/>
<path d="M19.1539 247.984C19.1539 247.984 12.5188 247.038 10.4479 248.8C8.3778 250.561 12.5808 252.572 19.1539 247.984Z" fill="#6CB7D8"/>
<path d="M23.231 250.483C23.231 250.483 16.5959 249.538 14.525 251.299C12.455 253.061 16.658 255.072 23.231 250.483Z" fill="#6CB7D8"/>
<path d="M27.336 253.382C27.336 253.382 20.7009 252.437 18.63 254.198C16.5599 255.96 20.763 257.97 27.336 253.382Z" fill="#6CB7D8"/>
<path d="M31.3091 257.388C31.3091 257.388 24.7705 255.914 22.566 257.504C20.3606 259.094 24.3896 261.436 31.3091 257.388Z" fill="#6CB7D8"/>
<path d="M34.9435 262.707C34.9435 262.707 28.866 259.881 26.3745 260.968C23.8831 262.055 27.3243 265.197 34.9435 262.707Z" fill="#6CB7D8"/>
<path d="M37.5875 269.223C37.5875 269.223 32.7338 264.6 30.0251 264.833C27.3164 265.066 29.5709 269.143 37.5875 269.223Z" fill="#6CB7D8"/>
<path d="M38.7414 276.84C38.7414 276.84 35.7104 270.862 33.0793 270.176C30.4482 269.491 31.2117 274.088 38.7414 276.84Z" fill="#6CB7D8"/>
<path d="M38.4473 284.321C38.4473 284.321 36.8719 277.807 34.47 276.535C32.0681 275.263 31.7527 279.91 38.4473 284.321Z" fill="#6CB7D8"/>
<path d="M24.5044 251.27C24.5044 251.27 25.156 245.538 22.9506 242.472C20.7444 239.405 20.0006 242.922 20.8486 244.899C21.6958 246.877 24.5044 251.27 24.5044 251.27Z" fill="#6CB7D8"/>
<path d="M27.8507 253.925C27.8507 253.925 29.4011 248.368 27.7076 244.992C26.0142 241.615 24.7241 244.969 25.248 247.056C25.772 249.142 27.8507 253.925 27.8507 253.925Z" fill="#6CB7D8"/>
<path d="M30.9644 257.054C30.9644 257.054 33.7601 252.009 32.8957 248.331C32.0313 244.654 29.9983 247.618 30.0242 249.77C30.05 251.921 30.9644 257.054 30.9644 257.054Z" fill="#6CB7D8"/>
<path d="M33.9991 261.082C33.9991 261.082 36.7948 256.036 35.9304 252.358C35.066 248.681 33.033 251.645 33.0588 253.797C33.0856 255.948 33.9991 261.082 33.9991 261.082Z" fill="#6CB7D8"/>
<path d="M36.643 266.59C36.643 266.59 40.0661 261.947 39.6826 258.189C39.2991 254.431 36.9015 257.108 36.6499 259.244C36.3991 261.382 36.643 266.59 36.643 266.59Z" fill="#6CB7D8"/>
<path d="M38.4277 273.906C38.4277 273.906 42.6704 269.997 43.0065 266.234C43.3435 262.472 40.4806 264.645 39.829 266.695C39.1766 268.746 38.4277 273.906 38.4277 273.906Z" fill="#6CB7D8"/>
<path d="M38.7266 280.552C38.7266 280.552 43.6673 277.574 44.7541 273.956C45.8399 270.338 42.5995 271.892 41.5481 273.769C40.4967 275.647 38.7266 280.552 38.7266 280.552Z" fill="#6CB7D8"/>
<path d="M69.0252 277.953L69.27 277.866C69.2407 277.785 66.4019 269.639 68.0367 259.998C69.5441 251.109 75.2768 239.088 94.0263 232.306L93.9384 232.061C85.609 235.074 79.1144 239.361 74.6365 244.803C71.0514 249.159 68.7443 254.26 67.7791 259.965C66.1365 269.67 68.9959 277.871 69.0252 277.953Z" fill="#6CB7D8"/>
<path d="M91.3926 233.185C91.3926 233.185 96.323 233.929 98.8645 231.66C101.407 229.393 97.0753 228.297 91.3926 233.185Z" fill="#6CB7D8"/>
<path d="M86.2847 235.607C86.2847 235.607 87.8282 229.085 90.224 227.801C92.6207 226.518 92.9577 231.165 86.2847 235.607Z" fill="#6CB7D8"/>
<path d="M87.0664 235.16C87.0664 235.16 93.7015 234.215 95.7724 235.976C97.8425 237.738 93.6394 239.749 87.0664 235.16Z" fill="#6CB7D8"/>
<path d="M82.9893 237.659C82.9893 237.659 89.6243 236.714 91.6953 238.476C93.7662 240.237 89.5623 242.249 82.9893 237.659Z" fill="#6CB7D8"/>
<path d="M78.8848 240.558C78.8848 240.558 85.5198 239.613 87.5908 241.375C89.6617 243.136 85.4578 245.147 78.8848 240.558Z" fill="#6CB7D8"/>
<path d="M74.9111 244.564C74.9111 244.564 81.4497 243.09 83.6542 244.68C85.8596 246.271 81.8306 248.612 74.9111 244.564Z" fill="#6CB7D8"/>
<path d="M71.2773 249.884C71.2773 249.884 77.3548 247.058 79.8463 248.145C82.3378 249.232 78.8966 252.373 71.2773 249.884Z" fill="#6CB7D8"/>
<path d="M68.6333 256.399C68.6333 256.399 73.487 251.777 76.1957 252.009C78.9043 252.242 76.6498 256.319 68.6333 256.399Z" fill="#6CB7D8"/>
<path d="M67.479 264.017C67.479 264.017 70.51 258.039 73.1411 257.353C75.7722 256.668 75.0086 261.264 67.479 264.017Z" fill="#6CB7D8"/>
<path d="M67.7734 271.497C67.7734 271.497 69.3488 264.983 71.7507 263.711C74.1526 262.439 74.468 267.088 67.7734 271.497Z" fill="#6CB7D8"/>
<path d="M81.7163 238.446C81.7163 238.446 81.0648 232.714 83.2702 229.648C85.4764 226.582 86.2202 230.098 85.3721 232.076C84.525 234.054 81.7163 238.446 81.7163 238.446Z" fill="#6CB7D8"/>
<path d="M78.3702 241.101C78.3702 241.101 76.8198 235.544 78.5133 232.168C80.2067 228.791 81.4969 232.146 80.9729 234.233C80.4489 236.319 78.3702 241.101 78.3702 241.101Z" fill="#6CB7D8"/>
<path d="M75.2563 244.231C75.2563 244.231 72.4606 239.185 73.325 235.507C74.1894 231.83 76.2224 234.794 76.1966 236.946C76.1707 239.097 75.2563 244.231 75.2563 244.231Z" fill="#6CB7D8"/>
<path d="M72.2217 248.258C72.2217 248.258 69.426 243.212 70.2904 239.535C71.1548 235.857 73.1878 238.821 73.1619 240.973C73.1352 243.124 72.2217 248.258 72.2217 248.258Z" fill="#6CB7D8"/>
<path d="M69.5779 253.767C69.5779 253.767 66.1548 249.124 66.5383 245.366C66.9218 241.608 69.3193 244.285 69.571 246.421C69.8218 248.559 69.5779 253.767 69.5779 253.767Z" fill="#6CB7D8"/>
<path d="M67.7928 261.082C67.7928 261.082 63.5501 257.173 63.214 253.411C62.877 249.648 65.7399 251.821 66.3915 253.872C67.0439 255.923 67.7928 261.082 67.7928 261.082Z" fill="#6CB7D8"/>
<path d="M67.4939 267.729C67.4939 267.729 62.5532 264.751 61.4664 261.133C60.3797 257.516 63.6209 259.069 64.6723 260.946C65.7237 262.824 67.4939 267.729 67.4939 267.729Z" fill="#6CB7D8"/>
<path d="M40.4627 266.788C40.4627 266.788 34.7015 249.735 39.887 244.837C45.0725 239.94 38.6374 232.989 40.1611 228.461C41.6856 223.934 47.2675 221.244 49.7021 229.55C52.1368 237.856 52.8262 238.113 58.9442 238.495C65.0622 238.878 64.5916 251.197 63.51 256.864C62.4285 262.532 68.437 253.579 70.2546 259.662C72.0721 265.746 63.2679 278.29 54.0077 284.829C44.7476 291.367 33.4217 272.772 34.1991 268.121C34.9773 263.471 38.3762 269.696 40.4627 266.788Z" fill="#82C4E8"/>
<path d="M41.2776 243.001C40.9561 243.637 40.5063 244.252 39.8866 244.838C34.7011 249.736 40.4623 266.789 40.4623 266.789C38.3759 269.697 34.9769 263.471 34.1996 268.122C33.4222 272.773 44.7472 291.367 54.0082 284.83C54.5055 284.479 55.001 284.107 55.494 283.723C54.4193 269.176 49.507 255.232 41.2776 243.001Z" fill="#6CB7D8"/>
<path d="M50.8573 286.446C50.7642 286.548 50.622 286.601 50.4764 286.573C50.254 286.531 50.1084 286.315 50.1506 286.093C50.1945 285.861 54.4648 262.532 43.6758 228.715C43.6069 228.498 43.7258 228.267 43.9421 228.199C44.1584 228.13 44.3894 228.249 44.4575 228.466C55.3154 262.498 51.0012 286.015 50.9564 286.248C50.9409 286.324 50.9055 286.392 50.8573 286.446Z" fill="#98CFF4"/>
<path d="M46.9136 238.745L41.4567 234.348C41.28 234.206 41.2524 233.948 41.3946 233.772C41.5368 233.599 41.7954 233.567 41.9712 233.71L46.6922 237.514L49.1802 233.344C49.2974 233.148 49.5482 233.086 49.743 233.202C49.9377 233.318 50.0015 233.57 49.8852 233.765L46.9136 238.745Z" fill="#98CFF4"/>
<path d="M60.2575 242.088C60.2488 242.098 60.2402 242.107 60.2307 242.116L49.6141 251.828L41.1796 246.097C40.9926 245.97 40.9435 245.715 41.071 245.528C41.1977 245.339 41.4536 245.292 41.6407 245.419L49.5383 250.785L59.6766 241.51C59.8438 241.357 60.1032 241.369 60.2566 241.536C60.4005 241.694 60.3988 241.933 60.2575 242.088Z" fill="#98CFF4"/>
<path d="M62.5574 255.629C62.5531 255.633 62.5488 255.638 62.5445 255.643L51.2944 266.987L40.1857 258.132C40.0082 257.99 39.9789 257.732 40.1202 257.555C40.271 257.375 40.5192 257.349 40.6968 257.49L51.2289 265.886L61.961 255.065C62.1205 254.904 62.3807 254.903 62.541 255.063C62.6988 255.218 62.7039 255.468 62.5574 255.629Z" fill="#98CFF4"/>
<path d="M67.3966 263.625C67.3932 263.629 67.3889 263.633 67.3854 263.637L51.3222 279.957L37.5522 270.328C37.3669 270.198 37.3212 269.942 37.4505 269.757C37.5823 269.572 37.8366 269.526 38.0219 269.655L51.2239 278.887L66.8011 263.06C66.9597 262.899 67.2199 262.897 67.3811 263.056C67.538 263.212 67.544 263.463 67.3966 263.625Z" fill="#98CFF4"/>
<path d="M37.8676 288.709C37.8676 288.709 25.28 282.41 25.4636 276.835C25.6471 271.259 18.2468 270.942 16.6007 267.589C14.9547 264.236 16.574 259.668 22.499 262.941C28.423 266.214 28.9479 265.977 32.5563 262.822C36.1647 259.666 42.6851 266.766 45.205 270.51C47.725 274.253 46.1332 265.973 50.4914 268.351C54.8495 270.729 56.867 282.543 55.3227 291.272C53.7792 300.002 37.2523 295.91 35.1236 292.899C32.9949 289.887 38.3106 291.472 37.8676 288.709Z" fill="#98CFF4"/>
<path d="M25.2246 275.049C25.397 275.579 25.4857 276.168 25.4633 276.835C25.2798 282.41 37.8673 288.709 37.8673 288.709C38.3095 291.472 32.9947 289.886 35.1233 292.897C37.252 295.908 53.7789 300 55.3224 291.271C55.4052 290.802 55.4758 290.323 55.5387 289.838C46.9336 282.351 36.529 277.311 25.2246 275.049Z" fill="#82C4E8"/>
<path d="M54.4632 293.903C54.4675 294.011 54.4183 294.119 54.3218 294.184C54.1744 294.284 53.9754 294.244 53.8771 294.097C53.7737 293.945 43.3027 278.637 18.6929 265.796C18.5361 265.714 18.474 265.52 18.5567 265.363C18.6386 265.206 18.8325 265.145 18.9894 265.227C43.7552 278.15 54.3063 293.585 54.4097 293.74C54.4425 293.789 54.4606 293.847 54.4632 293.903Z" fill="#ACDAFF"/>
<path d="M26.0125 269.582L20.5615 270.144C20.3857 270.162 20.228 270.035 20.2099 269.858C20.1935 269.683 20.3202 269.525 20.496 269.507L25.2127 269.021L24.2992 265.335C24.2561 265.161 24.3613 264.989 24.5336 264.947C24.706 264.905 24.8801 265.009 24.9223 265.181L26.0125 269.582Z" fill="#ACDAFF"/>
<path d="M35.2638 264.093C35.2646 264.103 35.2646 264.113 35.2638 264.123L34.7139 275.362L26.8749 276.822C26.7008 276.855 26.5328 276.74 26.5009 276.566C26.4673 276.391 26.5836 276.224 26.7577 276.192L34.0978 274.824L34.6226 264.092C34.6312 263.915 34.782 263.778 34.9587 263.787C35.1259 263.795 35.2569 263.929 35.2638 264.093Z" fill="#ACDAFF"/>
<path d="M43.9956 270.347C43.9956 270.351 43.9956 270.356 43.9956 270.361L43.993 282.855L32.9489 284.053C32.7722 284.072 32.6145 283.944 32.5955 283.769C32.58 283.586 32.7041 283.434 32.8799 283.415L43.3518 282.28L43.3544 270.362C43.3544 270.185 43.4983 270.042 43.675 270.042C43.8473 270.041 43.9878 270.177 43.9956 270.347Z" fill="#ACDAFF"/>
<path d="M51.0845 272.124C51.0845 272.128 51.0845 272.133 51.0845 272.137L51.1483 290.044L38.1996 292.277C38.0246 292.308 37.8592 292.19 37.829 292.015C37.8006 291.84 37.9161 291.674 38.091 291.645L50.5054 289.504L50.4433 272.139C50.4424 271.962 50.5855 271.818 50.763 271.817C50.9363 271.816 51.0776 271.952 51.0845 272.124Z" fill="#ACDAFF"/>
<path d="M66.165 286.933C66.165 286.933 82.7565 279.954 82.9909 272.826C83.2253 265.697 92.6949 265.914 95.0769 261.773C97.459 257.632 95.7767 251.668 87.942 255.346C80.1073 259.025 79.4575 258.677 75.1183 254.348C70.7791 250.017 61.8619 258.529 58.3328 263.094C54.8037 267.659 57.5305 257.227 51.7693 259.895C46.0081 262.563 42.4411 277.468 43.6778 288.736C44.9136 300.004 66.3459 296.172 69.3157 292.509C72.2829 288.845 65.3678 290.423 66.165 286.933Z" fill="#ACDAFF"/>
<path d="M83.4452 270.567C83.1814 271.229 83.0186 271.973 82.9901 272.826C82.7557 279.954 66.1642 286.933 66.1642 286.933C65.367 290.423 72.283 288.845 69.3141 292.508C66.3452 296.172 44.9128 300.004 43.6761 288.735C43.6098 288.13 43.5598 287.513 43.521 286.889C55.1304 278.059 68.8315 272.502 83.4452 270.567Z" fill="#98CFF4"/>
<path d="M44.5524 292.167C44.5369 292.304 44.592 292.446 44.7092 292.537C44.8885 292.676 45.1462 292.642 45.2849 292.463C45.4288 292.277 60.0779 273.625 92.5603 259.307C92.768 259.216 92.8628 258.974 92.7706 258.766C92.6792 258.558 92.4371 258.464 92.2294 258.556C59.5418 272.964 44.7807 291.773 44.636 291.961C44.5868 292.023 44.5601 292.095 44.5524 292.167Z" fill="#D2EDFF"/>
<path d="M82.8994 263.525L89.8077 264.7C90.0309 264.738 90.2429 264.588 90.2808 264.364C90.3161 264.143 90.1679 263.929 89.9447 263.891L83.9672 262.874L85.4426 258.248C85.5124 258.029 85.3926 257.801 85.1763 257.732C84.96 257.663 84.729 257.782 84.6601 257.998L82.8994 263.525Z" fill="#D2EDFF"/>
<path d="M71.556 255.743C71.5543 255.756 71.5535 255.769 71.5535 255.782L71.3096 270.169L81.1902 272.692C81.41 272.748 81.6332 272.615 81.6892 272.396C81.7469 272.176 81.6125 271.953 81.3927 271.897L72.1412 269.533L72.3739 255.795C72.3774 255.569 72.1972 255.382 71.9706 255.378C71.7568 255.375 71.5793 255.535 71.556 255.743Z" fill="#D2EDFF"/>
<path d="M59.8882 262.99C59.8873 262.996 59.8865 263.002 59.8865 263.008L58.8394 278.949L72.8317 281.406C73.0549 281.444 73.2678 281.295 73.3065 281.073C73.341 280.841 73.1962 280.637 72.9739 280.598L59.7072 278.269L60.7052 263.061C60.7198 262.835 60.5492 262.64 60.3225 262.625C60.1036 262.61 59.9123 262.772 59.8882 262.99Z" fill="#D2EDFF"/>
<path d="M50.6928 264.66C50.6919 264.665 50.6919 264.671 50.6911 264.676L49.1045 287.521L65.4392 291.46C65.6598 291.512 65.8813 291.377 65.9348 291.157C65.9856 290.936 65.852 290.715 65.6323 290.662L49.9715 286.886L51.5098 264.733C51.5253 264.507 51.3555 264.311 51.1289 264.295C50.9083 264.281 50.7169 264.443 50.6928 264.66Z" fill="#D2EDFF"/>
<path d="M114.531 265.705C114.531 265.705 119.328 251.507 115.01 247.429C110.693 243.351 116.051 237.564 114.782 233.794C113.513 230.025 108.865 227.785 106.838 234.701C104.811 241.616 104.236 241.831 99.1427 242.149C94.0486 242.467 94.4407 252.724 95.3413 257.443C96.2419 262.162 91.2391 254.708 89.7258 259.773C88.2124 264.837 95.543 275.283 103.254 280.727C110.964 286.17 120.394 270.687 119.746 266.815C119.098 262.943 116.268 268.127 114.531 265.705Z" fill="#82C4E8"/>
<path d="M113.852 245.9C114.119 246.43 114.494 246.942 115.01 247.43C119.328 251.508 114.531 265.706 114.531 265.706C116.268 268.128 119.098 262.944 119.746 266.816C120.394 270.688 110.963 286.171 103.253 280.727C102.84 280.435 102.427 280.126 102.016 279.806C102.909 267.694 106.999 256.083 113.852 245.9Z" fill="#6CB7D8"/>
<path d="M105.876 282.074C105.954 282.159 106.072 282.203 106.194 282.18C106.379 282.144 106.5 281.965 106.465 281.78C106.428 281.587 102.873 262.162 111.856 234.005C111.914 233.825 111.815 233.633 111.635 233.576C111.455 233.518 111.263 233.618 111.206 233.798C102.165 262.134 105.757 281.714 105.795 281.908C105.806 281.972 105.835 282.028 105.876 282.074Z" fill="#98CFF4"/>
<path d="M109.16 242.357L113.703 238.696C113.85 238.578 113.873 238.363 113.755 238.216C113.637 238.072 113.421 238.046 113.275 238.164L109.344 241.332L107.271 237.859C107.173 237.696 106.965 237.644 106.803 237.74C106.64 237.837 106.587 238.047 106.684 238.209L109.16 242.357Z" fill="#98CFF4"/>
<path d="M98.049 245.141C98.0559 245.149 98.0637 245.156 98.0714 245.163L106.911 253.25L113.934 248.478C114.09 248.372 114.13 248.159 114.024 248.003C113.919 247.845 113.705 247.806 113.55 247.912L106.973 252.38L98.5316 244.658C98.392 244.531 98.1765 244.541 98.049 244.68C97.9301 244.812 97.9318 245.012 98.049 245.141Z" fill="#98CFF4"/>
<path d="M96.1342 256.415C96.1376 256.418 96.1411 256.423 96.1445 256.426L105.512 265.872L114.76 258.499C114.908 258.381 114.933 258.166 114.815 258.019C114.689 257.869 114.482 257.847 114.335 257.965L105.565 264.956L96.6297 255.946C96.497 255.813 96.2807 255.811 96.1462 255.944C96.0161 256.072 96.0118 256.281 96.1342 256.415Z" fill="#98CFF4"/>
<path d="M92.1044 263.072C92.1078 263.076 92.1104 263.079 92.1138 263.083L105.488 276.672L116.954 268.654C117.108 268.546 117.146 268.333 117.038 268.179C116.928 268.025 116.717 267.986 116.563 268.094L105.57 275.781L92.6008 262.604C92.4681 262.469 92.2517 262.467 92.1182 262.599C91.9872 262.729 91.982 262.937 92.1044 263.072Z" fill="#98CFF4"/>
<path d="M95.186 285.502C95.186 285.502 82.5984 279.203 82.7819 273.628C82.9655 268.053 75.5652 267.736 73.9191 264.382C72.273 261.029 73.8924 256.461 79.8173 259.735C85.7414 263.008 86.2662 262.77 89.8746 259.615C93.483 256.459 100.003 263.559 102.523 267.303C105.042 271.047 103.452 262.766 107.81 265.144C112.168 267.522 114.185 279.336 112.641 288.066C111.098 296.795 94.5706 292.703 92.442 289.692C90.3124 286.679 95.6281 288.266 95.186 285.502Z" fill="#98CFF4"/>
<path d="M82.5425 271.842C82.7148 272.372 82.8036 272.962 82.7812 273.628C82.5976 279.203 95.1852 285.502 95.1852 285.502C95.6273 288.266 90.3126 286.679 92.4412 289.69C94.5699 292.701 111.097 296.793 112.64 288.064C112.723 287.595 112.794 287.116 112.857 286.632C104.252 279.144 93.8468 274.104 82.5425 271.842Z" fill="#82C4E8"/>
<path d="M111.781 290.697C111.786 290.805 111.736 290.912 111.64 290.978C111.492 291.077 111.293 291.037 111.195 290.891C111.092 290.738 100.621 275.431 76.0108 262.589C75.8539 262.507 75.7919 262.313 75.8746 262.156C75.9565 261.999 76.1504 261.938 76.3072 262.02C101.073 274.943 111.624 290.379 111.728 290.533C111.761 290.582 111.778 290.639 111.781 290.697Z" fill="#ACDAFF"/>
<path d="M83.3304 266.376L77.8794 266.938C77.7036 266.956 77.5459 266.828 77.5278 266.651C77.5114 266.477 77.6381 266.318 77.8139 266.3L82.5306 265.814L81.6171 262.129C81.574 261.955 81.6791 261.782 81.8515 261.74C82.0238 261.697 82.1979 261.802 82.2402 261.974L83.3304 266.376Z" fill="#ACDAFF"/>
<path d="M92.5816 260.886C92.5825 260.896 92.5825 260.906 92.5816 260.916L92.0318 272.155L84.1928 273.616C84.0187 273.648 83.8507 273.533 83.8188 273.359C83.7852 273.184 83.9015 273.017 84.0756 272.985L91.4156 271.617L91.9405 260.885C91.9491 260.708 92.0999 260.571 92.2766 260.58C92.4438 260.589 92.5748 260.722 92.5816 260.886Z" fill="#ACDAFF"/>
<path d="M101.313 267.14C101.313 267.144 101.313 267.15 101.313 267.155L101.311 279.648L90.2667 280.846C90.0901 280.865 89.9324 280.738 89.9134 280.562C89.8979 280.379 90.022 280.227 90.1978 280.209L100.67 279.074L100.672 267.156C100.672 266.978 100.816 266.835 100.993 266.835C101.165 266.834 101.306 266.969 101.313 267.14Z" fill="#ACDAFF"/>
<path d="M108.404 268.917C108.404 268.921 108.404 268.926 108.404 268.93L108.468 286.838L95.5189 289.071C95.344 289.101 95.1785 288.984 95.1483 288.809C95.1199 288.634 95.2354 288.467 95.4103 288.438L107.825 286.297L107.763 268.933C107.762 268.755 107.905 268.611 108.082 268.61C108.255 268.609 108.396 268.746 108.404 268.917Z" fill="#ACDAFF"/>
<path d="M77.9226 289.058C77.9226 289.058 66.4916 287.57 65.1351 283.209C63.7777 278.847 57.9683 280.591 55.7931 278.44C53.6179 276.289 53.6428 272.32 59.1059 273.259C64.5689 274.197 64.911 273.873 66.8535 270.462C68.796 267.05 75.7491 270.789 78.7051 273.007C81.6611 275.226 78.2027 269.248 82.2135 269.916C86.2244 270.584 90.9618 279.18 92.1149 286.347C93.268 293.515 79.3834 294.794 76.9272 293.037C74.4711 291.279 79.0085 291.076 77.9226 289.058Z" fill="#82C4E8"/>
<path d="M64.4697 281.891C64.7455 282.255 64.973 282.686 65.135 283.208C66.4924 287.569 77.9226 289.057 77.9226 289.057C79.0084 291.076 74.4702 291.278 76.9263 293.035C79.3825 294.792 93.2671 293.513 92.114 286.346C92.0519 285.96 91.9778 285.571 91.8959 285.18C83.2261 281.702 73.8221 280.602 64.4697 281.891Z" fill="#6CB7D8"/>
<path d="M92.157 288.613C92.1897 288.695 92.1802 288.792 92.1225 288.868C92.0354 288.984 91.8708 289.008 91.7545 288.92C91.6338 288.829 79.4168 279.804 56.9271 276.489C56.7831 276.468 56.684 276.335 56.7056 276.191C56.7263 276.047 56.8607 275.948 57.0038 275.969C79.6357 279.306 91.9484 288.409 92.0699 288.5C92.1104 288.53 92.1397 288.57 92.157 288.613Z" fill="#98CFF4"/>
<path d="M63.6088 277.451L59.5428 279.351C59.4118 279.412 59.255 279.356 59.1938 279.224C59.1343 279.093 59.1895 278.936 59.3205 278.875L62.8375 277.231L61.1397 274.626C61.0596 274.502 61.0949 274.341 61.2165 274.262C61.338 274.183 61.5008 274.217 61.5801 274.339L63.6088 277.451Z" fill="#98CFF4"/>
<path d="M69.2887 270.717C69.2921 270.724 69.2947 270.732 69.2965 270.74L71.8939 279.581L66.2224 282.819C66.0966 282.89 65.9363 282.847 65.8639 282.721C65.7906 282.595 65.8354 282.435 65.9621 282.362L71.2726 279.33L68.7923 270.887C68.7518 270.748 68.8311 270.602 68.9707 270.561C69.1025 270.523 69.2396 270.592 69.2887 270.717Z" fill="#98CFF4"/>
<path d="M77.7249 273.206C77.7266 273.21 77.7275 273.214 77.7292 273.218L81.0868 282.883L72.866 286.779C72.735 286.841 72.5782 286.785 72.5161 286.654C72.4549 286.517 72.5101 286.366 72.6411 286.304L80.4362 282.61L77.2337 273.39C77.1863 273.253 77.2587 273.103 77.3957 273.056C77.5284 273.009 77.6732 273.076 77.7249 273.206Z" fill="#98CFF4"/>
<path d="M83.6873 272.674C83.6891 272.677 83.6899 272.681 83.6908 272.684L88.5557 286.519L79.1404 291.728C79.0137 291.798 78.8534 291.752 78.7828 291.626C78.7138 291.498 78.7586 291.339 78.8853 291.268L87.9128 286.274L83.1952 272.858C83.147 272.721 83.2194 272.571 83.3555 272.523C83.49 272.476 83.6356 272.544 83.6873 272.674Z" fill="#98CFF4"/>
<path d="M123.483 286.933C123.483 286.933 140.075 279.954 140.309 272.826C140.544 265.697 150.013 265.914 152.395 261.773C154.777 257.632 153.095 251.668 145.26 255.346C137.426 259.025 136.776 258.677 132.437 254.348C128.097 250.017 119.18 258.529 115.651 263.094C112.122 267.659 114.849 257.227 109.088 259.895C103.326 262.563 99.7594 277.468 100.996 288.736C102.232 300.004 123.664 296.172 126.634 292.509C129.602 288.845 122.686 290.423 123.483 286.933Z" fill="#ACDAFF"/>
<path d="M140.764 270.567C140.5 271.229 140.337 271.973 140.308 272.826C140.074 279.954 123.483 286.933 123.483 286.933C122.685 290.423 129.601 288.845 126.632 292.508C123.663 296.172 102.231 300.004 100.994 288.735C100.928 288.13 100.878 287.513 100.839 286.889C112.449 278.059 126.15 272.502 140.764 270.567Z" fill="#98CFF4"/>
<path d="M101.871 292.167C101.855 292.304 101.91 292.446 102.028 292.537C102.207 292.676 102.465 292.642 102.603 292.463C102.747 292.277 117.396 273.625 149.879 259.307C150.086 259.216 150.181 258.974 150.089 258.766C149.998 258.558 149.755 258.464 149.548 258.556C116.86 272.964 102.099 291.773 101.954 291.961C101.906 292.023 101.878 292.095 101.871 292.167Z" fill="#D2EDFF"/>
<path d="M140.219 263.525L147.127 264.7C147.35 264.738 147.562 264.588 147.6 264.364C147.635 264.143 147.487 263.929 147.264 263.891L141.287 262.874L142.762 258.248C142.832 258.029 142.712 257.801 142.496 257.732C142.279 257.663 142.048 257.782 141.979 257.998L140.219 263.525Z" fill="#D2EDFF"/>
<path d="M128.874 255.743C128.873 255.756 128.872 255.769 128.872 255.782L128.628 270.169L138.509 272.692C138.728 272.748 138.952 272.615 139.008 272.396C139.065 272.176 138.931 271.953 138.711 271.897L129.46 269.533L129.692 255.795C129.696 255.569 129.516 255.382 129.289 255.378C129.076 255.375 128.898 255.535 128.874 255.743Z" fill="#D2EDFF"/>
<path d="M117.208 262.99C117.207 262.996 117.206 263.002 117.206 263.008L116.159 278.949L130.151 281.406C130.374 281.444 130.587 281.295 130.626 281.073C130.66 280.841 130.516 280.637 130.293 280.598L117.027 278.269L118.025 263.061C118.039 262.835 117.869 262.64 117.642 262.625C117.422 262.61 117.232 262.772 117.208 262.99Z" fill="#D2EDFF"/>
<path d="M108.011 264.66C108.01 264.665 108.01 264.671 108.009 264.676L106.423 287.521L122.758 291.46C122.978 291.512 123.2 291.377 123.253 291.157C123.304 290.936 123.17 290.715 122.951 290.662L107.29 286.886L108.828 264.733C108.844 264.507 108.674 264.311 108.447 264.295C108.227 264.281 108.035 264.443 108.011 264.66Z" fill="#D2EDFF"/>
<path d="M148.765 313.576H25.1811L22.0786 285.356H151.867L148.765 313.576Z" fill="#FF9900"/>
<path d="M149.666 305.374H24.2798L24.5142 307.507H149.432L149.666 305.374Z" fill="#FFBC00"/>
<path d="M150.497 297.809H23.4478L23.9028 301.947H150.042L150.497 297.809Z" fill="#FFBC00"/>
<path d="M153.577 283.404H20.1387V290.051H153.577V283.404Z" fill="#FFBC00"/>
<path d="M263.478 319.98H158.522C151.095 319.98 139.551 314.396 140.413 306.968L172.469 83.8376C173.331 76.4097 180.051 70.3873 187.48 70.3873L286.012 66.5463C297.994 66.5463 305.186 76.4088 304.324 83.8376L278.488 306.53C277.626 313.958 270.906 319.98 263.478 319.98Z" fill="#144182"/>
<path d="M255.744 316.075H150.79C143.362 316.075 138.038 310.054 138.9 302.625L164.736 79.9328C165.598 72.5049 172.318 66.4825 179.747 66.4825H284.702C292.13 66.4825 297.453 72.504 296.591 79.9328L270.755 302.625C269.893 310.053 263.173 316.075 255.744 316.075Z" fill="#2099FF"/>
<path d="M255.718 311.406H151.899C146.245 311.406 142.195 306.823 142.85 301.17L168.438 80.6239C169.093 74.9705 174.208 70.3882 179.861 70.3882H283.68C289.334 70.3882 293.384 74.9713 292.728 80.6239L267.141 301.17C266.486 306.823 261.372 311.406 255.718 311.406Z" fill="#ACDAFF"/>
<path d="M213.239 305.857H191.599C189.094 305.857 187.281 303.807 187.572 301.301C187.862 298.796 190.15 296.746 192.656 296.746H214.296C216.802 296.746 218.614 298.796 218.324 301.301C218.032 303.807 215.744 305.857 213.239 305.857Z" fill="#2099FF"/>
<path d="M184.547 80.9151C186.003 79.5412 186.191 77.3762 184.967 76.0795C183.744 74.7827 181.571 74.8452 180.115 76.2192C178.659 77.5931 178.471 79.7581 179.695 81.0548C180.918 82.3516 183.091 82.289 184.547 80.9151Z" fill="#2099FF"/>
<path d="M192.832 79.9817C193.709 79.154 193.823 77.8496 193.085 77.0683C192.348 76.287 191.039 76.3246 190.162 77.1524C189.285 77.9801 189.171 79.2845 189.909 80.0658C190.646 80.8471 191.955 80.8095 192.832 79.9817Z" fill="#2099FF"/>
<path d="M262.734 291.539H148.625L172.277 87.671H286.386L262.734 291.539Z" fill="white"/>
<path d="M270.589 119.127H180.876C178.12 119.127 176.146 116.893 176.466 114.137L178.278 98.5177C178.598 95.7616 181.091 93.5278 183.846 93.5278H273.559C276.315 93.5278 278.289 95.7616 277.969 98.5177L276.157 114.137C275.837 116.893 273.344 119.127 270.589 119.127Z" fill="#E6F2FF"/>
<path d="M188.592 109.892L189.408 102.86H190.49L192.989 107.993H192.423L196.062 102.86H197.144L196.339 109.892H195.095L195.675 104.799H195.938L192.852 109.088H192.266L190.134 104.799H190.437L189.846 109.892H188.592ZM200.548 109.962C199.995 109.962 199.517 109.845 199.113 109.611C198.709 109.369 198.407 109.041 198.205 108.626C198.004 108.211 197.934 107.739 197.995 107.21C198.058 106.674 198.237 106.202 198.534 105.793C198.832 105.378 199.21 105.053 199.668 104.819C200.127 104.585 200.633 104.467 201.186 104.467C201.745 104.467 202.227 104.585 202.631 104.819C203.042 105.053 203.345 105.375 203.541 105.783C203.743 106.192 203.812 106.667 203.75 107.21C203.688 107.739 203.509 108.211 203.211 108.626C202.92 109.041 202.542 109.369 202.076 109.611C201.617 109.845 201.108 109.962 200.548 109.962ZM200.673 108.887C200.983 108.887 201.267 108.82 201.525 108.686C201.784 108.552 201.995 108.358 202.159 108.104C202.33 107.849 202.436 107.551 202.475 107.21C202.516 106.861 202.48 106.563 202.367 106.316C202.261 106.061 202.095 105.867 201.868 105.733C201.641 105.599 201.376 105.532 201.072 105.532C200.762 105.532 200.478 105.599 200.22 105.733C199.968 105.867 199.757 106.061 199.586 106.316C199.415 106.563 199.31 106.861 199.27 107.21C199.23 107.551 199.266 107.849 199.378 108.104C199.49 108.358 199.657 108.552 199.877 108.686C200.104 108.82 200.37 108.887 200.673 108.887ZM208.34 104.467C208.772 104.467 209.146 104.551 209.464 104.719C209.789 104.886 210.028 105.144 210.183 105.492C210.339 105.834 210.386 106.276 210.323 106.818L209.966 109.892H208.702L209.04 106.979C209.095 106.503 209.022 106.148 208.82 105.914C208.625 105.68 208.325 105.562 207.92 105.562C207.624 105.562 207.354 105.623 207.11 105.743C206.867 105.864 206.668 106.044 206.512 106.286C206.363 106.52 206.268 106.818 206.226 107.18L205.911 109.892H204.647L205.269 104.528H206.473L206.305 105.974L206.144 105.532C206.372 105.191 206.676 104.929 207.054 104.749C207.44 104.561 207.869 104.467 208.34 104.467ZM213.857 109.962C213.338 109.962 212.883 109.848 212.491 109.621C212.107 109.386 211.821 109.065 211.632 108.656C211.444 108.248 211.381 107.766 211.446 107.21C211.51 106.654 211.684 106.172 211.968 105.763C212.251 105.355 212.611 105.037 213.049 104.809C213.494 104.581 213.975 104.467 214.494 104.467C214.946 104.467 215.339 104.568 215.673 104.769C216.008 104.963 216.256 105.261 216.419 105.663C216.581 106.065 216.626 106.58 216.553 107.21C216.481 107.833 216.32 108.348 216.07 108.757C215.821 109.158 215.506 109.46 215.126 109.661C214.745 109.862 214.322 109.962 213.857 109.962ZM214.133 108.887C214.437 108.887 214.714 108.82 214.966 108.686C215.224 108.552 215.439 108.358 215.61 108.104C215.788 107.849 215.896 107.551 215.936 107.21C215.976 106.861 215.937 106.563 215.817 106.316C215.705 106.061 215.535 105.867 215.308 105.733C215.088 105.599 214.826 105.532 214.523 105.532C214.219 105.532 213.938 105.599 213.68 105.733C213.429 105.867 213.214 106.061 213.036 106.316C212.866 106.563 212.761 106.861 212.72 107.21C212.681 107.551 212.717 107.849 212.829 108.104C212.948 108.358 213.117 108.552 213.338 108.686C213.565 108.82 213.83 108.887 214.133 108.887ZM215.655 109.892L215.802 108.626L216.018 107.2L216.082 105.773L216.469 102.438H217.723L216.859 109.892H215.655ZM221.849 109.892L221.975 108.807L221.931 108.576L222.151 106.677C222.194 106.309 222.116 106.024 221.917 105.823C221.718 105.616 221.393 105.512 220.942 105.512C220.638 105.512 220.333 105.559 220.025 105.653C219.724 105.746 219.463 105.877 219.242 106.044L218.852 105.13C219.168 104.909 219.53 104.745 219.941 104.638C220.358 104.524 220.783 104.467 221.214 104.467C221.996 104.467 222.578 104.655 222.959 105.03C223.348 105.398 223.497 105.971 223.407 106.748L223.043 109.892H221.849ZM220.142 109.962C219.738 109.962 219.392 109.895 219.104 109.761C218.817 109.621 218.603 109.43 218.462 109.189C218.329 108.941 218.281 108.663 218.316 108.355C218.351 108.054 218.454 107.782 218.623 107.541C218.799 107.3 219.061 107.109 219.407 106.969C219.754 106.828 220.2 106.758 220.747 106.758H222.314L222.217 107.591H220.741C220.309 107.591 220.011 107.662 219.847 107.802C219.683 107.936 219.589 108.104 219.566 108.305C219.54 108.532 219.61 108.713 219.776 108.847C219.943 108.981 220.188 109.048 220.511 109.048C220.821 109.048 221.106 108.978 221.365 108.837C221.631 108.696 221.833 108.489 221.973 108.214L222.098 108.968C221.94 109.282 221.693 109.527 221.356 109.701C221.025 109.875 220.621 109.962 220.142 109.962ZM224.777 111.911C224.514 111.911 224.256 111.867 224.003 111.78C223.75 111.693 223.545 111.573 223.388 111.419L224.001 110.495C224.116 110.608 224.25 110.699 224.404 110.766C224.558 110.833 224.719 110.866 224.888 110.866C225.117 110.866 225.309 110.809 225.464 110.695C225.619 110.582 225.772 110.391 225.925 110.123L226.32 109.42L226.438 109.269L229.031 104.528H230.245L227.044 110.324C226.829 110.726 226.603 111.044 226.367 111.278C226.138 111.512 225.89 111.676 225.622 111.77C225.362 111.864 225.08 111.911 224.777 111.911ZM226.101 110.083L224.308 104.528H225.623L227.068 109.158L226.101 110.083ZM233.956 109.892L234.713 103.362L235.221 103.955H233.147L233.274 102.86H236.086L235.27 109.892H233.956ZM237.807 109.892L238.564 103.362L239.072 103.955H236.999L237.126 102.86H239.937L239.122 109.892H237.807ZM241.307 109.962C241.077 109.962 240.891 109.885 240.747 109.731C240.604 109.57 240.546 109.369 240.574 109.128C240.603 108.874 240.708 108.673 240.887 108.526C241.066 108.372 241.271 108.295 241.5 108.295C241.729 108.295 241.916 108.372 242.06 108.526C242.204 108.673 242.262 108.874 242.232 109.128C242.204 109.369 242.1 109.57 241.92 109.731C241.74 109.885 241.536 109.962 241.307 109.962ZM245.817 109.992C245.258 109.992 244.769 109.852 244.35 109.57C243.937 109.289 243.634 108.881 243.44 108.345C243.247 107.802 243.195 107.146 243.284 106.376C243.373 105.606 243.577 104.953 243.895 104.417C244.215 103.875 244.613 103.463 245.09 103.182C245.575 102.9 246.097 102.76 246.656 102.76C247.223 102.76 247.712 102.9 248.124 103.182C248.537 103.463 248.839 103.875 249.033 104.417C249.233 104.953 249.289 105.606 249.2 106.376C249.111 107.146 248.903 107.802 248.577 108.345C248.259 108.881 247.861 109.289 247.383 109.57C246.906 109.852 246.384 109.992 245.817 109.992ZM245.949 108.857C246.279 108.857 246.576 108.77 246.839 108.596C247.103 108.415 247.323 108.141 247.501 107.772C247.685 107.404 247.81 106.939 247.875 106.376C247.941 105.807 247.924 105.341 247.825 104.98C247.733 104.611 247.575 104.34 247.353 104.166C247.131 103.985 246.855 103.895 246.525 103.895C246.208 103.895 245.914 103.985 245.644 104.166C245.381 104.34 245.157 104.611 244.973 104.98C244.796 105.341 244.675 105.807 244.609 106.376C244.544 106.939 244.557 107.404 244.649 107.772C244.748 108.141 244.908 108.415 245.13 108.596C245.359 108.77 245.632 108.857 245.949 108.857ZM252.622 109.992C252.062 109.992 251.573 109.852 251.154 109.57C250.741 109.289 250.438 108.881 250.244 108.345C250.051 107.802 249.999 107.146 250.088 106.376C250.178 105.606 250.381 104.953 250.7 104.417C251.019 103.875 251.417 103.463 251.895 103.182C252.379 102.9 252.901 102.76 253.461 102.76C254.027 102.76 254.516 102.9 254.928 103.182C255.341 103.463 255.644 103.875 255.837 104.417C256.038 104.953 256.093 105.606 256.004 106.376C255.915 107.146 255.707 107.802 255.381 108.345C255.063 108.881 254.665 109.289 254.188 109.57C253.71 109.852 253.188 109.992 252.622 109.992ZM252.753 108.857C253.084 108.857 253.38 108.77 253.643 108.596C253.907 108.415 254.127 108.141 254.305 107.772C254.489 107.404 254.614 106.939 254.679 106.376C254.745 105.807 254.729 105.341 254.629 104.98C254.537 104.611 254.379 104.34 254.157 104.166C253.935 103.985 253.659 103.895 253.329 103.895C253.012 103.895 252.718 103.985 252.448 104.166C252.185 104.34 251.961 104.611 251.777 104.98C251.6 105.341 251.479 105.807 251.413 106.376C251.348 106.939 251.361 107.404 251.453 107.772C251.552 108.141 251.712 108.415 251.934 108.596C252.163 108.77 252.437 108.857 252.753 108.857ZM186.209 121.812L190.21 114.78H191.504L193.884 121.812H192.509L190.504 115.473H191.029L187.564 121.812H186.209ZM187.864 120.185L188.337 119.16H192.159L192.394 120.185H187.864ZM194.785 121.812L195.6 114.78H196.682L199.181 119.913H198.615L202.254 114.78H203.336L202.531 121.812H201.287L201.867 116.719H202.13L199.044 121.008H198.458L196.326 116.719H196.629L196.039 121.812H194.785Z" fill="#ACDAFF"/>
<path d="M193.051 147.187H172.631L175 126.768H195.42L193.051 147.187Z" fill="#E6F2FF"/>
<path d="M219.475 147.187H199.054L201.423 126.768H221.844L219.475 147.187Z" fill="#ACDAFF"/>
<path d="M245.899 147.187H225.479L227.848 126.768H248.268L245.899 147.187Z" fill="#E6F2FF"/>
<path d="M272.323 147.187H251.902L254.271 126.768H274.692L272.323 147.187Z" fill="#E6F2FF"/>
<path d="M190.022 173.3H169.601L171.97 152.881H192.391L190.022 173.3Z" fill="#E6F2FF"/>
<path d="M216.445 173.3H196.025L198.394 152.881H218.815L216.445 173.3Z" fill="#E6F2FF"/>
<path d="M242.869 173.3H222.449L224.818 152.881H245.238L242.869 173.3Z" fill="#E6F2FF"/>
<path d="M269.294 173.3H248.873L251.242 152.881H271.663L269.294 173.3Z" fill="#E6F2FF"/>
<path d="M186.991 199.414H166.572L168.941 178.993H189.361L186.991 199.414Z" fill="#E6F2FF"/>
<path d="M213.416 199.414H192.996L195.365 178.993H215.785L213.416 199.414Z" fill="#E6F2FF"/>
<path d="M239.839 199.414H219.419L221.789 178.993H242.208L239.839 199.414Z" fill="#E6F2FF"/>
<path d="M266.263 199.414H245.844L248.213 178.993H268.633L266.263 199.414Z" fill="#E6F2FF"/>
<path d="M183.962 225.527H163.542L165.912 205.106H186.331L183.962 225.527Z" fill="#E6F2FF"/>
<path d="M210.387 225.527H189.967L192.335 205.106H212.756L210.387 225.527Z" fill="#E6F2FF"/>
<path d="M236.81 225.527H216.39L218.759 205.106H239.179L236.81 225.527Z" fill="#E6F2FF"/>
<path d="M263.234 225.527H242.813L245.183 205.106H265.603L263.234 225.527Z" fill="#E6F2FF"/>
<path d="M178.934 267.76C179.121 266.159 180.574 264.856 182.176 264.856H200.627C202.36 264.856 203.965 263.862 204.814 262.26C205.663 260.658 205.517 258.902 204.434 257.677L197.27 249.573C196.569 248.778 195.563 248.341 194.439 248.341H171.997C170.764 248.341 169.752 247.559 169.481 246.394L168.531 242.311C168.321 241.411 168.569 240.45 169.211 239.673C169.853 238.896 170.767 238.451 171.72 238.451H202.677C203.446 238.451 204.136 238.748 204.621 239.288L216.209 252.211C216.309 251.642 216.424 251.075 216.54 250.514L205.642 238.362C204.94 237.58 203.941 237.149 202.827 237.149H171.87C170.49 237.149 169.165 237.795 168.236 238.919C167.306 240.045 166.947 241.437 167.25 242.74L168.201 246.823C168.594 248.51 170.058 249.644 171.844 249.644H194.287C195.062 249.644 195.757 249.945 196.241 250.494L203.405 258.598C204.299 259.609 204.126 260.896 203.667 261.762C203.207 262.629 202.206 263.555 200.775 263.555H182.324C180.005 263.555 177.899 265.442 177.631 267.761L177.134 272.04C176.865 274.359 178.533 276.246 180.852 276.246H201.239C202.84 276.246 203.992 277.549 203.8 279.199C203.615 280.801 202.16 282.104 200.559 282.104H159.777L159.626 283.405H200.408C202.727 283.405 204.833 281.519 205.108 279.15C205.376 276.831 203.709 274.945 201.39 274.945H181.003C179.402 274.945 178.25 273.642 178.435 272.04L178.934 267.76Z" fill="#E6F2FF"/>
<path d="M223.79 241.737C223.405 245.056 216.373 253.868 216.373 253.868C216.373 253.868 211.385 245.056 211.77 241.737C212.154 238.417 215.157 235.726 218.477 235.726C221.797 235.726 224.175 238.417 223.79 241.737Z" fill="#ACDAFF"/>
<path d="M219.897 243.682C221.271 242.386 221.449 240.343 220.294 239.119C219.14 237.896 217.09 237.955 215.716 239.252C214.342 240.548 214.164 242.591 215.319 243.814C216.473 245.038 218.523 244.979 219.897 243.682Z" fill="white"/>
<path d="M165.594 286.223C167.741 284.197 168.019 281.005 166.215 279.093C164.411 277.181 161.208 277.274 159.061 279.299C156.914 281.325 156.636 284.518 158.44 286.429C160.245 288.341 163.448 288.249 165.594 286.223Z" fill="#ACDAFF"/>
<path d="M164.015 284.548C165.123 283.503 165.266 281.855 164.335 280.868C163.403 279.881 161.75 279.929 160.642 280.974C159.534 282.02 159.391 283.667 160.322 284.654C161.253 285.641 162.907 285.594 164.015 284.548Z" fill="white"/>
<path d="M114.931 189.305C114.931 189.305 125.659 173.69 127.359 169.974C129.06 166.258 129.245 163.097 126.579 161.167C123.914 159.236 119.001 157.722 114.658 163.841C110.316 169.961 102.289 188.755 101.961 194.635C101.633 200.515 128.223 218.319 130.586 219.469C133.19 218.788 134.295 214.899 134.295 214.899C134.295 214.899 117.126 193.102 114.931 189.305Z" fill="#FF9900"/>
<path d="M123.733 318.497C123.733 318.497 124.272 321.582 122.509 326.234C120.745 330.886 120.648 332.356 122.509 333.384C124.369 334.412 125.692 334.706 130.883 333.384C136.073 332.062 141.853 329.172 141.853 329.172C141.853 329.172 136.221 325.598 134.85 324.079C133.479 322.56 130.589 317.125 130.638 316.342C130.687 315.559 123.733 318.497 123.733 318.497Z" fill="#F79E77"/>
<path d="M137.85 326.487C135.761 327.88 133.766 329.402 131.091 329.02C128.943 328.483 128.138 326.335 126.795 324.725C125.87 323.984 124.434 323.755 123.191 324.124C123.015 324.783 122.792 325.488 122.51 326.234C120.746 330.886 120.649 332.356 122.51 333.384C124.37 334.412 125.693 334.706 130.884 333.384C136.074 332.062 141.854 329.172 141.854 329.172C141.854 329.172 139.785 327.86 137.85 326.487Z" fill="#0C2C51"/>
<path d="M186.7 157.812L193.201 160.61C195.356 157.939 196.976 155.925 198.033 155.707C200.785 156.075 201.965 154.911 202.701 153.971C203.437 153.031 202.517 152.493 202.637 152.133C203.397 151.014 202.108 150.574 202.314 150.31C203.113 149.377 202.965 148.872 202.483 148.617C202.002 148.362 201.19 148.125 201.339 147.656C201.488 147.188 203.466 145.938 205.185 145.123C206.904 144.309 208.795 143.003 207.749 142.316C206.703 141.629 196.935 146.321 195.107 148.323C193.279 150.325 193.75 152.457 191.457 154.662C190.626 155.463 188.782 156.647 186.7 157.812Z" fill="#FFB797"/>
<path d="M130.524 317.55C130.524 317.55 130.981 323.883 128.958 329.042C126.933 334.2 127.521 336.486 131.178 337.531C134.834 338.576 136.859 336.094 141.625 336.225C146.392 336.356 152.725 335.833 154.358 331.459C155.99 327.084 148.37 329.039 143.756 327.669C139.143 326.3 141.194 318.203 141.194 318.203L130.524 317.55Z" fill="#FFAE83"/>
<path d="M143.886 327.577C143.472 328.964 147.234 330.427 146.123 331.167C142.097 334.12 137.264 329.02 132.701 327.409C131.771 326.945 130.663 326.928 129.582 327.151C129.406 327.79 129.2 328.424 128.958 329.042C126.933 334.201 127.521 336.486 131.178 337.531C134.834 338.575 136.859 336.094 141.625 336.225C146.392 336.356 155.408 335.453 157.04 331.079C158.655 326.747 148.511 328.866 143.886 327.577Z" fill="#0F3163"/>
<path d="M156.479 328.988C156.453 329.09 156.424 329.195 156.383 329.305C154.75 333.679 145.734 334.583 140.967 334.452C136.201 334.321 134.176 336.803 130.52 335.757C129.265 335.399 128.381 334.889 127.83 334.172C127.987 335.91 129.069 336.928 131.176 337.529C134.832 338.574 136.857 336.093 141.622 336.224C146.389 336.355 155.405 335.451 157.038 331.077C157.413 330.075 157.151 329.421 156.479 328.988Z" fill="#0C2C51"/>
<path d="M138.229 236.323C135.733 235.14 134.055 233.384 132.967 231.441C130.811 227.588 130.983 222.996 131.765 220.652C132.94 217.126 137.641 208.246 137.641 208.246L126.084 206.108C126.084 206.108 120.893 215.07 118.248 222.122C115.603 229.174 117.758 236.617 119.031 242.2C120.304 247.783 123.537 263.748 122.166 269.722C120.795 275.697 118.248 284.806 118.934 291.759C119.62 298.713 123.047 315.266 122.95 318.987C124.107 319.505 125.239 319.68 126.285 319.655C129.404 319.58 131.765 317.714 131.765 317.714C131.765 317.714 132.548 289.212 135.487 276.675C138.425 264.138 141.363 240.828 138.229 236.323Z" fill="#144182"/>
<path d="M138.229 236.323C135.733 235.14 134.055 233.384 132.967 231.441C128.076 229.129 131.486 220.153 131.09 214.613C129.153 219.961 121.744 229.601 131.869 241.614C135.472 244.961 131.955 271.215 128.865 283.055C126.096 293.094 127.306 309.218 127.796 319.477C130.133 318.998 131.764 317.714 131.764 317.714C131.764 317.714 132.547 289.212 135.486 276.675C138.425 264.138 141.363 240.828 138.229 236.323Z" fill="#0F3163"/>
<path d="M156.708 208.115C156.708 208.115 160.103 221.044 159.059 234.886C158.014 248.728 148.742 271.974 147.697 277.067C146.653 282.161 145.216 296.806 143.911 303.391C142.605 309.976 141.952 316.114 142.67 317.812C139.601 321.076 131.439 320.685 129.611 317.812C130.264 304.361 129.937 292.804 132.484 283.727C135.031 274.651 133.463 272.301 134.508 266.62C135.553 260.939 136.597 243.374 137.12 241.285C137.643 239.196 132.419 238.151 130.526 234.755C128.632 231.36 124.715 223.197 135.554 206.547C147.109 206.156 156.708 208.115 156.708 208.115Z" fill="#144182"/>
<path d="M156.707 208.115C156.707 208.115 147.109 206.156 135.552 206.548C135.335 206.882 135.133 207.206 134.928 207.533C144.46 207.655 151.76 209.144 151.76 209.144C151.76 209.144 155.155 222.073 154.111 235.915C153.066 249.757 145.662 272.617 144.617 277.71C143.573 282.803 143.159 296.785 141.853 303.371C140.727 309.049 140.521 316.114 140.946 319.043C141.608 318.712 142.203 318.31 142.669 317.813C141.951 316.115 142.604 309.977 143.91 303.392C145.216 296.807 146.653 282.161 147.697 277.068C148.742 271.975 158.014 248.73 159.058 234.887C160.103 221.044 156.707 208.115 156.707 208.115Z" fill="#164E91"/>
<path d="M150.765 130.021C150.765 130.021 151.744 141.644 150.439 145.235C149.133 148.826 147.827 151.438 147.109 152.156C146.391 152.874 142.933 151.568 142.246 152.156C141.559 152.744 141.624 159.469 141.624 159.469L132.025 159.077C132.025 159.077 133.135 146.932 133.984 143.602C134.833 140.272 149.786 129.76 150.765 130.021Z" fill="#FFAE83"/>
<path d="M128.043 158.85C128.043 158.85 135.486 155.127 141.559 158.066C147.632 161.004 157.132 173.345 158.602 175.696C160.071 178.047 161.05 183.336 158.602 188.135C156.153 192.934 157.035 207.038 158.308 209.486C148.024 212.522 132.059 210.563 124.713 207.331C128.827 201.357 130.982 199.105 128.043 192.542C125.105 185.979 121.578 167.37 128.043 158.85Z" fill="#FFAA00"/>
<path d="M153.978 189.04C156.427 184.24 155.448 178.951 153.978 176.601C152.509 174.25 143.008 161.91 136.936 158.971C134.838 157.956 132.582 157.745 130.521 157.891C129.011 158.37 128.043 158.85 128.043 158.85C121.579 167.37 125.104 185.98 128.043 192.542C130.981 199.104 128.826 201.357 124.713 207.331C130.894 210.051 143.178 211.869 153.045 210.568C153.259 210.51 153.475 210.453 153.684 210.391C152.411 207.942 151.53 193.839 153.978 189.04Z" fill="#FF9900"/>
<path d="M165.555 173.051C165.555 173.051 150.056 162.156 146.358 160.416C142.66 158.676 139.503 158.457 137.544 161.102C135.585 163.747 134.018 168.644 140.09 173.051C146.163 177.459 164.87 185.686 170.747 186.078C176.623 186.47 194.71 160.072 195.886 157.721C195.232 155.108 191.356 153.962 191.356 153.962C191.356 153.962 169.375 170.897 165.555 173.051Z" fill="#FFBC00"/>
<path d="M140.09 173.051C139.884 172.901 139.707 172.76 139.517 172.615C139.7 172.761 139.89 172.907 140.09 173.051Z" fill="#FF69A6"/>
<path d="M137.165 163.66C139.124 161.015 142.282 161.235 145.979 162.974C149.677 164.714 164.586 174.456 164.586 174.456C168.405 172.302 191.354 153.961 191.354 153.961C191.354 153.961 169.375 170.897 165.555 173.051C165.555 173.051 150.057 162.156 146.358 160.416C142.66 158.676 139.503 158.457 137.544 161.102C136.628 162.34 135.797 164.07 135.794 166.013C136.068 165.214 136.58 164.45 137.165 163.66Z" fill="#FFD815"/>
<path d="M150.048 124.537C145.608 120.097 137.38 118.399 137.38 118.399C130.398 116.028 124.974 122.578 123.407 128.454C121.84 134.331 122.61 141.169 120.208 148.89C118.992 152.654 101.604 179.587 124.4 199.094C130.195 201.957 134.631 203.217 140.894 198.385C134.295 182.695 136.38 167.637 137.711 163.122C138.998 158.756 141.642 158.594 144.068 159.496C144.178 159.539 144.287 159.581 144.4 159.627C144.175 159.185 143.882 158.676 143.537 158.119C142.315 154.477 143.465 146.922 145.966 144.255C148.904 141.12 150.276 136.028 150.766 132.306C151.452 136.713 149.884 139.455 148.807 141.023C153.018 137.791 154.488 128.977 150.048 124.537Z" fill="#144182"/>
<path d="M122.088 182.927C119.514 164.909 126.721 146.376 133.414 129.388C135.417 124.181 141.159 121.78 147.004 122.182C142.628 119.484 137.38 118.399 137.38 118.399C130.398 116.028 124.974 122.578 123.407 128.454C121.84 134.331 122.61 141.169 120.208 148.89C118.992 152.654 101.604 179.587 124.4 199.094C129.085 201.409 132.881 202.674 137.473 200.522C135.515 200.173 133.223 198.894 132.736 198.5C127.588 194.896 123.118 189.104 122.088 182.927Z" fill="#0F3163"/>
<path d="M260.224 199.267C260.224 199.267 250.35 170.037 259.238 161.643C268.126 153.248 257.095 141.333 259.708 133.573C262.321 125.812 271.89 121.201 276.062 135.438C280.234 149.676 281.417 150.116 291.904 150.772C302.392 151.428 301.585 172.543 299.731 182.258C297.876 191.973 308.176 176.627 311.291 187.055C314.405 197.483 299.315 218.986 283.441 230.193C267.568 241.399 248.155 209.526 249.488 201.554C250.823 193.581 256.649 204.253 260.224 199.267Z" fill="#82C4E8"/>
<path d="M261.621 158.494C261.071 159.585 260.3 160.639 259.238 161.643C250.349 170.037 260.224 199.267 260.224 199.267C256.648 204.253 250.822 193.581 249.489 201.553C248.156 209.525 267.569 241.399 283.442 230.192C284.295 229.59 285.145 228.953 285.989 228.295C284.148 203.361 275.728 179.459 261.621 158.494Z" fill="#6CB7D8"/>
<path d="M278.043 232.963C277.884 233.139 277.64 233.23 277.39 233.181C277.008 233.108 276.758 232.74 276.831 232.358C276.907 231.961 284.227 191.973 265.732 134.005C265.613 133.636 265.817 133.238 266.188 133.122C266.558 133.003 266.954 133.208 267.071 133.578C285.683 191.913 278.289 232.223 278.211 232.623C278.187 232.756 278.127 232.871 278.043 232.963Z" fill="#98CFF4"/>
<path d="M271.283 151.199L261.93 143.662C261.627 143.419 261.58 142.976 261.824 142.673C262.068 142.376 262.511 142.323 262.812 142.567L270.905 149.088L275.17 141.941C275.372 141.603 275.801 141.498 276.134 141.697C276.468 141.896 276.577 142.328 276.378 142.661L271.283 151.199Z" fill="#98CFF4"/>
<path d="M294.157 156.93C294.143 156.947 294.127 156.962 294.111 156.978L275.912 173.625L261.454 163.802C261.133 163.584 261.05 163.146 261.268 162.825C261.485 162.501 261.924 162.421 262.245 162.639L275.784 171.836L293.162 155.939C293.449 155.677 293.894 155.697 294.156 155.984C294.402 156.254 294.399 156.665 294.157 156.93Z" fill="#98CFF4"/>
<path d="M298.099 180.14C298.092 180.148 298.084 180.156 298.077 180.164L278.794 199.609L259.753 184.43C259.448 184.187 259.399 183.745 259.641 183.441C259.899 183.133 260.325 183.088 260.629 183.329L278.683 197.721L297.079 179.173C297.352 178.898 297.797 178.896 298.073 179.169C298.341 179.435 298.351 179.864 298.099 180.14Z" fill="#98CFF4"/>
<path d="M306.394 193.847C306.388 193.854 306.381 193.861 306.374 193.867L278.839 221.843L255.236 205.338C254.918 205.115 254.84 204.677 255.062 204.358C255.289 204.043 255.724 203.962 256.042 204.184L278.671 220.009L305.372 192.881C305.644 192.605 306.09 192.6 306.366 192.874C306.635 193.139 306.646 193.569 306.394 193.847Z" fill="#98CFF4"/>
<path d="M256.16 264.182C256.16 264.182 234.584 253.386 234.898 243.829C235.213 234.273 222.528 233.729 219.706 227.98C216.885 222.232 219.661 214.403 229.816 220.013C239.972 225.622 240.871 225.217 247.056 219.807C253.241 214.397 264.418 226.569 268.736 232.985C273.055 239.401 270.327 225.208 277.797 229.284C285.268 233.361 288.725 253.611 286.079 268.573C283.433 283.536 255.104 276.522 251.455 271.36C247.808 266.201 256.919 268.92 256.16 264.182Z" fill="#98CFF4"/>
<path d="M234.489 240.769C234.784 241.678 234.936 242.688 234.898 243.83C234.584 253.386 256.16 264.183 256.16 264.183C256.918 268.921 247.807 266.202 251.456 271.363C255.104 276.524 283.434 283.539 286.08 268.576C286.222 267.773 286.343 266.951 286.451 266.121C271.701 253.285 253.865 244.646 234.489 240.769Z" fill="#82C4E8"/>
<path d="M284.606 273.087C284.614 273.272 284.529 273.456 284.363 273.567C284.111 273.737 283.769 273.67 283.601 273.417C283.424 273.155 265.474 246.917 223.29 224.905C223.021 224.764 222.915 224.431 223.058 224.162C223.198 223.893 223.531 223.788 223.8 223.93C266.251 246.082 284.337 272.539 284.514 272.805C284.572 272.892 284.602 272.989 284.606 273.087Z" fill="#ACDAFF"/>
<path d="M235.839 231.398L226.495 232.362C226.193 232.394 225.923 232.173 225.892 231.871C225.863 231.572 226.08 231.299 226.382 231.268L234.467 230.435L232.901 224.118C232.827 223.82 233.008 223.524 233.302 223.452C233.597 223.378 233.895 223.558 233.969 223.853L235.839 231.398Z" fill="#ACDAFF"/>
<path d="M251.697 221.989C251.698 222.006 251.698 222.024 251.697 222.041L250.755 241.306L237.318 243.81C237.02 243.865 236.732 243.669 236.677 243.37C236.619 243.07 236.818 242.784 237.117 242.728L249.7 240.383L250.599 221.987C250.615 221.684 250.873 221.45 251.176 221.465C251.46 221.479 251.685 221.708 251.697 221.989Z" fill="#ACDAFF"/>
<path d="M266.665 232.709C266.665 232.717 266.666 232.725 266.666 232.734L266.66 254.149L247.729 256.202C247.426 256.235 247.155 256.017 247.122 255.715C247.096 255.401 247.308 255.142 247.609 255.108L265.559 253.162L265.564 232.734C265.564 232.431 265.811 232.184 266.114 232.184C266.41 232.184 266.652 232.417 266.665 232.709Z" fill="#ACDAFF"/>
<path d="M278.817 235.755C278.817 235.763 278.818 235.769 278.818 235.777L278.926 266.472L256.731 270.3C256.432 270.352 256.147 270.151 256.095 269.852C256.047 269.552 256.245 269.268 256.543 269.216L277.823 265.547L277.717 235.781C277.716 235.478 277.961 235.231 278.265 235.23C278.562 235.228 278.804 235.462 278.817 235.755Z" fill="#ACDAFF"/>
<path d="M312.459 250.238C312.459 250.238 330.921 225.519 325.079 214.779C319.237 204.039 333.421 196.138 333.347 187.95C333.273 179.762 325.609 172.408 317.222 184.646C308.835 196.884 307.574 196.935 297.401 194.303C287.229 191.67 281.439 211.992 280.186 221.803C278.933 231.614 273.906 213.828 267.708 222.772C261.51 231.717 269.177 256.844 280.786 272.425C292.396 288.006 320.746 263.735 321.954 255.744C323.162 247.752 314.311 256.087 312.459 250.238Z" fill="#ACDAFF"/>
<path d="M323.792 211.046C323.976 212.253 324.382 213.496 325.08 214.779C330.922 225.519 312.46 250.238 312.46 250.238C314.312 256.087 323.162 247.752 321.955 255.744C320.747 263.736 292.397 288.007 280.787 272.426C280.164 271.589 279.554 270.72 278.955 269.832C288.447 246.701 303.873 226.595 323.792 211.046Z" fill="#98CFF4"/>
<path d="M285.06 276.736C285.156 276.953 285.361 277.115 285.613 277.147C285.998 277.196 286.351 276.923 286.399 276.537C286.451 276.137 291.909 235.851 327.488 186.491C327.715 186.176 327.645 185.735 327.328 185.51C327.013 185.282 326.573 185.354 326.347 185.669C290.543 235.342 285.056 275.956 285.004 276.361C284.987 276.493 285.008 276.623 285.06 276.736Z" fill="#D2EDFF"/>
<path d="M316.872 201.112L328.103 196.851C328.466 196.714 328.648 196.307 328.51 195.944C328.371 195.586 327.967 195.399 327.604 195.537L317.886 199.223L316.05 191.105C315.963 190.721 315.588 190.487 315.209 190.573C314.83 190.658 314.592 191.036 314.677 191.414L316.872 201.112Z" fill="#D2EDFF"/>
<path d="M293.351 199.458C293.36 199.478 293.37 199.498 293.38 199.518L305.51 220.993L322.304 216.144C322.677 216.037 322.892 215.646 322.784 215.273C322.678 214.897 322.286 214.684 321.912 214.793L306.188 219.332L294.604 198.825C294.413 198.487 293.984 198.368 293.646 198.558C293.329 198.739 293.205 199.131 293.351 199.458Z" fill="#D2EDFF"/>
<path d="M282.398 220.297C282.402 220.307 282.406 220.317 282.411 220.326L294.704 244.797L317.517 236.281C317.882 236.144 318.066 235.739 317.931 235.376C317.781 235.002 317.39 234.827 317.026 234.962L295.395 243.037L283.668 219.694C283.494 219.347 283.071 219.207 282.724 219.381C282.386 219.551 282.244 219.956 282.398 220.297Z" fill="#D2EDFF"/>
<path d="M270.257 230.75C270.261 230.759 270.264 230.768 270.269 230.776L287.757 265.918L315.318 257.558C315.69 257.445 315.9 257.053 315.788 256.68C315.671 256.31 315.281 256.099 314.91 256.211L288.487 264.226L271.529 230.15C271.355 229.802 270.933 229.66 270.586 229.833C270.246 230.002 270.103 230.408 270.257 230.75Z" fill="#D2EDFF"/>
<path d="M251.435 274.558H305.79L294.485 328.369H259.441L251.435 274.558Z" fill="#FF9900"/>
<path d="M301.12 296.79H254.743L255.581 302.418H299.938L301.12 296.79Z" fill="#FFBC00"/>
<path d="M299.427 304.849H255.941L256.36 307.662H298.835L299.427 304.849Z" fill="#FFBC00"/>
<path d="M307.319 273.666H249.802V281.313H307.319V273.666Z" fill="#FFBC00"/>
</svg>
