<svg width="366" height="302" viewBox="0 0 366 302" fill="none" xmlns="http://www.w3.org/2000/svg">
<path d="M333.07 74.4839C319.583 57.9586 302.208 44.8995 283.077 35.58C271.113 29.751 256.138 22.8739 243.099 20.6936C211.354 15.3852 178.63 14.4711 147.079 20.8285C115.528 27.1859 85.1533 41.0605 61.4957 62.8821C53.8687 69.9167 46.9855 77.7149 40.3254 85.6723C10.2256 121.633 -14.1092 172.684 9.44981 218.743C15.5556 230.68 24.8491 240.71 34.8985 249.587C43.7614 257.414 53.4207 264.541 64.3332 269.094C78.6584 275.071 94.8265 276.35 110.02 273.17C138.204 267.272 161.051 247.227 187.14 235.04C205.325 226.545 225.283 221.869 245.349 221.4C262.594 220.998 280.1 223.64 296.955 219.975C326.204 213.615 349.301 187.695 355.45 158.401C361.6 129.106 351.996 97.6736 333.07 74.4839Z" fill="#D7EFF9"/>
<path d="M330.758 115.573C331.625 115.535 332.527 115.486 333.283 115.061C333.958 114.681 334.443 114.039 334.852 113.381C336.036 111.477 336.751 109.172 336.291 106.978C335.831 104.783 333.976 102.809 331.736 102.694C329.497 102.579 327.297 104.797 327.831 106.975C326.69 106.024 325.183 105.411 323.718 105.659C322.254 105.905 320.929 107.176 320.931 108.661C320.96 104.368 316.499 100.64 312.28 101.432C308.06 102.224 305.255 107.317 306.839 111.306C305.745 110.701 304.578 110.077 303.328 110.136C302.079 110.195 300.79 111.24 300.957 112.48C300.486 108.998 293.524 110.461 293.178 113.635C292.768 117.397 298.744 116.503 301.062 116.466C310.965 116.307 320.864 116.009 330.758 115.573Z" fill="white"/>
<path d="M30.8538 210.058C29.9873 210.019 29.0852 209.97 28.3294 209.546C27.6539 209.166 27.1688 208.523 26.7597 207.865C25.5757 205.962 24.8605 203.656 25.3206 201.462C25.7807 199.268 27.6358 197.293 29.8757 197.178C32.1148 197.063 34.3149 199.282 33.7813 201.459C34.922 200.508 36.4294 199.896 37.8936 200.143C39.3578 200.39 40.6827 201.661 40.681 203.146C40.6516 198.853 45.1133 195.124 49.3319 195.917C53.5515 196.709 56.357 201.801 54.7726 205.79C55.8666 205.185 57.0342 204.561 58.2839 204.62C59.5327 204.679 60.8222 205.725 60.6552 206.964C61.1257 203.482 68.0877 204.945 68.4336 208.119C68.8435 211.881 62.8675 210.987 60.5497 210.95C50.6474 210.79 40.7476 210.493 30.8538 210.058Z" fill="white"/>
<path d="M63.1286 41.3061C65.7871 41.2577 68.622 41.1548 70.8006 39.631C72.9791 38.1071 73.9589 34.5976 72.0217 32.7771C70.3552 31.2109 67.1354 32.0827 66.4867 34.2759C66.9053 32.5012 64.2036 31.0215 62.934 32.33C62.9444 29.5815 62.0968 26.8357 60.5375 24.5724C59.6251 23.2466 58.3772 22.0307 56.8006 21.7063C55.1539 21.3673 53.4502 22.0704 52.1002 23.0728C48.8501 25.4857 47.1144 29.7839 47.7769 33.7769C46.9587 32.6716 45.4548 32.1233 44.1177 32.4433C42.7798 32.7633 41.6875 33.9325 41.4575 35.2886C40.3358 34.288 39.0974 33.2614 37.6029 33.1014C36.1085 32.9414 34.3944 34.1012 34.5734 35.593C32.7529 33.661 30.4542 32.0351 27.8285 31.6459C25.2029 31.2567 22.2469 32.362 21.0344 34.723C19.7345 37.2544 21.3085 40.8651 23.9437 41.8052C27.1462 42.9467 32.1475 41.8709 35.5048 41.8095C44.7127 41.6417 53.9207 41.4739 63.1286 41.3061Z" fill="#D7EFF9"/>
<path d="M112.777 59.4893C112.641 59.5637 112.492 59.6009 112.343 59.6009C112.187 59.6009 112.031 59.5611 111.893 59.4807L96.305 50.514C96.0724 50.9032 95.9297 51.3521 95.9297 51.8355V65.5605C95.9297 66.99 97.0989 68.1593 98.5285 68.1593H126.157C127.586 68.1593 128.755 66.99 128.755 65.5605V51.8355C128.755 51.4818 128.683 51.1445 128.553 50.8358L112.777 59.4893Z" fill="#98C4E5"/>
<path d="M112.353 57.6619L127.253 49.4892C126.918 49.331 126.549 49.2358 126.155 49.2358H98.5274C98.2991 49.2358 98.0811 49.2748 97.8701 49.331L112.353 57.6619Z" fill="#98C4E5"/>
<path d="M248.489 169.821C248.39 169.875 248.28 169.903 248.17 169.903C248.056 169.903 247.942 169.874 247.84 169.815L236.394 163.23C236.222 163.515 236.118 163.845 236.118 164.2V174.279C236.118 175.329 236.976 176.188 238.026 176.188H258.314C259.364 176.188 260.222 175.329 260.222 174.279V164.2C260.222 163.941 260.169 163.693 260.074 163.466L248.489 169.821Z" fill="#98C4E5"/>
<path d="M248.177 168.479L259.119 162.477C258.874 162.361 258.602 162.291 258.313 162.291H238.026C237.858 162.291 237.698 162.319 237.543 162.361L248.177 168.479Z" fill="#98C4E5"/>
<path d="M163.025 251.559C169.641 247.024 177.388 242.952 185.312 244.19C187.066 244.464 188.824 245.021 190.2 246.141C191.577 247.261 192.518 249.02 192.326 250.784C192.17 252.216 191.307 253.485 190.265 254.479C188.133 256.511 185.24 257.579 182.34 258.094C179.439 258.609 176.476 258.621 173.538 258.836C170.308 259.072 167.096 259.556 163.94 260.279C161.755 260.778 157.658 262.999 155.524 262.24C149.089 259.953 161.261 252.769 163.025 251.559Z" fill="#D7EFF9"/>
<path d="M190.601 237.488C190.126 238.984 190.392 240.672 191.202 242.015C191.512 242.528 191.901 242.999 192.385 243.352C193.085 243.863 193.943 244.104 194.788 244.297C195.492 244.459 196.209 244.595 196.931 244.584C199.326 244.545 201.565 242.668 202.023 240.316C202.48 237.965 201.108 235.386 198.902 234.451C198.152 234.134 197.341 233.994 196.536 233.866C194.093 233.478 191.371 235.065 190.601 237.488Z" fill="#D7EFF9"/>
<path d="M271.087 45.703L314.973 193.768L75.1761 264.482L38.4785 97.4462L271.087 45.703Z" stroke="#224CB3" stroke-width="1.9842" stroke-miterlimit="10" stroke-linecap="round" stroke-linejoin="round"/>
<path d="M354.457 204.349C360.314 182.541 347.384 160.114 325.576 154.256C303.768 148.399 281.34 161.33 275.483 183.138C269.626 204.946 282.556 227.373 304.364 233.23C326.172 239.088 348.6 226.157 354.457 204.349Z" fill="#224CB3"/>
<path d="M280.791 223.317C278.325 223.317 276.028 221.757 275.203 219.29C274.172 216.204 275.838 212.865 278.925 211.834L295.675 206.237L302.737 184.139C303.727 181.039 307.038 179.325 310.145 180.319C313.245 181.309 314.955 184.626 313.965 187.726L305.992 212.674C305.419 214.464 304.028 215.874 302.246 216.469L282.661 223.013C282.039 223.219 281.41 223.317 280.791 223.317Z" fill="#A05E47"/>
<path d="M310.143 180.319C307.037 179.325 303.726 181.039 302.736 184.139L298.409 197.678C300.558 199.092 304.644 201.304 309.509 201.662L313.962 187.726C314.954 184.626 313.243 181.309 310.143 180.319Z" fill="#CC8025"/>
<path d="M301.776 188.134C300.825 198.222 307.35 207.961 305.004 218.136C304.727 219.335 304.327 220.516 304.256 221.744C303.821 229.2 320.272 228.648 324.724 228.13C328.52 227.689 332.487 226.783 335.746 224.697C339.459 222.321 338.591 219.504 337.243 215.598C335.063 209.274 334.423 202.425 335.395 195.807C336.241 190.049 337.829 183.303 333.153 178.73C329.179 174.844 323.156 174.533 317.949 175.277C311.513 176.196 303.37 179.093 302.023 186.366C301.912 186.956 301.832 187.546 301.776 188.134Z" fill="#FBB040"/>
<path d="M316.596 190.455C322.633 186.546 324.013 175.978 324.125 175.031C322.054 174.865 319.942 174.993 317.949 175.277C315.122 175.681 311.965 176.467 309.199 177.838C311.24 186.555 316.596 190.455 316.596 190.455Z" fill="#A05E47"/>
<path d="M321.874 164.936V175.154L317.166 179.442L312.592 176.655V170.51L321.874 164.936Z" fill="#A05E47"/>
<path d="M320.598 170.089L312.592 172.741V176.012C317.06 175.416 320.598 170.089 320.598 170.089Z" fill="#774031"/>
<path d="M315.312 174.251H311.091C307.482 174.251 304.529 171.298 304.529 167.689V156.013C304.529 152.404 307.482 149.451 311.091 149.451H315.312C318.921 149.451 321.875 152.403 321.875 156.013V167.689C321.875 171.298 318.922 174.251 315.312 174.251Z" fill="#A05E47"/>
<path d="M330.447 179.062C327.217 178.78 324.345 181.172 324.059 184.414L321.826 209.713L298.098 211.239C298.098 211.239 297.32 217.493 298.853 223L327.629 221.151C330.533 220.965 332.866 218.687 333.122 215.788L335.799 185.45C336.086 182.208 333.688 179.348 330.447 179.062Z" fill="#A05E47"/>
<path d="M295.714 223.078C295 223 294.255 222.905 293.662 222.502C293.068 222.099 292.688 221.283 293.01 220.64C293.177 220.308 293.515 220.039 293.529 219.666C293.545 219.197 293.056 218.895 292.783 218.515C292.28 217.816 292.56 216.763 293.215 216.204C293.432 216.019 293.698 215.851 293.772 215.576C293.933 214.966 293.023 214.447 293.196 213.84C293.328 213.375 294.008 213.25 294.152 212.789C294.23 212.539 294.122 212.269 294.139 212.008C294.168 211.569 294.553 211.22 294.974 211.092C295.394 210.964 295.845 211.011 296.283 211.058C296.971 211.132 297.658 211.208 298.346 211.283C298.751 211.327 299.167 211.375 299.528 211.567C300.303 211.979 300.602 212.924 300.791 213.781C301.152 215.423 301.373 217.121 301.13 218.785C300.932 220.142 300.398 221.576 299.432 222.579C298.547 223.495 296.877 223.205 295.714 223.078Z" fill="#A05E47"/>
<path d="M330.477 178.756C327.179 178.468 324.248 180.911 323.956 184.22L322.082 205.457C324.189 206.394 329.092 208.349 333.878 208.664L335.942 185.277C336.233 181.968 333.787 179.049 330.477 178.756Z" fill="#FBB040"/>
<path d="M323.805 185.909L322.08 205.456C322.08 205.456 329.311 208.558 333.876 208.664L335.821 188.539" stroke="#935D16" stroke-width="0.2835" stroke-miterlimit="10" stroke-linecap="round" stroke-linejoin="round"/>
<path d="M311.373 143.219C310.036 143.424 308.812 144.762 309.193 146.06C307.412 145.315 305.102 146.42 304.565 148.274C303.133 148.482 301.924 149.748 301.783 151.188C301.641 152.628 302.581 154.105 303.945 154.588C303.223 155.043 303.229 156.194 303.791 156.836C304.353 157.479 305.27 157.692 306.124 157.686C307.245 157.677 308.363 157.347 309.309 156.744C310.803 158.176 313.352 158.331 315.009 157.091C315.237 157.888 316.036 158.416 316.85 158.57C317.665 158.724 318.503 158.573 319.319 158.422C319.079 159.099 318.835 159.818 318.985 160.521C319.134 161.223 319.843 161.857 320.531 161.652C320.232 161.996 320.049 162.44 320.021 162.896C320.478 162.933 320.936 162.968 321.393 163.004C321.04 163.608 321.644 164.502 322.336 164.401C322.077 165.102 321.479 165.673 321.379 166.414C321.252 167.353 322.143 168.288 323.086 168.205C324.029 168.123 324.745 167.047 324.457 166.145C326.102 166.915 328.327 165.638 328.492 163.828C330.274 162.723 330.42 159.754 328.756 158.479C329.923 157.909 330.736 156.673 330.798 155.375C330.86 154.077 330.169 152.769 329.061 152.089C329.71 151.257 329.897 150.118 329.679 149.086C329.493 148.199 329.02 147.374 328.344 146.77C327.959 146.426 327.515 146.156 327.073 145.887C326.428 145.496 325.784 145.105 325.14 144.713C324.264 144.18 323.345 143.635 322.323 143.551C321.301 143.468 320.15 144.005 319.889 144.997C320.271 143.546 316.911 143.078 316.149 143.235C315.502 143.368 315.025 143.779 314.352 143.768C313.319 143.749 312.495 143.046 311.373 143.219Z" fill="#171E26"/>
<path d="M314.243 162.136C314.243 164.058 313.007 165.615 311.483 165.615C309.959 165.615 308.724 164.058 308.724 162.136C308.724 160.214 309.959 158.657 311.483 158.657C313.007 158.657 314.243 160.214 314.243 162.136Z" stroke="#0D2638" stroke-width="0.5669" stroke-miterlimit="10" stroke-linecap="round" stroke-linejoin="round"/>
<path d="M307.607 162.136C307.607 164.058 306.556 165.615 305.259 165.615C303.961 165.615 302.91 164.058 302.91 162.136C302.91 160.214 303.961 158.657 305.259 158.657C306.556 158.657 307.607 160.214 307.607 162.136Z" stroke="#0D2638" stroke-width="0.5669" stroke-miterlimit="10" stroke-linecap="round" stroke-linejoin="round"/>
<path d="M307.608 162.136C307.608 162.136 307.986 161.825 308.724 162.136" stroke="#0D2638" stroke-width="0.5669" stroke-miterlimit="10" stroke-linecap="round" stroke-linejoin="round"/>
<path d="M314.245 162.136H322.573" stroke="#0D2638" stroke-width="0.5669" stroke-miterlimit="10" stroke-linecap="round" stroke-linejoin="round"/>
<path d="M324.699 163.76C324.699 164.935 323.747 165.886 322.573 165.886C321.399 165.886 320.447 164.934 320.447 163.76C320.447 162.586 321.399 161.634 322.573 161.634C323.747 161.634 324.699 162.586 324.699 163.76Z" fill="#A05E47"/>
<path d="M316.592 190.455C316.592 190.455 315.351 186.793 316.393 183.604" stroke="#774031" stroke-width="0.2835" stroke-miterlimit="10" stroke-linecap="round" stroke-linejoin="round"/>
<path d="M323.169 165.886C323.169 166.215 322.901 166.484 322.572 166.484C322.242 166.484 321.975 166.216 321.975 165.886C321.975 165.556 322.242 165.289 322.572 165.289C322.901 165.288 323.169 165.556 323.169 165.886Z" fill="white"/>
<path d="M346.188 223.353H295.342C295.055 223.353 294.822 223.119 294.822 222.833V221.345C294.822 221.059 295.055 220.826 295.342 220.826H346.188C346.474 220.826 346.708 221.059 346.708 221.345V222.833C346.708 223.119 346.474 223.353 346.188 223.353Z" fill="#0A2274"/>
<path d="M319.289 223.315H276.949C275.225 223.315 273.59 221.904 273.317 220.18L269.663 197.111C269.39 195.386 270.577 193.976 272.302 193.976H314.642C316.367 193.976 318.001 195.386 318.274 197.111L321.928 220.18C322.2 221.904 321.014 223.315 319.289 223.315Z" fill="white" stroke="#1F74C2" stroke-miterlimit="10"/>
<path d="M290.979 208.583C290.979 210.737 292.726 212.483 294.88 212.483C297.034 212.483 298.78 210.737 298.78 208.583C298.78 206.429 297.034 204.683 294.88 204.683C292.726 204.683 290.979 206.429 290.979 208.583Z" fill="#0A2274"/>
<path d="M76.6187 265.232L271.087 45.703" stroke="#224CB3" stroke-width="1.9842" stroke-miterlimit="10" stroke-linecap="round" stroke-linejoin="round"/>
<path d="M75.1762 301.179C95.4437 301.179 111.874 284.749 111.874 264.482C111.874 244.214 95.4437 227.784 75.1762 227.784C54.9086 227.784 38.4785 244.214 38.4785 264.482C38.4785 284.749 54.9086 301.179 75.1762 301.179Z" fill="#224CB3"/>
<path d="M80.6868 251.558C83.4023 249.819 87.0139 250.609 88.7557 253.326L99.9986 270.877L120.305 260.74C122.271 267.735 125.562 270.586 125.562 270.586L100.704 283.715C99.4209 284.392 97.9921 284.546 96.6707 284.243C95.2273 283.912 93.9127 283.035 93.0574 281.701L78.9173 259.626C77.1781 256.911 77.9694 253.298 80.6868 251.558Z" fill="#EEB399"/>
<path d="M93.0582 281.701L90.001 276.929L99.5073 270.112L99.9985 270.878L118.884 261.45C117.978 265.193 113.744 273.597 94.6209 283.33C94.0147 282.904 93.4802 282.36 93.0582 281.701Z" fill="#CC957F"/>
<path d="M80.6873 251.558C83.4029 249.819 87.0144 250.609 88.7562 253.326L99.3825 269.915C97.6761 272.393 94.5074 276.453 90.9313 278.379L78.9195 259.627C77.1786 256.911 77.97 253.298 80.6873 251.558Z" fill="#638DCE"/>
<path d="M125.966 257.796C126.412 257.621 126.886 257.453 127.359 257.528C127.832 257.604 128.288 258.008 128.246 258.485C128.183 259.217 127.178 259.417 126.747 260.012C126.425 260.459 126.475 261.085 126.691 261.591C126.908 262.098 127.266 262.529 127.554 262.999C128.928 265.257 128.353 268.499 126.287 270.147C125.898 270.458 125.426 270.725 124.93 270.675C124.304 270.611 123.848 270.075 123.46 269.58C122.42 268.249 121.371 266.903 120.656 265.372C120.013 263.992 119.137 261.603 120.543 260.521C122.075 259.344 124.18 258.496 125.966 257.796Z" fill="#EEB399"/>
<path d="M123.935 268.138C124.037 268.161 124.147 268.175 124.268 268.18C124.375 268.184 124.465 268.1 124.469 267.992C124.473 267.884 124.391 267.792 124.281 267.79C123.953 267.779 123.727 267.68 123.611 267.495C123.378 267.135 123.563 266.484 123.653 266.264C123.673 266.214 123.673 266.158 123.65 266.108C123.628 266.059 123.585 266.022 123.534 266.005C123.109 265.864 122.858 265.669 122.788 265.423C122.681 265.05 123.016 264.642 123.019 264.638C123.067 264.581 123.078 264.501 123.047 264.433C123.017 264.365 122.95 264.321 122.875 264.318C122.549 264.31 122.318 264.23 122.193 264.079C122.055 263.917 122.082 263.718 122.083 263.71C122.288 261.766 126.473 261.61 126.515 261.609C126.623 261.606 126.706 261.516 126.704 261.409C126.7 261.302 126.615 261.219 126.503 261.22C126.316 261.226 121.937 261.39 121.698 263.661C121.697 263.664 121.642 264.023 121.891 264.324C122.038 264.502 122.251 264.617 122.538 264.674C122.426 264.891 122.323 265.205 122.414 265.528C122.509 265.861 122.782 266.122 123.228 266.305C123.132 266.62 122.995 267.255 123.284 267.705C123.424 267.926 123.643 268.071 123.935 268.138Z" fill="#B57359"/>
<path d="M122.826 264.703C122.862 264.711 122.901 264.71 122.938 264.695C122.973 264.682 126.482 263.364 127.623 263.323C127.73 263.319 127.814 263.229 127.81 263.121C127.808 263.013 127.714 262.927 127.609 262.934C126.405 262.978 122.947 264.275 122.8 264.33C122.7 264.368 122.649 264.481 122.687 264.581C122.711 264.646 122.765 264.689 122.826 264.703Z" fill="#B57359"/>
<path d="M123.428 266.379C123.463 266.387 123.5 266.386 123.537 266.373C123.572 266.36 127.075 265.131 128.137 265.129C128.244 265.129 128.331 265.042 128.331 264.934C128.331 264.827 128.246 264.741 128.136 264.739C127.008 264.742 123.554 265.954 123.408 266.006C123.307 266.042 123.253 266.153 123.289 266.254C123.312 266.319 123.366 266.364 123.428 266.379Z" fill="#B57359"/>
<path d="M124.232 268.174C124.276 268.185 124.324 268.18 124.368 268.156C124.387 268.146 126.292 267.138 128.043 266.971C128.15 266.961 128.229 266.866 128.22 266.76C128.208 266.652 128.112 266.575 128.008 266.583C126.177 266.757 124.266 267.77 124.184 267.812C124.09 267.863 124.054 267.981 124.105 268.076C124.131 268.129 124.178 268.162 124.232 268.174Z" fill="#B57359"/>
<path d="M122.246 262.881C122.309 262.896 122.379 262.877 122.428 262.828C122.622 262.631 122.723 262.342 122.693 262.068C123.278 261.998 123.784 261.928 124.278 261.771C124.892 261.578 125.381 261.278 125.73 260.882C125.92 260.669 126.025 260.461 126.052 260.249C126.096 259.904 125.913 259.529 125.586 259.293C125.295 259.086 124.954 259.007 124.656 258.958C123.767 258.809 122.863 258.854 122.044 259.089C121.942 259.12 121.882 259.227 121.911 259.331C121.942 259.434 122.05 259.493 122.153 259.464C122.915 259.244 123.759 259.202 124.591 259.342C124.846 259.383 125.135 259.448 125.359 259.61C125.571 259.763 125.692 259.995 125.666 260.2C125.649 260.331 125.575 260.471 125.438 260.624C125.136 260.967 124.707 261.228 124.161 261.4C123.679 261.552 123.172 261.619 122.608 261.684C122.548 261.692 122.428 261.707 122.352 261.812C122.279 261.911 122.294 262.022 122.302 262.082C122.326 262.257 122.268 262.434 122.15 262.553C122.075 262.63 122.076 262.754 122.152 262.829C122.179 262.856 122.212 262.873 122.246 262.881Z" fill="#B57359"/>
<path d="M93.0644 260.82L90.2182 297.648C90.2182 297.648 81.9019 302.177 70.1626 300.812C58.4242 299.447 55.853 294.26 55.853 294.26C55.853 294.26 57.8811 258.123 58.2227 257.765C58.5643 257.407 59.9524 245.534 76.9369 247.959C93.9223 250.385 93.0644 260.82 93.0644 260.82Z" fill="#7298E2"/>
<path d="M85.2544 250.292C93.5966 254.213 93.0639 260.82 93.0639 260.82L90.2177 297.648C90.2177 297.648 88.6506 298.499 85.9246 299.352C86.5586 294.145 87.3456 287.059 88.2485 277.661C89.7982 261.539 87.2997 253.804 85.2544 250.292Z" fill="#F15A29"/>
<path d="M70.1636 300.813C58.4252 299.448 55.854 294.261 55.854 294.261C55.854 294.261 57.882 258.124 58.2237 257.766C58.5099 257.466 59.5373 249.085 69.8531 247.802C72.7797 250.558 77.2155 255.864 76.8557 262.472C76.4146 270.59 74.9427 293.462 74.4506 301.067C73.0833 301.063 71.6511 300.986 70.1636 300.813Z" fill="#F15A29"/>
<path d="M88.6895 266.009C90.177 265.923 91.5088 265.82 92.6876 265.71L91.956 275.178C90.7746 275.296 89.6001 275.391 88.4326 275.47C88.7076 271.887 88.7751 268.752 88.6895 266.009Z" fill="#F9ED32"/>
<path d="M91.3944 282.434L90.6627 291.908C89.3507 292.023 88.0474 292.117 86.7554 292.186C87.0658 289.379 87.4005 286.211 87.756 282.669C89.0775 282.603 90.2943 282.523 91.3944 282.434Z" fill="#F9ED32"/>
<path d="M57.0439 273.948C57.2567 270.484 57.4694 267.13 57.6571 264.374C64.7237 265.464 71.1209 265.978 76.6455 266.149C76.4872 268.844 76.284 272.163 76.0643 275.699C68.3171 275.481 61.5913 274.66 57.0439 273.948Z" fill="#F9ED32"/>
<path d="M75.6246 282.723C75.4145 286.046 75.2052 289.33 75.0166 292.278C67.144 291.999 60.4121 291.115 56.0732 290.403C56.2142 287.942 56.4114 284.535 56.6311 280.828C63.6752 281.961 70.0637 282.512 75.6246 282.723Z" fill="#F9ED32"/>
<path d="M73.0127 237.619V247.837L77.7209 252.125L82.2941 249.338V243.193L73.0127 237.619Z" fill="#EEB399"/>
<path d="M74.2886 242.772L82.2944 245.424V248.695C77.8275 248.098 74.2886 242.772 74.2886 242.772Z" fill="#CC957F"/>
<path d="M79.5751 246.934H83.7964C87.4053 246.934 90.3587 243.981 90.3587 240.372V228.696C90.3587 225.087 87.4053 222.133 83.7964 222.133H79.5751C75.9661 222.133 73.0127 225.086 73.0127 228.696V240.372C73.0127 243.981 75.9661 246.934 79.5751 246.934Z" fill="#EEB399"/>
<path d="M79.22 231.776C78.5048 231.976 77.7818 232.149 77.0536 232.296C77.5067 233.016 77.204 234.098 76.4421 234.478C76.1299 234.634 75.752 234.692 75.5237 234.956C75.2417 235.282 75.31 235.77 75.3585 236.198C75.4069 236.626 75.3697 237.149 74.9927 237.359C74.5672 237.597 73.8718 237.326 73.6435 237.757C73.5709 237.894 73.5821 238.059 73.5588 238.213C73.4455 238.935 72.4993 239.281 71.8239 239.002C71.1484 238.723 70.7342 238.032 70.4955 237.341C70.2395 236.599 70.1305 235.792 70.3009 235.027C70.6244 233.58 71.849 232.547 72.7968 231.407C73.6738 230.353 74.4037 229.092 75.6231 228.464C76.8892 227.812 78.5964 228.082 79.6783 228.997C80.6997 229.861 80.5717 231.4 79.22 231.776Z" fill="#171E26"/>
<path d="M72.1626 236.443C72.1626 237.617 73.1148 238.569 74.2884 238.569C75.4628 238.569 76.4141 237.616 76.4141 236.443C76.4141 235.268 75.462 234.317 74.2884 234.317C73.1148 234.317 72.1626 235.268 72.1626 236.443Z" fill="#EEB399"/>
<path d="M90.9439 228.389C90.9439 228.389 80.6472 231.422 72.3145 232.264C72.3145 232.264 67.544 221.76 78.6261 219.345C89.7081 216.93 90.1016 223.951 90.9439 228.389Z" fill="#FBB040"/>
<path d="M90.9437 228.389C90.9437 228.389 97.4153 230.302 79.9966 231.058C79.9966 231.058 88.3604 228.501 90.9437 228.389Z" fill="#F7941D"/>
<path d="M85.3104 229.55C85.3104 229.55 84.4213 218.346 76.0903 220.145L74.9868 220.705C74.9868 220.705 83.8064 219.842 84.5216 230.066L85.3104 229.55Z" fill="#F7941D"/>
<path d="M87.9635 229.072C87.9635 229.072 87.4757 218.66 81.1191 218.939" stroke="#F7941D" stroke-width="0.2835" stroke-miterlimit="10" stroke-linecap="round" stroke-linejoin="round"/>
<path d="M82.2935 249.338C82.2935 249.338 82.9438 252.365 77.7202 252.124C72.4966 251.884 73.012 247.403 73.012 247.403L82.2935 249.338Z" fill="#EEB399"/>
<path d="M118.944 261.902L113.316 266.325C113.057 266.529 112.677 266.483 112.473 266.224L104.566 256.16C104.361 255.901 104.407 255.521 104.667 255.317L110.295 250.894C110.555 250.69 110.934 250.736 111.138 250.996L119.046 261.059C119.249 261.318 119.204 261.698 118.944 261.902Z" fill="#2D2D2D"/>
<path d="M110.682 253.024L104.272 244.866" stroke="#2D2D2D" stroke-miterlimit="10" stroke-linecap="round" stroke-linejoin="round"/>
<path d="M62.2532 252.451C64.5736 250.187 68.3114 250.219 70.5868 252.546L88.3402 270.707L107.667 256.858C107.667 256.858 112.23 261.205 114.532 266.437L91.0938 283.234C88.7285 284.93 85.481 284.644 83.4469 282.564L62.1572 260.784C59.8836 258.458 59.926 254.726 62.2532 252.451Z" fill="#EEB399"/>
<path d="M117.012 264.509C117.514 263.996 118.031 263.452 118.235 262.764C118.439 262.076 118.216 261.204 117.56 260.911C117.219 260.758 116.788 260.764 116.542 260.484C116.232 260.132 116.419 259.589 116.39 259.121C116.336 258.262 115.453 257.624 114.592 257.607C114.307 257.601 113.994 257.641 113.763 257.474C113.251 257.104 113.627 256.126 113.109 255.766C112.712 255.49 112.107 255.824 111.703 255.558C111.484 255.415 111.397 255.137 111.219 254.946C110.92 254.624 110.399 254.598 109.993 254.766C109.586 254.934 109.266 255.255 108.958 255.568C108.474 256.061 107.99 256.555 107.504 257.048C107.219 257.339 106.927 257.64 106.769 258.016C106.431 258.826 106.798 259.746 107.195 260.529C107.955 262.029 108.86 263.483 110.102 264.617C111.114 265.542 112.437 266.313 113.819 266.477C115.084 266.627 116.192 265.344 117.012 264.509Z" fill="#EEB399"/>
<path d="M62.0371 252.234C64.4058 249.922 68.2215 249.955 70.5445 252.331L85.4465 267.576C84.4104 269.635 81.8539 274.254 78.3513 277.53L61.9402 260.741C59.6181 258.365 59.6614 254.557 62.0371 252.234Z" fill="#7298E2"/>
<path d="M71.7294 253.543L85.4465 267.576C85.4465 267.576 81.8159 274.556 78.3514 277.53L64.0972 263.19" stroke="#3C62A0" stroke-width="0.2835" stroke-miterlimit="10" stroke-linecap="round" stroke-linejoin="round"/>
<path d="M38.479 127.937C55.3185 127.937 68.9697 114.286 68.9697 97.4462C68.9697 80.6067 55.3185 66.9555 38.479 66.9555C21.6394 66.9555 7.98828 80.6067 7.98828 97.4462C7.98828 114.286 21.6394 127.937 38.479 127.937Z" fill="#224CB3"/>
<path d="M51.6326 52.1676C51.6326 52.1676 51.8004 75.2069 58.1189 79.4161C58.1189 79.4161 42.4117 81.7001 34.6481 78.5097C34.6481 78.5097 32.71 60.701 32.8708 58.3477C33.0317 55.9945 49.7204 51.2215 51.6326 52.1676Z" fill="#3F2009"/>
<path d="M58.3046 106.128C58.2302 106.128 58.155 106.126 58.0797 106.123C56.0751 106.047 54.2459 104.956 53.228 103.227C49.133 96.2805 44.1022 88.0481 42.6433 86.0685C41.4507 84.984 40.7052 83.4178 40.713 81.6795C40.7285 78.4346 43.3637 75.8133 46.6051 75.8133C46.6146 75.8133 46.6232 75.8133 46.6328 75.8133C50.1267 75.8297 51.347 76.9912 58.7119 89.3445L65.2916 79.9048C67.1536 77.2351 70.8274 76.5787 73.4955 78.4398C76.1652 80.3009 76.8216 83.9739 74.9605 86.6436L63.139 103.603C62.0346 105.188 60.2271 106.128 58.3046 106.128ZM46.5696 87.5993C46.5731 87.6002 46.5757 87.6002 46.5783 87.6002C46.5766 87.5993 46.5731 87.5993 46.5696 87.5993ZM46.5601 87.5993C46.5627 87.5993 46.567 87.5993 46.5696 87.5993C46.5662 87.5993 46.5627 87.5993 46.5601 87.5993ZM46.542 87.5993C46.5445 87.5993 46.5471 87.5993 46.5497 87.5993C46.5463 87.5993 46.5437 87.5993 46.542 87.5993ZM46.5342 87.5993C46.5359 87.5993 46.5368 87.5993 46.5385 87.5993C46.5368 87.5993 46.535 87.5993 46.5342 87.5993Z" fill="#C13D3D"/>
<path d="M53.7722 84.7937C54.2678 88.042 54.0031 91.3664 53.9244 94.6597C53.7515 101.929 53.9893 109.371 56.3979 116.269C57.2143 118.608 57.971 120.701 56.1263 122.75C52.4585 126.827 43.7894 127.771 38.7431 127.92C35.5216 128.016 24.7786 127.831 23.4078 123.327C22.9633 121.867 24.5831 118.552 24.8633 116.99C25.4635 113.638 25.1297 109.782 25.1323 106.35C25.1357 101.883 25.0648 97.0692 24.0149 92.7147C23.0316 88.6361 23.1656 84.6475 24.9558 80.7298C25.8717 78.7251 27.2235 76.8259 29.1667 75.7846C31.7561 74.3966 34.8885 73.9694 37.7727 73.959C41.1586 73.9469 45.6073 74.1233 48.6532 75.7561C51.5236 77.2946 53.0925 81.0939 53.6572 84.1087C53.6987 84.337 53.7376 84.5653 53.7722 84.7937Z" fill="#F75454"/>
<path d="M27.252 87.5526L38.3859 108.468C38.3859 108.468 40.8359 112.22 45.4914 110.367C48.392 109.212 51.9232 106.902 54.1743 105.323C53.9477 102.767 53.8751 100.19 53.8846 97.621L38.7024 98.926L27.252 87.5526Z" fill="#CC4848"/>
<path d="M43.3924 70.2428L43.5671 76.4644C43.5671 76.4644 43.6086 79.4533 39.0163 79.4161C34.424 79.3789 34.1274 75.2096 34.1274 75.2096L33.8359 64.8644L43.3924 70.2428Z" fill="#EEB399"/>
<path d="M35.2739 70.0449L43.4553 72.5019L43.5487 75.8133C39.0083 75.3368 35.2739 70.0449 35.2739 70.0449Z" fill="#C18B76"/>
<path d="M40.6621 74.1103L45.1039 73.9849C48.712 73.8837 51.5806 70.8482 51.4786 67.2409L51.1413 55.2508C51.0401 51.6427 48.0045 48.7741 44.3973 48.8761L39.9555 49.0015C36.3474 49.1027 33.4787 52.1383 33.5808 55.7455L33.9181 67.7356C34.0192 71.3437 37.054 74.2124 40.6621 74.1103Z" fill="#EEB399"/>
<path d="M31.7558 63.7305C31.7895 64.9197 32.7797 65.8563 33.9689 65.8226C35.158 65.7889 36.0938 64.7986 36.0609 63.6095C36.0272 62.4203 35.037 61.4837 33.8478 61.5174C32.6587 61.5512 31.722 62.5422 31.7558 63.7305Z" fill="#EEB399"/>
<path d="M51.6321 52.1677C51.6321 52.1677 44.2187 62.2258 33.1099 61.5382C33.1099 61.5382 30.652 48.263 41.4599 47.8686C41.4599 47.8686 47.0597 47.1465 51.6321 52.1677Z" fill="#5E3513"/>
<path d="M81.5164 98.919L61.3605 95.5557C61.0785 95.509 60.9064 95.2426 60.9782 94.965L68.1218 67.2919C68.1936 67.0143 68.4833 66.8249 68.7643 66.8725L88.9202 70.2358C89.2022 70.2825 89.3743 70.5489 89.3025 70.8265L82.1589 98.4996C82.0872 98.7772 81.7983 98.9657 81.5164 98.919Z" fill="white" stroke="#1F74C2" stroke-miterlimit="10"/>
<path d="M83.5573 71.2486L73.1827 69.5172C72.9008 69.4704 72.7287 69.2041 72.8005 68.9265L73.4128 66.5534C73.4846 66.2757 73.7734 66.0863 74.0554 66.1339L84.4299 67.8653C84.7119 67.912 84.884 68.1784 84.8122 68.456L84.1999 70.8291C84.129 71.1067 83.8393 71.2953 83.5573 71.2486Z" fill="#1F74C2"/>
<path d="M73.9309 82.3427C73.9309 82.3427 71.8432 92.5487 65.7218 96.7379L61.4521 96.1741L73.9309 82.3427Z" fill="#BCBEC0"/>
<path d="M60.7277 82.9187C60.8781 82.2865 61.0511 81.6146 61.5294 81.1744C62.0076 80.7342 62.8967 80.684 63.2296 81.2418C63.5142 81.7183 63.3818 82.5226 63.9146 82.6792C64.0806 82.7285 64.2596 82.6826 64.4248 82.6299C66.484 81.9717 67.9854 80.2317 69.805 79.065C70.6274 78.5375 71.6497 78.1172 72.5621 78.4666C73.2565 78.7329 73.7322 79.4101 73.9207 80.1288C74.1093 80.8483 74.0479 81.6085 73.9311 82.3428C73.3102 86.2354 71.0944 89.8504 67.9075 92.1699C67.5521 92.4294 67.1707 92.6784 66.7383 92.7597C66.3162 92.8393 65.8829 92.7519 65.4626 92.6646C64.6298 92.4908 63.7874 92.3117 63.0212 91.9425C61.4351 91.1779 60.386 89.6109 59.9882 87.9262C59.5281 85.9768 60.2961 84.7314 60.7277 82.9187Z" fill="#EEB399"/>
<path d="M60.2248 84.4685L45.84 94.8803L36.0889 79.4801C34.3471 76.7299 30.7079 75.9118 27.9577 77.6536C25.2075 79.3954 24.3903 83.0355 26.1312 85.7848L39.2369 106.484C40.1078 107.858 41.5071 108.811 43.1036 109.118C43.4729 109.189 43.8456 109.224 44.2158 109.224C45.4473 109.224 46.659 108.838 47.6708 108.105L67.1348 94.0155C64.8914 88.6318 60.2248 84.4685 60.2248 84.4685Z" fill="#F75454"/>
<path d="M27.252 87.5526L39.2386 106.483C39.2386 106.483 42.461 111.238 47.6734 108.104L54.1743 103.397" stroke="#BC2F2F" stroke-width="0.2835" stroke-miterlimit="10" stroke-linecap="round" stroke-linejoin="round"/>
<path d="M54.1737 88.8489L45.841 94.8802L38.2529 82.8953" stroke="#BC2F2F" stroke-width="0.2835" stroke-miterlimit="10" stroke-linecap="round" stroke-linejoin="round"/>
<path d="M35.6997 64.8644L40.3006 70.0448C40.3006 70.0448 42.1479 72.8529 49.2941 70.3405" stroke="#383838" stroke-width="0.5669" stroke-miterlimit="10" stroke-linecap="round" stroke-linejoin="round"/>
<path d="M32.8623 61.3315C32.8623 61.3315 30.5964 47.9611 41.4614 47.8677C41.4614 47.8677 34.4389 49.0111 34.8281 61.5157L32.8623 61.3315Z" fill="#383838"/>
<path d="M36.9257 63.6701C36.9257 65.3366 35.5749 66.6884 33.9074 66.6884C32.2409 66.6884 30.8892 65.3375 30.8892 63.6701C30.8892 62.0035 32.24 60.6518 33.9074 60.6518C35.5749 60.6518 36.9257 62.0035 36.9257 63.6701Z" fill="#2D2D2D"/>
<path d="M307.907 54.5684C312.805 34.2272 300.286 13.7667 279.944 8.86864C259.603 3.9706 239.143 16.4898 234.245 36.831C229.347 57.1722 241.866 77.6326 262.207 82.5307C282.548 87.4287 303.009 74.9096 307.907 54.5684Z" fill="#224CB3"/>
<path d="M244.641 23.6314C244.936 22.591 245.551 21.6743 246.155 20.7766C247.057 19.4387 248.076 18.0109 249.618 17.5335C250.232 17.3432 250.888 17.3225 251.528 17.3865C252.497 17.4842 253.474 17.7912 254.204 18.4372C254.92 19.0712 255.341 19.9784 255.6 20.8994C255.786 21.561 255.9 22.2468 255.888 22.9335C255.845 25.5125 253.827 27.9245 251.297 28.4218C250.29 28.6198 249.249 28.542 248.234 28.3855C247.186 28.2237 245.642 27.9409 245.026 26.9611C244.443 26.0366 244.351 24.6528 244.641 23.6314Z" fill="#D89073"/>
<path d="M249.66 28.3293L245.498 24.2784C245.253 24.0397 245.247 23.6437 245.486 23.398L253.397 15.2712C253.636 15.0255 254.032 15.0204 254.277 15.2591L258.439 19.31C258.684 19.5486 258.69 19.9447 258.451 20.1904L250.54 28.3172C250.302 28.5628 249.905 28.568 249.66 28.3293Z" fill="#383838"/>
<path d="M258.071 19.7126L253.908 15.6608L247.003 22.755L251.165 26.8068L258.071 19.7126Z" fill="#C6E9F4"/>
<path d="M252.941 29.7606C254.296 29.2045 255.634 28.5256 256.671 27.4904C257.064 27.0978 257.417 26.6438 257.58 26.1119C257.763 25.5126 257.689 24.8596 257.506 24.2603C257.008 22.6326 255.559 21.2394 253.859 21.1451C253.537 21.127 253.204 21.1572 252.916 21.3017C252.413 21.5551 252.129 22.1328 252.113 22.6958C252.096 23.2588 252.308 23.8062 252.59 24.2949C252.634 24.3718 252.68 24.4609 252.649 24.5439C252.624 24.6105 252.555 24.6494 252.492 24.6814C251.569 25.1519 250.61 25.5601 249.751 26.1396C248.892 26.7181 248.125 27.4973 247.786 28.4755C247.48 29.3611 247.682 30.9948 248.861 31.0544C250.102 31.1176 251.814 30.2225 252.941 29.7606Z" fill="#EEB399"/>
<path d="M257.58 26.1118C257.763 25.5124 257.69 24.8595 257.507 24.2601C257.075 22.8496 255.928 21.6189 254.525 21.2531C254.229 22.8669 254.025 25.7771 255.551 28.3923C255.947 28.1208 256.329 27.8293 256.67 27.4886C257.065 27.0968 257.417 26.6428 257.58 26.1118Z" fill="#CC957F"/>
<path d="M265.175 37.9619C264.079 34.8969 260.706 33.3004 257.644 34.3945L249.202 37.4093L253.135 30.0564C253.135 30.0564 249.486 26.4561 242.742 24.4964L231.605 45.3148C230.455 47.463 230.747 50.0964 232.336 51.942C233.477 53.2661 235.119 53.9882 236.802 53.9882C237.464 53.9882 238.134 53.8758 238.782 53.6449L261.606 45.4938C264.673 44.3989 266.27 41.0269 265.175 37.9619Z" fill="white"/>
<path d="M265.174 37.9618C264.078 34.8968 260.706 33.3004 257.643 34.3944L253.072 36.0263C252.665 39.1579 251.623 44.9333 249.136 49.9467L261.606 45.4937C264.672 44.3988 266.269 41.0268 265.174 37.9618Z" fill="#B6CAD8"/>
<path d="M252.586 43.3386L255.432 80.1668C255.432 80.1668 263.749 84.6951 275.488 83.3304C287.227 81.9657 289.798 76.7784 289.798 76.7784C289.798 76.7784 287.77 40.642 287.428 40.284C287.086 39.9259 285.698 28.0526 268.713 30.4776C251.728 32.9035 252.586 43.3386 252.586 43.3386Z" fill="white"/>
<path d="M289.798 76.7783C289.798 76.7783 287.77 40.642 287.428 40.2839C287.357 40.2096 287.239 39.6353 286.947 38.7999L277.222 41.998C277.222 41.998 289.588 56.03 288.49 78.3688C289.455 77.4494 289.798 76.7783 289.798 76.7783Z" fill="#B6CAD8"/>
<path d="M300.424 80.6181C300.205 81.3083 299.964 82.027 299.444 82.545C298.924 83.063 298.036 83.3009 297.459 82.8771C297.16 82.6566 296.958 82.2795 296.589 82.2051C296.124 82.1109 295.726 82.5415 295.292 82.7482C294.496 83.127 293.5 82.6765 293.072 81.9379C292.93 81.694 292.816 81.4026 292.556 81.2849C291.979 81.0238 291.282 81.835 290.71 81.5634C290.273 81.3559 290.282 80.6648 289.851 80.446C289.616 80.3276 289.327 80.389 289.069 80.3293C288.637 80.2281 288.364 79.7905 288.32 79.3546C288.276 78.9187 288.411 78.482 288.545 78.0591C288.755 77.394 288.966 76.729 289.176 76.0639C289.301 75.6721 289.43 75.2691 289.693 74.9465C290.257 74.2512 291.259 74.1146 292.151 74.0713C293.861 73.9883 295.599 74.0532 297.211 74.5695C298.526 74.9907 299.851 75.756 300.66 76.8751C301.402 77.8956 300.781 79.493 300.424 80.6181Z" fill="#EEB399"/>
<path d="M272.638 20.1367V30.3556L267.93 34.6426L263.356 31.8561V25.7106L272.638 20.1367Z" fill="#EEB399"/>
<path d="M271.362 25.2894L263.356 27.9418V31.2126C267.823 30.6159 271.362 25.2894 271.362 25.2894Z" fill="#CC957F"/>
<path d="M266.076 29.4519H261.855C258.246 29.4519 255.292 26.4985 255.292 22.8895V11.2133C255.292 7.60436 258.246 4.65094 261.855 4.65094H266.076C269.685 4.65094 272.638 7.60436 272.638 11.2133V22.8895C272.638 26.4985 269.685 29.4519 266.076 29.4519Z" fill="#EEB399"/>
<path d="M263.357 31.8561C263.357 31.8561 262.707 34.8831 267.93 34.6427C273.154 34.4022 272.638 29.9215 272.638 29.9215L263.357 31.8561Z" fill="#EEB399"/>
<path d="M254.87 10.2369C254.87 10.2369 263.656 15.5098 267.991 10.2369C267.991 10.2369 267.371 19.1845 272.961 18.9605C272.961 18.9605 277.234 4.37333 267.097 4.05507C267.097 4.05507 253.961 -0.490516 254.87 10.2369Z" fill="#171E26"/>
<path d="M271.363 21.0862C272.537 21.0862 273.488 20.1345 273.488 18.9604C273.488 17.7864 272.537 16.8347 271.363 16.8347C270.189 16.8347 269.237 17.7864 269.237 18.9604C269.237 20.1345 270.189 21.0862 271.363 21.0862Z" fill="#EEB399"/>
<path d="M249.201 37.4092C249.201 37.4092 242.661 39.5592 240.582 43.1154" stroke="#80A4BC" stroke-width="0.2835" stroke-miterlimit="10" stroke-linecap="round" stroke-linejoin="round"/>
<path d="M289.46 75.1965C289.46 75.1965 295.815 78.3583 300.975 77.7106C307.051 49.8888 283.738 33.3297 282.744 32.6387C280.071 30.7819 276.398 31.4444 274.542 34.1176C272.685 36.7908 273.347 40.4629 276.02 42.3188C276.2 42.4425 293.874 54.987 289.46 75.1965Z" fill="white"/>
<path d="M266.915 36.1024L265.475 39.2418L267.36 41.1263H269.236L271.188 39.2418L268.734 36.1024H266.915Z" fill="#171E26"/>
<path d="M267.359 41.1263V76.4678L271.362 80.1927L273.856 76.0345L269.236 41.1263C269.236 41.1263 268.584 39.5669 267.359 41.1263Z" fill="#171E26"/>
<path d="M261.03 33.2925C261.03 33.2925 260.794 38.3605 264.621 40.9446C264.621 40.9446 266.307 37.353 267.36 35.3733" stroke="#80A4BC" stroke-width="0.2835" stroke-miterlimit="10" stroke-linecap="round" stroke-linejoin="round"/>
<path d="M268.332 35.4738L272.005 40.4336C272.005 40.4336 276.436 37.1282 275.731 31.5854" stroke="#80A4BC" stroke-width="0.2835" stroke-miterlimit="10" stroke-linecap="round" stroke-linejoin="round"/>
<path d="M272.653 47.0418L279.376 46.2643C279.376 46.2643 280.855 51.359 277.223 51.8771C273.591 52.3951 273.182 49.7184 272.653 47.0418Z" stroke="#80A4BC" stroke-width="0.2835" stroke-miterlimit="10" stroke-linecap="round" stroke-linejoin="round"/>
<path d="M269.708 154.551H216.39C214.785 154.551 213.472 153.238 213.472 151.633V139.608C213.472 138.004 214.784 136.69 216.39 136.69H269.708C271.312 136.69 272.626 138.003 272.626 139.608V151.633C272.625 153.237 271.312 154.551 269.708 154.551Z" fill="white" stroke="#1F74C2" stroke-width="0.8504" stroke-miterlimit="10"/>
<path d="M220.422 143.462H216.304C216.108 143.462 215.947 143.302 215.947 143.105V138.987C215.947 138.791 216.108 138.63 216.304 138.63H220.422C220.619 138.63 220.779 138.791 220.779 138.987V143.105C220.779 143.302 220.619 143.462 220.422 143.462Z" fill="#1F74C2"/>
<path d="M222.869 139.182H258.602" stroke="#1F74C2" stroke-width="0.8504" stroke-miterlimit="10" stroke-linecap="round" stroke-linejoin="round"/>
<path d="M222.869 141.046H238.429" stroke="#1F74C2" stroke-width="0.8504" stroke-miterlimit="10" stroke-linecap="round" stroke-linejoin="round"/>
<path d="M222.869 142.911H253.604" stroke="#1F74C2" stroke-width="0.8504" stroke-miterlimit="10" stroke-linecap="round" stroke-linejoin="round"/>
<path d="M215.644 146.11H269.923" stroke="#1F74C2" stroke-width="0.8504" stroke-miterlimit="10" stroke-linecap="round" stroke-linejoin="round"/>
<path d="M215.644 148.455H266.13" stroke="#1F74C2" stroke-width="0.8504" stroke-miterlimit="10" stroke-linecap="round" stroke-linejoin="round"/>
<path d="M215.644 150.801H257.218" stroke="#1F74C2" stroke-width="0.8504" stroke-miterlimit="10" stroke-linecap="round" stroke-linejoin="round"/>
<path d="M276.325 231.701H223.007C221.403 231.701 220.09 230.388 220.09 228.783V216.758C220.09 215.154 221.403 213.84 223.007 213.84H276.325C277.929 213.84 279.242 215.153 279.242 216.758V228.783C279.242 230.388 277.929 231.701 276.325 231.701Z" fill="white" stroke="#1F74C2" stroke-width="0.8504" stroke-miterlimit="10"/>
<path d="M227.04 220.613H222.922C222.726 220.613 222.564 220.452 222.564 220.256V216.137C222.564 215.941 222.725 215.78 222.922 215.78H227.04C227.236 215.78 227.397 215.941 227.397 216.137V220.256C227.398 220.452 227.236 220.613 227.04 220.613Z" fill="#1F74C2"/>
<path d="M229.487 216.332H265.22" stroke="#1F74C2" stroke-width="0.8504" stroke-miterlimit="10" stroke-linecap="round" stroke-linejoin="round"/>
<path d="M229.487 218.197H245.047" stroke="#1F74C2" stroke-width="0.8504" stroke-miterlimit="10" stroke-linecap="round" stroke-linejoin="round"/>
<path d="M229.487 220.061H260.222" stroke="#1F74C2" stroke-width="0.8504" stroke-miterlimit="10" stroke-linecap="round" stroke-linejoin="round"/>
<path d="M222.262 223.26H276.541" stroke="#1F74C2" stroke-width="0.8504" stroke-miterlimit="10" stroke-linecap="round" stroke-linejoin="round"/>
<path d="M222.262 225.606H272.747" stroke="#1F74C2" stroke-width="0.8504" stroke-miterlimit="10" stroke-linecap="round" stroke-linejoin="round"/>
<path d="M222.262 227.951H263.835" stroke="#1F74C2" stroke-width="0.8504" stroke-miterlimit="10" stroke-linecap="round" stroke-linejoin="round"/>
<path d="M221.993 54.2486H168.675C167.071 54.2486 165.757 52.9357 165.757 51.3306V39.3059C165.757 37.7016 167.07 36.3888 168.675 36.3888H221.993C223.597 36.3888 224.911 37.7016 224.911 39.3059V51.3306C224.911 52.9357 223.597 54.2486 221.993 54.2486Z" fill="white" stroke="#1F74C2" stroke-width="0.8504" stroke-miterlimit="10"/>
<path d="M172.707 43.1605H168.589C168.393 43.1605 168.232 42.9996 168.232 42.8033V38.6849C168.232 38.4886 168.393 38.3278 168.589 38.3278H172.707C172.904 38.3278 173.065 38.4886 173.065 38.6849V42.8033C173.066 42.9996 172.905 43.1605 172.707 43.1605Z" fill="#1F74C2"/>
<path d="M175.154 38.8795H210.888" stroke="#1F74C2" stroke-width="0.8504" stroke-miterlimit="10" stroke-linecap="round" stroke-linejoin="round"/>
<path d="M175.154 40.7441H190.714" stroke="#1F74C2" stroke-width="0.8504" stroke-miterlimit="10" stroke-linecap="round" stroke-linejoin="round"/>
<path d="M175.154 42.6087H205.889" stroke="#1F74C2" stroke-width="0.8504" stroke-miterlimit="10" stroke-linecap="round" stroke-linejoin="round"/>
<path d="M167.929 45.8076H222.209" stroke="#1F74C2" stroke-width="0.8504" stroke-miterlimit="10" stroke-linecap="round" stroke-linejoin="round"/>
<path d="M167.929 48.1531H218.415" stroke="#1F74C2" stroke-width="0.8504" stroke-miterlimit="10" stroke-linecap="round" stroke-linejoin="round"/>
<path d="M167.929 50.4985H209.503" stroke="#1F74C2" stroke-width="0.8504" stroke-miterlimit="10" stroke-linecap="round" stroke-linejoin="round"/>
<path d="M98.1605 152.314H44.8424C43.2381 152.314 41.9253 151.001 41.9253 149.396V137.372C41.9253 135.767 43.2381 134.454 44.8424 134.454H98.1605C99.7647 134.454 101.078 135.766 101.078 137.372V149.396C101.078 151 99.7647 152.314 98.1605 152.314Z" fill="white" stroke="#1F74C2" stroke-width="0.8504" stroke-miterlimit="10"/>
<path d="M48.8745 141.226H44.7561C44.5589 141.226 44.3989 141.065 44.3989 140.868V136.75C44.3989 136.554 44.5598 136.393 44.7561 136.393H48.8745C49.0708 136.393 49.2316 136.554 49.2316 136.75V140.868C49.2316 141.065 49.0708 141.226 48.8745 141.226Z" fill="#1F74C2"/>
<path d="M51.3218 136.945H87.0542" stroke="#1F74C2" stroke-width="0.8504" stroke-miterlimit="10" stroke-linecap="round" stroke-linejoin="round"/>
<path d="M51.3218 138.81H66.8819" stroke="#1F74C2" stroke-width="0.8504" stroke-miterlimit="10" stroke-linecap="round" stroke-linejoin="round"/>
<path d="M51.3218 140.674H82.0564" stroke="#1F74C2" stroke-width="0.8504" stroke-miterlimit="10" stroke-linecap="round" stroke-linejoin="round"/>
<path d="M44.0957 143.873H98.3755" stroke="#1F74C2" stroke-width="0.8504" stroke-miterlimit="10" stroke-linecap="round" stroke-linejoin="round"/>
<path d="M44.0957 146.219H94.5814" stroke="#1F74C2" stroke-width="0.8504" stroke-miterlimit="10" stroke-linecap="round" stroke-linejoin="round"/>
<path d="M44.0957 148.564H85.6702" stroke="#1F74C2" stroke-width="0.8504" stroke-miterlimit="10" stroke-linecap="round" stroke-linejoin="round"/>
</svg>
