<svg width="375" height="298" viewBox="0 0 375 298" fill="none" xmlns="http://www.w3.org/2000/svg">
<path d="M375 287.116C375 281.297 294.424 276.578 195.029 276.578C95.6334 276.578 15.0576 281.296 15.0576 287.116C15.0576 292.936 95.6334 297.654 195.029 297.654C294.424 297.654 375 292.936 375 287.116Z" fill="#E6F8FF"/>
<path d="M37.4388 282.108C16.4634 282.001 -0.546245 263.214 0.0134268 240.371C0.317321 227.953 4.58028 215.91 17.5321 209.348C51.6535 192.058 4.04255 79.6708 64.3503 68.4324C124.658 57.1941 122.278 -28.3929 192.901 35.581C263.524 99.5549 276.221 13.1034 322.245 58.0586C368.269 103.014 292.091 160.071 349.225 189.464C386.899 208.846 374.543 243.64 361.756 265.094C354.817 276.735 342.869 283.669 330.128 283.603L37.4388 282.108Z" fill="#CAEDFF"/>
<path opacity="0.44" d="M330.128 283.602C342.869 283.667 354.817 276.733 361.757 265.092C374.544 243.639 386.9 208.845 349.225 189.463C292.092 160.069 368.27 103.011 322.245 58.0568C276.221 13.1025 263.525 99.5531 192.901 35.5792C175.525 19.8391 162.569 13.1568 152.011 12.1893C155.582 14.8232 158.949 18.3464 161.985 22.9779C187.643 62.1125 203.038 90.6866 256.634 85.7176C310.23 80.7477 232.687 182.622 274.879 194.424C302.751 202.22 299.019 249.046 278.816 283.339L330.128 283.602Z" fill="#BAE6F7"/>
<path d="M143.74 85.5952C143.778 85.54 137.362 85.0912 131.541 81.9542C125.741 79.0269 120.535 73.4105 123.478 67.8668C127.829 60.2703 115.457 53.8354 119.664 49.6086C123.946 45.8628 124.844 48.9648 123.196 40.5867C121.837 32.0347 127.239 29.9811 130.278 22.3304C133.75 14.6346 141.73 20.3926 139.755 30.4363C138.203 40.8 141.873 30.0933 144.574 34.767C146.875 38.6259 137.812 55.2572 141.822 53.7517C145.528 51.9345 148.72 54.4663 148.225 59.1115C146.783 69.8119 143.558 85.3828 143.74 85.5952Z" fill="#7BC7FF"/>
<path d="M146.693 89.9691C146.65 89.9719 146.615 89.9535 146.584 89.9139C141.606 83.5765 135.935 73.8197 133.139 62.4839C133.131 62.4545 133.124 62.4251 133.117 62.3956C133.094 62.3809 133.071 62.3653 133.049 62.3506C130.453 60.6474 128.103 58.2829 125.914 55.8182C125.191 55.0061 124.476 54.1757 123.76 53.3406C123.719 53.2928 123.712 53.2532 123.737 53.2008C123.771 53.1263 123.853 53.0702 123.923 53.1042C123.94 53.1125 123.958 53.1263 123.974 53.1447C124.673 53.9605 125.371 54.7734 126.077 55.568C128.094 57.8424 130.252 60.0367 132.617 61.6985C132.748 61.7905 132.88 61.8825 133.012 61.9735C132.97 61.8006 132.929 61.6277 132.887 61.4548C131.767 56.6827 131.091 51.6411 130.948 46.1525C130.948 46.1037 130.946 46.0559 130.945 46.0072L130.833 45.9511C130.808 45.9382 130.796 45.9262 130.785 45.9069C128.931 42.8454 127.438 39.3626 126.414 35.6214C126.397 35.5552 126.405 35.5083 126.443 35.4669C126.491 35.4154 126.567 35.4006 126.614 35.4338C126.637 35.4503 126.653 35.4779 126.664 35.5193C127.601 38.946 128.938 42.162 130.587 45.0277C130.702 45.2273 130.818 45.4259 130.933 45.6246C130.929 45.3827 130.926 45.1409 130.924 44.899C130.876 39.7084 131.305 34.309 132.38 28.5335C132.393 28.4645 132.42 28.4516 132.43 28.447C132.468 28.4277 132.524 28.4397 132.568 28.4737C132.619 28.5142 132.638 28.5721 132.624 28.6457C131.164 36.519 130.891 43.8138 131.449 50.6046C131.461 50.7471 131.473 50.8906 131.485 51.0332C131.575 50.9394 131.665 50.8455 131.755 50.7527C134.794 47.6028 137.378 44.1623 139.556 40.4745C139.582 40.4312 139.606 40.4119 139.658 40.4413C139.701 40.4662 139.738 40.5158 139.75 40.5683C139.761 40.6133 139.755 40.6556 139.731 40.697C137.48 44.5201 134.793 48.0764 131.614 51.3228C131.584 51.3495 131.554 51.3762 131.524 51.4029C131.528 51.4442 131.532 51.4866 131.536 51.5279C131.9 55.3354 132.503 58.8145 133.32 62.1317C133.326 62.151 133.331 62.1712 133.335 62.1906C133.348 62.2043 133.36 62.2191 133.373 62.2329C133.406 62.2696 133.416 62.3156 133.404 62.3708C133.4 62.3901 133.396 62.4104 133.391 62.4297C133.396 62.449 133.401 62.4692 133.406 62.4885C134.145 65.4112 135.103 68.4149 136.381 71.6061C136.451 71.7799 136.521 71.9538 136.592 72.1276C136.636 71.9455 136.681 71.7643 136.727 71.5831C138.012 66.4597 139.928 61.7013 142.299 57.5352C142.333 57.4754 142.382 57.4543 142.447 57.4745C142.493 57.4892 142.533 57.5242 142.547 57.5619C142.554 57.5794 142.559 57.6088 142.532 57.6557C140.037 62.0416 138.057 67.063 136.78 72.4605C136.774 72.4862 136.767 72.512 136.761 72.5387C136.771 72.5635 136.781 72.5883 136.792 72.6132C139.116 78.1358 142.21 83.789 146.812 89.7631C146.854 89.8174 146.842 89.8496 146.836 89.8652C146.813 89.9195 146.752 89.9645 146.693 89.9691Z" fill="#379CF7"/>
<path d="M128.679 111.769C128.623 111.805 129.307 104.195 127.453 96.8666C125.784 89.5957 121.578 82.6035 116.051 85.1997C108.423 89.1286 104.693 73.5899 100.145 77.8737C96.0206 82.3221 98.6805 83.8598 91.3643 80.6189C83.8412 77.6906 81.0606 83.7181 73.6076 86.0964C66.0389 88.9777 69.9026 99.2504 79.3453 98.4954C89.0057 98.2857 78.6733 100.931 82.4526 104.832C85.5599 108.137 102.18 100.078 100.133 104.556C97.8558 108.626 99.6082 112.773 103.904 112.915C113.851 112.886 128.518 111.522 128.679 111.769Z" fill="#7BC7FF"/>
<path d="M132.142 115.919C132.152 115.871 132.141 115.826 132.11 115.782C127.211 108.946 119.329 100.763 109.527 95.7125C109.501 95.6996 109.476 95.6858 109.451 95.6729C109.44 95.6435 109.431 95.615 109.421 95.5855C108.318 92.2701 106.575 89.1405 104.712 86.1847C104.098 85.2089 103.466 84.2396 102.832 83.2684C102.795 83.2123 102.761 83.1985 102.708 83.2188C102.635 83.2473 102.57 83.3356 102.589 83.4229C102.594 83.4441 102.604 83.4662 102.618 83.4882C103.239 84.4364 103.856 85.3837 104.457 86.3364C106.176 89.0605 107.799 91.9381 108.904 94.9767C108.965 95.145 109.026 95.3133 109.086 95.4825C108.937 95.4062 108.786 95.3308 108.636 95.2563C104.5 93.1972 100.043 91.6172 95.0916 90.5945C95.0477 90.5853 95.0038 90.5761 94.9608 90.5678L94.9295 90.4271C94.9219 90.3968 94.9135 90.3802 94.8974 90.3637C92.4367 87.7086 89.5329 85.4113 86.315 83.6271C86.2584 83.5958 86.2137 83.5986 86.1706 83.6363C86.1158 83.6841 86.0896 83.7724 86.1115 83.8313C86.1225 83.8607 86.1445 83.8846 86.1799 83.9039C89.1277 85.5373 91.8163 87.6102 94.1335 89.994C94.2947 90.1604 94.456 90.3269 94.6155 90.4943C94.3969 90.452 94.1782 90.4106 93.9596 90.3701C89.2619 89.5047 84.2932 89.1681 78.8738 89.5314C78.8096 89.536 78.7928 89.5654 78.7868 89.5764C78.7632 89.6178 78.764 89.6868 78.7877 89.7429C78.8164 89.8091 78.8653 89.8404 78.9337 89.8358C86.3209 89.3456 92.9812 90.1623 99.0431 91.8756C99.1705 91.9115 99.298 91.9483 99.4255 91.985C99.325 92.0761 99.2254 92.1671 99.1249 92.2582C95.7517 95.3381 92.1928 97.8387 88.4794 99.8234C88.4363 99.8464 88.4144 99.873 88.4321 99.9374C88.4473 99.9926 88.4861 100.043 88.5317 100.067C88.5705 100.087 88.6094 100.086 88.6516 100.063C92.5009 98.0135 96.1822 95.4108 99.666 92.1809C99.6956 92.1497 99.7243 92.1193 99.7538 92.088C99.791 92.0991 99.8281 92.1101 99.8653 92.1212C103.255 93.1411 106.307 94.3927 109.175 95.8697C109.192 95.8789 109.209 95.8872 109.226 95.8964C109.236 95.9139 109.247 95.9304 109.257 95.9479C109.285 95.992 109.325 96.0114 109.377 96.0058C109.396 96.004 109.414 96.0012 109.433 95.9994C109.45 96.0086 109.467 96.0178 109.484 96.0261C112.008 97.3495 114.568 98.9442 117.244 100.942C117.39 101.051 117.536 101.161 117.681 101.27C117.509 101.294 117.337 101.319 117.164 101.344C112.3 102.055 107.66 103.566 103.48 105.703C103.419 105.733 103.393 105.788 103.4 105.867C103.405 105.924 103.43 105.977 103.462 105.999C103.477 106.009 103.503 106.02 103.55 105.996C107.951 103.749 112.84 102.203 117.952 101.543C117.977 101.539 118.001 101.537 118.025 101.534C118.046 101.55 118.067 101.566 118.087 101.582C122.7 105.173 127.299 109.689 131.933 116.026C131.975 116.084 132.006 116.075 132.021 116.071C132.076 116.054 132.129 115.988 132.142 115.919Z" fill="#379CF7"/>
<path d="M124.345 96.8115C124.267 96.806 128.986 89.9121 130.923 81.4852C133.024 73.2468 132.344 63.4754 125.244 62.0655C115.263 60.4552 119.58 42.7323 112.606 43.6556C105.985 45.0388 107.933 48.4213 102.052 40.0781C95.7914 31.8912 89.7313 35.7621 80.747 32.7723C71.3786 30.188 69.974 42.8978 80.1662 48.8757C90.2969 55.5377 78.1867 50.761 80.0506 57.2299C81.5329 62.644 103.018 66.64 98.5358 69.5277C94.0289 71.8572 93.6616 77.1242 98.0428 80.3154C108.376 87.3564 124.308 96.4565 124.345 96.8115Z" fill="#379CF7"/>
<path d="M125.751 103.298C125.787 103.257 125.8 103.206 125.79 103.142C124.309 93.0289 120.445 79.4914 112.939 67.625C112.92 67.5937 112.9 67.5633 112.881 67.5321C112.886 67.4971 112.891 67.4612 112.896 67.4263C113.499 63.4267 113.338 59.1521 112.964 54.9611C112.842 53.5789 112.698 52.1902 112.551 50.7969C112.542 50.7169 112.514 50.6792 112.449 50.6617C112.359 50.6368 112.244 50.6773 112.218 50.7748C112.211 50.7987 112.21 50.8272 112.213 50.8585C112.357 52.2196 112.499 53.577 112.62 54.928C112.967 58.7915 113.135 62.7369 112.68 66.468C112.655 66.6749 112.629 66.8819 112.603 67.0879C112.488 66.9076 112.372 66.7283 112.256 66.5489C109.051 61.6122 105.261 56.9127 100.663 52.4017C100.623 52.3621 100.582 52.3217 100.542 52.2821L100.584 52.123C100.593 52.0881 100.592 52.066 100.585 52.0393C99.4318 47.7151 97.6296 43.4239 95.2322 39.4059C95.19 39.3351 95.1419 39.3066 95.0769 39.3121C94.995 39.3203 94.9215 39.3866 94.9131 39.4592C94.9089 39.4951 94.919 39.5337 94.946 39.5778C97.1425 43.2565 98.8401 47.1789 99.9873 51.1381C100.067 51.414 100.146 51.6899 100.224 51.9658C100.019 51.7699 99.8142 51.574 99.6082 51.379C95.1908 47.201 90.2145 43.343 84.4026 39.8446C84.3334 39.8032 84.3004 39.8197 84.2886 39.8262C84.2422 39.8501 84.2067 39.9163 84.2017 39.988C84.1966 40.0726 84.2304 40.1379 84.3038 40.1821C92.2245 44.957 98.7025 50.4823 104.087 56.4519C104.2 56.5779 104.314 56.703 104.426 56.8299C104.274 56.8464 104.122 56.8639 103.971 56.8814C98.8494 57.4718 93.8402 57.3688 88.9433 56.6533C88.8859 56.645 88.8496 56.6552 88.8344 56.7297C88.8209 56.794 88.8352 56.8704 88.8698 56.9255C88.8994 56.9724 88.9407 56.9991 88.9956 57.0074C94.0681 57.7541 99.2571 57.8461 104.574 57.1886C104.62 57.1794 104.667 57.1702 104.714 57.161C104.747 57.1978 104.779 57.2355 104.812 57.2723C107.791 60.6713 110.297 64.0539 112.493 67.5247C112.506 67.5449 112.52 67.5661 112.532 67.5863C112.534 67.6102 112.536 67.6341 112.538 67.659C112.543 67.7215 112.574 67.7693 112.632 67.7997C112.652 67.8107 112.672 67.8217 112.693 67.8337C112.706 67.8549 112.719 67.8751 112.732 67.8962C114.654 70.9744 116.469 74.3404 118.192 78.1791C118.286 78.3887 118.38 78.5984 118.472 78.8081C118.281 78.7088 118.089 78.6104 117.898 78.5129C112.477 75.7465 106.869 73.9146 101.407 73.016C101.329 73.0032 101.271 73.0372 101.237 73.119C101.213 73.1779 101.211 73.2469 101.232 73.291C101.243 73.3112 101.263 73.3398 101.325 73.3508C107.074 74.2981 112.959 76.2744 118.609 79.267C118.636 79.2817 118.663 79.2955 118.69 79.3102C118.703 79.3406 118.716 79.3709 118.729 79.4004C121.621 86.1608 124.013 93.8106 125.481 103.251C125.493 103.337 125.53 103.35 125.548 103.357C125.611 103.382 125.7 103.355 125.751 103.298Z" fill="#2481C6"/>
<path d="M212.422 70.7869H132.36C124.594 70.7869 118.298 77.6457 118.298 86.1067V268.257C118.298 276.718 124.594 283.577 132.36 283.577H212.422C220.188 283.577 226.484 276.718 226.484 268.257V86.1058C226.484 77.6448 220.188 70.7869 212.422 70.7869Z" fill="#0A4D7A"/>
<path d="M212.423 70.7868H132.361C124.595 70.7868 118.299 77.6457 118.299 86.1066V268.256C118.299 273.166 120.428 277.526 123.725 280.329L225.329 80.0276C223.169 74.5924 218.206 70.7868 212.423 70.7868Z" fill="#083954"/>
<path d="M188.024 78.2499H158.322C157.505 78.2499 156.837 78.9783 156.837 79.8676C156.837 80.7579 157.505 81.4853 158.322 81.4853H188.024C188.841 81.4853 189.509 80.757 189.509 79.8676C189.509 78.9783 188.84 78.2499 188.024 78.2499Z" fill="white"/>
<path d="M212.423 76.5264H200.675L196.448 85.2541C194.868 88.5161 191.76 90.5578 188.374 90.5578H156.408C153.022 90.5578 149.915 88.5161 148.335 85.2541L144.108 76.5264H132.36C127.512 76.5264 123.567 80.824 123.567 86.1057V268.256C123.567 273.538 127.512 277.835 132.36 277.835H212.423C217.271 277.835 221.215 273.538 221.215 268.256V86.1057C221.215 80.824 217.271 76.5264 212.423 76.5264Z" fill="#CAEDFF"/>
<path opacity="0.85" d="M221.215 86.1075V88.129L126.317 275.211C124.625 273.456 123.566 270.991 123.566 268.251V86.1075C123.566 80.8231 127.514 76.5237 132.356 76.5237H144.107L148.33 85.2568C149.917 88.5198 153.018 90.5587 156.411 90.5587H188.378C191.763 90.5587 194.863 88.5198 196.45 85.2568L200.674 76.5237H212.425C217.268 76.5237 221.215 80.8241 221.215 86.1075Z" fill="#BAE6F7"/>
<path d="M260.428 103.954H138.814C135.414 103.954 132.658 106.956 132.658 110.66V143.45C132.658 147.153 135.414 150.156 138.814 150.156H260.428C263.827 150.156 266.583 147.153 266.583 143.45V110.66C266.583 106.955 263.827 103.954 260.428 103.954Z" fill="white"/>
<path d="M191.823 119.366L192.648 122.132C192.705 122.325 192.871 122.456 193.057 122.456H195.727C196.143 122.456 196.317 123.037 195.979 123.304L193.819 125.013C193.669 125.133 193.605 125.344 193.663 125.537L194.487 128.304C194.617 128.735 194.162 129.095 193.826 128.828L191.665 127.118C191.515 126.999 191.311 126.999 191.16 127.118L189 128.828C188.664 129.095 188.209 128.736 188.339 128.304L189.163 125.537C189.221 125.344 189.157 125.133 189.007 125.013L186.847 123.304C186.51 123.037 186.683 122.456 187.099 122.456H189.769C189.956 122.456 190.121 122.325 190.179 122.132L191.004 119.366C191.134 118.933 191.694 118.933 191.823 119.366Z" fill="#FBBE42"/>
<path d="M206.634 119.366L207.458 122.132C207.516 122.325 207.681 122.456 207.868 122.456H210.537C210.954 122.456 211.127 123.037 210.79 123.304L208.63 125.013C208.479 125.133 208.417 125.344 208.474 125.537L209.299 128.304C209.427 128.735 208.974 129.095 208.637 128.828L206.477 127.118C206.326 126.999 206.122 126.999 205.971 127.118L203.811 128.828C203.474 129.095 203.021 128.736 203.149 128.304L203.974 125.537C204.031 125.344 203.968 125.133 203.818 125.013L201.657 123.304C201.321 123.037 201.494 122.456 201.91 122.456H204.579C204.766 122.456 204.931 122.325 204.989 122.132L205.813 119.366C205.944 118.933 206.505 118.933 206.634 119.366Z" fill="#FBBE42"/>
<path d="M221.446 119.366L222.271 122.132C222.328 122.325 222.494 122.456 222.68 122.456H225.35C225.767 122.456 225.941 123.037 225.603 123.304L223.443 125.013C223.292 125.133 223.229 125.344 223.286 125.537L224.111 128.304C224.24 128.735 223.786 129.095 223.449 128.828L221.289 127.118C221.138 126.999 220.935 126.999 220.784 127.118L218.623 128.828C218.287 129.095 217.833 128.736 217.962 128.304L218.786 125.537C218.844 125.344 218.78 125.133 218.63 125.013L216.47 123.304C216.133 123.037 216.306 122.456 216.722 122.456H219.392C219.579 122.456 219.744 122.325 219.801 122.132L220.626 119.366C220.757 118.933 221.318 118.933 221.446 119.366Z" fill="#FBBE42"/>
<path d="M236.258 119.366L237.083 122.132C237.14 122.325 237.305 122.456 237.491 122.456H240.161C240.577 122.456 240.751 123.037 240.414 123.304L238.254 125.013C238.103 125.133 238.041 125.344 238.098 125.537L238.923 128.304C239.052 128.735 238.598 129.095 238.261 128.828L236.101 127.118C235.95 126.999 235.746 126.999 235.595 127.118L233.436 128.828C233.099 129.095 232.645 128.736 232.774 128.304L233.599 125.537C233.656 125.344 233.593 125.133 233.443 125.013L231.283 123.304C230.946 123.037 231.119 122.456 231.535 122.456H234.205C234.392 122.456 234.556 122.325 234.614 122.132L235.439 119.366C235.569 118.933 236.13 118.933 236.258 119.366Z" fill="#FBBE42"/>
<path d="M251.068 119.366L251.893 122.132C251.95 122.325 252.116 122.456 252.302 122.456H254.972C255.389 122.456 255.562 123.037 255.224 123.304L253.065 125.013C252.914 125.133 252.851 125.344 252.909 125.537L253.733 128.304C253.862 128.735 253.408 129.095 253.071 128.828L250.911 127.118C250.761 126.999 250.557 126.999 250.406 127.118L248.246 128.828C247.909 129.095 247.455 128.736 247.584 128.304L248.408 125.537C248.466 125.344 248.403 125.133 248.252 125.013L246.092 123.304C245.755 123.037 245.928 122.456 246.344 122.456H249.014C249.2 122.456 249.366 122.325 249.423 122.132L250.248 119.366C250.38 118.933 250.94 118.933 251.068 119.366Z" fill="#B1D7DD"/>
<path d="M229.742 133.458H186.67V134.762H229.742V133.458Z" fill="#B1D7DD"/>
<path d="M229.742 112.004H186.67V114.461H229.742V112.004Z" fill="#379CF7"/>
<path d="M229.742 138.419H186.67V139.722H229.742V138.419Z" fill="#B1D7DD"/>
<path d="M206.358 143.026H186.67V144.329H206.358V143.026Z" fill="#B1D7DD"/>
<path d="M163.975 145.981C173.222 143.624 178.965 133.546 176.802 123.471C174.638 113.396 165.388 107.14 156.14 109.497C146.893 111.854 141.15 121.932 143.314 132.007C145.477 142.081 154.728 148.338 163.975 145.981Z" fill="#7BC7FF"/>
<mask id="mask0_3386_2459" style="mask-type:luminance" maskUnits="userSpaceOnUse" x="142" y="109" width="36" height="38">
<path d="M163.975 145.981C173.223 143.624 178.965 133.546 176.802 123.471C174.638 113.396 165.388 107.14 156.141 109.497C146.893 111.854 141.15 121.932 143.314 132.007C145.477 142.081 154.728 148.338 163.975 145.981Z" fill="white"/>
</mask>
<g mask="url(#mask0_3386_2459)">
<path d="M168.584 139.091L167.075 121.781C167.075 117.348 165.477 113.27 161.172 114.479C159.226 113.368 156.802 113.627 155.211 115.277C153.526 117.024 152.562 119.681 152.562 122.361L150.875 139.189L168.584 139.091Z" fill="#0A4D7A"/>
<path d="M162.606 130.199V134.01C162.606 134.01 162.117 136.99 159.815 137.493C157.415 136.807 157.044 134.01 157.044 134.01V130.199H162.606Z" fill="#FFA683"/>
<path d="M162.606 129.654V132.08C161.764 132.576 160.808 132.843 159.825 132.843C158.842 132.843 157.887 132.576 157.044 132.08V129.654H162.606Z" fill="#E57C5C"/>
<path d="M165.467 121.984C162.91 121.906 161.236 119.749 161.236 119.749C159.679 121.226 154.221 121.984 154.221 121.984L154.184 124.331C154.184 126.099 154.869 128.249 155.966 129.902C156.858 131.248 158.303 132.027 159.826 132.027C161.35 132.027 162.794 131.248 163.686 129.902C164.784 128.249 165.468 126.099 165.468 124.331L165.467 121.984Z" fill="#FFA683"/>
<path d="M173.579 140.349C171.4 136.266 162.177 134.01 162.177 134.01L159.753 135.023L157.327 134.01C157.327 134.01 148.104 136.265 145.926 140.349L143.253 162.352L147.495 162.28L149.978 143.909C149.978 143.909 151.547 149.842 151.46 153.308C151.373 156.773 150.383 162.501 150.383 162.501H159.506H160H169.124C169.124 162.501 168.133 156.773 168.046 153.308C167.96 149.842 169.528 143.909 169.528 143.909L172.011 162.28L176.253 162.352L173.579 140.349Z" fill="#FFA683"/>
<path d="M167.226 135.72C166.49 138.009 164.589 141.51 159.781 141.784C154.958 141.51 153.06 137.987 152.329 135.698C150.92 136.291 149.45 137.04 148.226 137.927L149.883 143.909C149.909 143.954 149.932 144.014 149.956 144.065L149.977 143.909C149.977 143.909 150.046 144.172 150.151 144.603C150.169 144.669 150.185 144.74 150.202 144.811C150.631 146.601 151.525 150.667 151.459 153.309C151.372 156.774 150.382 162.502 150.382 162.502H159.505H159.999H169.123C169.123 162.502 168.132 156.774 168.045 153.309C167.958 149.843 169.527 143.91 169.527 143.91L169.561 144.163C169.599 144.073 169.637 143.983 169.68 143.91L171.327 137.964C170.108 137.07 168.638 136.318 167.226 135.72Z" fill="#379CF7"/>
</g>
<path d="M278.769 157.597C278.155 157.582 277.596 157.209 277.311 156.617L268.5 137.509C268.5 137.509 267.445 132.914 266.205 132.914L266.081 138.995L272.041 162.488C272.386 163.955 273.089 165.21 274.887 165.256C278.549 165.349 285.247 166.628 289.612 167.875C294.077 169.152 297.834 167.845 297.834 167.845C298.112 157.102 282.523 157.687 278.769 157.597Z" fill="#FFA683"/>
<path d="M291.955 155.195V160.627H284.385V157.567C284.385 157.567 279.407 156.287 279.649 151.391C279.891 146.496 282 144.123 283.141 143.746C284.281 143.369 289.777 145.779 289.881 146.081C289.985 146.382 290.572 151.58 290.572 151.58L291.955 155.195Z" fill="#FFA683"/>
<path d="M284.005 147.776C284.005 147.776 285.346 145.714 286.597 146.735C287.847 147.756 287.222 149.799 285.659 150.821C285.659 150.821 287.221 156.609 290.347 156.269C293.472 155.929 297.486 152.332 297.14 146.721C296.794 141.11 290.069 137.159 286.39 137.946C282.692 138.737 279.062 143.219 284.005 147.776Z" fill="#004CBA"/>
<path d="M297.106 143.181C297.106 143.181 301.185 137.533 305.264 142.428C309.343 147.323 311.901 152.822 313.768 153.877C315.635 154.931 312.178 157.492 307.684 155.91C303.19 154.328 297.382 148.303 297.106 143.181Z" fill="#004CBA"/>
<path d="M284.385 160.627V157.567C284.385 157.567 287.479 157.7 288.795 156.395C288.795 156.395 287.872 158.728 285.849 158.792V160.627H284.385Z" fill="#ED7D5A"/>
<path d="M281.059 204.083C281.059 204.083 282.843 234.464 285.113 240.822C287.383 247.181 301.74 276.107 301.74 276.107L309.178 274.323L298.57 239.762C298.489 241.882 297.081 231.917 299.705 221.834C301.245 215.917 300.651 209.46 298.349 204.3L279.764 204.082" fill="#006CBC"/>
<path d="M298.205 202.803C298.205 202.803 297.509 211.244 288.6 220.819C279.602 230.49 276.075 236.981 276.075 236.981L274.738 278.842H267.32C267.32 278.842 262.942 234.728 263.064 233.139C263.186 231.55 275.467 202.803 276.926 200.286C278.385 197.769 298.205 202.803 298.205 202.803Z" fill="#379CF7"/>
<path d="M292.733 160.19C292.733 160.19 300.688 160.838 297.759 171.583C294.557 183.329 298.227 202.155 298.957 204.098L296.572 205.134C289.425 208.059 281.518 207.873 274.494 204.614C274.494 204.614 280.818 189.424 276.318 181.475C273.425 176.363 274.278 171.204 277.655 166.638C279.844 163.68 282.604 160.598 283.695 160.543L292.733 160.19Z" fill="#57BFFF"/>
<path d="M267.321 278.845H268.889L265.714 233.46C266.238 232.514 268.054 228.89 273.558 217.345C275.476 213.327 276.818 209.487 277.777 205.887C276.779 205.573 275.791 205.199 274.821 204.762C270.891 213.56 263.159 231.881 263.063 233.14C262.939 234.726 267.321 278.845 267.321 278.845Z" fill="#2481C6"/>
<path d="M282.724 178.617C279.009 180.116 281.77 190.87 277.774 205.884C276.664 205.53 275.568 205.112 274.493 204.613C274.493 204.613 280.817 189.423 276.317 181.474C274.892 178.955 274.379 176.424 274.627 173.959L290.396 170.054C290.396 170.054 287.777 176.578 282.724 178.617Z" fill="#30AFEF"/>
<path d="M248.733 151.708C248.733 151.708 263.168 177.844 267.382 179.33C269.255 179.99 280.928 175.023 285.854 174.141C288.515 173.664 290.387 171.03 290.14 168.103C289.857 164.749 286.326 161.896 283.306 162.617L267.101 168.118C267.101 168.118 253.379 152.659 250.323 149.126C250.323 149.126 249.057 144.777 247.174 144.777C245.489 144.778 248.047 150.214 248.733 151.708Z" fill="#FFA683"/>
<path d="M260.246 281.519C262.292 280.794 266.121 279.911 267.507 278.848H274.71C274.638 280.42 274.6 281.949 274.581 282.965C274.568 283.647 274.057 284.19 273.43 284.19H259.089C258.15 284.19 257.809 282.853 258.608 282.317C259.024 282.038 259.559 281.763 260.246 281.519Z" fill="#004CBA"/>
<path d="M295.372 280.504C297.215 279.294 300.761 277.49 301.891 276.114L308.908 274.339C309.164 275.889 309.445 277.387 309.636 278.382C309.765 279.05 309.38 279.705 308.769 279.859L294.8 283.391C293.885 283.622 293.275 282.403 293.942 281.685C294.29 281.311 294.753 280.911 295.372 280.504Z" fill="#004CBA"/>
<path opacity="0.58" d="M267.383 170.401C270.777 170.492 285.956 164.288 289.988 167.252C289.243 164.287 286.064 161.959 283.305 162.618L267.1 168.119C267.1 168.119 253.378 152.66 250.322 149.127C250.322 149.127 263.694 170.303 267.383 170.401Z" fill="#ED7D5A"/>
<path d="M296.996 142.846L295.937 143.054C295.937 143.054 297.307 145.476 297.02 147.741L298.39 147.463C298.39 147.463 298.246 143.333 296.996 142.846Z" fill="white"/>
<path d="M201.889 160.863H80.2757C76.8763 160.863 74.1201 163.865 74.1201 167.569V200.359C74.1201 204.062 76.8763 207.065 80.2757 207.065H201.89C205.289 207.065 208.045 204.062 208.045 200.359V167.569C208.044 163.865 205.288 160.863 201.889 160.863Z" fill="white"/>
<path d="M133.282 176.274L134.107 179.041C134.164 179.234 134.33 179.365 134.515 179.365H137.185C137.602 179.365 137.775 179.946 137.437 180.213L135.277 181.922C135.127 182.042 135.063 182.253 135.121 182.446L135.945 185.213C136.075 185.644 135.62 186.004 135.284 185.737L133.124 184.027C132.973 183.908 132.77 183.908 132.619 184.027L130.458 185.737C130.122 186.004 129.667 185.645 129.797 185.213L130.621 182.446C130.679 182.253 130.615 182.042 130.465 181.922L128.305 180.213C127.968 179.946 128.141 179.365 128.557 179.365H131.227C131.413 179.365 131.578 179.234 131.636 179.041L132.461 176.274C132.593 175.843 133.154 175.843 133.282 176.274Z" fill="#FBBE42"/>
<path d="M148.094 176.274L148.919 179.041C148.976 179.234 149.142 179.365 149.328 179.365H151.997C152.414 179.365 152.587 179.946 152.251 180.213L150.09 181.922C149.939 182.042 149.877 182.253 149.934 182.446L150.759 185.213C150.887 185.644 150.434 186.004 150.097 185.737L147.937 184.027C147.786 183.908 147.582 183.908 147.431 184.027L145.272 185.737C144.935 186.004 144.481 185.645 144.61 185.213L145.435 182.446C145.492 182.253 145.43 182.042 145.279 181.922L143.119 180.213C142.783 179.946 142.956 179.365 143.372 179.365H146.041C146.228 179.365 146.393 179.234 146.45 179.041L147.275 176.274C147.404 175.843 147.965 175.843 148.094 176.274Z" fill="#FBBE42"/>
<path d="M162.906 176.274L163.73 179.041C163.788 179.234 163.953 179.365 164.14 179.365H166.81C167.226 179.365 167.4 179.946 167.062 180.213L164.903 181.922C164.752 182.042 164.689 182.253 164.747 182.446L165.571 185.213C165.7 185.644 165.246 186.004 164.91 185.737L162.75 184.027C162.599 183.908 162.395 183.908 162.245 184.027L160.085 185.737C159.749 186.004 159.294 185.645 159.424 185.213L160.248 182.446C160.306 182.253 160.242 182.042 160.092 181.922L157.932 180.213C157.595 179.946 157.768 179.365 158.184 179.365H160.854C161.041 179.365 161.206 179.234 161.263 179.041L162.088 176.274C162.216 175.843 162.776 175.843 162.906 176.274Z" fill="#FBBE42"/>
<path d="M177.718 176.274L178.542 179.041C178.6 179.234 178.765 179.365 178.951 179.365H181.621C182.038 179.365 182.211 179.946 181.873 180.213L179.713 181.922C179.562 182.042 179.5 182.253 179.557 182.446L180.382 185.213C180.511 185.644 180.057 186.004 179.72 185.737L177.56 184.027C177.409 183.908 177.205 183.908 177.054 184.027L174.894 185.737C174.557 186.004 174.103 185.645 174.232 185.213L175.057 182.446C175.114 182.253 175.051 182.042 174.901 181.922L172.741 180.213C172.404 179.946 172.577 179.365 172.993 179.365H175.663C175.85 179.365 176.014 179.234 176.072 179.041L176.897 176.274C177.028 175.843 177.588 175.843 177.718 176.274Z" fill="#FBBE42"/>
<path d="M192.528 176.274L193.353 179.041C193.411 179.234 193.576 179.365 193.763 179.365H196.432C196.849 179.365 197.022 179.946 196.684 180.213L194.525 181.922C194.374 182.042 194.311 182.253 194.369 182.446L195.193 185.213C195.323 185.644 194.868 186.004 194.532 185.737L192.371 184.027C192.221 183.908 192.017 183.908 191.866 184.027L189.706 185.737C189.369 186.004 188.915 185.645 189.044 185.213L189.869 182.446C189.926 182.253 189.863 182.042 189.712 181.922L187.553 180.213C187.216 179.946 187.389 179.365 187.805 179.365H190.475C190.661 179.365 190.827 179.234 190.884 179.041L191.709 176.274C191.839 175.843 192.399 175.843 192.528 176.274Z" fill="#FBBE42"/>
<path d="M171.201 190.368H128.129V191.671H171.201V190.368Z" fill="#B1D7DD"/>
<path d="M171.201 168.914H128.129V171.371H171.201V168.914Z" fill="#0A4D7A"/>
<path d="M171.201 195.329H128.129V196.632H171.201V195.329Z" fill="#B1D7DD"/>
<path d="M147.817 199.936H128.129V201.239H147.817V199.936Z" fill="#B1D7DD"/>
<path d="M113.672 197.906C120.387 190.589 120.387 178.727 113.672 171.411C106.956 164.095 96.0682 164.095 89.3528 171.411C82.6373 178.727 82.6373 190.589 89.3528 197.906C96.0682 205.222 106.956 205.222 113.672 197.906Z" fill="#7BC7FF"/>
<path d="M64.7949 256.224C64.7949 256.224 93.9569 229.601 99.0868 239.015C104.217 248.429 96.6565 278.875 96.6565 278.875L64.7949 256.224Z" fill="#0A85E0"/>
<path d="M80.0996 267.104L96.6585 278.875C96.6585 278.875 103.57 251.025 99.678 240.367C101.457 254.384 87.8109 263.26 80.0996 267.104Z" fill="#006CBC"/>
<path d="M79.7353 253.38C79.7353 253.38 97.7951 269.169 99.2664 274.855C101.652 284.073 87.5091 283.043 81.4 283.043C75.2909 283.043 36.3604 281.869 36.3604 281.869L36.7124 275.345L72.6242 273.482C72.6242 273.482 52.7326 270.269 53.4696 257.762C54.2082 245.254 79.7353 253.38 79.7353 253.38Z" fill="#379CF7"/>
<path d="M98.2876 280.07C94.9921 283.616 85.9664 283.041 81.4013 283.041C75.2896 283.041 36.3574 281.87 36.3574 281.87L36.7153 275.345L72.628 273.483C72.628 273.483 86.9347 280.984 98.0023 280.106C98.1002 280.096 98.1982 280.088 98.2876 280.07Z" fill="#0A85E0"/>
<path d="M36.5447 281.756C36.5447 281.756 34.9586 285.653 36.1733 288.228C37.388 290.802 32.1231 288.926 31.2789 283.852C30.4348 278.777 30.8399 272.71 36.7127 275.431L36.5447 281.756Z" fill="#004CBA"/>
<path d="M56.7852 214.255C56.7852 214.255 69.8956 172.981 70.2856 173.169C71.8161 173.904 74.5157 174.591 74.5157 174.591L69.1157 219.893L56.7852 214.255Z" fill="#0A4D7A"/>
<path d="M70.3312 209.549C67.3488 208.012 63.6261 206.215 59.2602 206.509C57.4605 212.13 56.7852 214.256 56.7852 214.256L69.1157 219.894L70.3312 209.549Z" fill="#083954"/>
<path d="M73.1978 203.339C72.2304 207.236 68.392 206.51 68.392 206.51V210.217H61.7705V205.205C61.7781 205.205 61.7941 205.214 61.8026 205.214C65.2442 206.078 68.9795 203.356 67.3301 202.017C65.6882 200.686 65.332 198.474 66.1879 197.395C67.0524 196.315 69.1222 197.118 69.1222 197.118C71.1051 197.057 72.4693 196.79 73.3489 196.306C73.6899 198.519 73.7135 201.257 73.1978 203.339Z" fill="#FFA683"/>
<path d="M69.1178 197.12C69.1178 197.12 67.0513 196.312 66.1911 197.393C65.3309 198.474 65.6838 200.687 67.3316 202.021C68.9768 203.353 65.2398 206.077 61.7999 205.212C58.3591 204.347 56.4387 196.523 59.3907 191.432C62.1012 186.756 71.6266 184.725 73.5454 189.627C75.4633 194.53 75.5772 196.928 69.1178 197.12Z" fill="#004CBA"/>
<path d="M68.3922 210.218V206.511C68.3922 206.511 66.1602 206.186 65.2891 205.684C65.2891 205.684 66.4565 207.226 67.2298 207.566V210.218L68.3922 210.218Z" fill="#E57C5C"/>
<path d="M70.1612 210.288C70.1612 210.288 59.2177 206.159 56.1365 215.454C53.0554 224.749 58.2916 247.031 52.7109 254.679C61.3407 259.067 71.2341 259.458 80.134 255.764L81.3327 255.266C81.3327 255.266 77.5078 226.848 77.3247 227.835C77.1702 228.668 90.2435 233.208 92.8503 231.659C95.457 230.109 111.237 210.698 111.237 210.698L105.926 209.84L91.7056 220.039C91.7065 220.04 73.759 210.545 70.1612 210.288Z" fill="#0A4D7A"/>
<path d="M111.237 210.7C111.237 210.7 116.705 208.126 117.042 206.95H109.164C108.346 206.95 107.576 207.376 107.094 208.097L105.926 209.842L111.237 210.7Z" fill="#FFA683"/>
<path d="M81.3336 255.267C81.3336 255.267 77.9731 230.3 77.4007 227.983C77.4657 228.054 77.5746 228.137 77.7249 228.231C77.4725 227.982 77.3248 227.836 77.3248 227.836C77.3248 227.836 68.9795 225.629 66.0098 221.805C66.0098 221.805 68.8453 228.13 72.4903 229.6C75.7453 230.914 74.5897 250.045 77.0926 256.849C78.1166 256.537 79.1329 256.181 80.1349 255.764L81.3336 255.267Z" fill="#083954"/>
<path d="M70.6904 173.366C70.6904 173.366 72.0824 167.95 74.154 167.569L74.1557 174.64L70.6904 173.366Z" fill="#FFA683"/>
<mask id="mask1_3386_2459" style="mask-type:luminance" maskUnits="userSpaceOnUse" x="84" y="165" width="35" height="39">
<path d="M113.673 197.906C120.388 190.589 120.388 178.727 113.673 171.411C106.957 164.095 96.0694 164.095 89.3539 171.411C82.6384 178.727 82.6383 190.589 89.3539 197.906C96.0694 205.222 106.957 205.222 113.673 197.906Z" fill="white"/>
</mask>
<g mask="url(#mask1_3386_2459)">
<path d="M120.402 212.102L119.293 201.29C119.097 199.548 118.195 197.985 116.824 197.009L113.382 194.558L113.367 194.651V194.567L110.527 193.369L107.637 192.15L105.244 191.14L104.194 190.697L101.56 192.163L98.929 190.697L98.0055 191.088L95.7474 192.038L92.6941 193.326L89.7564 194.567V194.617L86.395 197.009C85.025 197.985 84.1234 199.548 83.9267 201.29L82.8184 212.102H89.7944L89.8138 221.096H113.31L113.329 212.102H120.402Z" fill="#FBBE42"/>
</g>
<mask id="mask2_3386_2459" style="mask-type:luminance" maskUnits="userSpaceOnUse" x="84" y="165" width="35" height="39">
<path d="M113.673 197.906C120.388 190.589 120.388 178.727 113.673 171.411C106.957 164.095 96.0694 164.095 89.3539 171.411C82.6384 178.727 82.6383 190.589 89.3539 197.906C96.0694 205.222 106.957 205.222 113.673 197.906Z" fill="white"/>
</mask>
<g mask="url(#mask2_3386_2459)">
<path d="M101.672 171.706C97.7972 171.706 94.6553 175.128 94.6553 179.35V182.996H108.688V179.35C108.688 175.128 105.546 171.706 101.672 171.706Z" fill="#0A4D7A"/>
<path d="M104.453 188.69V191.367C104.453 191.367 104.44 191.446 104.409 191.581C104.043 193.158 102.82 196.209 101.619 196.179C100.418 196.148 99.2403 193.035 98.9651 191.438C98.9575 191.393 98.9541 191.368 98.9541 191.368V188.691H104.453V188.69Z" fill="#FFA683"/>
<path d="M104.453 188.151V190.549C103.62 191.04 102.675 191.305 101.704 191.305C100.732 191.305 99.7873 191.04 98.9541 190.549V188.151H104.453Z" fill="#E57C5C"/>
<path d="M97.9886 183.029C97.9886 182.005 97.2272 181.174 96.2868 181.174C95.3472 181.174 94.585 182.005 94.585 183.029C94.585 184.053 95.3464 184.883 96.2868 184.883C97.2263 184.883 97.9886 184.052 97.9886 183.029Z" fill="#FFA683"/>
<path d="M108.652 183.029C108.652 182.005 107.889 181.174 106.95 181.174C106.01 181.174 105.248 182.005 105.248 183.029C105.248 184.053 106.01 184.883 106.95 184.883C107.889 184.883 108.652 184.052 108.652 183.029Z" fill="#FFA683"/>
<path d="M107.281 179.882C105.268 178.658 104.454 177.68 104.454 177.68H98.9302C98.4871 179.042 96.1732 179.882 96.1732 179.882L96.126 182.888C96.126 184.635 96.803 186.761 97.8877 188.397C98.3301 189.061 98.9058 189.586 99.5608 189.944C100.218 190.303 100.949 190.497 101.703 190.497C103.211 190.497 104.639 189.726 105.521 188.397C106.607 186.761 107.283 184.635 107.283 182.888L107.281 179.882Z" fill="#FFA683"/>
</g>
<path d="M260.428 217.432H138.814C135.414 217.432 132.658 220.435 132.658 224.139V256.929C132.658 260.632 135.414 263.635 138.814 263.635H260.428C263.827 263.635 266.583 260.632 266.583 256.929V224.139C266.583 220.435 263.827 217.432 260.428 217.432Z" fill="white"/>
<path d="M191.825 232.844L192.65 235.61C192.707 235.804 192.873 235.934 193.058 235.934H195.729C196.145 235.934 196.319 236.515 195.981 236.782L193.821 238.492C193.67 238.611 193.607 238.823 193.665 239.016L194.489 241.782C194.618 242.214 194.164 242.573 193.827 242.307L191.667 240.597C191.517 240.477 191.313 240.477 191.162 240.597L189.002 242.307C188.666 242.573 188.211 242.215 188.341 241.782L189.165 239.016C189.223 238.823 189.159 238.611 189.009 238.492L186.849 236.782C186.512 236.515 186.685 235.934 187.101 235.934H189.771C189.958 235.934 190.123 235.804 190.181 235.61L191.005 232.844C191.135 232.413 191.696 232.413 191.825 232.844Z" fill="#FBBE42"/>
<path d="M206.636 232.844L207.46 235.61C207.518 235.804 207.683 235.934 207.87 235.934H210.539C210.956 235.934 211.129 236.515 210.791 236.782L208.632 238.492C208.481 238.611 208.419 238.823 208.476 239.016L209.301 241.782C209.429 242.214 208.976 242.573 208.639 242.307L206.479 240.597C206.328 240.477 206.124 240.477 205.973 240.597L203.813 242.307C203.476 242.573 203.023 242.215 203.151 241.782L203.976 239.016C204.033 238.823 203.97 238.611 203.82 238.492L201.659 236.782C201.323 236.515 201.496 235.934 201.912 235.934H204.581C204.768 235.934 204.933 235.804 204.99 235.61L205.815 232.844C205.946 232.413 206.507 232.413 206.636 232.844Z" fill="#FBBE42"/>
<path d="M221.448 232.844L222.273 235.61C222.33 235.804 222.496 235.934 222.682 235.934H225.352C225.769 235.934 225.942 236.515 225.605 236.782L223.445 238.492C223.294 238.611 223.231 238.823 223.288 239.016L224.113 241.782C224.242 242.214 223.788 242.573 223.451 242.307L221.291 240.597C221.14 240.477 220.937 240.477 220.786 240.597L218.625 242.307C218.289 242.573 217.835 242.215 217.964 241.782L218.788 239.016C218.846 238.823 218.782 238.611 218.632 238.492L216.472 236.782C216.135 236.515 216.308 235.934 216.724 235.934H219.394C219.581 235.934 219.746 235.804 219.803 235.61L220.628 232.844C220.759 232.413 221.32 232.413 221.448 232.844Z" fill="#B1D7DD"/>
<path d="M220.971 232.543C220.825 232.57 220.687 232.659 220.631 232.844L219.806 235.611C219.749 235.804 219.584 235.934 219.398 235.934H216.728C216.311 235.934 216.138 236.515 216.475 236.782L218.635 238.492C218.786 238.611 218.848 238.823 218.791 239.016L217.966 241.782C217.838 242.214 218.291 242.573 218.628 242.307L220.788 240.597C220.843 240.554 220.908 240.544 220.972 240.532V232.543H220.971Z" fill="#FBBE42"/>
<path d="M236.26 232.844L237.085 235.61C237.142 235.804 237.307 235.934 237.493 235.934H240.163C240.579 235.934 240.753 236.515 240.416 236.782L238.256 238.492C238.105 238.611 238.043 238.823 238.1 239.016L238.925 241.782C239.054 242.214 238.6 242.573 238.263 242.307L236.103 240.597C235.952 240.477 235.748 240.477 235.597 240.597L233.438 242.307C233.101 242.573 232.647 242.215 232.776 241.782L233.601 239.016C233.658 238.823 233.595 238.611 233.445 238.492L231.284 236.782C230.948 236.515 231.121 235.934 231.537 235.934H234.207C234.393 235.934 234.558 235.804 234.616 235.61L235.441 232.844C235.571 232.413 236.132 232.413 236.26 232.844Z" fill="#B1D7DD"/>
<path d="M251.07 232.844L251.895 235.61C251.952 235.804 252.118 235.934 252.304 235.934H254.974C255.391 235.934 255.564 236.515 255.226 236.782L253.067 238.492C252.916 238.611 252.853 238.823 252.911 239.016L253.735 241.782C253.864 242.214 253.41 242.573 253.073 242.307L250.913 240.597C250.763 240.477 250.559 240.477 250.408 240.597L248.247 242.307C247.911 242.573 247.456 242.215 247.586 241.782L248.41 239.016C248.468 238.823 248.404 238.611 248.254 238.492L246.094 236.782C245.757 236.515 245.93 235.934 246.346 235.934H249.016C249.202 235.934 249.368 235.804 249.425 235.61L250.25 232.844C250.381 232.413 250.942 232.413 251.07 232.844Z" fill="#B1D7DD"/>
<path d="M229.744 246.937H186.672V248.24H229.744V246.937Z" fill="#B1D7DD"/>
<path d="M229.744 225.483H186.672V227.94H229.744V225.483Z" fill="#FF5A5A"/>
<path d="M229.744 251.899H186.672V253.202H229.744V251.899Z" fill="#B1D7DD"/>
<path d="M206.36 256.505H186.672V257.809H206.36V256.505Z" fill="#B1D7DD"/>
<path d="M174.712 250.482C179.671 241.658 177.126 230.125 169.027 224.722C160.928 219.319 150.342 222.092 145.382 230.915C140.423 239.739 142.968 251.272 151.067 256.675C159.166 262.078 169.753 259.305 174.712 250.482Z" fill="#7BC7FF"/>
<mask id="mask3_3386_2459" style="mask-type:luminance" maskUnits="userSpaceOnUse" x="142" y="221" width="36" height="39">
<path d="M174.712 250.482C179.671 241.658 177.126 230.124 169.027 224.721C160.927 219.318 150.341 222.091 145.381 230.915C140.422 239.739 142.967 251.272 151.067 256.675C159.166 262.079 169.752 259.306 174.712 250.482Z" fill="white"/>
</mask>
<g mask="url(#mask3_3386_2459)">
<path d="M153.127 236.695C153.127 236.695 152.146 232.447 153.666 230.577C155.187 228.707 158.203 226.73 160.655 227.746C160.655 227.746 162.592 226.464 164.357 227.531C166.123 228.6 168.673 229.535 168.943 228.252C168.943 228.252 169.09 233.141 167.079 233.916L166.245 237.683H153.371L153.127 236.695Z" fill="#0A4D7A"/>
<path d="M173.578 253.31C171.399 249.228 162.176 246.972 162.176 246.972L159.752 247.985L157.326 246.972C157.326 246.972 148.103 249.228 145.925 253.31L143.252 275.313L147.494 275.242L149.977 256.87C149.977 256.87 151.546 262.804 151.459 266.269C151.372 269.735 150.382 275.462 150.382 275.462H159.505H159.999H169.123C169.123 275.462 168.132 269.735 168.045 266.269C167.959 262.804 169.527 256.87 169.527 256.87L172.01 275.242L176.252 275.313L173.578 253.31Z" fill="#0A4D7A"/>
<path d="M162.605 243.161V246.972C162.605 246.972 162.116 249.952 159.814 250.455C157.414 249.769 157.043 246.972 157.043 246.972V243.161H162.605Z" fill="#FFA683"/>
<path d="M162.605 242.616V245.042C161.763 245.538 160.807 245.805 159.824 245.805C158.841 245.805 157.886 245.538 157.043 245.042V242.616H162.605Z" fill="#E57C5C"/>
<path d="M165.466 234.946C162.909 234.867 161.235 232.711 161.235 232.711C159.678 234.188 154.22 234.946 154.22 234.946L154.183 237.293C154.183 239.061 154.868 241.21 155.965 242.864C156.857 244.209 158.302 244.988 159.825 244.988C161.349 244.988 162.793 244.209 163.685 242.864C164.783 241.21 165.467 239.061 165.467 237.293L165.466 234.946Z" fill="#FFA683"/>
<path d="M155.652 237.577C155.652 238.507 154.961 239.26 154.107 239.26C153.254 239.26 152.562 238.507 152.562 237.577C152.562 236.647 153.254 235.894 154.107 235.894C154.961 235.894 155.652 236.647 155.652 237.577Z" fill="#FFA683"/>
<path d="M167.037 237.577C167.037 238.507 166.345 239.26 165.492 239.26C164.639 239.26 163.947 238.507 163.947 237.577C163.947 236.647 164.639 235.894 165.492 235.894C166.345 235.894 167.037 236.647 167.037 237.577Z" fill="#FFA683"/>
</g>
<path d="M237.841 54.9114C251.759 54.9114 263.042 42.6191 263.042 27.4557C263.042 12.2923 251.759 -6.10352e-05 237.841 -6.10352e-05C223.923 -6.10352e-05 212.64 12.2923 212.64 27.4557C212.64 42.6191 223.923 54.9114 237.841 54.9114Z" fill="#FBBE42"/>
<path d="M237.841 -6.10352e-05C237.688 -6.10352e-05 237.537 0.00913558 237.385 0.0128143C244.341 4.4824 249.012 12.7254 249.012 22.1612C249.012 36.3553 238.45 47.8622 225.421 47.8622C223.702 47.8622 222.027 47.6571 220.412 47.2764C224.939 52.0025 231.076 54.9124 237.841 54.9124C251.76 54.9124 263.043 42.6201 263.043 27.4566C263.043 12.2922 251.76 -6.10352e-05 237.841 -6.10352e-05Z" fill="#F9A643"/>
<path d="M60.5146 114.316C65.7905 114.316 66.0699 105.758 60.805 105.392C60.7552 105.388 60.7054 105.386 60.6547 105.383C60.6547 105.347 60.6572 105.312 60.6572 105.276C60.6572 99.1594 56.1056 94.2006 50.4911 94.2006C48.721 94.2006 47.0572 94.6944 45.6077 95.5608C43.8266 91.9511 40.3293 89.4955 36.3035 89.4955C30.4738 89.4955 25.7474 94.6448 25.7474 100.996C25.7474 101.337 25.7635 101.674 25.7905 102.007C24.71 101.668 23.5704 101.483 22.3902 101.483C18.1374 101.483 14.3894 103.837 12.1828 107.413C10.367 110.355 12.366 114.316 15.6202 114.316H60.5146Z" fill="#7BC7FF"/>
<path d="M222.624 44.4098C229.538 44.4098 229.904 33.1963 223.005 32.7171C222.94 32.7125 222.874 32.7088 222.808 32.7052C222.809 32.6583 222.812 32.6123 222.812 32.5654C222.812 24.5505 216.848 18.053 209.491 18.053C207.172 18.053 204.992 18.6995 203.092 19.8353C200.759 15.1055 196.175 11.8885 190.902 11.8885C183.263 11.8885 177.071 18.6352 177.071 26.9572C177.071 27.4042 177.092 27.8447 177.127 28.2816C175.712 27.8383 174.217 27.5964 172.671 27.5964C167.098 27.5964 162.187 30.6791 159.295 35.3648C156.917 39.2192 159.536 44.4098 163.799 44.4098H222.624Z" fill="#7BC7FF"/>
<path d="M305.825 70.806C299.472 70.806 299.136 60.5021 305.475 60.0616C305.535 60.057 305.596 60.0533 305.656 60.0505C305.656 60.0073 305.652 59.965 305.652 59.9218C305.652 52.5571 311.133 46.5857 317.893 46.5857C320.025 46.5857 322.028 47.1798 323.773 48.2236C325.917 43.8773 330.129 40.9214 334.976 40.9214C341.996 40.9214 347.686 47.1209 347.686 54.7689C347.686 55.1791 347.667 55.5846 347.635 55.9865C348.935 55.5791 350.308 55.3565 351.729 55.3565C356.849 55.3565 361.362 58.19 364.02 62.495C366.206 66.0366 363.798 70.807 359.881 70.807L305.825 70.806Z" fill="#7BC7FF"/>
<path d="M328.203 263.67L329.453 263.216C329.634 260.862 328.706 256.899 323.803 250.783C314.731 239.466 306.951 223.339 308.916 217.051C308.916 217.051 300.043 231.604 306.03 241.21C311.65 250.225 326.585 252.16 328.203 263.67Z" fill="#379CF7"/>
<path d="M328.712 263.485L329.454 263.214C329.635 260.861 328.706 256.898 323.804 250.782C314.732 239.465 306.952 223.338 308.918 217.05C308.918 217.05 304.218 230.423 310.314 239.377C316.331 248.218 327.065 250.057 328.712 263.485Z" fill="#006CBC"/>
<path d="M331.837 253.997C331.353 256.395 330.72 258.262 330.146 259.637L330.723 259.746C333.383 255.841 337.746 248.111 338.714 238.304C340.128 223.972 342.038 206.032 342.038 206.032C342.038 206.032 328.645 218.07 331.644 234.797C333.139 243.138 332.749 249.49 331.837 253.997Z" fill="#379CF7"/>
<path d="M336.548 227.956C335.817 239.916 333.746 253.07 331.062 258.295C331.452 257.968 331.868 257.625 332.293 257.278C334.842 252.992 337.919 246.347 338.713 238.304C340.127 223.972 342.037 206.032 342.037 206.032C342.037 206.032 337.501 212.39 336.548 227.956Z" fill="#006CBC"/>
<path d="M334.236 259.559C333.094 260.979 332.035 261.982 331.181 262.677L331.533 262.982C334.651 261.421 340.216 257.969 344.199 251.755C350.019 242.674 357.398 231.363 357.398 231.363C357.398 231.363 344.286 234.091 340.626 246.556C338.801 252.771 336.381 256.892 334.236 259.559Z" fill="#379CF7"/>
<path d="M346.254 243.919C341.699 251.677 335.836 259.701 332.254 262.141C332.628 262.078 333.025 262.014 333.429 261.951C336.602 260.089 340.933 256.85 344.199 251.754C350.018 242.674 357.398 231.363 357.398 231.363C357.398 231.363 352.183 233.822 346.254 243.919Z" fill="#006CBC"/>
<path d="M329.216 259.118C330.038 261.67 330.64 263.423 330.993 264.637L331.467 264.519C330.697 260.038 329.363 252.296 328.107 247.215C326.257 239.733 327.698 236.1 326.21 223.075C324.721 210.051 317.633 192.855 317.633 192.855C317.633 192.855 313.055 211.005 319.599 228.314C326.144 245.622 325.591 247.87 329.216 259.118Z" fill="#379CF7"/>
<path d="M331.023 264.63L331.112 264.608L331.166 262.777C330.378 258.217 329.212 251.686 328.107 247.215C326.257 239.733 327.698 236.1 326.209 223.075C324.721 210.051 317.633 192.855 317.633 192.855C317.633 192.855 319.859 218.721 323.107 230.026C326.113 240.487 330.399 261.54 331.023 264.63Z" fill="#006CBC"/>
<path d="M317.478 262.012L320.348 280.511C320.615 282.236 321.986 283.498 323.591 283.498H340.179C341.784 283.498 343.155 282.236 343.422 280.511L346.292 262.012C346.551 260.339 345.368 258.815 343.811 258.815H319.958C318.402 258.815 317.218 260.339 317.478 262.012Z" fill="white"/>
<path d="M346.275 261.077C346.275 261.075 346.274 261.073 346.274 261.071C346.245 260.897 346.202 260.729 346.144 260.567C346.14 260.555 346.135 260.544 346.131 260.533C346.075 260.382 346.01 260.239 345.93 260.102C345.915 260.076 345.898 260.052 345.883 260.026C345.809 259.907 345.73 259.794 345.641 259.689C345.606 259.649 345.568 259.614 345.532 259.575C345.451 259.491 345.37 259.409 345.278 259.337C345.217 259.288 345.15 259.25 345.085 259.207C345.007 259.157 344.931 259.102 344.846 259.061C344.751 259.013 344.649 258.982 344.548 258.948C344.483 258.926 344.421 258.896 344.353 258.88C344.18 258.838 343.999 258.814 343.811 258.814H336.258H319.957C318.521 258.814 317.417 260.115 317.457 261.63H338.758C338.755 261.757 338.758 261.883 338.739 262.011L335.87 280.51C335.602 282.235 334.231 283.497 332.626 283.497H340.179C341.785 283.497 343.155 282.235 343.422 280.51L346.292 262.011C346.342 261.69 346.324 261.379 346.275 261.077Z" fill="#CAEDFF"/>
<path d="M98.4135 127.094H60.9577C58.2717 127.094 56.0938 129.467 56.0938 132.394V153.864V164.452L65.6191 155.051C66.3932 154.287 67.4003 153.864 68.4454 153.864H98.4135C100.258 153.864 101.753 152.235 101.753 150.226V130.733C101.753 128.724 100.258 127.094 98.4135 127.094Z" fill="#0A4D7A"/>
<path d="M85.5875 135.319C83.9659 133.555 81.3406 133.555 79.7215 135.319L79.1703 135.92L78.6182 135.319C77.8087 134.437 76.745 133.997 75.6839 133.997C74.6228 133.997 73.5617 134.436 72.7514 135.319C71.1298 137.083 71.1298 139.946 72.7514 141.71L73.3026 142.311L79.1694 148.702L85.0354 142.311L85.5867 141.71C86.3962 140.828 86.7997 139.672 86.7997 138.516C86.8014 137.357 86.3979 136.201 85.5875 135.319Z" fill="#FF5A5A"/>
<path d="M321.125 83.8304H283.45C280.748 83.8304 278.558 86.217 278.558 89.1608V110.756V121.406L288.139 111.95C288.917 111.181 289.931 110.756 290.981 110.756H321.124C322.979 110.756 324.483 109.118 324.483 107.097V87.4907C324.484 85.4684 322.979 83.8304 321.125 83.8304Z" fill="#0A4D7A"/>
<path d="M312.211 98.4743C312.885 98.4164 313.415 97.8039 313.415 97.0562C313.415 96.2699 312.83 95.6316 312.108 95.6316H309.553C309.426 95.6114 309.295 95.6004 309.161 95.6013C307.773 95.616 307.703 95.6086 307.178 95.4863C306.065 95.2261 307.375 93.7518 306.681 91.0462C305.987 88.3396 303.571 88.5015 303.686 89.7623C303.802 91.0241 303.936 94.0342 303.293 94.986C301.838 97.1399 299.474 97.3349 299.474 97.3349L299.427 104.5L302.01 104.52C303.172 105.961 305.368 106.28 305.599 106.311V106.336H308.503L308.647 106.337C308.666 106.337 308.685 106.336 308.705 106.336H310.519C311.18 106.336 311.716 105.752 311.716 105.032C311.716 104.62 311.54 104.254 311.267 104.014C311.949 103.967 312.489 103.35 312.489 102.594C312.489 101.962 312.11 101.426 311.586 101.241H311.778C312.499 101.241 313.085 100.603 313.085 99.8161C313.085 99.1953 312.72 98.6693 312.211 98.4743Z" fill="#379CF7"/>
<path d="M292.197 105.846L296.626 105.851L296.681 95.3852L292.252 95.3806L292.197 105.846Z" fill="#379CF7"/>
<path d="M235.097 200.872C234.047 198.872 233.459 196.546 233.496 194.067C233.602 186.778 239.212 180.872 245.903 180.995C252.796 181.121 258.299 187.477 257.87 195.118C257.5 201.712 252.614 207.081 246.564 207.541C244.732 207.68 242.981 207.377 241.388 206.721C240.617 206.404 239.772 206.371 238.983 206.631L234.236 208.193L235.396 204.011C235.685 202.962 235.595 201.822 235.097 200.872Z" fill="#0A4D7A"/>
<path d="M245.429 187.103L244.173 191.315C244.102 191.552 243.899 191.712 243.671 191.712H239.607C239.095 191.712 238.883 192.425 239.297 192.752L242.585 195.355C242.77 195.501 242.847 195.76 242.776 195.998L241.52 200.209C241.363 200.738 241.919 201.179 242.332 200.852L245.62 198.249C245.805 198.103 246.056 198.103 246.241 198.249L249.529 200.852C249.942 201.179 250.499 200.738 250.341 200.209L249.085 195.998C249.014 195.76 249.092 195.501 249.276 195.355L252.564 192.752C252.978 192.425 252.765 191.712 252.255 191.712H248.19C247.961 191.712 247.759 191.552 247.688 191.315L246.432 187.103C246.275 186.574 245.587 186.574 245.429 187.103Z" fill="#FBBE42"/>
</svg>
