<svg width="16" height="16" viewBox="0 0 16 16" fill="none" xmlns="http://www.w3.org/2000/svg">
<path d="M2.85714 0C2.09938 0 1.37266 0.30102 0.836838 0.836838C0.30102 1.37266 0 2.09938 0 2.85714V3.42857H16V2.85714C16 2.09938 15.699 1.37266 15.1632 0.836838C14.6273 0.30102 13.9006 0 13.1429 0H2.85714ZM16 4.57143H0V13.1429C0 13.9006 0.30102 14.6273 0.836838 15.1632C1.37266 15.699 2.09938 16 2.85714 16H13.1429C13.9006 16 14.6273 15.699 15.1632 15.1632C15.699 14.6273 16 13.9006 16 13.1429V4.57143ZM5.71429 8C5.71429 8.30311 5.59388 8.59379 5.37955 8.80812C5.16522 9.02245 4.87453 9.14286 4.57143 9.14286C4.26832 9.14286 3.97763 9.02245 3.76331 8.80812C3.54898 8.59379 3.42857 8.30311 3.42857 8C3.42857 7.6969 3.54898 7.40621 3.76331 7.19188C3.97763 6.97755 4.26832 6.85714 4.57143 6.85714C4.87453 6.85714 5.16522 6.97755 5.37955 7.19188C5.59388 7.40621 5.71429 7.6969 5.71429 8ZM4.57143 12.5714C4.26832 12.5714 3.97763 12.451 3.76331 12.2367C3.54898 12.0224 3.42857 11.7317 3.42857 11.4286C3.42857 11.1255 3.54898 10.8348 3.76331 10.6205C3.97763 10.4061 4.26832 10.2857 4.57143 10.2857C4.87453 10.2857 5.16522 10.4061 5.37955 10.6205C5.59388 10.8348 5.71429 11.1255 5.71429 11.4286C5.71429 11.7317 5.59388 12.0224 5.37955 12.2367C5.16522 12.451 4.87453 12.5714 4.57143 12.5714ZM9.14286 8C9.14286 8.30311 9.02245 8.59379 8.80812 8.80812C8.59379 9.02245 8.30311 9.14286 8 9.14286C7.6969 9.14286 7.40621 9.02245 7.19188 8.80812C6.97755 8.59379 6.85714 8.30311 6.85714 8C6.85714 7.6969 6.97755 7.40621 7.19188 7.19188C7.40621 6.97755 7.6969 6.85714 8 6.85714C8.30311 6.85714 8.59379 6.97755 8.80812 7.19188C9.02245 7.40621 9.14286 7.6969 9.14286 8ZM8 12.5714C7.6969 12.5714 7.40621 12.451 7.19188 12.2367C6.97755 12.0224 6.85714 11.7317 6.85714 11.4286C6.85714 11.1255 6.97755 10.8348 7.19188 10.6205C7.40621 10.4061 7.6969 10.2857 8 10.2857C8.30311 10.2857 8.59379 10.4061 8.80812 10.6205C9.02245 10.8348 9.14286 11.1255 9.14286 11.4286C9.14286 11.7317 9.02245 12.0224 8.80812 12.2367C8.59379 12.451 8.30311 12.5714 8 12.5714ZM12.5714 8C12.5714 8.30311 12.451 8.59379 12.2367 8.80812C12.0224 9.02245 11.7317 9.14286 11.4286 9.14286C11.1255 9.14286 10.8348 9.02245 10.6205 8.80812C10.4061 8.59379 10.2857 8.30311 10.2857 8C10.2857 7.6969 10.4061 7.40621 10.6205 7.19188C10.8348 6.97755 11.1255 6.85714 11.4286 6.85714C11.7317 6.85714 12.0224 6.97755 12.2367 7.19188C12.451 7.40621 12.5714 7.6969 12.5714 8Z" fill="#18A0FB"/>
</svg>
