<?xml version="1.0" encoding="utf-8"?>
<!-- Generator: Adobe Illustrator 27.5.0, SVG Export Plug-In . SVG Version: 6.00 Build 0)  -->
<svg version="1.1" xmlns="http://www.w3.org/2000/svg" xmlns:xlink="http://www.w3.org/1999/xlink" x="0px" y="0px"
	 viewBox="0 0 500 500" style="enable-background:new 0 0 500 500;" xml:space="preserve">
<g id="Background_complete">
	<g>
		<g>
			<g>
				<g>
					<rect y="382.398" style="fill:#E6E6E6;" width="500" height="0.25"/>
					<rect x="51.646" y="394.264" style="fill:#E6E6E6;" width="54.339" height="0.25"/>
					<rect x="230.542" y="388.833" style="fill:#E6E6E6;" width="20.458" height="0.25"/>
					<rect x="151.344" y="388.833" style="fill:#E6E6E6;" width="29.942" height="0.25"/>
					<rect x="365.566" y="391.708" style="fill:#E6E6E6;" width="63.344" height="0.25"/>
					<rect x="224.934" y="391.708" style="fill:#E6E6E6;" width="14.288" height="0.25"/>
					<rect x="115.667" y="394.264" style="fill:#E6E6E6;" width="13.333" height="0.25"/>
					<rect x="437.076" y="391.708" style="fill:#E6E6E6;" width="8.51" height="0.25"/>
					<path style="fill:#E6E6E6;" d="M237.014,337.8H43.915c-3.147,0-5.708-2.561-5.708-5.708V60.66c0-3.147,2.561-5.708,5.708-5.708
						h193.099c3.146,0,5.707,2.561,5.707,5.708v271.432C242.721,335.239,240.16,337.8,237.014,337.8z M43.915,55.203
						c-3.01,0-5.458,2.448-5.458,5.458v271.432c0,3.01,2.448,5.458,5.458,5.458h193.099c3.009,0,5.457-2.448,5.457-5.458V60.66
						c0-3.009-2.448-5.458-5.457-5.458H43.915z"/>
					<path style="fill:#E6E6E6;" d="M453.31,337.8H260.212c-3.146,0-5.707-2.561-5.707-5.708V60.66c0-3.147,2.561-5.708,5.707-5.708
						H453.31c3.148,0,5.708,2.561,5.708,5.708v271.432C459.019,335.239,456.458,337.8,453.31,337.8z M260.212,55.203
						c-3.009,0-5.457,2.448-5.457,5.458v271.432c0,3.01,2.448,5.458,5.457,5.458H453.31c3.01,0,5.458-2.448,5.458-5.458V60.66
						c0-3.009-2.448-5.458-5.458-5.458H260.212z"/>
				</g>
			</g>
		</g>
		<g>
			<g>
				<g>
					<g>
						<rect x="189.266" y="85.564" style="fill:#E6E6E6;" width="222.895" height="129.559"/>
						<rect x="192.282" y="85.564" style="fill:#F5F5F5;" width="222.895" height="129.559"/>
						
							<rect x="245.03" y="44.309" transform="matrix(-1.836970e-16 1 -1 -1.836970e-16 454.0727 -153.3855)" style="fill:#FFFFFF;" width="117.399" height="212.069"/>
						
							<rect x="349.924" y="149.204" transform="matrix(-1.836970e-16 1 -1 -1.836970e-16 558.9672 -258.28)" style="fill:#E6E6E6;" width="117.399" height="2.28"/>
						<rect x="194.521" y="172.553" style="fill:#F5F5F5;" width="218.417" height="8.163"/>
					</g>
				</g>
			</g>
			<g>
				<g>
					<rect x="216.396" y="296.111" style="fill:#E6E6E6;" width="36.599" height="81.146"/>
					<rect x="223.424" y="377.257" style="fill:#E6E6E6;" width="161.124" height="5.142"/>
					
						<rect x="252.995" y="296.111" transform="matrix(-1 -1.224647e-16 1.224647e-16 -1 644.5705 673.3679)" style="fill:#F5F5F5;" width="138.58" height="81.146"/>
					
						<rect x="267.385" y="306.099" transform="matrix(-1 -1.224647e-16 1.224647e-16 -1 644.5705 638.8108)" style="fill:#E6E6E6;" width="109.801" height="26.613"/>
					
						<rect x="267.385" y="340.656" transform="matrix(-1 -1.224647e-16 1.224647e-16 -1 644.5705 707.924)" style="fill:#E6E6E6;" width="109.801" height="26.613"/>
					<path style="fill:#F5F5F5;" d="M338.743,321.23h-32.916c-0.887,0-1.612-0.725-1.612-1.612v-0.425
						c0-0.887,0.725-1.612,1.612-1.612h32.916c0.887,0,1.612,0.725,1.612,1.612v0.425C340.355,320.505,339.63,321.23,338.743,321.23
						z"/>
					<path style="fill:#F5F5F5;" d="M338.743,355.787h-32.916c-0.887,0-1.612-0.725-1.612-1.612v-0.425
						c0-0.887,0.725-1.612,1.612-1.612h32.916c0.887,0,1.612,0.725,1.612,1.612v0.425
						C340.355,355.061,339.63,355.787,338.743,355.787z"/>
				</g>
			</g>
			<g>
				<polygon style="fill:#E6E6E6;" points="143.384,382.398 65.408,382.398 54.657,123.726 132.633,123.726 				"/>
				<polygon style="fill:#F5F5F5;" points="154.671,382.398 67.408,382.398 56.657,123.726 143.92,123.726 				"/>
				<polygon style="fill:#FFFFFF;" points="76.034,373.398 66.032,132.726 135.293,132.726 145.296,373.398 				"/>
			</g>
			<g>
				<path style="fill:#E0E0E0;" d="M284.934,283.59c0.969-27.321,2.003-65.171-0.113-78.874l-3.454-2.666
					c0,0,0.757,2.554,1.154,44.413c0.397,41.859,0.89,30.907,0.467,37.127H284.934z"/>
				<path style="fill:#E0E0E0;" d="M291.352,193.086c6.379-8.647,19.811-14.795,33.717-14.763
					c5.46,0.013-16.258,10.058-25.049,21.144c-6.83,8.612-14.363,23.099-16.816,31.141
					C284.381,213.688,284.973,201.732,291.352,193.086z"/>
				<path style="fill:#E0E0E0;" d="M278.555,215.62c-5.861-9.006-18.91-15.93-32.794-16.713
					c-5.451-0.307,15.64,10.994,23.767,22.576c6.313,8.997,12.985,23.901,14.962,32.072
					C284.306,236.596,284.416,224.626,278.555,215.62z"/>
				<path style="fill:#E0E0E0;" d="M281.167,178.655c-5.333-10.507-17.795-20.635-31.351-24.757
					c-5.322-1.618,16.747,16.86,23.053,30.963c4.899,10.956,10.835,24.822,12.404,33.553
					C285.855,201.231,286.5,189.162,281.167,178.655z"/>
				<g>
					<path style="fill:#F0F0F0;" d="M283.642,296.111L283.642,296.111c6.73,0,12.291-5.25,12.677-11.969l1.121-19.502h-27.597
						l1.121,19.502C271.352,290.861,276.913,296.111,283.642,296.111z"/>
					<polygon style="fill:#EBEBEB;" points="268.057,269.057 299.228,269.057 300.12,260.97 267.164,260.97 					"/>
				</g>
			</g>
			<g>
				
					<rect x="400.575" y="79.167" transform="matrix(-1 -1.224647e-16 1.224647e-16 -1 821.7907 214.3334)" style="fill:#E6E6E6;" width="20.641" height="56"/>
				<rect x="390.343" y="79.167" style="fill:#F5F5F5;" width="10.232" height="51.5"/>
				
					<rect x="369.702" y="79.167" transform="matrix(-1 -1.224647e-16 1.224647e-16 -1 760.0449 214.3334)" style="fill:#E6E6E6;" width="20.641" height="56"/>
				<rect x="359.47" y="79.167" style="fill:#F5F5F5;" width="10.232" height="51.5"/>
				
					<rect x="338.829" y="79.167" transform="matrix(-1 -1.224647e-16 1.224647e-16 -1 698.2991 214.3334)" style="fill:#E6E6E6;" width="20.641" height="56"/>
				<rect x="328.597" y="79.167" style="fill:#F5F5F5;" width="10.232" height="51.5"/>
				
					<rect x="307.956" y="79.167" transform="matrix(-1 -1.224647e-16 1.224647e-16 -1 636.5534 214.3334)" style="fill:#E6E6E6;" width="20.641" height="56"/>
				<rect x="297.724" y="79.167" style="fill:#F5F5F5;" width="10.232" height="51.5"/>
				
					<rect x="277.083" y="79.167" transform="matrix(-1 -1.224647e-16 1.224647e-16 -1 574.8077 214.3334)" style="fill:#E6E6E6;" width="20.641" height="56"/>
				<rect x="266.851" y="79.167" style="fill:#F5F5F5;" width="10.232" height="51.5"/>
				
					<rect x="246.211" y="79.167" transform="matrix(-1 -1.224647e-16 1.224647e-16 -1 513.0619 214.3334)" style="fill:#E6E6E6;" width="20.641" height="56"/>
				<rect x="235.978" y="79.167" style="fill:#F5F5F5;" width="10.232" height="51.5"/>
				
					<rect x="215.338" y="79.167" transform="matrix(-1 -1.224647e-16 1.224647e-16 -1 451.3162 214.3334)" style="fill:#E6E6E6;" width="20.641" height="56"/>
				<rect x="205.106" y="79.167" style="fill:#F5F5F5;" width="10.232" height="51.5"/>
				
					<rect x="184.465" y="79.167" transform="matrix(-1 -1.224647e-16 1.224647e-16 -1 389.5705 214.3334)" style="fill:#E6E6E6;" width="20.641" height="56"/>
			</g>
		</g>
	</g>
</g>
<g id="Background_simple" style="display:none;">
	<g style="display:inline;">
		<path style="fill:#407BFF;" d="M263.64,105.834c40.524,0.768,84.098-28.096,122.551-2.633
			c37.51,24.838,35.854,69.629,15.788,104.886c-29.19,51.288-75.347,38.576-120.829,60.685
			c-43.047,20.926-62.212,66.92-117.284,66.303c-36.016-0.404-100.708-37.351-94.486-80.46
			c4.385-30.383,45.101-38.684,56.915-67.207c17.281-41.723-19.227-92.764,32.784-114.851
			C207.747,51.889,215.489,104.922,263.64,105.834z"/>
		<path style="opacity:0.9;fill:#FFFFFF;" d="M263.64,105.834c40.524,0.768,84.098-28.096,122.551-2.633
			c37.51,24.838,35.854,69.629,15.788,104.886c-29.19,51.288-75.347,38.576-120.829,60.685
			c-43.047,20.926-62.212,66.92-117.284,66.303c-36.016-0.404-100.708-37.351-94.486-80.46
			c4.385-30.383,45.101-38.684,56.915-67.207c17.281-41.723-19.227-92.764,32.784-114.851
			C207.747,51.889,215.489,104.922,263.64,105.834z"/>
	</g>
</g>
<g id="Shadow">
	<ellipse style="fill:#F5F5F5;" cx="250" cy="416.238" rx="193.889" ry="11.323"/>
</g>
<g id="Character">
	<g>
		<polygon style="fill:#9F5B53;" points="352.418,219.528 356.67,226.025 362.986,224.724 358.221,216.64 		"/>
		<path style="fill:#9F5B53;" d="M364.472,163.823c0.894,1.091,1.651,2.061,2.418,3.117c0.764,1.037,1.51,2.08,2.241,3.137
			c1.457,2.116,2.847,4.279,4.148,6.514c1.292,2.243,2.558,4.507,3.665,6.898c0.583,1.169,1.089,2.408,1.624,3.616
			c0.48,1.257,0.985,2.481,1.394,3.792l0.32,0.968l0.161,0.491c0.084,0.294,0.179,0.604,0.234,0.889
			c0.25,1.166,0.279,2.221,0.225,3.17c-0.132,1.893-0.581,3.427-1.075,4.845c-1.003,2.818-2.347,5.162-3.741,7.416
			c-2.859,4.462-6.076,8.347-9.721,12.036l-4.325-3.423c2.37-4.13,4.712-8.438,6.579-12.643c0.936-2.091,1.722-4.227,2.173-6.129
			c0.221-0.94,0.312-1.837,0.266-2.413c-0.018-0.283-0.077-0.47-0.113-0.504c-0.005-0.018-0.019-0.001-0.019-0.001l-0.161-0.376
			l-0.326-0.766c-1.738-4.084-4.094-8.144-6.6-12.103c-1.256-1.985-2.593-3.937-3.935-5.884c-1.323-1.928-2.793-3.9-4.111-5.668
			L364.472,163.823z"/>
		<g>
			<path style="fill:#407BFF;" d="M362.034,158.901c6.885,1.579,14.782,20.351,14.782,20.351l-13.829,9.478
				c0,0-5.239-7.329-9.134-15.529C349.772,164.609,354.994,157.287,362.034,158.901z"/>
			<path style="opacity:0.8;fill:#FFFFFF;" d="M362.034,158.901c6.885,1.579,14.782,20.351,14.782,20.351l-13.829,9.478
				c0,0-5.239-7.329-9.134-15.529C349.772,164.609,354.994,157.287,362.034,158.901z"/>
		</g>
		<g>
			<path style="fill:#407BFF;" d="M357.1,170.871l6.54,17.409l-0.65,0.45c0,0-2.83-3.97-5.89-9.33V170.871z"/>
			<path style="opacity:0.6;fill:#FFFFFF;" d="M357.1,170.871l6.54,17.409l-0.65,0.45c0,0-2.83-3.97-5.89-9.33V170.871z"/>
		</g>
		<polygon style="fill:#9F5B53;" points="339.638,409.644 332.291,409.644 331.56,392.632 338.906,392.632 		"/>
		<polygon style="fill:#9F5B53;" points="383.746,409.644 376.4,409.644 372.707,392.632 380.054,392.632 		"/>
		<g>
			<polygon style="fill:#8A4743;" points="331.561,392.636 331.937,401.405 339.287,401.405 338.911,392.636 			"/>
			<polygon style="fill:#8A4743;" points="380.056,392.636 372.707,392.636 374.614,401.405 381.963,401.405 			"/>
		</g>
		<g>
			<path style="fill:#407BFF;" d="M334.381,222.777c0,0,8.337,56.142,12.914,77.175c5.012,23.033,23.895,99.755,23.895,99.755
				h13.455c0,0-12.451-74.863-15.311-97.667c-3.104-24.75-9.599-79.263-9.599-79.263H334.381z"/>
			<path style="opacity:0.5;" d="M334.381,222.777c0,0,8.337,56.142,12.914,77.175c5.012,23.033,23.895,99.755,23.895,99.755h13.455
				c0,0-12.451-74.863-15.311-97.667c-3.104-24.75-9.599-79.263-9.599-79.263H334.381z"/>
		</g>
		<path style="opacity:0.4;" d="M339.65,242.78c9.64,1.89,8.62,37.84,7.46,56.33c-2.78-13.07-6.85-38.22-9.63-56.07
			C338.12,242.72,338.84,242.62,339.65,242.78z"/>
		<g>
			<path style="fill:#407BFF;" d="M320.442,222.777c0,0-1.012,54.927-0.213,77.33c0.831,23.302,8.97,99.601,8.97,99.601h12.445
				c0,0,0.457-74.937,1.01-97.822c0.604-24.949,3.616-79.108,3.616-79.108H320.442z"/>
			<path style="opacity:0.5;" d="M320.442,222.777c0,0-1.012,54.927-0.213,77.33c0.831,23.302,8.97,99.601,8.97,99.601h12.445
				c0,0,0.457-74.937,1.01-97.822c0.604-24.949,3.616-79.108,3.616-79.108H320.442z"/>
		</g>
		<path style="fill:#9F5B53;" d="M363.594,215.715l-5.373,0.925l4.765,8.084c0,0,3.745-1.799,4.419-5.293L363.594,215.715z"/>
		<path style="fill:#263238;" d="M328.101,131.6c0,0.592-0.314,1.073-0.701,1.073c-0.387,0-0.701-0.48-0.701-1.073
			c0-0.593,0.314-1.073,0.701-1.073C327.787,130.527,328.101,131.008,328.101,131.6z"/>
		<path style="fill:#892B29;" d="M327.841,132.673c0,0-1.347,3.419-2.831,5.068c1.048,0.979,2.831,0.531,2.831,0.531V132.673z"/>
		<path style="fill:#263238;" d="M330.201,128.317c-0.07,0-0.142-0.021-0.203-0.066c-1.26-0.908-2.46-0.46-2.474-0.454
			c-0.178,0.068-0.38-0.019-0.449-0.199c-0.069-0.179,0.02-0.381,0.199-0.45c0.061-0.024,1.569-0.587,3.13,0.539
			c0.156,0.112,0.191,0.33,0.079,0.486C330.415,128.267,330.309,128.317,330.201,128.317z"/>
		<path style="fill:#9F5B53;" d="M347.225,138.432c-1.054,5.374-2.105,15.222,1.655,18.808c0,0-1.469,5.452-11.456,5.452
			c-10.981,0-5.248-5.451-5.248-5.451c5.993-1.431,5.838-5.878,4.794-10.053L347.225,138.432z"/>
		<path style="fill:#407BFF;" d="M350.319,159.111c0.787-1.726,1.654-3.701-0.139-4.319c-1.972-0.681-12.768-1.375-16.49-0.097
			s-2.667,4.778-2.667,4.778L350.319,159.111z"/>
		<path style="fill:#407BFF;" d="M373.453,410.021c-0.753,0-1.48-0.115-1.764-0.485c-0.119-0.155-0.215-0.425,0.006-0.826
			c0.115-0.21,0.3-0.347,0.546-0.405c1.079-0.248,3.102,1.138,3.188,1.196c0.057,0.039,0.085,0.107,0.072,0.176
			c-0.013,0.067-0.064,0.121-0.13,0.137C374.994,409.903,374.212,410.021,373.453,410.021z M372.535,408.62
			c-0.076,0-0.148,0.007-0.214,0.023c-0.148,0.035-0.254,0.112-0.321,0.234c-0.157,0.286-0.065,0.407-0.034,0.447
			c0.314,0.412,1.816,0.419,2.912,0.233C374.245,409.168,373.203,408.62,372.535,408.62z"/>
		<path style="fill:#407BFF;" d="M375.33,409.817c-0.028,0-0.057-0.007-0.083-0.021c-0.76-0.412-2.23-2.021-2.075-2.841
			c0.028-0.148,0.138-0.405,0.554-0.457c0.265-0.03,0.518,0.042,0.742,0.224c0.854,0.698,1.028,2.817,1.036,2.907
			c0.005,0.063-0.025,0.125-0.079,0.159C375.396,409.809,375.363,409.817,375.33,409.817z M373.847,406.84
			c-0.025,0-0.052,0.001-0.078,0.005c-0.227,0.027-0.246,0.132-0.255,0.176c-0.091,0.485,0.846,1.701,1.601,2.273
			c-0.085-0.618-0.319-1.854-0.867-2.302C374.122,406.89,373.99,406.84,373.847,406.84z"/>
		<path style="fill:#407BFF;" d="M329.339,410.022c-0.941,0-1.852-0.13-2.157-0.554c-0.106-0.148-0.191-0.401,0.014-0.761
			c0.115-0.202,0.302-0.339,0.553-0.407c1.217-0.325,3.79,1.131,3.898,1.193c0.063,0.035,0.097,0.106,0.085,0.179
			c-0.012,0.071-0.066,0.128-0.138,0.143C331.125,409.908,330.218,410.022,329.339,410.022z M328.175,408.596
			c-0.122,0-0.235,0.013-0.336,0.04c-0.161,0.044-0.273,0.123-0.341,0.243c-0.123,0.217-0.078,0.323-0.034,0.385
			c0.332,0.46,2.189,0.485,3.564,0.293C330.347,409.207,329.033,408.596,328.175,408.596z"/>
		<path style="fill:#407BFF;" d="M331.56,409.817c-0.024,0-0.049-0.005-0.071-0.015c-0.886-0.397-2.643-1.985-2.509-2.817
			c0.032-0.195,0.17-0.438,0.648-0.486c0.353-0.034,0.679,0.064,0.965,0.298c0.935,0.768,1.132,2.746,1.14,2.83
			c0.006,0.061-0.022,0.122-0.071,0.158C331.631,409.807,331.596,409.817,331.56,409.817z M329.768,406.84
			c-0.034,0-0.069,0.002-0.104,0.005c-0.314,0.032-0.333,0.155-0.34,0.196c-0.08,0.499,1.113,1.747,2.018,2.29
			c-0.094-0.577-0.356-1.762-0.97-2.266C330.186,406.914,329.988,406.84,329.768,406.84z"/>
		<path style="fill:#263238;" d="M375.878,408.793h8.253c0.3,0,0.56,0.209,0.625,0.502l1.451,6.53
			c0.15,0.677-0.382,1.318-1.076,1.306c-2.881-0.049-4.281-0.219-7.911-0.219c-2.233,0-6.833,0.232-9.917,0.232
			c-3.016,0-3.486-3.049-2.224-3.325c5.66-1.238,7.792-2.946,9.604-4.575C375.012,408.951,375.438,408.793,375.878,408.793z"/>
		<path style="fill:#263238;" d="M332.34,408.793h8.023c0.3,0,0.56,0.209,0.626,0.502l1.451,6.53
			c0.15,0.677-0.364,1.318-1.057,1.307c-2.894-0.049-7.076-0.219-10.713-0.219c-4.253,0-7.926,0.232-12.914,0.232
			c-3.016,0-3.853-3.049-2.591-3.325c5.747-1.257,10.439-1.392,15.406-4.454C331.11,409.033,331.706,408.793,332.34,408.793z"/>
		<path style="fill:#9F5B53;" d="M321.854,173.931c-2.914,4.294-5.928,8.313-9.169,12.289c-3.236,3.955-6.645,7.806-10.404,11.475
			l-1.445,1.361l-0.361,0.34l-0.258,0.235l-0.368,0.317c-0.494,0.395-1.006,0.739-1.506,1.009c-2.026,1.095-3.833,1.372-5.452,1.525
			c-3.237,0.253-5.986-0.183-8.658-0.714c-5.312-1.147-10.105-2.932-14.85-5.219l1.831-5.203c4.715,0.879,9.615,1.665,14.189,1.937
			c2.266,0.128,4.54,0.092,6.268-0.263c0.847-0.169,1.519-0.485,1.662-0.646c0.044-0.037,0.038-0.063,0.025-0.063
			c-0.008-0.001-0.016,0-0.022,0.003c0.002-0.005-0.018,0.016,0.004-0.008l0.074-0.082l0.296-0.326l1.184-1.303
			c3.125-3.562,6.152-7.358,9.095-11.242c2.946-3.858,5.885-7.859,8.696-11.742L321.854,173.931z"/>
		<path style="fill:#BED3FC;" d="M325.24,175.083c-0.13,0.16-0.99,9.03-7.76,16.82c-0.16-3.52-0.22-6.68-0.21-9.51L325.24,175.083z"
			/>
		<path style="fill:#9F5B53;" d="M347.865,130.344c-0.447,7.277-0.339,11.559-4.014,15.294c-5.529,5.618-14.511,2.286-16.248-4.978
			c-1.563-6.538-0.569-17.341,6.554-20.237C341.174,117.57,348.311,123.067,347.865,130.344z"/>
		<path style="fill:#263238;" d="M333.725,125.5c0.055,8.56,2.833,19.056,11.111,18.333c5.507-0.48,9.687-10.518,10.255-14.762
			c0.87-6.502,0.967-7.738-2.658-8.488c1.597-0.875,2.181-4.993-1.563-5.979c-5.198-1.369-14.979-2.715-11.924-5.882
			c-6.139,1.111-7.68,3.57-6.555,6.556c-3.591-0.278-5.804-2.16-5.693-5C320.754,112.667,316.891,126.295,333.725,125.5z"/>
		<path style="fill:#9F5B53;" d="M338.044,132.46c-0.403,1.867-1.552,3.504-2.783,4.501c-1.852,1.499-3.336,0.159-3.289-2.008
			c0.043-1.951,1.058-5.082,3.141-5.744C337.166,128.555,338.505,130.326,338.044,132.46z"/>
		<path style="fill:#263238;" d="M358.045,122.074c-1.039-0.574-3.4-1.884-6.634-0.486
			C351.411,121.588,355.529,115.957,358.045,122.074z"/>
		<path style="fill:#407BFF;" d="M369.041,394.75c-0.057,0,1.389,5.167,1.389,5.167h15.138l-0.278-4.611L369.041,394.75z"/>
		<path style="fill:#407BFF;" d="M326.805,394.75c-0.057,0,0.702,5.167,0.702,5.167h15.139l0.409-4.611L326.805,394.75z"/>
		<g>
			<path style="fill:#407BFF;" d="M331.792,390.768c-0.064,0-0.117-0.048-0.124-0.112c-2.193-21.117-7.366-72.213-8.021-90.544
				c-0.667-18.711-0.062-60.69,0.141-73.111c0.001-0.069,0.064-0.115,0.127-0.123c0.069,0.001,0.124,0.058,0.123,0.127
				c-0.202,12.419-0.808,54.393-0.141,73.097c0.654,18.324,5.825,69.413,8.018,90.528c0.008,0.068-0.042,0.13-0.111,0.137
				C331.801,390.768,331.796,390.768,331.792,390.768z"/>
			<path style="opacity:0.3;" d="M331.792,390.768c-0.064,0-0.117-0.048-0.124-0.112c-2.193-21.117-7.366-72.213-8.021-90.544
				c-0.667-18.711-0.062-60.69,0.141-73.111c0.001-0.069,0.064-0.115,0.127-0.123c0.069,0.001,0.124,0.058,0.123,0.127
				c-0.202,12.419-0.808,54.393-0.141,73.097c0.654,18.324,5.825,69.413,8.018,90.528c0.008,0.068-0.042,0.13-0.111,0.137
				C331.801,390.768,331.796,390.768,331.792,390.768z"/>
		</g>
		<g>
			<path style="fill:#407BFF;" d="M328.628,165.235c0.969,6.956-12.737,24.726-12.737,24.726l-13.772-9.479
				c0,0,3.818-9.793,10.251-16.21C319.713,156.945,327.574,157.664,328.628,165.235z"/>
			<path style="opacity:0.8;fill:#FFFFFF;" d="M328.628,165.235c0.969,6.956-12.737,24.726-12.737,24.726l-13.772-9.479
				c0,0,3.818-9.793,10.251-16.21C319.713,156.945,327.574,157.664,328.628,165.235z"/>
		</g>
		<g>
			<path style="fill:#407BFF;" d="M320.877,159.279c0,0-7.819,8.832-0.435,63.497c11.839,0,33.532,0,39.293,0
				c0.271-6.032-3.519-35.456,2.298-63.876c0,0-6.735-1.352-13.154-1.661c-5.021-0.242-12.289-0.402-16.703,0.001
				C326.358,157.771,320.877,159.279,320.877,159.279z"/>
			<path style="opacity:0.8;fill:#FFFFFF;" d="M320.877,159.279c0,0-7.819,8.832-0.435,63.497c11.839,0,33.532,0,39.293,0
				c0.271-6.032-3.519-35.456,2.298-63.876c0,0-6.735-1.352-13.154-1.661c-5.021-0.242-12.289-0.402-16.703,0.001
				C326.358,157.771,320.877,159.279,320.877,159.279z"/>
		</g>
	</g>
</g>
<g id="Buttons">
	<g>
		<g>
			
				<ellipse transform="matrix(0.2215 -0.9752 0.9752 0.2215 29.6738 264.1111)" style="fill:#407BFF;" cx="180.245" cy="113.471" rx="25.667" ry="25.667"/>
			
				<ellipse transform="matrix(0.2215 -0.9752 0.9752 0.2215 29.6738 264.1111)" style="opacity:0.2;fill:#FFFFFF;" cx="180.245" cy="113.471" rx="25.667" ry="25.667"/>
		</g>
		<g>
			<g>
				<path style="fill:#407BFF;" d="M177.588,146.75c-13.642-1.094-25.1-10.239-29.192-23.3l0.954-0.299
					c3.969,12.669,15.085,21.541,28.318,22.602L177.588,146.75z"/>
				<path style="opacity:0.2;fill:#FFFFFF;" d="M177.588,146.75c-13.642-1.094-25.1-10.239-29.192-23.3l0.954-0.299
					c3.969,12.669,15.085,21.541,28.318,22.602L177.588,146.75z"/>
			</g>
			<g>
				<path style="fill:#407BFF;" d="M149.214,104.225l-0.958-0.286c3.186-10.654,11.414-18.996,22.01-22.316
					c6.85-2.146,14.048-2.05,20.815,0.279l-0.325,0.945c-6.564-2.259-13.545-2.353-20.191-0.271
					C160.287,85.797,152.305,93.89,149.214,104.225z"/>
				<path style="opacity:0.2;fill:#FFFFFF;" d="M149.214,104.225l-0.958-0.286c3.186-10.654,11.414-18.996,22.01-22.316
					c6.85-2.146,14.048-2.05,20.815,0.279l-0.325,0.945c-6.564-2.259-13.545-2.353-20.191-0.271
					C160.287,85.797,152.305,93.89,149.214,104.225z"/>
			</g>
			<g>
				<path style="fill:#407BFF;" d="M211.14,103.791c-2.344-7.481-7.313-13.85-13.994-17.935l0.521-0.854
					c6.887,4.211,12.01,10.777,14.426,18.489L211.14,103.791z"/>
				<path style="opacity:0.2;fill:#FFFFFF;" d="M211.14,103.791c-2.344-7.481-7.313-13.85-13.994-17.935l0.521-0.854
					c6.887,4.211,12.01,10.777,14.426,18.489L211.14,103.791z"/>
			</g>
		</g>
		<g>
			
				<ellipse transform="matrix(0.2215 -0.9752 0.9752 0.2215 -39.4326 319.283)" style="fill:#407BFF;" cx="180.245" cy="184.337" rx="25.667" ry="25.667"/>
			
				<ellipse transform="matrix(0.2215 -0.9752 0.9752 0.2215 -39.4326 319.283)" style="opacity:0.6;fill:#FFFFFF;" cx="180.245" cy="184.337" rx="25.667" ry="25.667"/>
		</g>
		<g>
			
				<ellipse transform="matrix(0.2215 -0.9752 0.9752 0.2215 -108.539 374.455)" style="fill:#407BFF;" cx="180.245" cy="255.204" rx="25.667" ry="25.667"/>
			
				<ellipse transform="matrix(0.2215 -0.9752 0.9752 0.2215 -108.539 374.455)" style="opacity:0.6;fill:#FFFFFF;" cx="180.245" cy="255.204" rx="25.667" ry="25.667"/>
		</g>
		<g>
			
				<ellipse transform="matrix(0.2215 -0.9752 0.9752 0.2215 -177.6454 429.6269)" style="fill:#407BFF;" cx="180.245" cy="326.07" rx="25.667" ry="25.667"/>
			
				<ellipse transform="matrix(0.2215 -0.9752 0.9752 0.2215 -177.6454 429.6269)" style="opacity:0.6;fill:#FFFFFF;" cx="180.245" cy="326.07" rx="25.667" ry="25.667"/>
		</g>
		<g>
			
				<ellipse transform="matrix(0.2215 -0.9752 0.9752 0.2215 -25.4981 195.0047)" style="fill:#407BFF;" cx="109.379" cy="113.471" rx="25.667" ry="25.667"/>
			
				<ellipse transform="matrix(0.2215 -0.9752 0.9752 0.2215 -25.4981 195.0047)" style="opacity:0.6;fill:#FFFFFF;" cx="109.379" cy="113.471" rx="25.667" ry="25.667"/>
		</g>
		<g>
			
				<ellipse transform="matrix(0.2215 -0.9752 0.9752 0.2215 -94.6045 250.1766)" style="fill:#407BFF;" cx="109.379" cy="184.337" rx="25.667" ry="25.667"/>
			
				<ellipse transform="matrix(0.2215 -0.9752 0.9752 0.2215 -94.6045 250.1766)" style="opacity:0.6;fill:#FFFFFF;" cx="109.379" cy="184.337" rx="25.667" ry="25.667"/>
		</g>
		<g>
			
				<ellipse transform="matrix(0.2215 -0.9752 0.9752 0.2215 -163.711 305.3485)" style="fill:#407BFF;" cx="109.379" cy="255.204" rx="25.667" ry="25.667"/>
			
				<ellipse transform="matrix(0.2215 -0.9752 0.9752 0.2215 -163.711 305.3485)" style="opacity:0.6;fill:#FFFFFF;" cx="109.379" cy="255.204" rx="25.667" ry="25.667"/>
		</g>
		<g>
			
				<ellipse transform="matrix(0.2215 -0.9752 0.9752 0.2215 -232.8174 360.5205)" style="fill:#407BFF;" cx="109.379" cy="326.07" rx="25.667" ry="25.667"/>
			
				<ellipse transform="matrix(0.2215 -0.9752 0.9752 0.2215 -232.8174 360.5205)" style="opacity:0.6;fill:#FFFFFF;" cx="109.379" cy="326.07" rx="25.667" ry="25.667"/>
		</g>
	</g>
</g>
<g id="Hand">
	<g>
		<path style="fill:#9F5B53;" d="M272.196,191.877l-5.386-5.574l-5.75,7.416c0,0,4.376,4.225,9.591,3.031L272.196,191.877z"/>
		<polygon style="fill:#9F5B53;" points="259.403,183.235 256.942,191.018 261.06,193.718 266.81,186.303 		"/>
		<g>
			<path style="fill:#407BFF;" d="M186.005,183.66c1.947-5.737,8.492-8.195,13.648-5.499l-5.962-3.118
				c-4.551-2.38-6.757-7.88-4.703-12.587c2.255-5.169,8.43-7.281,13.344-4.712l-5.963-3.118c-4.551-2.38-6.757-7.88-4.703-12.588
				c2.255-5.169,8.43-7.28,13.344-4.711l-28.491-14.897c-4.26-2.227-6.495-7.218-4.951-11.77c1.947-5.737,8.492-8.195,13.649-5.499
				l59.995,31.37l-6.178-25.287c-0.62-2.525-0.248-5.072,0.874-7.217c1.228-2.348,3.355-4.215,6.054-5.06
				c5.187-1.633,10.742,1.058,12.695,6.13l19.688,51.124c1.683,4.37,4.9,7.976,9.049,10.146l3.424,1.79
				c2.208,1.154,3.062,3.88,1.907,6.088l-23.977,45.857c-1.154,2.208-3.88,3.062-6.088,1.908l-8.42-4.403
				c-3.18-1.663-6.758-2.34-10.342-2.14c-8.615,0.48-17.236-1.368-24.939-5.395l-28.003-14.642
				C186.696,193.203,184.461,188.212,186.005,183.66z"/>
			<path style="fill:#407BFF;" d="M264.739,224.023c-0.938,0-1.888-0.22-2.775-0.684l-8.42-4.403
				c-2.832-1.48-6.137-2.16-9.563-1.971c-8.907,0.5-17.807-1.428-25.717-5.564l-28.003-14.642c-4.98-2.604-7.42-8.443-5.676-13.581
				c1.054-3.108,3.399-5.587,6.432-6.802c0.411-0.165,0.828-0.304,1.249-0.418c-4.831-2.975-6.875-9.008-4.653-14.102
				c1.251-2.868,3.569-5.022,6.527-6.064c0.266-0.094,0.535-0.177,0.805-0.25c-4.831-2.976-6.876-9.009-4.654-14.103
				c1.251-2.868,3.569-5.021,6.527-6.063c0.252-0.089,0.507-0.169,0.763-0.239l-21.757-11.377c-4.979-2.603-7.42-8.442-5.676-13.581
				c1.055-3.108,3.4-5.587,6.433-6.802c3.043-1.22,6.445-1.054,9.331,0.456l57.057,29.833l-5.391-22.065
				c-0.684-2.787-0.329-5.724,1.001-8.268c1.461-2.795,3.924-4.854,6.935-5.797c5.92-1.864,12.31,1.22,14.542,7.021l19.688,51.124
				c1.553,4.031,4.517,7.354,8.345,9.355l3.424,1.79c2.936,1.536,4.077,5.175,2.541,8.112l-23.977,45.857
				C269.005,222.848,266.907,224.023,264.739,224.023z M245.106,213.934c3.503,0,6.877,0.802,9.829,2.344l8.42,4.403
				c0.712,0.373,1.527,0.446,2.295,0.205c0.768-0.24,1.396-0.765,1.769-1.478l23.977-45.857c0.77-1.472,0.198-3.295-1.273-4.064
				l-3.424-1.79c-4.475-2.339-7.938-6.223-9.753-10.936l-19.688-51.124c-1.667-4.327-6.429-6.628-10.845-5.238
				c-2.248,0.705-4.085,2.24-5.175,4.325c-0.991,1.896-1.256,4.085-0.746,6.164l6.179,25.29c0.14,0.572-0.068,1.174-0.532,1.537
				c-0.465,0.363-1.098,0.421-1.62,0.148l-59.996-31.37c-2.107-1.102-4.596-1.221-6.826-0.33c-2.251,0.902-3.923,2.671-4.708,4.981
				c-1.273,3.752,0.543,8.034,4.226,9.959l28.491,14.897c0.734,0.384,1.018,1.29,0.634,2.024c-0.383,0.733-1.291,1.019-2.024,0.634
				c-1.992-1.041-4.361-1.206-6.5-0.453c-2.164,0.763-3.859,2.337-4.774,4.434c-1.704,3.906,0.063,8.588,4.023,10.659l5.962,3.118
				l0,0c0.734,0.384,1.018,1.29,0.634,2.024c-0.384,0.733-1.29,1.019-2.024,0.634l-0.01-0.005c-1.989-1.036-4.354-1.2-6.489-0.447
				c-2.165,0.763-3.86,2.337-4.775,4.434c-1.704,3.906,0.063,8.588,4.023,10.659l5.951,3.111c0.004,0.002,0.007,0.004,0.011,0.006
				l0,0c0.734,0.384,1.018,1.29,0.634,2.024c-0.384,0.733-1.29,1.018-2.024,0.634l-0.011-0.005
				c-2.106-1.098-4.588-1.217-6.816-0.324c-2.251,0.901-3.923,2.67-4.706,4.981l0,0c-1.273,3.752,0.543,8.033,4.226,9.959
				l28.002,14.642c7.433,3.886,15.79,5.691,24.161,5.227C244.246,213.945,244.677,213.934,245.106,213.934z M186.005,183.66h0.01
				H186.005z"/>
			<path style="fill:#407BFF;" d="M207.128,183.57c-0.234,0-0.472-0.055-0.693-0.171l-7.476-3.909
				c-0.734-0.384-1.018-1.29-0.634-2.024c0.383-0.734,1.29-1.02,2.024-0.634l7.476,3.909c0.734,0.384,1.018,1.29,0.634,2.024
				C208.191,183.277,207.668,183.57,207.128,183.57z"/>
			<path style="fill:#407BFF;" d="M209.806,163.154c-0.234,0-0.472-0.055-0.693-0.171l-7.476-3.909
				c-0.734-0.384-1.018-1.29-0.634-2.024c0.383-0.734,1.289-1.019,2.024-0.634l7.476,3.909c0.734,0.384,1.018,1.29,0.634,2.024
				C210.869,162.861,210.347,163.154,209.806,163.154z"/>
			<path style="fill:#407BFF;" d="M212.484,142.738c-0.234,0-0.472-0.055-0.693-0.171l-7.476-3.909
				c-0.734-0.384-1.018-1.29-0.634-2.024c0.383-0.734,1.289-1.02,2.024-0.634l7.476,3.909c0.734,0.384,1.018,1.29,0.634,2.024
				C213.547,142.445,213.025,142.738,212.484,142.738z"/>
		</g>
		<path style="opacity:0.3;" d="M264.739,224.023c-0.938,0-1.888-0.22-2.775-0.684l-8.42-4.403c-2.832-1.48-6.137-2.16-9.563-1.971
			c-8.907,0.5-17.807-1.428-25.717-5.564l-28.003-14.642c-4.98-2.604-7.42-8.443-5.676-13.581c1.054-3.108,3.399-5.587,6.432-6.802
			c0.411-0.165,0.828-0.304,1.249-0.418c-4.831-2.975-6.875-9.008-4.653-14.102c1.251-2.868,3.569-5.022,6.527-6.064
			c0.266-0.094,0.535-0.177,0.805-0.25c-4.831-2.976-6.876-9.009-4.654-14.103c1.251-2.868,3.569-5.021,6.527-6.063
			c0.252-0.089,0.507-0.169,0.763-0.239l-21.757-11.377c-4.979-2.603-7.42-8.442-5.676-13.581c1.055-3.108,3.4-5.587,6.433-6.802
			c3.043-1.22,6.445-1.054,9.331,0.456l57.057,29.833l-5.391-22.065c-0.684-2.787-0.329-5.724,1.001-8.268
			c1.461-2.795,3.924-4.854,6.935-5.797c5.92-1.864,12.31,1.22,14.542,7.021l19.688,51.124c1.553,4.031,4.517,7.354,8.345,9.355
			l3.424,1.79c2.936,1.536,4.077,5.175,2.541,8.112l-23.977,45.857C269.005,222.848,266.907,224.023,264.739,224.023z
			 M245.106,213.934c3.503,0,6.877,0.802,9.829,2.344l8.42,4.403c0.712,0.373,1.527,0.446,2.295,0.205
			c0.768-0.24,1.396-0.765,1.769-1.478l23.977-45.857c0.77-1.472,0.198-3.295-1.273-4.064l-3.424-1.79
			c-4.475-2.339-7.938-6.223-9.753-10.936l-19.688-51.124c-1.667-4.327-6.429-6.628-10.845-5.238
			c-2.248,0.705-4.085,2.24-5.175,4.325c-0.991,1.896-1.256,4.085-0.746,6.164l6.179,25.29c0.14,0.572-0.068,1.174-0.532,1.537
			c-0.465,0.363-1.098,0.421-1.62,0.148l-59.996-31.37c-2.107-1.102-4.596-1.221-6.826-0.33c-2.251,0.902-3.923,2.671-4.708,4.981
			c-1.273,3.752,0.543,8.034,4.226,9.959l28.491,14.897c0.734,0.384,1.018,1.29,0.634,2.024c-0.383,0.733-1.291,1.019-2.024,0.634
			c-1.992-1.041-4.361-1.206-6.5-0.453c-2.164,0.763-3.859,2.337-4.774,4.434c-1.704,3.906,0.063,8.588,4.023,10.659l5.962,3.118
			l0,0c0.734,0.384,1.018,1.29,0.634,2.024c-0.384,0.733-1.29,1.019-2.024,0.634l-0.01-0.005c-1.989-1.036-4.354-1.2-6.489-0.447
			c-2.165,0.763-3.86,2.337-4.775,4.434c-1.704,3.906,0.063,8.588,4.023,10.659l5.951,3.111c0.004,0.002,0.007,0.004,0.011,0.006
			l0,0c0.734,0.384,1.018,1.29,0.634,2.024c-0.384,0.733-1.29,1.018-2.024,0.634l-0.011-0.005c-2.106-1.098-4.588-1.217-6.816-0.324
			c-2.251,0.901-3.923,2.67-4.706,4.981l0,0c-1.273,3.752,0.543,8.033,4.226,9.959l28.002,14.642
			c7.433,3.886,15.79,5.691,24.161,5.227C244.246,213.945,244.677,213.934,245.106,213.934z M186.005,183.66h0.01H186.005z"/>
	</g>
</g>
</svg>
