<svg width="17" height="16" viewBox="0 0 17 16" fill="none" xmlns="http://www.w3.org/2000/svg">
<path d="M6.64112 3.45125C7.29663 1.81708 7.62438 1 8.18799 1C8.75159 1 9.07934 1.81708 9.73485 3.45125L9.76537 3.52735C10.1357 4.45057 10.3209 4.91218 10.6982 5.19275C11.0756 5.47333 11.571 5.51769 12.5618 5.60642L12.7409 5.62247C14.3624 5.76768 15.1731 5.84029 15.3466 6.35611C15.5201 6.87193 14.918 7.41972 13.7138 8.51529L13.3119 8.88094C12.7023 9.43554 12.3975 9.71283 12.2555 10.0763C12.229 10.1441 12.2069 10.2135 12.1895 10.2842C12.0961 10.6631 12.1854 11.0654 12.3639 11.8699L12.4194 12.1204C12.7475 13.599 12.9115 14.3383 12.6251 14.6572C12.5181 14.7763 12.379 14.8621 12.2245 14.9043C11.811 15.0171 11.2239 14.5387 10.0498 13.582C9.27885 12.9538 8.89336 12.6396 8.45077 12.569C8.27668 12.5412 8.09929 12.5412 7.9252 12.569C7.48261 12.6396 7.09712 12.9538 6.32615 13.582C5.15202 14.5387 4.56496 15.0171 4.15146 14.9043C3.99694 14.8621 3.85785 14.7763 3.75083 14.6572C3.46443 14.3383 3.62846 13.599 3.95652 12.1204L4.01209 11.8699C4.19059 11.0654 4.27985 10.6631 4.18647 10.2842C4.16905 10.2135 4.14702 10.1441 4.12052 10.0763C3.97846 9.71283 3.67366 9.43554 3.06407 8.88094L2.66217 8.51529C1.45797 7.41972 0.855869 6.87193 1.02935 6.35611C1.20283 5.84029 2.01359 5.76768 3.6351 5.62247L3.81421 5.60642C4.80498 5.51769 5.30036 5.47333 5.67773 5.19275C6.05511 4.91218 6.24027 4.45057 6.6106 3.52734L6.64112 3.45125Z" fill="#ECBA0B" stroke="#ECBA0B" stroke-width="1.46069"/>
</svg>
