<svg width="728" height="780" viewBox="0 0 728 780" fill="none" xmlns="http://www.w3.org/2000/svg">
<path fill-rule="evenodd" clip-rule="evenodd" d="M581.818 536.833H727.273V488.348H581.818V536.833ZM678.788 245.923H0V730.772C0 757.536 21.7212 779.257 48.4848 779.257H678.788C705.552 779.257 727.273 757.536 727.273 730.772V585.317H557.576C544.194 585.317 533.333 574.481 533.333 561.075V464.105C533.333 450.723 544.194 439.863 557.576 439.863H727.273V294.408C727.273 267.645 705.552 245.923 678.788 245.923ZM678.788 27.7417C678.788 14.3356 673.067 6.91716 660.606 1.99594C651.006 -1.81012 641.673 0.468955 630.303 3.49926L0 197.439H678.788V27.7417Z" fill="#4B5563"/>
</svg>
